<?xml version="1.0" encoding="utf-8"?>
<!-- Generator: Adobe Illustrator 22.0.1, SVG Export Plug-In . SVG Version: 6.00 Build 0)  -->
<svg version="1.1" id="Layer_1" xmlns="http://www.w3.org/2000/svg" xmlns:xlink="http://www.w3.org/1999/xlink" x="0px" y="0px"
	 width="91.5px" height="91.4px" viewBox="0 0 91.5 91.4" style="enable-background:new 0 0 91.5 91.4;" xml:space="preserve">
<style type="text/css">
	.st0{fill:#FFFFFF;}
</style>
<g>
	<path class="st0" d="M91.5,45.7c0,25.3-20.6,45.8-45.9,45.7C20.5,91.4-0.1,70.7,0,45.6C0.1,20.4,20.6-0.1,45.8,0
		S91.5,20.5,91.5,45.7z M45.8,87.9c23.3,0,42.2-19,42.2-42.2S69,3.5,45.8,3.5C22.4,3.6,3.5,22.5,3.5,45.8
		C3.5,69,22.6,87.9,45.8,87.9z"/>
	<path class="st0" d="M61.3,45.7c-8.7,5.8-17.2,11.6-25.9,17.5c0-11.7,0-23.2,0-34.9C44.1,34.1,52.6,39.8,61.3,45.7z"/>
</g>
</svg>
