<svg xmlns="http://www.w3.org/2000/svg" viewBox="0 0 278 123"><path d="M89.2 28.5h-.5L66.6 43.1V20.9L89.2 5.8h26.5V96H89.2V28.5zm87.1 54.1h-44.4V60.7c7.6-14.9 18.5-33.2 32.8-54.9h36.6v56.5h10.8v20.3h-10.8V96h-25V82.6zm-22.4-19.2H177V23.2h-.5c-9.8 15-17.3 28.1-22.6 39.4v.8z" fill="#0f548b" fill-opacity=".1"/><linearGradient id="A" gradientUnits="userSpaceOnUse" x1="-183.01" y1="62.18" x2="1117.01" y2="62.18"><stop offset="0" stop-color="#097a8e"/><stop offset="1" stop-color="#ac1f9f"/></linearGradient><path d="M101.6 45.4h-.4l-16.6 11V39.7l17-11.3h19.9V96h-19.9V45.4zM167 86h-33.3V69.5c5.7-11.2 13.9-24.9 24.6-41.2h27.5v42.4h8.1V86h-8.1v10H167V86zm-16.8-14.5h17.3V41.4h-.4c-7.3 11.2-13 21.1-17 29.6v.5z" fill="url(#A)"/><linearGradient id="B" gradientUnits="userSpaceOnUse" x1="-276.604" y1="122.022" x2="1136.489" y2="122.026"><stop offset="0" stop-color="#097a8e"/><stop offset="1" stop-color="#ac1f9f"/></linearGradient><path d="M15 121h248v2H15v-2z" fill="url(#B)"/></svg>