<svg xmlns="http://www.w3.org/2000/svg" viewBox="0 0 278 123"><path d="M15.4 34.1c0-9.2 3.4-16.7 10.1-22.3 6.7-5.7 15.6-8.5 26.8-8.5 10.8 0 19.5 2.5 25.9 7.6 6.3 5 9.4 11.6 9.4 19.9 0 8.4-5.1 17-15.2 26L51.1 75.5v.5h37.4v20H16.9V78.4l36.2-32.1c5.9-5.2 8.8-10.2 8.8-14.8 0-2.5-.9-4.6-2.8-6.2-2-1.7-4.6-2.5-7.9-2.5-3.5 0-6.3 1-8.4 3.1-2.2 2.1-3.3 4.8-3.3 8.1v.6H15.4v-.5zm121.8 64.4c-10.7 0-19.5-2.8-26.4-8.2-6.8-5.5-10.3-12.6-10.4-21.2h23.8c.5 2.8 2 5.1 4.4 6.8 2.5 1.8 5.4 2.6 8.7 2.6 3.8 0 6.8-1.2 9.1-3.6s3.4-5.4 3.4-9.2c0-4-1.2-7.1-3.4-9.6-2.3-2.4-5.3-3.6-9.1-3.6-5.4 0-9.5 2.2-12.3 6.6h-23.2l4-53.3H169v20h-42.7l-1.4 20h.5c3.6-7.3 10.2-11 19.9-11 8.5 0 15.6 2.9 21.1 8.6s8.3 12.9 8.3 21.8c0 10-3.4 18.1-10.3 24.2-6.8 6-15.9 9.1-27.2 9.1zm85.9 0c-12.2 0-21.9-4.2-29-12.8-7.2-8.5-10.8-20.2-10.8-35.1s3.6-26.5 10.8-35c7.1-8.3 16.7-12.4 28.9-12.4s21.9 4.1 28.9 12.4c7.2 8.4 10.8 20.1 10.8 34.9S259.1 77 252 85.6c-7 8.6-16.7 12.9-28.9 12.9zm0-20.4c3.8 0 6.9-2.2 9.1-6.8 2.4-4.8 3.6-11.7 3.6-20.7s-1.2-15.8-3.6-20.5c-2.2-4.4-5.2-6.6-9.1-6.6s-6.9 2.2-9.1 6.6c-2.4 4.7-3.6 11.5-3.6 20.5s1.2 15.9 3.6 20.7c2.2 4.6 5.3 6.8 9.1 6.8z" fill="#8d25ab" fill-opacity=".1"/><linearGradient id="A" gradientUnits="userSpaceOnUse" x1="-765.385" y1="62.156" x2="534.635" y2="62.156"><stop offset="0" stop-color="#097a8e"/><stop offset="1" stop-color="#ac1f9f"/></linearGradient><path d="M54 32.9c-5 4.2-7.5 9.8-7.5 16.7v.4h18.1v-.4c0-2.5.8-4.5 2.5-6 1.6-1.6 3.7-2.3 6.3-2.3 2.5 0 4.5.6 6 1.9a5.88 5.88 0 0 1 2.1 4.6c0 3.4-2.2 7.1-6.6 11.1l-27.2 24V96h53.7V81H73.2v-.4l15.9-14.1c7.6-6.7 11.4-13.2 11.4-19.5 0-6.2-2.4-11.2-7.1-14.9-4.8-3.8-11.3-5.7-19.4-5.7-8.3.1-15 2.2-20 6.5zm64.1 58.8c5.2 4.1 11.8 6.2 19.8 6.2 8.5 0 15.3-2.3 20.4-6.9s7.7-10.6 7.7-18.1c0-6.6-2.1-12.1-6.2-16.3-4.2-4.3-9.4-6.4-15.9-6.4-7.3 0-12.3 2.8-14.9 8.2h-.4l1-15h32v-15h-47.3l-3 40h17.4c2.1-3.3 5.2-4.9 9.2-4.9 2.8 0 5.1.9 6.8 2.7s2.6 4.2 2.6 7.2c0 2.8-.9 5.1-2.6 6.9-1.8 1.8-4 2.7-6.8 2.7-2.5 0-4.7-.7-6.5-2s-2.9-3-3.3-5.1h-17.9c.1 6.4 2.7 11.7 7.9 15.8zm62.4-3.4c5.3 6.4 12.6 9.6 21.7 9.6 9.2 0 16.4-3.2 21.8-9.6 5.3-6.4 8-15.2 8-26.3 0-11.2-2.7-19.9-8.1-26.2-5.3-6.2-12.6-9.3-21.7-9.3s-16.4 3.1-21.7 9.3c-5.4 6.3-8.1 15.1-8.1 26.3 0 11 2.7 19.8 8.1 26.2zm28.6-10.8c-1.7 3.4-4 5.1-6.9 5.1s-5.1-1.7-6.8-5.1c-1.8-3.6-2.7-8.8-2.7-15.5s.9-11.8 2.7-15.4c1.7-3.3 3.9-4.9 6.8-4.9s5.2 1.6 6.9 4.9c1.8 3.5 2.7 8.7 2.7 15.4s-.9 11.9-2.7 15.5z" fill="url(#A)"/><linearGradient id="B" gradientUnits="userSpaceOnUse" x1="-858.979" y1="122.02" x2="554.114" y2="122.024"><stop offset="0" stop-color="#097a8e"/><stop offset="1" stop-color="#ac1f9f"/></linearGradient><path d="M15.6 121h248v2h-248v-2z" fill="url(#B)"/></svg>