<svg xmlns="http://www.w3.org/2000/svg" viewBox="0 0 278 123"><path d="M80.7 82.6H36.3V60.7C43.9 45.8 54.8 27.5 69 5.8h36.6v56.5h10.8v20.3h-10.8V96h-25V82.6zM58.3 63.4h23.1V23.2h-.5c-9.8 15-17.3 28.1-22.6 39.4v.8zm81.6 33.5c-3.6 0-6.6-1.3-9.2-3.8-2.5-2.5-3.8-5.6-3.8-9.2s1.3-6.6 3.8-9.2c2.5-2.5 5.6-3.8 9.2-3.8s6.6 1.3 9.2 3.8c2.5 2.5 3.8 5.6 3.8 9.2s-1.3 6.6-3.8 9.2c-2.6 2.5-5.6 3.8-9.2 3.8zm62.2 1.6c-9.6 0-17.8-2.5-24.7-7.5s-10.9-11.4-12-19.1h25.8c.6 2 1.9 3.5 4.1 4.8 2.1 1.2 4.5 1.8 7.2 1.8 5.1 0 9-2.4 11.8-7.2 2.9-5 4-11.7 3.3-20.2h-.5c-1.4 4.5-4 8-7.9 10.6-4.1 2.8-9.1 4.1-15 4.1-8.5 0-15.5-2.8-21.2-8.4-5.8-5.7-8.7-12.8-8.7-21.2 0-9.6 3.5-17.5 10.6-23.6s16.1-9.2 26.9-9.2c13.2 0 23.3 4.2 30.3 12.8 7.2 8.6 10.8 20.2 10.8 34.8 0 14.7-3.6 26.3-10.9 34.8-7.3 8.4-17.3 12.7-29.9 12.7zm.1-51.3c3.4 0 6.3-1.1 8.6-3.4 2.4-2.3 3.6-5.1 3.6-8.5s-1.2-6.3-3.6-8.6c-2.3-2.3-5.2-3.5-8.6-3.5-3.5 0-6.4 1.2-8.8 3.5s-3.6 5.2-3.6 8.6 1.2 6.2 3.6 8.5 5.3 3.4 8.8 3.4z" fill="#3c2b95" fill-opacity=".1"/><linearGradient id="A" gradientUnits="userSpaceOnUse" x1="-474.01" y1="62.18" x2="826.01" y2="62.18"><stop offset="0" stop-color="#097a8e"/><stop offset="1" stop-color="#ac1f9f"/></linearGradient><path d="M61.2 86h33.3v10h18.8V86h8.1V70.7h-8.1V28.4H85.8C75.1 44.6 67 58.3 61.2 69.5V86zm33.9-14.5H77.7V71c4-8.5 9.7-18.4 17-29.6h.4v30.1zM132 93.8c1.9 1.9 4.2 2.9 6.9 2.9s5-1 6.9-2.9 2.9-4.2 2.9-6.9-1-5-2.9-6.9-4.2-2.9-6.9-2.9-5 1-6.9 2.9-2.9 4.2-2.9 6.9c.1 2.7 1 5 2.9 6.9zm35-1.6c5.2 3.8 11.3 5.6 18.5 5.6 9.5 0 17-3.2 22.5-9.6 5.4-6.4 8.2-15.1 8.2-26.1s-2.7-19.7-8.1-26.1c-5.3-6.4-12.9-9.6-22.7-9.6-8.2 0-14.9 2.3-20.2 6.9s-8 10.5-8 17.7c0 6.4 2.2 11.7 6.5 15.9s9.6 6.3 15.9 6.3c4.4 0 8.2-1 11.2-3.1 2.9-2 4.8-4.6 5.9-8h.4c.5 6.4-.3 11.4-2.5 15.2-2.1 3.6-5 5.4-8.8 5.4-2.1 0-3.9-.5-5.4-1.4-1.6-.9-2.6-2.1-3-3.6H158c.8 6 3.8 10.8 9 14.5zm25.1-35.3c-1.8 1.7-3.9 2.6-6.5 2.6s-4.8-.9-6.6-2.6-2.7-3.8-2.7-6.4c0-2.5.9-4.7 2.7-6.4 1.8-1.8 4-2.6 6.6-2.6s4.7.9 6.5 2.6 2.7 3.9 2.7 6.4-.9 4.6-2.7 6.4z" fill="url(#A)"/><linearGradient id="B" gradientUnits="userSpaceOnUse" x1="-567.604" y1="122.021" x2="845.489" y2="122.025"><stop offset="0" stop-color="#097a8e"/><stop offset="1" stop-color="#ac1f9f"/></linearGradient><path d="M263 121H15v2h248v-2z" fill="url(#B)"/></svg>