<svg xmlns="http://www.w3.org/2000/svg" viewBox="0 0 278 123"><path d="M138.9 97.5c-12.3 0-22.1-2.5-29.4-7.4S98.6 78.7 98.6 70.5c0-6.2 2.1-11.4 6.4-15.7 4.2-4.2 9.8-6.7 16.6-7.4V47c-5.7-1-10.3-3.4-13.9-7.2-3.7-3.8-5.5-8.4-5.5-13.6 0-7 3.4-12.7 10.2-17.2s15.7-6.8 26.6-6.8 19.7 2.2 26.6 6.8c6.8 4.5 10.2 10.2 10.2 17.2 0 5.1-1.8 9.6-5.4 13.5-3.6 3.8-8.2 6.2-13.8 7.2v.5c6.8.7 12.3 3.2 16.6 7.4 4.2 4.2 6.4 9.5 6.4 15.8 0 8-3.7 14.5-11.1 19.5-7.7 4.9-17.5 7.4-29.6 7.4zm0-17.6c3.7 0 6.7-1.1 9-3.2s3.4-4.8 3.4-8-1.1-5.9-3.4-8c-2.3-2.2-5.3-3.2-9-3.2s-6.7 1.1-9 3.2-3.4 4.8-3.4 8 1.1 5.9 3.4 8 5.3 3.2 9 3.2zm0-40.1c3 0 5.6-1 7.6-2.9s3-4.3 3-7.1-1-5.2-3-7.1-4.6-2.9-7.6-2.9-5.6 1-7.6 2.9-3 4.3-3 7.1 1 5.1 3 7.1 4.5 2.9 7.6 2.9z" fill="#097a8e" fill-opacity=".1"/><linearGradient id="A" gradientUnits="userSpaceOnUse" x1="108.99" y1="62.18" x2="1409.01" y2="62.18"><stop offset="0" stop-color="#097a8e"/><stop offset="1" stop-color="#ac1f9f"/></linearGradient><path d="M138.9 97.9c-9.2 0-16.6-1.8-22.1-5.5s-8.2-8.6-8.2-14.7c0-4.7 1.6-8.6 4.8-11.8s7.3-5 12.4-5.5V60c-4.2-.7-7.7-2.5-10.4-5.4-2.8-2.9-4.1-6.3-4.1-10.2 0-5.2 2.5-9.5 7.6-12.9s11.8-5.1 19.9-5.1c8.2 0 14.8 1.7 19.9 5.1s7.6 7.7 7.6 12.9c0 3.8-1.4 7.2-4.1 10.1s-6.2 4.7-10.4 5.4v.4c5.1.5 9.2 2.4 12.4 5.5 3.2 3.2 4.8 7.1 4.8 11.8 0 6-2.8 10.9-8.3 14.6-5.4 3.8-12.7 5.7-21.8 5.7zm0-13.2c2.8 0 5-.8 6.8-2.4 1.7-1.6 2.6-3.6 2.6-6s-.9-4.4-2.6-6c-1.8-1.6-4-2.4-6.8-2.4s-5 .8-6.8 2.4c-1.7 1.6-2.6 3.6-2.6 6s.9 4.4 2.6 6c1.8 1.5 4.1 2.4 6.8 2.4zm0-30.1c2.3 0 4.2-.7 5.7-2.2 1.5-1.4 2.2-3.2 2.2-5.3a7.32 7.32 0 0 0-2.2-5.3c-1.5-1.4-3.4-2.2-5.7-2.2s-4.2.7-5.7 2.2-2.2 3.2-2.2 5.4a7.32 7.32 0 0 0 2.2 5.3c1.4 1.4 3.4 2.1 5.7 2.1z" fill="url(#A)"/><linearGradient id="B" gradientUnits="userSpaceOnUse" x1="15.396" y1="122.023" x2="1428.489" y2="122.027"><stop offset="0" stop-color="#097a8e"/><stop offset="1" stop-color="#ac1f9f"/></linearGradient><path d="M15 121h248v2H15v-2z" fill="url(#B)"/></svg>