<svg xmlns="http://www.w3.org/2000/svg"
	xmlns:xlink="http://www.w3.org/1999/xlink"
	width="7px" height="4px" viewBox="0 0 7 4">
<g><path d="M 3.63 3.54C 3.63 3.54 6.55 0.72 6.55 0.72 6.61 0.65 6.61 0.54 6.55 0.48 6.48 0.41 6.37 0.41 6.3 0.48 6.3 0.48 3.51 3.18 3.51 3.18 3.51 3.18 0.71 0.48 0.71 0.48 0.65 0.41 0.53 0.41 0.47 0.48 0.43 0.51 0.41 0.55 0.41 0.59 0.41 0.64 0.43 0.68 0.47 0.71 0.47 0.71 3.38 3.53 3.38 3.53 3.45 3.6 3.56 3.6 3.63 3.54Z" fill="rgb(57,57,57)"/><path fillRule="evenodd" d="M 3.51 3.58C 3.55 3.58 3.6 3.57 3.63 3.54 3.63 3.54 6.55 0.72 6.55 0.72 6.61 0.65 6.61 0.54 6.55 0.48 6.51 0.44 6.47 0.43 6.42 0.43 6.38 0.43 6.33 0.44 6.3 0.48 6.3 0.48 3.51 3.18 3.51 3.18 3.51 3.18 0.71 0.48 0.71 0.48 0.68 0.44 0.63 0.43 0.59 0.43 0.55 0.43 0.5 0.44 0.47 0.48 0.43 0.51 0.41 0.55 0.41 0.59 0.41 0.64 0.43 0.68 0.47 0.71 0.47 0.71 3.38 3.53 3.38 3.53 3.42 3.57 3.46 3.58 3.51 3.58M 3.51 3.98C 3.51 3.98 3.51 3.98 3.51 3.98 3.35 3.98 3.21 3.93 3.1 3.82 3.1 3.82 0.19 1 0.19 1 0.08 0.9 0.01 0.75 0.01 0.59 0.01 0.44 0.08 0.29 0.19 0.18 0.3 0.08 0.44 0.03 0.59 0.03 0.74 0.03 0.88 0.08 0.99 0.19 0.99 0.19 3.51 2.62 3.51 2.62 3.51 2.62 6.02 0.19 6.02 0.19 6.13 0.08 6.27 0.03 6.42 0.03 6.57 0.03 6.71 0.08 6.82 0.19 6.93 0.29 7 0.44 7 0.59 7 0.75 6.94 0.89 6.82 1 6.82 1 3.91 3.82 3.91 3.82 3.8 3.93 3.66 3.98 3.51 3.98 3.51 3.98 3.51 3.98 3.51 3.98Z" fill="rgb(57,57,57)"/></g></svg>
