<svg xmlns="http://www.w3.org/2000/svg" width="80" height="80" fill="#474747" viewBox="0 0 80 80">
  <path d="M318.005,657.827H292.583A19.1,19.1,0,0,1,300.163,673c0,4.927-2.308,9.072-4.978,12.779-4.554,6.34-15.412,27.166-15.412,27.166,0.413,0.007.806,0.065,1.227,0.065A39.979,39.979,0,0,0,318.005,657.827Zm-37.09-3.983c8.75-.063,35.009-0.331,35.009-0.331a39.978,39.978,0,0,0-65.959-5.745l12.22,21.7A19.167,19.167,0,0,1,280.915,653.844Zm0.078,38.317c-8.36,0-14.731-5.646-18.012-12.843-3.3-7.243-15.774-27.668-15.774-27.668a39.907,39.907,0,0,0,27.838,60.863l12.434-21.558A18.839,18.839,0,0,1,280.993,692.161Zm0-32.1A12.937,12.937,0,1,1,268.058,673,12.936,12.936,0,0,1,280.993,660.065Z" transform="translate(-241 -633)"/>
</svg>
