<svg xmlns="http://www.w3.org/2000/svg" width="85" height="80" fill="#474747" viewBox="0 0 85 80">
  <path d="M475.155,659.421a0.7,0.7,0,0,0-.74.4l-0.951,2.11a73.339,73.339,0,0,0-1.916-10.163,19.566,19.566,0,0,0-4.325-7.542,0.7,0.7,0,0,0-1.174.644l0.739,3.336a27.707,27.707,0,0,0-7.462-5.835c-0.68-.332-1.371-0.636-1.976-0.9a33.369,33.369,0,0,0-50.4,7.019A6.188,6.188,0,0,1,405.078,646a26.106,26.106,0,0,1-1.291-4.478,0.7,0.7,0,0,0-1.168-.379c-5.118,4.917-4.61,12.584-4.419,14.322a37.7,37.7,0,0,0-4.238,5.6c-2.249,3.608-2.93,9.915-2.958,10.182a0.7,0.7,0,0,0,1.2.552l1.5-1.585c-0.164.607-.328,1.3-0.48,2.073a46.169,46.169,0,0,0-.468,8.75,0.7,0.7,0,0,0,1.326.27l0.881-1.87c0.65,4.552,3.145,14.237,12.712,23.16A39.928,39.928,0,0,0,434.71,713h0a40.561,40.561,0,0,0,26.759-10.156c9.111-7.865,12.5-19.1,13.747-27.132a63.007,63.007,0,0,0,.522-15.684A0.7,0.7,0,0,0,475.155,659.421Zm-15.555.253c0.009,0.012.954,1.253,1.161,4.431a48.675,48.675,0,0,1-.653,8.263l-1.856-2.158a0.7,0.7,0,0,0-1.219.54,34.456,34.456,0,0,1-.426,10.1,14.924,14.924,0,0,1-1.968,4.815l0.259-3.519a0.7,0.7,0,0,0-1.329-.339,20.251,20.251,0,0,1-12.061,9.732,13.046,13.046,0,0,1-3.853.572c-4.7,0-8.964-2.4-11.384-4.088q0.314,0.017.622,0.016c3.465,0,6.13-1.5,8.272-2.7,0.563-.316,1.094-0.614,1.6-0.867,3.078-1.551,4.509-1.681,5.609-1.681a1.155,1.155,0,0,0,1.169-.887c0.344-1.342-1.266-3.733-3.255-4.83a6.663,6.663,0,0,0-3.318-.788c-2.032,0-4.551.642-8.16,1.622a7.6,7.6,0,0,1-1.944.266,6.032,6.032,0,0,1-4.512-1.971,5.865,5.865,0,0,1-1.674-4.173c0.043-.622.286-1.257,1.762-1.257a9.378,9.378,0,0,1,2.781.546,0.694,0.694,0,0,0,.245.045h0.006a0.7,0.7,0,0,0,.7-0.7,0.805,0.805,0,0,0-.008-0.111l-0.195-6.115c0.7-.45,2.387-1.544,4.006-2.722,3.916-2.853,4.44-3.943,4.021-4.772-0.555-1.128-2.016-1.311-3.708-1.523a16.262,16.262,0,0,1-3.056-.588,8.148,8.148,0,0,1-3.735-2.912,4.2,4.2,0,0,1,.389-2.663,17,17,0,0,1,3.744-3.535,0.7,0.7,0,0,0-.333-1.261,14.435,14.435,0,0,0-5.551.912,20.961,20.961,0,0,0-5.656,2.994c-0.318-.062-0.863-0.148-1.766-0.242a27.7,27.7,0,0,1,20.834-9.414,27.409,27.409,0,0,1,16.167,5.2l-4.684.785a0.7,0.7,0,0,0-.093,1.355,40.636,40.636,0,0,1,10.955,5.591,13.109,13.109,0,0,1,2.816,3.127,28.128,28.128,0,0,1,1.815,5.134l-1.566-1.219a0.692,0.692,0,0,0-.919.062A0.7,0.7,0,0,0,459.6,659.674Z" transform="translate(-391 -633)"/>
</svg>
