<svg width="16" height="16" fill="none" xmlns="http://www.w3.org/2000/svg"><circle cx="8" cy="8" r="7.5" stroke="#393939"/><path d="M5.625 6.44792h.89062c.0573-.7448.5573-1.20834 1.34375-1.20834.77605 0 1.27605.47396 1.27605 1.11979 0 .5573-.23438.88542-.83855 1.25521-.71354.42709-1.04687.89584-1.04166 1.58334v.47916h.91146v-.33854c0-.54687.1875-.83854.84895-1.22917.66667-.40104 1.08858-.97916 1.08858-1.79687 0-1.07292-.89587-1.88542-2.20837-1.88542-1.46354 0-2.21354.90104-2.27083 2.02084zm2.08854 5.60418c.33854 0 .59375-.2604.59375-.5938 0-.3385-.25521-.5937-.59375-.5937-.33333 0-.59375.2552-.59375.5937 0 .3334.26042.5938.59375.5938z" fill="#393939"/></svg>