<svg xmlns="http://www.w3.org/2000/svg" width="80" height="80" fill="#474747" viewBox="0 0 80 80">
  <path d="M564.44,681v-0.17a33.039,33.039,0,0,1,0-15.65v-0.17c3.69-15.855,18.095-27.99,35.725-29.365a40,40,0,1,0,0,74.72C582.535,708.99,568.13,696.85,564.44,681Zm45.575-39.91a37.764,37.764,0,0,0-6.515-.585,36.742,36.742,0,0,0-18.7,5.075c0.4-.025.8-0.075,1.2-0.075,12.425,0,22.5,12.31,22.5,27.5s-10.075,27.5-22.5,27.5c-0.4,0-.8-0.05-1.2-0.075a36.728,36.728,0,0,0,18.7,5.075,37.764,37.764,0,0,0,6.515-.585A39.853,39.853,0,0,0,610.015,641.085Z" transform="translate(-546 -633)"/>
</svg>
