<svg viewBox="0 0 12 12" fill="none" xmlns="http://www.w3.org/2000/svg"><path d="M10.5373 5.43129c-.0311-.19502-.2144-.32788-.4094-.29676-.19506.03111-.32792.21444-.2968.40946.00033.00214.00107.00637.00107.00637.36413 2.14363-1.07841 4.17657-3.22205 4.54074-2.14364.3641-4.17659-1.07842-4.54074-3.22205-.36415-2.14364 1.07843-4.17658 3.22205-4.54072 1.31829-.22394 2.66013.23654 3.56311 1.22278l-1.58409.52779c-.1874.06235-.28874.26479-.22641.45218.06235.1874.26485.28889.45225.22656l2.14565-.7152c.14608-.04865.24462-.18536.2446-.33934V1.5576c0-.19749-.1601-.35759-.35759-.35759-.1975 0-.35759.1601-.35759.35759v1.30624c-1.84153-1.75151-4.75429-1.67854-6.50581.16299-1.751516 1.84152-1.67856 4.75426.16299 6.5058 1.84155 1.75157 4.75428 1.67857 6.50582-.16299.99874-1.05012 1.44454-2.50937 1.20294-3.93835z" fill="#EC4F3C" stroke="#EC4F3C" stroke-width="0.6"/></svg>