<svg width="32" height="32" fill="none" xmlns="http://www.w3.org/2000/svg"><path d="M28.3781 11.0343l-7.9344-1.1531-3.5469-7.1907a.9944.9944 0 00-.4531-.453c-.4938-.2438-1.0938-.0407-1.3406.453l-3.5469 7.1907-7.9344 1.1531a.998.998 0 00-.5719.2906 1.0017 1.0017 0 00.0188 1.4156l5.7406 5.5969-1.3562 7.9031a.9983.9983 0 001.45 1.0532l7.0968-3.7313 7.0969 3.7313a.993.993 0 00.6344.1c.5437-.0938.9094-.6094.8156-1.1532l-1.3562-7.9031 5.7406-5.5969a.998.998 0 00.2906-.5718c.0844-.5469-.2969-1.0532-.8437-1.1344zm-7.6032 6.5156l1.1282 6.5719-5.9032-3.1-5.9031 3.1031 1.1281-6.5719-4.775-4.6562 6.6-.9594 2.95-5.9781 2.95 5.9781 6.6.9594-4.775 4.6531z" fill="#474747" fill-opacity=".5"/></svg>