<svg width="1546" height="432" fill="none" xmlns="http://www.w3.org/2000/svg"><g filter="url(#filter0_d)" fill-rule="evenodd" clip-rule="evenodd"><path d="M72.4515 16h-16l-8 13.8564 8 13.8564h16l8-13.8564-8-13.8564zm58.9995 48h-16l-8 13.8564 8 13.8564h16l8-13.8564-8-13.8564zM88.1643 76h-48l-24 41.569 24 41.569h48l23.9997-41.569L88.1643 76zM455.452 388h16l8 13.856-8 13.857h-16l-8-13.857 8-13.856zM1019.31 25h32l16 27.7128-16 27.7128h-32l-16-27.7128 16-27.7128zm477.71 257h-64l-32 55.426 32 55.425h64l32-55.425-32-55.426z" fill="#C4C4C4"/><path d="M72.4515 16h-16l-8 13.8564 8 13.8564h16l8-13.8564-8-13.8564zm58.9995 48h-16l-8 13.8564 8 13.8564h16l8-13.8564-8-13.8564zM88.1643 76h-48l-24 41.569 24 41.569h48l23.9997-41.569L88.1643 76zM455.452 388h16l8 13.856-8 13.857h-16l-8-13.857 8-13.856zM1019.31 25h32l16 27.7128-16 27.7128h-32l-16-27.7128 16-27.7128zm477.71 257h-64l-32 55.426 32 55.425h64l32-55.425-32-55.426z" fill="url(#paint0_linear)"/><path d="M72.4515 16h-16l-8 13.8564 8 13.8564h16l8-13.8564-8-13.8564zm58.9995 48h-16l-8 13.8564 8 13.8564h16l8-13.8564-8-13.8564zM88.1643 76h-48l-24 41.569 24 41.569h48l23.9997-41.569L88.1643 76zM455.452 388h16l8 13.856-8 13.857h-16l-8-13.857 8-13.856zM1019.31 25h32l16 27.7128-16 27.7128h-32l-16-27.7128 16-27.7128zm477.71 257h-64l-32 55.426 32 55.425h64l32-55.425-32-55.426z" fill="url(#paint1_linear)"/></g><defs><linearGradient id="paint0_linear" x1="1377.6" y1="314" x2="1534.6" y2="279.535" gradientUnits="userSpaceOnUse"><stop stop-color="#0F548B"/><stop offset="1" stop-color="#383185"/></linearGradient><linearGradient id="paint1_linear" x1="1528.59" y1="218.5" x2="1189.86" y2="841.709" gradientUnits="userSpaceOnUse"><stop stop-color="#7923AE"/><stop offset="1" stop-color="#C86DD7"/></linearGradient><filter id="filter0_d" x=".164307" y="0" width="1544.86" height="431.713" filterUnits="userSpaceOnUse" color-interpolation-filters="sRGB"><feFlood flood-opacity="0" result="BackgroundImageFix"/><feColorMatrix in="SourceAlpha" values="0 0 0 0 0 0 0 0 0 0 0 0 0 0 0 0 0 0 127 0"/><feOffset/><feGaussianBlur stdDeviation="8"/><feColorMatrix values="0 0 0 0 0.47451 0 0 0 0 0.137255 0 0 0 0 0.682353 0 0 0 0.5 0"/><feBlend in2="BackgroundImageFix" result="effect1_dropShadow"/><feBlend in="SourceGraphic" in2="effect1_dropShadow" result="shape"/></filter></defs></svg>
