<svg xmlns="http://www.w3.org/2000/svg" viewBox="0 0 412.1 100.7">
  <path fill="#222" d="M87.7 14.4C77.9 4.8 64.2 0 46.7 0H0v100.7h46.4c17.1 0 30.7-4.8 40.8-14.5a47.6 47.6 0 0 0 15.1-35.8 47.9 47.9 0 0 0-14.6-36zM49 81.3a31.5 31.5 0 1 1 .1-63 31.5 31.5 0 0 1-.1 63zM143.5 35h11.7c9.7 0 15.6 6 15.6 15.3s-5.9 15.3-15.6 15.3h-11.7V35zm11.3 23.7c5.1 0 8-3.2 8-8.4s-2.9-8.4-8-8.4h-3.3v16.8h3.3zM197.7 35v6.9h-14.2v4.8h13v6.7h-13v5.3h14.2v6.9h-22.2V35h22.2zM211 55.5v10.1h-8V35h13.9c6.7 0 11.3 3.7 11.3 10.4 0 4.6-2.4 7.8-6.2 9.2l7.3 11h-9l-6.5-10.1H211zm0-6.4h5c2.9 0 4.2-1.4 4.2-3.7 0-2.2-1.3-3.7-4.2-3.7h-5v7.4zM247.2 65.6l-6.5-18.2v18.2h-7.6V35h9.9l6.8 19.1 6.8-19.1h9.8v30.7h-7.6V47.4l-6.4 18.2h-5.2zM279.1 56.6c.7 2.1 2.5 3.1 5 3.1s4.2-1 4.2-2.9c0-1.4-1-2.1-2.9-2.5l-6-1.2c-4.5-1-8-3.3-8-8.5 0-6 5-9.9 11.9-9.9 7.6 0 11.9 4.1 12.7 9.4h-7.9c-.7-1.7-2.1-3-4.7-3-2.3 0-3.9 1-3.9 2.7 0 1.3 1 2.1 2.6 2.4l6.1 1.4c5.3 1.2 8.2 4.1 8.2 8.8 0 6.3-5.3 9.9-12.1 9.9-7.4 0-12.5-3.5-13.6-9.6h8.4zM298 35h27.2v6.9h-9.6v23.8h-8.1V41.9H298V35zM341.2 66.1c-8.9 0-15.1-6.7-15.1-15.8 0-9.2 6.2-15.8 15.1-15.8 9 0 15.2 6.6 15.2 15.8 0 9.2-6.2 15.8-15.2 15.8zm0-24.6c-4.2 0-6.9 3.5-6.9 8.8s2.7 8.8 6.9 8.8 7-3.5 7-8.8-2.8-8.8-7-8.8zM367.8 55.5v10.1h-8V35h13.9c6.7 0 11.3 3.7 11.3 10.4 0 4.6-2.4 7.8-6.2 9.2l7.3 11h-9l-6.5-10.1h-2.8zm0-6.4h5c2.9 0 4.2-1.4 4.2-3.7 0-2.2-1.3-3.7-4.2-3.7h-5v7.4zM412.1 35v6.9h-14.2v4.8h13v6.7h-13v5.3h14.2v6.9H390V35h22.1z"/>
</svg>
