<?xml version="1.0" encoding="utf-8"?>
<!-- Generator: Adobe Illustrator 21.0.0, SVG Export Plug-In . SVG Version: 6.00 Build 0)  -->
<svg version="1.1" id="Layer_1" xmlns="http://www.w3.org/2000/svg" xmlns:xlink="http://www.w3.org/1999/xlink" x="0px" y="0px"
	 viewBox="0 0 180.5 1005.9" style="enable-background:new 0 0 180.5 1005.9;" xml:space="preserve">
<style type="text/css">
	.st0{fill:#F1CA34;}
	.st1{fill:#FFF8F3;}
	.st2{fill:#CED8D9;}
	.st3{fill:#020202;}
	.st4{fill:#060606;}
	.st5{fill:#F8D6C5;}
	.st6{fill:#DFA483;}
	.st7{fill:#BD846C;}
	.st8{fill:#D6A189;}
	.st9{fill:#E7C5B3;}
	.st10{fill:#E6A687;}
	.st11{fill:#F58B24;}
	.st12{fill:#E15A26;}
	.st13{fill:#D9B9A9;}
	.st14{fill:#C48165;}
	.st15{fill:#D5712A;}
	.st16{fill:#C74C2A;}
	.st17{fill:#0C0C0C;}
	.st18{fill:#00ABAC;}
	.st19{fill:#FFFFFF;}
	.st20{clip-path:url(#XMLID_4_);}
	.st21{fill:#050505;}
	.st22{opacity:0.5;fill:#49261C;}
	.st23{fill:#603327;}
	.st24{fill:#854A3B;}
	.st25{fill:#F48120;}
	.st26{opacity:0.6;fill:#DFA483;}
	.st27{fill:#E7B08A;}
	.st28{fill:#FFF1EB;}
	.st29{opacity:0.8;}
	.st30{opacity:0.5;}
	.st31{fill-rule:evenodd;clip-rule:evenodd;}
	.st32{fill-rule:evenodd;clip-rule:evenodd;fill:#0A7FC2;}
	.st33{fill-rule:evenodd;clip-rule:evenodd;fill:#36AFCA;}
	.st34{fill-rule:evenodd;clip-rule:evenodd;fill:#3AC2D9;}
	.st35{fill-rule:evenodd;clip-rule:evenodd;fill:#026C96;}
	.st36{fill-rule:evenodd;clip-rule:evenodd;fill:#4DB259;}
	.st37{fill-rule:evenodd;clip-rule:evenodd;fill:#8EB03E;}
	.st38{fill-rule:evenodd;clip-rule:evenodd;fill:#338440;}
	.st39{fill-rule:evenodd;clip-rule:evenodd;fill:#B5CB3D;}
	.st40{fill-rule:evenodd;clip-rule:evenodd;fill:#00A1B3;}
	.st41{fill-rule:evenodd;clip-rule:evenodd;fill:#14B3D1;}
	.st42{fill-rule:evenodd;clip-rule:evenodd;fill:#A5CD39;}
	.st43{fill-rule:evenodd;clip-rule:evenodd;fill:#AFC63D;}
	.st44{fill-rule:evenodd;clip-rule:evenodd;fill:#3A9C5B;}
	.st45{fill-rule:evenodd;clip-rule:evenodd;fill:#F4F2AD;}
	.st46{fill-rule:evenodd;clip-rule:evenodd;fill:#C8E9F3;}
	.st47{fill-rule:evenodd;clip-rule:evenodd;fill:#56C7E1;}
	.st48{opacity:0.3;fill-rule:evenodd;clip-rule:evenodd;fill:#020202;}
	.st49{fill:none;stroke:#231F20;stroke-width:0.5507;stroke-miterlimit:10;}
	.st50{opacity:0.3;fill:#FEDA2F;}
	.st51{fill:none;stroke:#FFDA30;stroke-width:2;stroke-miterlimit:10;}
</style>
<g>
	
		<ellipse transform="matrix(0.9999 -1.342734e-02 1.342734e-02 0.9999 -19.9971 -11.5663)" class="st0" cx="-871.4" cy="1483.4" rx="47.2" ry="47.2"/>
	<g id="XMLID_594_">
		<g id="XMLID_595_">
			<g id="XMLID_742_">
				<path id="XMLID_743_" class="st1" d="M-895.8,1524.8c0,0,39.3,5.3,51-2.2c0,0,9.4,18.2,17.9,21c0,0-27.8-4.5-50.6-1l-34.5,3.7
					C-912,1546.2-898.8,1540-895.8,1524.8z"/>
			</g>
			<g id="XMLID_740_">
				<path id="XMLID_741_" class="st2" d="M-895.8,1524.4c0,0,4.2,7.8,5.8,11.4c0,0-10,6.7-15,8c0,0,9.1-5.1,10.1-8.7
					C-893.8,1531.5-895.8,1524.4-895.8,1524.4z"/>
			</g>
			<g id="XMLID_738_">
				<path id="XMLID_739_" class="st2" d="M-844.9,1522.5c0,0-0.7,3.6-5.2,11.2c0,0,17.7,10,23.1,9.5c0,0-18.2-7.7-19.4-10.7
					C-846.4,1532.6-844.6,1527.3-844.9,1522.5z"/>
			</g>
			<g id="XMLID_736_">
				<path id="XMLID_737_" class="st2" d="M-908.6,1545.5c0,0,59.3-6.7,79.8-2.7C-828.8,1542.8-854.6,1533.8-908.6,1545.5z"/>
			</g>
			<g id="XMLID_734_">
				<path id="XMLID_735_" class="st2" d="M-895.5,1524.8l7.7,9.7c0,0,1.2,3.1,5.4,2.6c4.2-0.5,8.9-0.6,8.9-0.6s3.9,1.6,5,0.5
					c1.1-1.1,0,0.3,4.3,0.3c4.3,0.1,8.9,0.7,10.2-1.1c1.3-1.8,1-1.6,2.6-3.3c1.5-1.7-1.1-3.1-1.1-3.1s-0.8-3.6,1.5-3.9
					c2.3-0.4,6.2-3.3,6.2-3.3s-7.5,4.4-21.2,4C-879.7,1526.2-895.5,1524.8-895.5,1524.8z"/>
			</g>
			<g id="XMLID_732_">
				<path id="XMLID_733_" class="st3" d="M-912,1546.7c14.3-2,28.6-3.4,43-4.2c7.6-0.4,15.2-0.7,22.9-0.5c6.4,0.2,12.9,0.5,19.1,2.1
					c0.5,0.1,0.7-0.6,0.2-0.8c-5.4-2.2-9.4-7.4-12.6-12.1c-1.9-2.8-3.6-5.7-5.1-8.7c-0.1-0.2-0.4-0.2-0.6-0.1
					c-3.6,2.1-7.9,2.8-12,3.2c-5.1,0.6-10.2,0.7-15.4,0.6c-7.6-0.1-15.2-0.7-22.7-1.6c-0.2,0-0.4-0.1-0.6-0.1
					c-0.2,0-0.5,0.1-0.5,0.3c-0.4,2.6-1.4,5.1-2.6,7.4c-3,5.9-7.8,10.6-13.5,13.9c-0.5,0.3,0,1,0.4,0.7c5.7-3.2,10.4-7.9,13.5-13.7
					c1.3-2.5,2.5-5.3,2.9-8c-0.2,0.1-0.3,0.2-0.5,0.3c5.9,0.8,11.8,1.2,17.8,1.5c5.2,0.2,10.3,0.3,15.5,0.1c4.6-0.2,9.2-0.7,13.6-2
					c1.5-0.4,3.1-1,4.5-1.9c-0.2,0-0.4-0.1-0.6-0.1c1.6,3.3,3.5,6.5,5.6,9.5c3.2,4.6,7.2,9.6,12.5,11.7c0.1-0.3,0.1-0.5,0.2-0.8
					c-9-2.2-18.7-2.3-27.9-2.1c-10.8,0.1-21.6,0.9-32.4,1.9c-8.3,0.8-16.6,1.7-24.8,2.9C-912.6,1545.9-912.6,1546.7-912,1546.7z"/>
			</g>
			<g id="XMLID_730_">
				<path id="XMLID_731_" class="st4" d="M-886.8,1533.9c0,0-14,9.2-25.2,12.4C-912,1546.2-901.3,1545.4-886.8,1533.9z"/>
			</g>
			<g id="XMLID_728_">
				<path id="XMLID_729_" class="st4" d="M-852.8,1532c9.1,6.2,24.1,10.9,24.1,10.9C-845.6,1539.3-852.8,1532-852.8,1532z"/>
			</g>
			<g id="XMLID_726_">
				<path id="XMLID_727_" class="st4" d="M-893.7,1527.7c0,0,2.5,4.7,3.7,8.1"/>
			</g>
			<g id="XMLID_724_">
				<path id="XMLID_725_" class="st3" d="M-893.7,1528.4c1.4,2.6,2.7,5.3,3.7,8.1c-0.1-0.4,0.1-0.9,0-1.4c-1-2.8-2.3-5.5-3.7-8.1
					C-893.5,1527.3-893.9,1528-893.7,1528.4z"/>
			</g>
			<g id="XMLID_722_">
				<path id="XMLID_723_" class="st4" d="M-845.9,1526.2c0,0-2.3,4.8-4.4,7.8"/>
			</g>
			<g id="XMLID_720_">
				<path id="XMLID_721_" class="st3" d="M-845.9,1525.6c-1.3,2.7-2.7,5.3-4.4,7.8c-0.2,0.3,0.2,1.1,0,1.4c1.7-2.5,3.1-5.1,4.4-7.8
					C-845.7,1526.5-846.1,1525.9-845.9,1525.6z"/>
			</g>
			<g id="XMLID_718_">
				<path id="XMLID_719_" class="st5" d="M-877.5,1514.8c0,0-0.5,0.7-1.1,1.7c-1.1,1.6-2.6,4-2.9,4.8c-0.5,1.3-1.5,4.2,1.8,4.8
					c0,0-5.9,1.5-5.8,4c0.1,2.5,19.9,2.6,21.6-1c1.7-3.6,2.9-3.2,2.9-5.9c-0.1-2.7-0.2-5.4-0.1-6.3c0.1-1-1.9-3.3-1.9-3.3
					L-877.5,1514.8"/>
			</g>
			<g id="XMLID_716_">
				<path id="XMLID_717_" class="st5" d="M-891.3,1496.5c0,0-6.6-5.3-7.9-3.4c-1.3,1.8,0.2,8.4,4,10.3c3.8,1.9,7.5,2.8,7.5,2.8
					s0.8,6,5,7.4c4.2,1.3,15,3.6,20.4,0.6c5.4-3,8.1-3.2,8.9-11.9c0,0,9-1.4,10.7-7.1c1.7-5.7,1.6-6.4-0.3-6.7
					c-1.9-0.3-7.7,4.9-7.7,4.9s8.2-12.4,7.9-19.8c-0.3-7.4-7.9-19.1-25.5-19.6c-17.5-0.5-27.8,5.5-32,16.2
					C-904.5,1481-891.9,1494.6-891.3,1496.5"/>
			</g>
			<g id="XMLID_714_">
				<path id="XMLID_715_" class="st6" d="M-872.2,1510.6c0,0,2.9,1.3,5.4-0.5C-866.8,1510.1-868.3,1514.2-872.2,1510.6z"/>
			</g>
			<g id="XMLID_712_">
				<path id="XMLID_713_" class="st7" d="M-871.3,1524.8c0,0-1.1,2-3.6,2.1l3.2,0.2c0,0,0.1-0.5,1.9-0.4s2.8,0.1,2.8,0.1l0.4-0.3
					l-4.2-0.5l0.4-1L-871.3,1524.8z"/>
			</g>
			<g id="XMLID_710_">
				<path id="XMLID_711_" class="st8" d="M-874.9,1518.4c-1.4,1.4-1.8,4-1.8,4s0.1,0.8,0.6,0.8c0,0,0,0,0,0c0.5,0,1.3-0.2,1.3-0.2
					C-876.7,1522.5-874.9,1518.4-874.9,1518.4"/>
			</g>
			<g id="XMLID_708_">
				<path id="XMLID_709_" class="st9" d="M-889.8,1496c0,0-12.1-18.6-4.9-26.7c7.1-8.1,7.6-4.3,7.6-4.3s5.3,13.4,18.4,6.1
					c11.9-6.7,14.2-4.8,14.2-4.8s9.5,5.7,7.5,16.4c0,0,13.8-26.9-28.8-27.3C-875.9,1455.3-917.6,1461.5-889.8,1496z"/>
			</g>
			<g id="XMLID_706_">
				<path id="XMLID_707_" class="st6" d="M-887.2,1506.1c0,0,1.8,6,8.7,7.1c7,1.1,12.8,1.7,19.6-3.2c0,0,4.6-2.2,5.3-7.4
					c0,0,0.5,9.9-10.8,12.2c-11.3,2.3-16.6-0.6-16.6-0.6S-886.9,1513.4-887.2,1506.1"/>
			</g>
			<g id="XMLID_704_">
				<path id="XMLID_705_" class="st10" d="M-872.8,1503.4c0,0,0.1,1.4,2.9,1.3c2.8-0.1,1.8-1.9,1.8-1.9s2.5,0.6,1,1.8
					c-1.5,1.1-4.2,1.1-5.1,0.8C-873.2,1505-873.6,1504.3-872.8,1503.4z"/>
			</g>
			<g id="XMLID_702_">
				<path id="XMLID_703_" class="st11" d="M-865.1,1514.8c0,0,0.8,3.8-6,7.1l-5.3,1.4c0,0,4.1,2,6.1,1.3l-0.7,1.5
					c0,0,3.5-0.5,4.4,0.3l-1.7,1.5c0,0,2.5,1.9,3,0.9c0.6-1,0.6-1,0.6-1s3.9,4.2,5.7,4.3c1.8,0.1,3-0.2,2.9-1.6
					c-0.1-1.4-0.7-2-0.7-3.4c0-1.4,1.3-7.6,0.5-9.5c-0.5-1.2-1.6-2.6-2.5-3.6c-0.6-0.6-1.1-1-1.3-1.1
					C-860,1513-864.6,1514.4-865.1,1514.8"/>
			</g>
			<g id="XMLID_700_">
				<path id="XMLID_701_" class="st11" d="M-880.3,1526.5c0,0,7.8,1.2,9,0c0,0-1.7,2.3,0.9,2c2.5-0.2,2.2-0.7,2.2-0.7
					s1.4,1.4,2.2,1.2c0.8-0.3,1.4-1.2,1.4-1.2l6.6,1.1l1.5-2.4c0,0,4-0.5,4,3.6c-0.1,4.1-3.4,6-5.3,6c-1.9,0-10.7-1.5-10.7-1.5
					s-0.4,1.7-2,1.7c-1.6,0-3.4-0.7-3.4-0.7s-6.5,1.6-8.3,0.6c-1.8-1-3.4-3.1-3.1-5.6C-885.2,1528.1-882.9,1526.6-880.3,1526.5z"/>
			</g>
			<g id="XMLID_698_">
				<path id="XMLID_699_" class="st12" d="M-868,1527.9c0,0,9.9,7.6,11.9,3.3c0,0-2.5,1.6-4.1,0.3c-1.6-1.4-5.1-4.7-6.2-5
					L-868,1527.9z"/>
			</g>
			<g id="XMLID_696_">
				<path id="XMLID_697_" class="st12" d="M-864.9,1529.4c0,0-1,3.7-3.8,5.4c0,0,4.4-1.5,5.4-4.1S-864.9,1529.4-864.9,1529.4z"/>
			</g>
			<g id="XMLID_694_">
				<path id="XMLID_695_" class="st12" d="M-855.9,1530.2c0,0,0.8-1.8,1.7-0.8c0.9,1,0.2,5.6-3,6.4l-0.2,0.4c0,0,4.6-0.8,4.7-4.5
					s-0.3-5.7-3.9-4.9C-856.6,1526.8-856.7,1530-855.9,1530.2z"/>
			</g>
			<g id="XMLID_692_">
				<path id="XMLID_693_" class="st12" d="M-860.9,1517.1c0,0-0.4,5-2.3,5.9l-1.1,0.4c0,0,1.1,1.3,3.1,1.7c0,0-3.5,0-6.2-1.5
					C-867.4,1523.7-862,1522.6-860.9,1517.1z"/>
			</g>
			<g id="XMLID_690_">
				<path id="XMLID_691_" class="st12" d="M-884.3,1528.1c0,0,3-0.7,7-0.6c4,0.2,4.1,2,2.1,2.9l3.7-1.9c0,0-1-0.9-0.2-1.5
					c0.8-0.6,0.2-0.1,0.2-0.1s-1.7,0.3-3.8,0.2c-2.7-0.1-6.2-0.5-7.2,0.1"/>
			</g>
			<g id="XMLID_688_">
				<path id="XMLID_689_" class="st12" d="M-867.4,1521.9c0,0,4.5-1.8,5.7-7.7l-1.6,0.7C-863.3,1514.8-864.1,1519.9-867.4,1521.9"/>
			</g>
			<g id="XMLID_686_">
				<path id="XMLID_687_" class="st6" d="M-866.9,1499.5c0,0,2.2-5.8,7.4-0.9C-859.4,1498.7-862.2,1497.1-866.9,1499.5z"/>
			</g>
			<g id="XMLID_684_">
				<path id="XMLID_685_" class="st6" d="M-881.8,1500.5c0,0,2.2-5.8,7.4-0.9C-874.4,1499.7-877.2,1498.1-881.8,1500.5z"/>
			</g>
			<g id="XMLID_682_">
				<path id="XMLID_683_" class="st6" d="M-897.5,1495.3l1.2,1.9l1.5,4.2l1-3.1c0,0,5.1,4.4,6.1,6.6
					C-887.7,1504.9-891.2,1496.6-897.5,1495.3z"/>
			</g>
			<g id="XMLID_680_">
				<path id="XMLID_681_" class="st6" d="M-844,1491.2l-1.1,1.1c0,0,1.1,3.5-2.5,5c0,0,0.6-2.6,0-3c0,0-4.7,3.2-5.6,6.1
					C-853.2,1500.4-851.2,1492.6-844,1491.2z"/>
			</g>
			<g id="XMLID_676_">
				<path id="XMLID_677_" class="st13" d="M-877.8,1515.2l-0.3,0.6C-878,1515.6-877.9,1515.4-877.8,1515.2
					C-877.8,1515.2-877.8,1515.2-877.8,1515.2 M-859.5,1513.2c0.3,0.2,0.6,0.5,0.9,0.8c0.1,0.1,0.2,0.2,0.3,0.3
					c0.1-0.1,0.1-0.1,0.1-0.2C-858.6,1513.9-859.2,1513.4-859.5,1513.2"/>
			</g>
			<g id="XMLID_674_">
				<path id="XMLID_675_" class="st8" d="M-877.7,1515.2c-0.1,0.2-0.2,0.4-0.4,0.6l-0.2,0.4l3.4,0.4c1.6,0.5,3.3,0.6,5,0.6
					c1.6,0,3.1-0.2,4.6-0.5c0.2-0.6,0.3-1.1,0.3-1.4c-1.4,0.4-3,0.6-4.5,0.6c-1.7,0-3.2-0.1-4.3-0.3
					C-875.4,1515.6-876.7,1515.4-877.7,1515.2"/>
			</g>
			<g id="XMLID_670_">
				<path id="XMLID_671_" class="st14" d="M-877.6,1514.8l-0.2,0.4c0,0,0.1,0,0.1,0c1.1,0.2,2.4,0.4,4,0.4c-1-0.1-1.6-0.3-1.6-0.3
					L-877.6,1514.8 M-859.7,1512.9c0,0-0.1,0-0.2,0c0.1,0,0.1,0.1,0.2,0.1C-859.7,1513.1-859.5,1512.9-859.7,1512.9"/>
			</g>
			<g id="XMLID_668_">
				<path id="XMLID_669_" class="st15" d="M-859.9,1513c-0.4,0.1-1.3,0.5-3.4,1.6c-0.5,0.3-1.1,0.5-1.8,0.7c0,0.3-0.1,0.8-0.3,1.4
					c0.6-0.1,1.1-0.2,1.7-0.4c0.3-0.9,0.4-1.6,0.4-1.6l1.6-0.7l0,0c-0.1,0.7-0.3,1.3-0.5,1.8c2-0.6,3.5-1.3,3.9-1.6
					c-0.1-0.1-0.2-0.2-0.3-0.3c-0.3-0.4-0.7-0.6-0.9-0.8c-0.1-0.1-0.2-0.1-0.2-0.1v0C-859.8,1513.1-859.8,1513-859.9,1513"/>
			</g>
			<g id="XMLID_666_">
				<path id="XMLID_667_" class="st16" d="M-861.7,1514.1l-1.6,0.7c0,0-0.1,0.7-0.4,1.6c0.5-0.1,1-0.3,1.5-0.4
					C-862,1515.4-861.8,1514.8-861.7,1514.1"/>
			</g>
			<g id="XMLID_664_">
				<path id="XMLID_665_" class="st12" d="M-866.5,1529.6c0,0-6.9,6.2-14.9,5.3c0,0-4.1-0.3-4.1-4.3c0,0-2.4,6.9,8.8,5.6
					C-876.7,1536.2-868.9,1534.9-866.5,1529.6z"/>
			</g>
			<g id="XMLID_662_">
				<path id="XMLID_663_" class="st17" d="M-883,1498.5c0,0,6.7-3.4,8.9-1.5C-874.1,1497-879.1,1493.2-883,1498.5z"/>
			</g>
			<g id="XMLID_660_">
				<path id="XMLID_661_" class="st17" d="M-868.5,1496.4c0,0,2.3,1.5,4.2-1c1.8-2.4,4.4-2.2,4.8-1.5c0,0-0.5-2.4-3.2-1.6
					C-865.3,1493.1-866.9,1497-868.5,1496.4z"/>
			</g>
			<g id="XMLID_658_">
				<path id="XMLID_659_" d="M-881,1500.8c1.8-1.3,4.2-1.8,6.3-0.9c0.4,0.2,1.4-0.4,1.2-0.5c-2.8-1.2-6.1-0.4-8.5,1.4
					C-882.6,1501.1-881.3,1501-881,1500.8z"/>
			</g>
			<g id="XMLID_656_">
				<path id="XMLID_657_" d="M-878.2,1508.7c0-0.7,0.3-1.4,0.9-1.8c0.2-0.1-0.3-0.2-0.5-0.1c-0.6,0.4-1,1.1-1,1.9
					C-878.8,1508.9-878.2,1508.9-878.2,1508.7z"/>
			</g>
			<g id="XMLID_654_">
				<path id="XMLID_655_" d="M-861.5,1503.9c0.6,0.4,1,1,1,1.7c0,0.2,0.5,0.2,0.5,0c0-0.7-0.4-1.5-1-1.9
					C-861.2,1503.7-861.7,1503.8-861.5,1503.9z"/>
			</g>
			<g id="XMLID_652_">
				<path id="XMLID_653_" d="M-866.4,1499.8c1.8-1.3,4.2-1.8,6.3-0.9c0.4,0.2,1.4-0.4,1.2-0.5c-2.8-1.2-6.1-0.4-8.5,1.4
					C-867.9,1500.1-866.6,1500-866.4,1499.8z"/>
			</g>
			<g id="XMLID_650_">
				<path id="XMLID_651_" d="M-868.3,1503c0.6,0.1,1.9,0.5,1.2,1.3c-0.8,0.9-2.5,1-3.6,1c-0.6,0-2.4,0-2.2-1
					c0.1-0.3,0.3-0.6,0.5-0.8c0.2-0.2-0.1-0.6-0.4-0.4c-0.4,0.4-0.7,0.9-0.7,1.4c0,1.3,2.1,1.4,3,1.4c1.3,0,3.3-0.2,4-1.5
					c0.6-1.1-0.9-1.7-1.7-1.8C-868.5,1502.5-868.7,1503-868.3,1503z"/>
			</g>
			<g id="XMLID_648_">
				<path id="XMLID_649_" class="st3" d="M-878.2,1507.6c0,0,9.3,4.2,17.6-3C-860.6,1504.6-867.5,1512.4-878.2,1507.6z"/>
			</g>
			<g id="XMLID_646_">
				<path id="XMLID_647_" d="M-878.2,1507.6l-0.1,0.2c0,0,2.8,1.3,6.8,1.2c3.2,0,7.3-1,11.1-4.3l-0.2-0.2l-0.2-0.2l0,0
					c-0.1,0.1-1.1,1.2-2.9,2.3c-1.8,1.1-4.3,2.1-7.4,2.2c-2.1,0-4.4-0.4-6.9-1.5l-0.2,0.5L-878.2,1507.6l-0.1,0.2
					c2.6,1.2,5,1.6,7.1,1.6c3.3,0,6-1.2,7.9-2.4c1.8-1.1,2.9-2.3,2.9-2.3l-0.4-0.4c-3.7,3.2-7.6,4.1-10.7,4.2
					c-1.9,0-3.6-0.3-4.7-0.6c-0.6-0.2-1-0.3-1.4-0.4c-0.2-0.1-0.3-0.1-0.4-0.1c0,0-0.1,0-0.1,0l0,0l0,0l-0.2,0.5L-878.2,1507.6z"/>
			</g>
			<g id="XMLID_644_">
				<path id="XMLID_645_" d="M-871.8,1511c1.8,0.4,4,0.3,5.5-0.7c0.2-0.2-0.7-0.6-0.9-0.4c-1.3,0.9-3.2,1-4.7,0.7
					C-872.7,1510.4-872.3,1510.9-871.8,1511z"/>
			</g>
			<g id="XMLID_642_">
				<path id="XMLID_643_" d="M-872.6,1513.7c2.5,0.7,5.5,0,7.9-1.1c-0.5,0.2-1.1,0.2-1.6,0.4c-1.4,0.7-3.2,0.7-4.8,0.3
					C-871.5,1513.2-872.2,1513.9-872.6,1513.7z"/>
			</g>
			<g id="XMLID_640_">
				<path id="XMLID_641_" d="M-888.4,1500.3l0.4-0.3c0,0,0,0,0,0c-0.4-0.4-3.5-4.3-6.5-9.4c-1.5-2.5-3-5.3-4.1-8.1
					c-1.1-2.8-1.9-5.6-1.9-8.1c0-1.5,0.2-2.8,0.7-4c1.1-2.5,2.4-4.7,4-6.6c2.3-2.9,5.3-5.1,9.2-6.6c3.9-1.6,8.7-2.5,14.8-2.7
					c0.3,0,0.6,0,1,0c7.8-0.1,14.7,2.2,19.6,5.7c2.5,1.8,4.4,3.9,5.8,6.1c1.4,2.3,2.1,4.7,2.1,7.2c0,0,0,0.1,0,0.1
					c0,2.6-0.5,5-1.3,7.4c-1.2,3.5-3.1,6.7-4.8,9.4c-0.8,1.4-1.6,2.6-2.3,3.8c-0.6,1.2-1.1,2.2-1.3,3.2c-0.5,2.4-0.8,5.1-1.4,7.5
					c-0.3,1.2-0.6,2.3-0.9,3.2c-0.4,0.9-0.8,1.6-1.2,2.1c-0.5,0.5-1.3,1-2.2,1.6c-1.4,0.9-3.3,1.7-5.1,2.4c-1.8,0.7-3.6,1.1-5,1.1
					c-0.1,0-0.1,0-0.2,0c-1.9,0-5.8-0.2-9.3-1c-1.8-0.4-3.4-0.9-4.7-1.6c-0.6-0.4-1.2-0.8-1.6-1.2c-0.4-0.4-0.7-0.9-0.9-1.4
					c-0.7-2.2-1-3.4-1.2-4.7c-0.2-1.3-0.4-2.7-0.9-5l0-0.1l-0.1-0.1L-888.4,1500.3l-0.5,0.1c0.5,2.3,0.7,3.7,0.9,5
					c0.2,1.3,0.5,2.7,1.2,4.9c0.2,0.7,0.6,1.3,1.2,1.9c0.9,0.9,2.2,1.6,3.6,2.2c2.2,0.8,4.7,1.3,7,1.6c2.3,0.3,4.5,0.4,5.8,0.4
					c0.1,0,0.1,0,0.2,0c1.1,0,2.3-0.2,3.5-0.6c1.9-0.5,3.8-1.3,5.5-2.2c0.9-0.4,1.6-0.9,2.3-1.3c0.7-0.4,1.3-0.9,1.7-1.3
					c0.6-0.6,1.1-1.5,1.5-2.5c0.6-1.5,1-3.4,1.3-5.3c0.3-1.9,0.6-3.9,1-5.6c0.1-0.5,0.3-1.1,0.7-1.8c0.6-1.2,1.4-2.6,2.4-4.2
					c1.4-2.3,3.1-5.1,4.5-8.1c1.3-3,2.3-6.4,2.3-10c0,0,0-0.1,0-0.1c0-2.7-0.8-5.3-2.3-7.7c-2.2-3.6-5.7-6.7-10.3-8.9
					c-4.5-2.2-10-3.5-16-3.4c-0.3,0-0.7,0-1,0c-8.2,0.3-14.3,1.9-18.9,4.7c-2.3,1.4-4.2,3.1-5.9,5.1c-1.6,2-3,4.3-4.1,6.8
					c-0.6,1.4-0.9,2.9-0.8,4.5c0,2.8,0.9,5.8,2.1,8.7c1.8,4.4,4.5,8.8,6.7,12.1c2.2,3.3,4,5.4,4,5.4L-888.4,1500.3l-0.5,0.1
					L-888.4,1500.3z"/>
			</g>
			<g id="XMLID_638_">
				<path id="XMLID_639_" d="M-850.9,1494.4c1.2-1.1,2.4-2.4,3.7-3.5c0.6-0.5,1.3-1,2-1.3c0.7-0.3,1.4-0.6,2.2-0.6l0,0
					c0.1,0,0.1,0,0.2,0.1c0.1,0.1,0.3,0.3,0.4,0.5c0.1,0.2,0.2,0.5,0.3,0.7c0.1,0.3,0.1,0.5,0.1,0.8c0,0.4-0.1,0.9-0.2,1.3
					c-0.4,1.5-1.2,3-2.1,4.4c-1,1.5-2.4,2.6-4,3.4c-1.6,0.8-3.4,1.3-5.2,1.5l0.1,1.1c1.9-0.2,3.8-0.8,5.5-1.6
					c1.7-0.9,3.3-2.1,4.4-3.7c1-1.4,1.8-3,2.3-4.7c0.1-0.5,0.2-1,0.2-1.6c0-0.3,0-0.7-0.1-1c-0.1-0.4-0.3-0.9-0.5-1.3
					c-0.1-0.2-0.3-0.4-0.5-0.6c-0.2-0.2-0.5-0.3-0.8-0.3c0,0-0.1,0-0.1,0c-0.9,0.1-1.8,0.4-2.6,0.7c-1.2,0.6-2.2,1.4-3.2,2.3
					c-1,0.9-1.8,1.8-2.7,2.6L-850.9,1494.4z"/>
			</g>
			<g id="XMLID_636_">
				<path id="XMLID_637_" d="M-844,1490.6c-0.1,0-1.4,0.1-3.2,1.2c-1.8,1.1-4.2,3.2-6.2,7l0.9,0.5c2-3.7,4.2-5.6,5.9-6.6
					c0.8-0.5,1.5-0.8,2-0.9c0.2-0.1,0.4-0.1,0.6-0.1c0.1,0,0.1,0,0.1,0l0,0l0,0l0-0.2l0,0.2l0,0l0-0.2l0,0.2L-844,1490.6z"/>
			</g>
			<g id="XMLID_634_">
				<path id="XMLID_635_" d="M-889.8,1497.6c-1.2-1-2.6-2.3-4-3.4c-0.7-0.5-1.5-1-2.2-1.4c-0.8-0.4-1.6-0.6-2.4-0.7c0,0-0.1,0-0.1,0
					c-0.3,0-0.6,0.1-0.8,0.3c-0.3,0.3-0.5,0.6-0.7,0.9c-0.2,0.3-0.3,0.7-0.3,1l0,0c-0.1,0.3-0.1,0.7-0.1,1c0,0.5,0.1,1.1,0.2,1.6
					c0.5,1.7,1.4,3.3,2.4,4.7c1.2,1.6,2.8,2.8,4.5,3.6c1.8,0.8,3.7,1.3,5.5,1.5l0.1-1.1c-1.8-0.2-3.6-0.6-5.2-1.4
					c-1.6-0.8-3.1-1.8-4.1-3.3c-1-1.3-1.8-2.8-2.2-4.3c-0.1-0.4-0.2-0.9-0.2-1.3c0-0.3,0-0.5,0.1-0.8l0,0c0.1-0.3,0.2-0.7,0.4-1
					c0.1-0.1,0.2-0.2,0.2-0.3c0.1-0.1,0.1-0.1,0.2-0.1l0,0c0.6,0,1.3,0.2,2,0.6c1,0.5,2.1,1.3,3.1,2.1c1,0.9,2,1.8,2.9,2.5
					L-889.8,1497.6z"/>
			</g>
			<g id="XMLID_632_">
				<path id="XMLID_633_" d="M-897.6,1495.9l0-0.2L-897.6,1495.9L-897.6,1495.9l0-0.2L-897.6,1495.9c0,0,1.2,0.1,2.9,1.1
					c1.7,1,3.9,2.8,6,6.4l0.9-0.5c-2.2-3.8-4.6-5.8-6.4-6.8c-1.9-1-3.2-1.1-3.2-1.1L-897.6,1495.9z"/>
			</g>
			<g id="XMLID_630_">
				<path id="XMLID_631_" d="M-847.1,1497.7c0,0,0.4-0.4,0.7-1.1c0.3-0.7,0.7-1.6,0.7-2.9c0-0.5-0.1-1-0.2-1.5l-1.1,0.3
					c0.1,0.5,0.2,0.9,0.2,1.3c0,1-0.3,1.8-0.5,2.4c-0.1,0.3-0.3,0.5-0.4,0.6c-0.1,0.1-0.1,0.1-0.1,0.1l0,0l0,0l0.1,0.1l-0.1-0.1l0,0
					l0.1,0.1l-0.1-0.1L-847.1,1497.7z"/>
			</g>
			<g id="XMLID_628_">
				<path id="XMLID_629_" d="M-895.5,1496.3c0,0-0.4,0.9-0.4,2.1c0,1,0.3,2.2,1.1,3.4l0.9-0.6c-0.7-1.1-0.9-2.1-0.9-2.9
					c0-0.5,0.1-0.9,0.1-1.2c0-0.1,0.1-0.3,0.1-0.3c0,0,0-0.1,0-0.1l0,0l0,0l-0.3-0.1l0.3,0.1l0,0l-0.3-0.1l0.3,0.1L-895.5,1496.3z"
					/>
			</g>
			<g id="XMLID_626_">
				<path id="XMLID_627_" d="M-861.5,1517.1c-0.7,2.5-2.7,6.3-5.7,6.3c-0.3,0-0.5,0.2-0.8,0.2c3.8,0,6.3-3.3,7.3-6.7
					C-860.8,1517-861.5,1516.9-861.5,1517.1z"/>
			</g>
			<g id="XMLID_624_">
				<path id="XMLID_625_" d="M-861,1525c-0.9-0.1-1.7-0.2-2.5-0.4c-0.9-0.2-1.8-0.5-2.6-0.8c-0.5-0.2-1-0.5-1.5-0.5
					c-1.8-0.1-3.2,1.2-3.7,3c0,0.2,0.4,0.1,0.4,0.1c1.4-0.4,2.9-0.1,4.2,0.5c2,0.8,3.3,2.9,5,4.2c2,1.5,5.6,2.8,6.2-0.7
					c0-0.2-0.7-0.1-0.8,0.1c-0.8,4.9-6.9-1.9-8.4-3.2c-1.7-1.4-4.2-1.7-6.3-1.2c0.1,0,0.3,0,0.4,0.1c0.2-0.8,0.6-1.4,1.1-2
					c1.1-1.1,3,0.2,4.2,0.6c1.2,0.4,2.5,0.6,3.8,0.7C-861.3,1525.4-860.6,1525-861,1525z"/>
			</g>
			<g id="XMLID_622_">
				<path id="XMLID_623_" d="M-860.9,1513.1c2.4,0.7,4.1,2.9,4.4,5.3c0.2,1.3-0.1,2.6-0.2,3.8c-0.1,1.3-0.3,2.5-0.3,3.8
					c-0.1,1.5-0.2,3.4,0.6,4.6c0.1,0.1,0.7-0.3,0.8-0.2c-0.8-1.2-0.7-2.9-0.7-4.3c0.1-2.6,0.8-5.4,0.6-8c-0.2-2.4-2.1-4.6-4.4-5.3
					C-860.3,1512.8-860.6,1513.1-860.9,1513.1z"/>
			</g>
			<g id="XMLID_620_">
				<path id="XMLID_621_" d="M-857.7,1525.2c0,0.8,0.1,1.6,0.2,2.3c0.1,1,0.2,2.4,1,3.1c-0.2-0.2,0-1.8,0-2c0-0.3,0.2-1.8,0-2
					c-0.7-0.7-0.8-2-0.9-2.9c-0.1-0.8-0.2-1.6-0.2-2.4C-857.7,1522.2-857.8,1524-857.7,1525.2z"/>
			</g>
			<g id="XMLID_618_">
				<path id="XMLID_619_" d="M-864.9,1514.8c-1,5-6.8,7.5-11.2,8.3c-0.4,0.1-0.6,0.5-0.1,0.4c4.7-0.8,11.1-3.4,12.1-8.8
					C-864.1,1514.4-864.9,1514.6-864.9,1514.8z"/>
			</g>
			<g id="XMLID_616_">
				<path id="XMLID_617_" d="M-867,1521.8c2.4-1.5,3.6-4.6,4.1-7.3c0,0.1-0.8,0.1-0.8,0.2c-0.5,2.7-1.8,5.7-4.1,7.3
					C-867.6,1521.8-867.2,1521.9-867,1521.8z"/>
			</g>
			<g id="XMLID_614_">
				<path id="XMLID_615_" d="M-875.3,1518.4c-1,1.3-1.9,3-1.9,4.7c0,0.1,0.8,0,0.8-0.2c0-1.6,0.9-3.2,1.8-4.5
					C-874.4,1518.1-875.2,1518.2-875.3,1518.4z"/>
			</g>
			<g id="XMLID_612_">
				<path id="XMLID_613_" d="M-878.4,1521.4c-0.1,0.5,0.3,1.1,0.7,1.4c1.7,1.6,4.6,1.9,6.8,2.2c0.2,0,0.5-0.3,0.8-0.2
					c-2.2-0.3-5-0.7-6.8-2.2c-0.4-0.3-0.8-0.9-0.7-1.4C-877.6,1521.3-878.3,1521.3-878.4,1521.4z"/>
			</g>
			<g id="XMLID_610_">
				<path id="XMLID_611_" d="M-877.7,1514.9c-1.3,1.6-2.5,3.4-3.5,5.2c-0.6,1.1-1.2,2.4-1.2,3.7c0.1,1.2,1.1,1.9,2.1,2.3
					c2.5,1,5.6,0.9,8.3,0.9c0.3,0,0.5-0.2,0.8-0.2c-2.7,0-5.5,0-8.1-0.8c-1.1-0.4-2.1-1.1-2.3-2.3c-0.2-1.2,0.5-2.5,1-3.5
					c1-2,2.3-3.8,3.7-5.6C-877,1514.9-877.5,1514.7-877.7,1514.9z"/>
			</g>
			<g id="XMLID_608_">
				<path id="XMLID_609_" d="M-866.9,1526.4c-0.7,0.8-1.6,1.5-2.5,1.9c-0.6,0.3-1.4,0.3-2-0.1c-0.7-0.5,0.4-1.7,0.7-2
					c0.3-0.4-0.4-0.5-0.7-0.2c-0.5,0.5-1.4,1.6-1,2.4c0.4,0.6,1.3,0.8,2,0.7c1.6-0.1,3-1.4,4.1-2.5
					C-865.9,1526.2-866.6,1526.1-866.9,1526.4z"/>
			</g>
			<g id="XMLID_606_">
				<path id="XMLID_607_" d="M-868.6,1528.1c0.6,0.5,1.3,1,2,1.2c1.1,0.3,1.9-0.4,2.1-1.5c0-0.3-0.7-0.1-0.8,0.1
					c0,0.2-0.1,1-0.5,1.1c-0.4,0-0.8-0.2-1.1-0.4c-0.4-0.2-0.7-0.5-1.1-0.8C-868,1527.6-868.8,1527.9-868.6,1528.1z"/>
			</g>
			<g id="XMLID_604_">
				<path id="XMLID_605_" d="M-878.3,1526.1c-2.7-0.2-7.1,0.3-7.6,3.7c-0.4,2.9,0.4,6,3.4,6.8c2.5,0.7,5.5,0.1,8-0.5
					c0.7-0.1,1.7,0.5,2.4,0.6c1.2,0.3,2-0.2,2.8-1c0.2-0.2,0.4-0.3,0.5-0.5c-0.2,0.2-0.6,0.1-0.1,0.2c0.8,0.2,1.5,0.3,2.3,0.4
					c2.3,0.4,4.7,0.7,7,0.8c3.2,0.1,5.9-1.1,7-4.3c0.5-1.5,0.3-3.4-0.4-4.8c-0.7-1.4-2.4-1.3-3.8-1.2c-0.5,0.1-0.5,0.9,0,0.8
					c1.6-0.2,2.8-0.1,3.4,1.6c0.5,1.6,0.2,3.4-0.7,4.8c-1.5,2.5-4.4,2.4-7,2.2c-2.3-0.2-4.6-0.5-6.8-1c-0.4-0.1-0.8-0.1-1.1-0.2
					c-0.6-0.1-1.4,1.1-1.7,1.3c-0.8,0.6-2.5-0.2-3.3-0.6c-0.4-0.2-0.9,0.1-1.3,0.2c-1.1,0.2-2.1,0.4-3.2,0.5
					c-1.9,0.2-4.6,0.3-5.9-1.4c-0.9-1.2-0.9-2.9-0.8-4.3c0-2.5,2.8-3.2,4.8-3.4c0.7-0.1,1.3-0.1,2,0
					C-877.7,1527-877.8,1526.2-878.3,1526.1z"/>
			</g>
			<g id="XMLID_602_">
				<path id="XMLID_603_" d="M-873,1529.1c-1.7,1.2-3.8,2.2-5.8,2.8c-0.5,0.2-0.5,0.2,0,0c0.7-0.2,1.5-0.4,2.2-0.6
					c2.4-0.7,4.7-1.6,6.7-3.1C-870.7,1528.8-872.2,1528.5-873,1529.1z"/>
			</g>
			<g id="XMLID_600_">
				<path id="XMLID_601_" d="M-875.9,1535.8c3.7-0.9,7.6-2.4,10.1-5.4c-0.3,0.3-1.3,0.1-1.6,0.4c-1.1,1.4-2.6,2.4-4.2,3.3
					c-0.7,0.4-1.5,0.7-2.2,1c-0.4,0.1-0.7,0.3-1.1,0.4c1-0.3,0.7-0.2,0.5-0.1C-874.9,1535.5-875.5,1535.7-875.9,1535.8z"/>
			</g>
			<g id="XMLID_598_">
				<path id="XMLID_599_" d="M-865.3,1530.1c-0.7,1.9-2.1,3.6-3.8,4.8c0.2-0.1,0.6-0.1,0.8-0.2c1.7-1.1,3.1-2.9,3.8-4.8
					C-864.5,1530-865.2,1529.9-865.3,1530.1z"/>
			</g>
			<g id="XMLID_596_">
				<path id="XMLID_597_" class="st3" d="M-888.7,1535.1c0.1,0,0.2-0.1,0.2-0.1C-888.6,1534.9-888.6,1535.1-888.7,1535.1z"/>
			</g>
		</g>
	</g>
</g>
<g>
	<polygon class="st18" points="-995.7,1502.3 -1028.6,1515.9 -1061.4,1502.3 -1075,1469.5 -1061.4,1436.6 -1028.6,1423 
		-995.7,1436.6 -982.1,1469.5 	"/>
	<g>
		<path class="st19" d="M-1052.9,1477c-0.5,0-1-0.1-1.5-0.1c-0.6-0.1-1.1-0.3-1.6-0.5c-0.4-0.2-0.8-0.5-1.1-0.8
			c-0.2-0.3-0.4-0.6-0.6-0.9c-0.3-0.4-0.4-0.9-0.5-1.4c-0.1-0.4-0.2-0.9-0.3-1.3c-0.1-0.6-0.1-1.2-0.1-1.9c0-0.1,0-0.2,0-0.4
			c0-0.3,0-0.6,0-0.9c0-0.5,0-1.1,0.1-1.6c0.1-0.6,0.2-1.1,0.4-1.7c0.2-0.6,0.5-1.3,0.9-1.8c0.1-0.1,0.2-0.2,0.3-0.3
			c0.4-0.4,0.8-0.6,1.2-0.8c0.4-0.2,0.8-0.3,1.2-0.4c0.7-0.2,1.3-0.2,2-0.2c0.6,0,1.1,0.1,1.7,0.2c0.4,0.1,0.8,0.2,1.1,0.4
			c0.5,0.3,1,0.6,1.4,1.1c0.3,0.4,0.6,0.9,0.8,1.4c0.2,0.5,0.3,0.9,0.4,1.4c0.1,0.4,0.2,0.8,0.2,1.2c0,0.6,0.1,1.3,0.1,1.9
			c0,0.8-0.1,1.6-0.2,2.4c0,0.3-0.1,0.6-0.2,0.9c-0.1,0.4-0.2,0.8-0.3,1.2c-0.2,0.5-0.4,0.9-0.7,1.3c-0.4,0.5-0.9,0.9-1.5,1.1
			c-0.6,0.3-1.2,0.4-1.8,0.5C-1052,1477-1052.5,1477-1052.9,1477 M-1049.2,1469.6c0-0.4,0-0.8-0.1-1.1c-0.1-0.7-0.2-1.5-0.3-2.2
			c-0.2-0.6-0.4-1.2-0.9-1.6c-0.3-0.3-0.6-0.5-1-0.5c-0.3-0.1-0.7-0.1-1-0.1c-0.4,0-0.8,0-1.2,0.1c-0.6,0.1-1.1,0.4-1.6,0.9
			c-0.2,0.3-0.4,0.6-0.5,0.9c-0.2,0.4-0.2,0.8-0.3,1.2c-0.1,0.4-0.1,0.8-0.1,1.2c0,0.3,0,0.5,0,0.8c0,0.5-0.1,0.9,0,1.4
			c0,0.2,0,0.4,0,0.6c0,0.3,0.1,0.7,0.1,1c0,0.2,0.1,0.3,0.1,0.5c0.1,0.5,0.3,1,0.5,1.5c0.2,0.3,0.4,0.5,0.7,0.7
			c0.6,0.4,1.2,0.5,1.9,0.5c0.4,0,0.8,0,1.2-0.1c0.6-0.1,1.1-0.3,1.5-0.8c0.3-0.3,0.5-0.7,0.6-1.2c0.1-0.6,0.3-1.1,0.3-1.7
			C-1049.3,1470.7-1049.3,1470.1-1049.2,1469.6"/>
		<path class="st19" d="M-1016.4,1462c0.6,0,1.1,0,1.7,0.1c0.8,0.1,1.6,0.4,2.2,1c0.4,0.3,0.8,0.7,1,1.2c0.1,0.3,0.3,0.5,0.4,0.8
			c0.1,0.3,0.2,0.6,0.3,1c0.1,0.3,0.1,0.6,0.2,0.9c0.1,0.4,0.1,0.9,0.1,1.3c0.1,0.6,0.1,1.1,0.1,1.7c0,0.3,0,0.6-0.1,1
			c0,0.4-0.1,0.7-0.1,1.1c-0.1,0.5-0.2,1-0.3,1.5c-0.1,0.5-0.3,1-0.6,1.5c-0.4,0.6-1,1.1-1.7,1.4c-0.3,0.1-0.6,0.3-1,0.4
			c-0.7,0.1-1.3,0.2-2,0.2c-0.3,0-0.6,0-0.9,0c-0.3,0-0.6-0.1-0.9-0.1c-0.4-0.1-0.8-0.2-1.1-0.4c-0.3-0.1-0.5-0.3-0.8-0.4
			c-0.3-0.2-0.6-0.5-0.8-0.8c-0.4-0.5-0.6-1.1-0.8-1.7c-0.2-0.6-0.3-1.3-0.4-2c-0.1-0.4-0.1-0.9-0.1-1.3c0-0.4,0-0.7,0-1.1
			c0-0.4,0-0.8,0.1-1.2c0.1-0.5,0.1-1,0.2-1.5c0.1-0.6,0.3-1.1,0.5-1.6c0.2-0.5,0.5-1,0.9-1.4c0.6-0.6,1.3-1,2.1-1.2
			C-1017.7,1462.1-1017.1,1462-1016.4,1462 M-1012.7,1469.6c0-0.4-0.1-0.8-0.1-1.2c0-0.6-0.1-1.1-0.2-1.6c-0.1-0.6-0.3-1.2-0.7-1.7
			c-0.3-0.4-0.7-0.7-1.2-0.9c-0.6-0.2-1.3-0.3-2-0.2c-0.4,0-0.8,0.1-1.1,0.3c-0.4,0.2-0.7,0.5-1,0.8c-0.2,0.3-0.3,0.7-0.5,1
			c-0.2,0.4-0.2,0.9-0.3,1.4c-0.1,0.5-0.1,1.1-0.1,1.6c0,0.6,0,1.1,0.1,1.7c0,0.2,0,0.4,0,0.6c0.1,0.4,0.1,0.8,0.2,1.2
			c0.1,0.5,0.3,0.9,0.6,1.3c0.2,0.2,0.3,0.4,0.5,0.5c0.6,0.3,1.2,0.5,1.9,0.5c0.5,0,1,0,1.4-0.1c0.4-0.1,0.8-0.3,1.1-0.6
			c0.4-0.3,0.6-0.7,0.7-1.2c0.2-0.6,0.3-1.3,0.4-2C-1012.8,1470.6-1012.8,1470.1-1012.7,1469.6"/>
		<path class="st19" d="M-1003.5,1477c-0.2,0-0.5,0-0.7,0c-0.3,0-0.6-0.1-0.9-0.1c-0.4,0-0.8-0.1-1.2-0.1c-0.4-0.1-0.7-0.1-1.1-0.2
			c0,0,0,0-0.1,0c-0.4-0.2-0.5-0.3-0.4-0.7c0-0.2,0.1-0.5,0.1-0.7c0.1-0.3,0.2-0.4,0.5-0.4c0.3,0,0.6,0.1,0.9,0.1
			c0.5,0,1,0.1,1.4,0.1c0.6,0.1,1.2,0.1,1.8,0.1c0.6,0,1.1-0.2,1.6-0.5c0.3-0.2,0.5-0.5,0.6-0.8c0.2-0.5,0.2-0.9,0.2-1.4
			c-0.1-0.6-0.5-1-1-1.3c-0.6-0.3-1.2-0.4-1.8-0.6c-0.5-0.1-1.1-0.3-1.6-0.5c-0.2-0.1-0.4-0.1-0.6-0.2c-0.3-0.2-0.6-0.3-0.9-0.5
			c-0.7-0.4-1.2-1.1-1.3-1.9c-0.1-0.4-0.1-0.8-0.2-1.2c0-0.3,0-0.7,0.1-1c0-0.3,0.1-0.6,0.2-0.9c0.3-0.6,0.7-1.1,1.2-1.4
			c0.5-0.3,1-0.5,1.6-0.6c0.4-0.1,0.9-0.1,1.3-0.2c0.4,0,0.8,0,1.3,0c1.1,0,2.1,0.2,3.1,0.4c0.4,0.1,0.5,0.2,0.5,0.6
			c0,0.3,0,0.6-0.1,0.9c0,0.3-0.2,0.4-0.5,0.4c-0.2,0-0.4,0-0.5-0.1c-0.4,0-0.9-0.1-1.3-0.1c-0.5,0-1-0.1-1.5-0.1
			c-0.6,0-1.1,0-1.6,0.1c-0.3,0.1-0.6,0.2-0.9,0.5c-0.5,0.5-0.6,1.1-0.5,1.8c0.1,0.6,0.5,0.9,1,1.1c0.8,0.3,1.6,0.6,2.4,0.8
			c0.5,0.2,1.1,0.3,1.6,0.5c0.5,0.2,0.9,0.4,1.3,0.7c0.3,0.2,0.6,0.5,0.8,0.9c0.1,0.3,0.2,0.6,0.3,1c0.2,0.8,0.1,1.6-0.1,2.3
			c-0.1,0.4-0.2,0.7-0.4,1c-0.2,0.4-0.5,0.8-0.9,1.1c-0.5,0.4-1,0.6-1.6,0.8c-0.5,0.1-1.1,0.2-1.6,0.2
			C-1003.2,1477-1003.4,1477-1003.5,1477C-1003.5,1477-1003.5,1477-1003.5,1477"/>
		<path class="st19" d="M-1039.1,1477c-0.8,0-1.5,0-2.2-0.2c-0.9-0.2-1.6-0.6-2.1-1.3c-0.2-0.3-0.3-0.5-0.5-0.8
			c-0.2-0.4-0.3-0.9-0.4-1.3c-0.1-0.4-0.1-0.8-0.2-1.2c-0.1-0.5-0.1-1-0.1-1.4c0-0.3-0.1-0.6-0.1-0.9c0-0.4,0-0.8,0-1.2
			c0-0.2,0-0.5,0-0.7c0-0.5,0.1-0.9,0.1-1.4c0-0.2,0.1-0.4,0.1-0.7c0.1-0.6,0.3-1.2,0.6-1.8c0.2-0.3,0.4-0.6,0.6-0.9
			c0.3-0.4,0.7-0.6,1.2-0.8c0.6-0.3,1.2-0.4,1.9-0.4c0.4,0,0.8,0,1.2,0c0.6,0,1.1,0,1.7,0.1c0.5,0.1,1.1,0.2,1.6,0.3
			c0.3,0.1,0.5,0.2,0.5,0.5c0,0.3,0,0.6-0.1,1c0,0.2-0.2,0.4-0.5,0.4c-0.1,0-0.1,0-0.2,0c-0.5-0.1-1-0.2-1.6-0.2c-0.7,0-1.3,0-2,0
			c-0.6,0-1.1,0.2-1.6,0.5c-0.3,0.2-0.6,0.5-0.7,0.9c-0.3,0.5-0.4,1.1-0.5,1.7c-0.1,0.9-0.2,1.9-0.1,2.8c0,0.8,0.1,1.6,0.2,2.4
			c0.1,0.5,0.2,0.9,0.4,1.4c0.2,0.4,0.6,0.7,1,0.9c0.7,0.3,1.4,0.4,2.1,0.4c0.4,0,0.8,0,1.2-0.1c0.5-0.1,1.1-0.1,1.6-0.2
			c0,0,0,0,0.1,0c0.3,0,0.5,0.1,0.5,0.4c0,0.3,0,0.7,0,1c0,0.2-0.1,0.4-0.4,0.5c-0.3,0.1-0.7,0.2-1,0.2c-0.5,0.1-1,0.1-1.5,0.1
			C-1038.5,1477-1038.8,1477-1039.1,1477"/>
		<path class="st19" d="M-1029.9,1470.5c0-1.7,0-3.3,0-5c0-0.2,0-0.5,0-0.7c0-0.3-0.2-0.5-0.5-0.6c-0.3,0-0.6,0-0.9,0
			c-0.7,0-1.4,0-2.1,0c-0.1,0-0.2,0-0.4-0.1c-0.1,0-0.2-0.1-0.3-0.3c0-0.1,0-0.1,0-0.2c0-0.3,0-0.7,0-1c0-0.3,0.1-0.4,0.5-0.4
			c0.2,0,0.4,0,0.6,0c2.6,0,5.2,0,7.7,0c0.4,0,0.7,0,1.1,0c0.4,0,0.6,0.2,0.6,0.6c0,0.3,0,0.5,0,0.8c0,0,0,0.1,0,0.1
			c0,0.3-0.2,0.5-0.5,0.5c-0.2,0-0.4,0-0.5,0c-0.6,0-1.1,0-1.7,0c-0.3,0-0.5,0-0.8,0c-0.1,0-0.1,0-0.2,0c-0.2,0.1-0.4,0.2-0.4,0.5
			c0,0.2,0,0.5,0,0.7c0,3.3,0,6.6,0,9.9c0,0.2,0,0.4,0,0.6c0,0.1,0,0.3,0,0.4c0,0.2-0.1,0.3-0.3,0.3c0,0,0,0-0.1,0c-0.5,0-1,0-1.4,0
			c-0.3,0-0.4-0.2-0.4-0.5c0-0.1,0-0.2,0-0.2C-1029.9,1474.2-1029.9,1472.4-1029.9,1470.5L-1029.9,1470.5z"/>
	</g>
</g>
<g>
	<g id="XMLID_114_">
		<g id="XMLID_379_">
			<defs>
				<rect id="XMLID_212_" x="-1243.4" y="1402.6" width="69.2" height="101.3"/>
			</defs>
			<clipPath id="XMLID_4_">
				<use xlink:href="#XMLID_212_"  style="overflow:visible;"/>
			</clipPath>
			<g id="XMLID_381_" class="st20">
				<g id="XMLID_508_">
					<path id="XMLID_92_" class="st12" d="M-1190,1479.5c0,0-1.2,13.2-4.4,25.6C-1197.5,1517.5-1199.9,1474.9-1190,1479.5z"/>
					<g id="XMLID_102_">
						<g>
							<path class="st21" d="M-1191.1,1479.6c-0.5,5.3-1.3,10.5-2.2,15.7c-0.7,3.7-1.7,7.3-2.5,10.9c0,0.1-0.5,0.8-0.4,0.9
								c0.1,0.3,1.3,0,1.4-0.3c0-0.1-0.2-0.3-0.2-0.5c-0.4-2.8-0.9-5.5-0.9-8.4c-0.1-3.7,0.1-7.5,0.9-11.2c0.3-1.5,1.6-8.1,4.2-6.9
								c0.5,0.2,2.5-0.3,1.9-0.6c-8.4-3.6-9,11.4-9.1,16.1c-0.1,3.5-0.5,8,0.9,11.3c0.4,1,1,1.4,2.1,1.1c1.2-0.3,1.5-1.3,1.8-2.4
								c2.4-8.4,3.7-17.3,4.5-26C-1188.8,1478.9-1191,1478.9-1191.1,1479.6z"/>
						</g>
					</g>
					<path id="XMLID_100_" class="st22" d="M-1190.7,1479.5c0,0-2.6,0.5-2.8,5.7c-0.2,5.2,1.3,8.2,1.3,8.2l-2.1,10
						C-1194.4,1503.5-1197.3,1477.2-1190.7,1479.5z"/>
				</g>
				<g id="XMLID_382_">
					<path id="XMLID_90_" class="st5" d="M-1192,1478.6c0,0-8.6-7.2-16.4-5.8c-7.8,1.4-16,2.6-18.8,9.2c-2.8,6.6-3.6,15.2-3.4,15.8
						c0.2,0.6,5.4,5.5,11.2,5.7v-6.7c0,0-2.2,0.6-3.8-2.2l1.6-7.3l2,4.3l27.5-12.1"/>
					<g id="XMLID_305_">
						<g>
							<path d="M-1191.1,1478.6c-2.9-2.4-6.3-4.3-9.9-5.5c-5.4-1.8-11-0.6-16.4,0.9c-2.6,0.7-5.2,1.7-7.4,3.3
								c-2.4,1.9-3.5,4.4-4.4,7.2c-0.9,2.9-1.6,6-2,9.1c-0.1,1.1-0.7,3-0.2,4.1c0.7,1.5,3.5,2.9,4.8,3.6c2.6,1.5,5.5,2.5,8.6,2.8
								c0.3,0,0.6,0,0.6-0.3c0-2.2,0-4.5,0-6.7c0-0.6-1.5-0.8-1.9-0.7c-3.5,0.6-2.5-2.4-2.1-4c0.3-1.5,0.7-3.1,1-4.6
								c-0.7-0.2-1.4-0.4-2.1-0.6c0.7,1.4,1.3,2.8,2,4.3c0.2,0.5,1.3,1,1.9,0.7c9.2-4,18.4-8.1,27.5-12.1c0.8-0.3-1.1-1.3-1.7-1
								c-9.2,4-18.4,8.1-27.5,12.1c0.6,0.2,1.2,0.5,1.9,0.7c-0.7-1.4-1.3-2.8-2-4.3c-0.2-0.4-1.9-1.3-2.1-0.6
								c-0.3,1.2-0.5,2.4-0.8,3.7c-0.2,0.9-1,2.7-0.8,3.7c0.4,2.4,4.5,3.4,6.5,3.1c-0.6-0.2-1.2-0.5-1.9-0.7c0,2.2,0,4.5,0,6.7
								c0.2-0.1,0.4-0.2,0.6-0.3c-3.5-0.3-6.9-1.9-9.6-4.1c-1.3-1-1-1.8-0.8-3.4c0.6-5.4,1.6-13,5.9-16.8c2.2-1.9,5.1-3,7.9-3.7
								c3-0.8,6.4-1.7,9.5-1.7c4.7-0.1,9.6,2.5,13.2,5.5C-1192.4,1479-1190.3,1479.3-1191.1,1478.6L-1191.1,1478.6z"/>
						</g>
					</g>
					<path id="XMLID_304_" class="st6" d="M-1219.9,1476c0,0,7.1,8.1,17.5-0.5c0,0-11.3,1.5-15.1-0.7L-1219.9,1476z"/>
					<g id="XMLID_484_">
						<path id="XMLID_303_" class="st5" d="M-1208,1536c0,0-0.5,0.8,0.2,1.8c0.6,1,0.2,1.4,0,1.6c-0.2,0.2-3.9,1.2-6.6,0.9
							c-2.7-0.3-3.9-1.5-2.9-2.7c1-1.2,2.6-1,2.6-1s3.6,0.3,3.9-0.7L-1208,1536z"/>
						<path id="XMLID_302_" class="st6" d="M-1214.8,1536.6c0,0-1.8,1.9-1.2,3.4c0,0,2.7,0.4,4.1,0.3c0,0-1.4-2.3-0.7-3.7
							L-1214.8,1536.6z"/>
						<path id="XMLID_301_" class="st6" d="M-1211.9,1536.6c0,0,0.7,0.1,1.8,0.5c1.1,0.4,2.3,1.3,2.3,1.3s-1-1.3-0.2-2.4l-2.9-0.1
							L-1211.9,1536.6z"/>
						<g id="XMLID_493_">
							<path id="XMLID_300_" class="st23" d="M-1212.9,1536.6c0,0-1.1-1.7-2.1,0.8c0,0-0.1,2.1,0.5,2.7c0,0-2.2,0.2-2.9-1l-0.4,0.4
								c0,0-0.8,1.6,2.5,2.2c3.3,0.6,6.7-0.3,7.7-0.9c1-0.6,0.6-1.5,0.1-1.7c0,0-2.4,1.3-5,1
								C-1212.6,1540.1-1213.8,1537.1-1212.9,1536.6z"/>
							<path id="XMLID_299_" class="st24" d="M-1217.8,1539.5c0,0,0.5,1.6,4.4,1.4c3.9-0.2,5.7-0.5,5.9-1.7c0,0-2.2,0.9-4.4,1
								c-2.2,0.1-4.9,0.2-5.4-1c-0.5-1.2-0.1-0.1-0.1-0.1L-1217.8,1539.5z"/>
						</g>
						<g id="XMLID_491_">
							<path id="XMLID_298_" d="M-1214.6,1536.5c-1.1,0.2-2.1,0.2-2.9,1.1c-0.4,0.4-0.3,1-0.2,1.5c0.2,0.6,0.7,0.8,1.3,1
								c1.3,0.4,2.9,0.4,4.3,0.3c1.6-0.1,3.1-0.3,4.6-1c0,0,0.1-0.1,0.1-0.1c0.1-0.5,0-1-0.2-1.5c-0.1-0.2-0.2-0.4-0.3-0.7
								c-0.2-0.5-0.1-0.7,0.2-1.2c0.1-0.2-0.4-0.1-0.4,0c-0.2,0.4-0.5,0.6-0.3,1.1c0.3,0.6,0.5,1.2,0.6,1.8c0.1,1.2-3.8,1.2-4.6,1.3
								c-0.7,0-1.4,0-2-0.1c-0.8,0-1.7-0.1-2.4-0.7c-0.5-0.5-0.5-1.3-0.2-1.9c0.5-0.7,1.6-0.7,2.4-0.8
								C-1214.5,1536.7-1214.3,1536.4-1214.6,1536.5L-1214.6,1536.5z"/>
						</g>
						<g id="XMLID_489_">
							<path id="XMLID_297_" d="M-1211,1536c-0.5,0.4-1.1,0.4-1.7,0.4c-0.2,0-0.5,0.3-0.2,0.3c0.8,0,1.6-0.1,2.2-0.5
								C-1210.5,1536-1210.9,1535.9-1211,1536L-1211,1536z"/>
						</g>
						<g id="XMLID_487_">
							<path id="XMLID_296_" d="M-1212.6,1536.5c-0.7-1-1.9-0.4-2.4,0.4c-0.6,0.9-0.2,2.4,0.2,3.3c0,0.1,0.1,0.1,0.1,0.1
								c0.7,0,1.3,0,2,0c0.1,0,0.4-0.1,0.3-0.2C-1212.9,1539.1-1213.4,1537.5-1212.6,1536.5c0.1-0.1-0.3,0-0.4,0.1
								c-0.8,1-0.4,2.6,0.2,3.6c0.1-0.1,0.2-0.1,0.3-0.2c-0.4,0-0.9,0-1.3,0c-0.2,0-0.4,0-0.6,0c0.1,0,0.1,0.1,0.1,0
								c0-0.1-0.1-0.2-0.1-0.3c-0.3-0.7-0.4-1.5-0.3-2.2c0.1-0.8,1.1-1.7,1.8-0.8C-1212.9,1536.8-1212.5,1536.6-1212.6,1536.5z"/>
						</g>
						<g id="XMLID_485_">
							<path id="XMLID_295_" d="M-1217.5,1539.3c-1.1,0.1-0.7,1.4-0.1,1.8c1.3,1,3.4,1,5,0.9c1,0,7.8-0.8,5.1-3.1
								c-0.1-0.1-0.6,0.1-0.4,0.3c2,1.7-2.8,2.3-3.6,2.4c-1.6,0.2-3.2,0.2-4.7-0.3c-0.4-0.1-0.8-0.3-1.2-0.6
								c-0.2-0.2-0.7-1.1-0.2-1.1C-1217.3,1539.6-1217.2,1539.2-1217.5,1539.3L-1217.5,1539.3z"/>
						</g>
					</g>
					<path id="XMLID_294_" class="st6" d="M-1224.9,1482.2c0,0,1,3.6,0.6,5.6c-0.4,2-1.3,5.9-1.3,5.9s-3.3,0.5-2.1,2.9
						c0,0,2.2-1.5,2.7-0.9c0.5,0.7,3.2,3.7,5.9,2.7l0.2-1.9c0,0-4.5,0.1-4.1-2.1l1.4-7C-1221.5,1487.5-1224.3,1482.4-1224.9,1482.2z
						"/>
					<g id="XMLID_467_">
						<path id="XMLID_293_" class="st23" d="M-1196.4,1540.6c0,0,1-1.8,0.1-3.2c-0.9-1.4-8.4-1.6-8.3,1.1c0,2.7,0.9,2.4,0.9,2.4
							L-1196.4,1540.6z"/>
						<path id="XMLID_292_" class="st24" d="M-1196.3,1538.4c-0.9-1.4-7.8-1.6-8.3,0.8c0-0.2,0-0.5,0-0.8c0-2.7,7.4-2.5,8.3-1.1
							c0.4,0.6,0.4,1.3,0.4,1.9C-1196,1539-1196.1,1538.7-1196.3,1538.4z"/>
						<path id="XMLID_291_" class="st5" d="M-1203.7,1539.2c-0.6,0.9-0.2,1.4,0,1.6c0.2,0.2,3,1.1,5.1,0.8c2.1-0.3,3-1.5,2.2-2.7
							c-0.8-1.2-2-1-2-1S-1202.5,1537.4-1203.7,1539.2z"/>
						<path id="XMLID_290_" class="st6" d="M-1203.7,1539.2c1.2-1.8,5.3-1.3,5.3-1.3s1.2-0.2,2,1c0.4,0.6,0.3,1.2-0.1,1.7
							c0-0.2-0.1-0.4-0.1-0.5c-0.7-2.4-1.9-2-1.9-2s-3.9-1.2-5,2.4c0,0.1-0.1,0.3-0.1,0.4c-0.1,0-0.1-0.1-0.1-0.1
							C-1203.9,1540.6-1204.3,1540.1-1203.7,1539.2z"/>
						<g id="XMLID_476_">
							<path id="XMLID_289_" class="st23" d="M-1198.5,1541.5c0,0,1.7,0.2,2.2-1.1l0.3,0.4c0,0,0.6,1.6-1.9,2.2
								c-2.5,0.6-5.1-0.2-6-0.8c-0.8-0.6-0.5-1.5-0.1-1.7c0,0,1.9,1.3,3.9,0.9"/>
							<path id="XMLID_288_" class="st24" d="M-1196,1540.8c0,0-0.3,1.6-3.4,1.5c-3-0.1-4.4-0.5-4.6-1.6c0,0,1.7,0.9,3.4,0.9
								c1.7,0.1,3.8,0.1,4.2-1.1c0.4-1.2,0.1-0.1,0.1-0.1L-1196,1540.8z"/>
						</g>
						<g id="XMLID_474_">
							<path id="XMLID_287_" d="M-1196.2,1540.6c0.9,0,0.5,1.4,0.1,1.8c-1,1-2.6,1.1-3.9,1c-0.7,0-6.1-0.7-4-3
								c0.1-0.1,0.4,0.1,0.3,0.3c-1.5,1.7,2.2,2.2,2.9,2.3c1.2,0.2,2.5,0.1,3.7-0.3c0.3-0.1,0.6-0.3,0.9-0.6
								c0.1-0.2,0.5-1.1,0.1-1.1C-1196.4,1540.9-1196.4,1540.6-1196.2,1540.6L-1196.2,1540.6z"/>
						</g>
						<g id="XMLID_472_">
							<path id="XMLID_286_" class="st3" d="M-1204.8,1538.2c0.1-1,1.2-1.3,1.8-1.6c1.2-0.4,2.5-0.5,3.7-0.4c1,0.1,2,0.2,2.9,0.7
								c1,0.7,0.8,2.6,0.3,3.6c0,0-0.1,0.1-0.1,0.1c0-0.1-0.1-0.3-0.1-0.4c0.4-1.1,0.5-2.6-0.5-3.2c-0.9-0.5-2.1-0.6-3.1-0.6
								c-1.1,0-2.2,0.1-3.2,0.5c-1.1,0.5-1.3,1.4-1,2.9c0.1,0.5,0.3,0.8,0.5,0.8c0,0.1,0,0.2,0,0.3c0,0,0,0-0.1,0
								C-1204.8,1540.8-1204.9,1539.1-1204.8,1538.2z"/>
						</g>
						<g id="XMLID_470_">
							<path id="XMLID_285_" class="st3" d="M-1204,1540.2c1.9,0.8,3.9,1.5,5.9,1c0.5-0.1,1.1-0.4,1.5-0.9c0.1-0.1,0.3-0.1,0.5-0.1
								c-0.1,0.2-0.1,0.4-0.2,0.5c-0.5,0.4-1.2,0.7-1.8,0.8c-2.1,0.5-4.3-0.1-6.2-0.9c-0.1-0.1-0.2-0.3-0.2-0.4
								C-1204.3,1540.2-1204.1,1540.1-1204,1540.2z"/>
						</g>
						<g id="XMLID_468_">
							<path id="XMLID_284_" class="st3" d="M-1196,1539.3c-0.8-1.5-2.9-1.7-4.4-1.6c-1.3,0.1-4,0.8-3.9,2.6c0,0.1,0.3,0.1,0.3,0
								c-0.1-1.4,1.9-2.1,3-2.3c1.5-0.3,3.9-0.3,4.7,1.4C-1196.3,1539.4-1196,1539.4-1196,1539.3L-1196,1539.3z"/>
						</g>
					</g>
					<path id="XMLID_283_" class="st25" d="M-1197.1,1473.2c0,0-0.3-1.9-2.7,0c-2.4,1.9-18.2,17-18.2,17s-3.5,2.3-1.2,5.2
						c0,0,0.1,15-0.8,20.2c-0.8,5.2,2.1,6.1,2.1,6.1l-0.9,13.4c0,0,12.6,5.2,26.2-1.2l-2.4-47.4c0,0,1.1-9.3,5.1-7
						c0,0-0.9-4.3-2.9-3.7C-1192.8,1475.8-1193.7,1470.7-1197.1,1473.2z"/>
					<path id="XMLID_282_" class="st12" d="M-1194.4,1517.7c0,0,1.8,17.2-8.9,19c0,0,7.1-0.2,10.7-3.1l-1.3-18.9L-1194.4,1517.7z"/>
					<path id="XMLID_281_" class="st12" d="M-1192.9,1475.6c0,0-1.7-4.1-4.6-0.6c-2.9,3.6-5.7,9.9-8,13.8c0,0,6.2-9.4,7.3-10.1
						c1.1-0.6-5.4,7.2-8.7,16.3c-3.3,9.2-8.5,26.2-8.5,26.2s13.1-42,22.1-45.3"/>
					<path id="XMLID_280_" class="st12" d="M-1213.8,1524.1l-4.9,11.1c0,0,0.7,1.8,13.8,1.9
						C-1204.9,1537.1-1218.3,1535-1213.8,1524.1z"/>
					<polygon id="XMLID_279_" class="st26" points="-1202.7,1475.3 -1219.3,1487.6 -1219.5,1491.7 					"/>
					<path id="XMLID_278_" class="st12" d="M-1197.5,1473.4c0,0-14.6,12.2-18.6,20.4c-4.1,8.2,1.1,0.3,0.5,2
						c-0.6,1.7-4.8,10.3-3.1,10.3C-1218.7,1506-1210.2,1485.8-1197.5,1473.4z"/>
					<g id="XMLID_459_">
						<path id="XMLID_277_" d="M-1196.7,1473.1c-0.9-3.7-11.3,7.3-12.2,8.1c-2.9,2.7-5.7,5.4-8.6,8.1c-1.3,1.3-3.9,3.2-2.7,5.3
							c1.6,2.8,0.5,8.2,0.4,11.3c-0.1,2.6-0.2,5.2-0.4,7.8c-0.2,2.2-0.7,4.3,0.2,6.5c0.3,0.7,1,1.4,1.7,1.7c0,0-0.2,2.3-0.2,2.9
							c-0.2,3.5-0.5,6.9-0.7,10.4c0,0.1,0.1,0.2,0.2,0.2c8.4,3.4,18.5,2.4,26.6-1.2c0.1-0.1,0.2-0.2,0.2-0.3c-0.5-9.5-1-19-1.4-28.4
							c-0.3-5.3-0.5-10.6-0.8-15.9c-0.1-2.5,0-11.7,4.2-9.8c0.2,0.1,0.8,0,0.7-0.3c-0.3-1.3-0.8-2.5-1.7-3.5c-0.8-0.8-1,0.2-1.3-0.9
							c-0.7-2.6-2.6-3.2-4.8-2c-0.5,0.3,0.2,0.5,0.5,0.3c2.5-1.4,3.4,1.1,3.7,2.6c0,0.1,0.2,0.2,0.3,0.2c1.7-0.1,2.2,2.2,2.5,3.4
							c-0.1-0.5,0.3-0.7-0.7-0.6c-1.4,0.1-2.1,0.9-2.8,2.1c-1.2,1.9-1.6,4.5-1.5,6.7c0.5,9.4,0.9,18.8,1.4,28.1
							c0.2,4.6,0.5,9.2,0.7,13.8c0.1,1.3,0.1,2.6,0.2,3.8c0.1,2-8.7,3-10.3,3.2c-4.2,0.5-8.5,0.1-12.6-0.9c-1.6-0.4-2.5-0.3-2.4-1.5
							c0.3-4.2,0.6-8.4,0.9-12.6c0-0.1-0.1-0.2-0.2-0.2c-2.7-1-2-4.9-1.8-7.1c0.4-3.1,0.4-6.3,0.5-9.5c0.1-2.8,0.1-5.6,0.1-8.3
							c0-2.3-1.2-4.6,1.1-6.2c3-2.1,5.6-5.3,8.3-7.9c2.1-2,4.3-4,6.4-6c0.4-0.3,5.1-5,5.6-3.2
							C-1197.4,1473.6-1196.7,1473.4-1196.7,1473.1z"/>
					</g>
					<path id="XMLID_276_" class="st12" d="M-1190.1,1479.3c0,0-2-3.4-4.3-0.4c-2.3,3-6.8,15.6-6.8,15.6s-4.3,15.9-7.1,20.2
						c-2.7,4.3,0.1,6.2,10.4-18.1c0,0,2-0.9-1.8,10c-3.9,10.9-9.8,22.4-7.2,20.1c2.6-2.3,9.6-7.9,12.1-35.1
						C-1194.8,1491.6-1196.7,1476.7-1190.1,1479.3z"/>
					<path id="XMLID_275_" class="st12" d="M-1203.2,1485.1c0,0-6.7,2.8-12.3,19.8c-5.6,16.9-2.3,14.7-2.3,14.7
						S-1211,1489.9-1203.2,1485.1z"/>
					<g id="XMLID_455_">
						<path id="XMLID_274_" d="M-1197.5,1473.4c-8.9,9.2-16.6,20.6-21.2,32.6c0.1-0.2,0.6-0.2,0.7-0.4c4.6-12,12.3-23.4,21.2-32.6
							C-1197,1473.2-1197.3,1473.2-1197.5,1473.4L-1197.5,1473.4z"/>
					</g>
					<g id="XMLID_453_">
						<path id="XMLID_273_" d="M-1217.5,1521.5c0.8-5,2.1-10,3.5-14.9c2.2-7.4,5-16.1,10.8-21.5c-0.2,0.2-0.5,0.2-0.7,0.4
							c-5.9,5.4-8.6,14.1-10.8,21.5c-1.4,4.9-2.7,9.9-3.5,14.9C-1218.2,1521.8-1217.6,1521.7-1217.5,1521.5L-1217.5,1521.5z"/>
					</g>
					<path id="XMLID_272_" class="st12" d="M-1195.3,1497.8c0,0,1.2,18.8-6.9,27.4c-8.1,8.6-8.4,3.5-8.4,3.5s-3.7,6.6,8.4,5.6
						c0,0,9.1-4.2,7.8-36.5H-1195.3z"/>
					<g id="XMLID_450_">
						<path id="XMLID_271_" d="M-1192.5,1475.6c-1.3,0.4-2.6,1.7-3.5,2.6c-4.3,4.6-7,10.8-9.5,16.6c-3.8,8.9-7,18-10.1,27.1
							c0.1-0.2,0.6-0.2,0.7-0.4c2.6-7.7,5.3-15.3,8.3-22.8c2.2-5.4,4.5-10.9,7.5-15.9c1.2-2,2.6-4,4.3-5.7c0.4-0.4,0.8-0.8,1.3-1.1
							c0.5-0.4-0.4,0.1,0.2-0.1C-1192.9,1476-1192.7,1475.7-1192.5,1475.6L-1192.5,1475.6z"/>
					</g>
					<g id="XMLID_448_">
						<path id="XMLID_270_" d="M-1195.1,1491.1c-0.5,9.1-2,18.6-5.7,27c-1.1,2.5-2.5,4.9-4.3,6.9c-0.3,0.3-3.8,4-3.5,1.9
							c0.4-2.7,2.5-5.6,3.9-7.9c-0.1,0.2-0.6,0.2-0.7,0.4c-0.7,1.2-1.4,2.3-2,3.5c-0.7,1.3-2,3.2-1.9,4.7c0,0.8,1.4-0.2,1.7-0.3
							c2.4-1.5,4.3-3.8,5.8-6.3c3.5-5.7,5-12.7,6.1-19.2c0.6-3.7,1.1-7.5,1.3-11.2C-1194.4,1490.9-1195.1,1491-1195.1,1491.1
							L-1195.1,1491.1z"/>
					</g>
					<g id="XMLID_446_">
						<path id="XMLID_269_" d="M-1194.2,1509.3c-0.1,3.3-0.5,6.5-1.1,9.7c-1,5.4-2.7,11.4-6.9,15.3c0.2-0.2,0.5-0.2,0.7-0.4
							c4.1-3.8,5.8-9.6,6.8-14.8c0.7-3.3,1.1-6.8,1.2-10.2C-1193.5,1509-1194.2,1509.1-1194.2,1509.3L-1194.2,1509.3z"/>
					</g>
					<path id="XMLID_268_" class="st5" d="M-1189.8,1479.6c0-0.1-4-1.6-4.6,4.9l2.6,7.2c0,0-0.7,1.9-4.9,2.2
						c-1.5,0.1-2.8,0.2-3.8,0.3c0,1.1,0,2.3,0,3.4c2.7-0.6,14.9,2,16.6-2.3C-1183.9,1495.4-1185.3,1486.1-1189.8,1479.6z"/>
					<path id="XMLID_267_" class="st27" d="M-1184.6,1492c0,0-0.1,3.3-1.3,3.6c-1.3,0.2-5.6,0.4-6.9,0c-1.3-0.4-7.4,0.6-7.8,0.9
						c-0.4,0.2,0.5,0.9-0.5,1.4c-1,0.5,2.2-0.5,5.1,0c2.9,0.5,12.2,0.6,12.2-2.2C-1183.9,1493.3-1184.6,1492-1184.6,1492z"/>
					<path id="XMLID_266_" class="st6" d="M-1190,1479.7c0,0-3.5,0.6-2.5,4.3c1,3.6,2.8,7,2.8,7l-2.1,1l-2.5-7.4
						C-1194.3,1484.5-1194.1,1478.5-1190,1479.7z"/>
					<g id="XMLID_441_">
						<path id="XMLID_265_" d="M-1183.7,1495.4c0-0.1-1.5-9.4-5.9-15.9c-0.1-0.2-0.7-0.3-1.2-0.3c-1.2,0-3.3,0.7-3.7,5.3l0,0
							l2.5,7.2c-0.2,0.3-1.1,1.7-4.7,2.1c-1.5,0.1-2.7,0.2-3.7,0.3c0,0.1,0,0.3,0,0.4c1-0.1,2.2-0.2,3.7-0.3c4.3-0.4,5-2.3,5-2.4
							l0-0.1l-2.6-7.2c0.4-4.3,2.2-4.9,3.3-4.9c0.5,0,0.8,0.1,0.9,0.2c4.2,6.1,5.7,14.8,5.8,15.6c-0.7,1.6-3,2.3-7.2,2.3
							c-1.6,0-3.3-0.1-4.7-0.2c-1.2-0.1-2.3-0.1-3.1-0.1c-0.5,0-0.8,0-1.1,0.1c0,0.1,0,0.3,0,0.4c0.3,0,0.6-0.1,1.1-0.1
							c0.8,0,1.9,0.1,3.1,0.1c1.5,0.1,3.1,0.2,4.7,0.2c0,0,0,0,0,0c2.8,0,6.7-0.3,7.6-2.6L-1183.7,1495.4L-1183.7,1495.4z"/>
					</g>
					<g id="XMLID_439_">
						<path id="XMLID_264_" d="M-1219,1491.6c-1.5-3.2-3.2-6.4-5.2-9.4c-0.1-0.2-0.9-0.2-0.8,0c1.9,3,3.7,6.1,5.2,9.4
							C-1219.7,1491.8-1218.9,1491.8-1219,1491.6L-1219,1491.6z"/>
					</g>
					<g id="XMLID_437_">
						<path id="XMLID_263_" d="M-1223,1494.4c-1.9-0.3-4.6,0-5.5,2.1c-0.1,0.2,0.7,0.3,0.8,0.1c0.7-1.7,2.8-2.1,4.5-1.9
							C-1222.9,1494.8-1222.4,1494.5-1223,1494.4L-1223,1494.4z"/>
					</g>
					<g id="XMLID_435_">
						<path id="XMLID_262_" d="M-1186.9,1491.2c-1.8-1.7-3.6-0.2-5.4,1.2c0,0.1,0.1,0.1,0.1,0.2c1.7-1.3,3.4-2.6,5-1.2
							C-1187.1,1491.5-1186.8,1491.3-1186.9,1491.2z"/>
					</g>
					<g id="XMLID_404_">
						<path id="XMLID_261_" class="st5" d="M-1230.5,1453.6c0,0-6.8-6.3-8.3-4.3c-1.5,2-0.2,9.6,3.8,12c4,2.4,7.9,3.5,7.9,3.5
							s0.6,6.9,5,8.7c4.4,1.7,15.7,4.7,21.6,1.6c5.9-3.2,8.7-3.3,9.9-13.2c0,0,9.6-1.2,11.6-7.6c2.1-6.4,2-7.3-0.1-7.7
							c-2-0.4-8.4,5.3-8.4,5.3s9.2-13.8,9.2-22.3c0-8.5-7.6-22.2-26.2-23.6c-18.6-1.4-29.7,5-34.6,17.2
							C-1243.9,1435.3-1231.1,1451.5-1230.5,1453.6"/>
						<g id="XMLID_427_">
							<path id="XMLID_260_" class="st6" d="M-1203.9,1457.7c0,0,2.9-6.8,8.9-0.7C-1195,1457-1198.2,1455-1203.9,1457.7z"/>
							<path id="XMLID_259_" class="st6" d="M-1221.9,1458.2c0,0,2.9-6.8,8.9-0.7C-1213,1457.5-1216.2,1455.5-1221.9,1458.2z"/>
							<path id="XMLID_258_" class="st17" d="M-1223.3,1455.7c0,0,8.2-3.8,10.7-1.4C-1212.5,1454.3-1218.2,1449.5-1223.3,1455.7z"/>
							<path id="XMLID_257_" class="st17" d="M-1205.8,1453.9c0,0,2.7,1.9,5.1-1c0.6-0.7,1.2-1.2,1.8-1.5c1.9-1,3.7-0.7,4-0.1
								c0,0-0.5-2.9-3.7-2.1C-1201.7,1450-1203.9,1454.7-1205.8,1453.9z"/>
							<path id="XMLID_256_" d="M-1221,1458.5c2.2-1.5,5.2-1.9,7.6-0.7c0.4,0.2,1.7-0.5,1.5-0.6c-3.3-1.6-7.3-0.8-10.3,1.2
								C-1222.9,1458.9-1221.3,1458.7-1221,1458.5z"/>
							<path id="XMLID_255_" d="M-1203.3,1458c2.2-1.5,5.2-1.9,7.6-0.7c0.4,0.2,1.7-0.5,1.5-0.6c-3.3-1.6-7.3-0.8-10.3,1.2
								C-1205.2,1458.4-1203.7,1458.2-1203.3,1458z"/>
						</g>
						<path id="XMLID_254_" class="st6" d="M-1210.8,1470.6c0,0,3,1.6,5.8-0.3C-1205,1470.3-1206.8,1475-1210.8,1470.6z"/>
						<path id="XMLID_253_" class="st9" d="M-1228.8,1453.2c0,0-12-21.8-4.1-30.8c7.9-9,8.2-4.6,8.2-4.6s5.1,15.6,19.3,7.8
							c12.9-7.1,15.3-4.8,15.3-4.8s9.9,7,7.3,19c0,0,15.8-30.1-29.4-32.5C-1212.4,1407.2-1256.9,1412.5-1228.8,1453.2z"/>
						<path id="XMLID_252_" class="st6" d="M-1226.5,1464.9c0,0,1.6,6.9,9,8.5c7.4,1.6,13.5,2.5,20.9-2.8c0,0,5-2.3,5.9-8.3
							c0,0,0.1,11.4-12,13.5c-12.1,2.1-17.6-1.4-17.6-1.4S-1226.5,1473.1-1226.5,1464.9"/>
						<path id="XMLID_251_" class="st10" d="M-1211.1,1462.4c0,0,0,1.6,3,1.6c2.9,0,2-2.1,2-2.1s2.6,0.8,1,2.1
							c-1.6,1.2-4.5,1.1-5.4,0.7C-1211.6,1464.2-1212,1463.4-1211.1,1462.4z"/>
						<path id="XMLID_250_" class="st6" d="M-1237,1452.1l1.2,2.2l1.4,4.8l1.1-3.5c0,0,5.3,5.2,6.2,7.8
							C-1227,1463.5-1230.4,1453.8-1237,1452.1z"/>
						<path id="XMLID_249_" class="st6" d="M-1180,1449.7l-1.2,1.2c0,0,1,4.1-2.8,5.6c0,0,0.7-3,0.1-3.5c0,0-5.2,3.4-6.2,6.7
							C-1190.2,1459.8-1187.8,1451-1180,1449.7z"/>
						<path id="XMLID_418_" class="st14" d="M-1216.7,1475.2l-0.2,0.4c0,0,0.1,0,0.1,0c1.1,0.3,2.5,0.5,4.2,0.7
							c-1.1-0.2-1.7-0.4-1.7-0.4L-1216.7,1475.2 M-1197.6,1473.9c0,0-0.1,0-0.2,0c0.1,0,0.1,0.1,0.2,0.1
							C-1197.6,1474.1-1197.4,1473.9-1197.6,1473.9"/>
						<path id="XMLID_246_" d="M-1217.1,1468.3c0-0.8,0.4-1.6,1-2c0.2-0.1-0.4-0.2-0.5-0.2c-0.7,0.4-1.1,1.3-1.1,2.1
							C-1217.7,1468.4-1217.1,1468.4-1217.1,1468.3z"/>
						<path id="XMLID_245_" d="M-1199.2,1463.5c0.6,0.5,1,1.2,0.9,2c0,0.2,0.6,0.2,0.6,0c0.1-0.9-0.4-1.7-1-2.2
							C-1198.8,1463.3-1199.3,1463.4-1199.2,1463.5z"/>
						<path id="XMLID_244_" d="M-1206.3,1462.2c0.6,0.1,2,0.6,1.2,1.5c-0.9,1-2.7,1-3.9,0.9c-0.6,0-2.6-0.1-2.3-1.3
							c0.1-0.4,0.4-0.7,0.6-0.9c0.3-0.3-0.1-0.7-0.4-0.4c-0.4,0.4-0.8,1-0.8,1.6c-0.1,1.5,2.2,1.6,3.1,1.7c1.4,0.1,3.5-0.1,4.3-1.5
							c0.7-1.2-0.8-2-1.7-2.2C-1206.5,1461.5-1206.7,1462.1-1206.3,1462.2z"/>
						<path id="XMLID_243_" class="st3" d="M-1217,1466.9c0,0,9.7,5.2,18.8-2.7C-1198.2,1464.3-1205.9,1472.9-1217,1466.9z"/>
						<path id="XMLID_242_" d="M-1217,1466.9l-0.1,0.3c0,0,3,1.6,7.2,1.7c3.5,0.1,7.8-0.8,11.9-4.4l-0.2-0.2l-0.2-0.2l0,0
							c-0.1,0.1-1.3,1.3-3.2,2.5c-1.9,1.2-4.7,2.2-8,2.1c-2.2-0.1-4.6-0.6-7.3-2l-0.3,0.6L-1217,1466.9l-0.1,0.3
							c2.7,1.5,5.2,2,7.5,2.1c3.5,0.1,6.4-1.1,8.5-2.3c2-1.2,3.1-2.5,3.1-2.5l-0.4-0.5c-4.1,3.5-8.2,4.4-11.6,4.3
							c-2-0.1-3.8-0.5-5-0.9c-0.6-0.2-1.1-0.4-1.4-0.5c-0.2-0.1-0.3-0.1-0.4-0.2c0,0-0.1,0-0.1,0l0,0l0,0l-0.3,0.6L-1217,1466.9z"/>
						<path id="XMLID_241_" d="M-1210.4,1471.2c1.9,0.5,4.2,0.6,5.9-0.6c0.3-0.2-0.7-0.7-1-0.6c-1.5,1-3.4,1-5,0.5
							C-1211.3,1470.4-1210.9,1471-1210.4,1471.2z"/>
						<path id="XMLID_240_" d="M-1227.6,1458.2l0.5-0.4c0,0,0,0,0,0c-0.4-0.5-3.5-5.1-6.5-11c-1.5-2.9-3-6.2-4-9.5
							c-1.1-3.2-1.7-6.5-1.7-9.3c0-1.7,0.3-3.2,1-4.5c1.3-2.8,2.8-5.2,4.5-7.4c2.6-3.2,5.8-5.6,10-7.2c4.2-1.6,9.4-2.5,15.8-2.5
							c0.3,0,0.7,0,1,0c8.3,0.2,15.5,3.1,20.5,7.4c2.5,2.1,4.5,4.6,5.9,7.3c1.3,2.6,2,5.5,2,8.3c0,0,0,0.1,0,0.1
							c-0.1,3-0.8,5.8-1.7,8.4c-1.5,3.9-3.6,7.5-5.5,10.6c-1,1.5-1.9,3-2.6,4.3c-0.7,1.3-1.3,2.5-1.5,3.6c-0.6,2.7-1.1,5.8-1.8,8.6
							c-0.3,1.4-0.7,2.6-1.1,3.7c-0.4,1-0.9,1.8-1.4,2.3c-0.5,0.5-1.4,1.1-2.4,1.7c-1.6,0.9-3.5,1.8-5.5,2.5c-2,0.7-3.9,1.1-5.4,1.1
							c-0.1,0-0.1,0-0.2,0c-2.1-0.1-6.1-0.5-9.8-1.5c-1.8-0.5-3.6-1.2-4.9-2.1c-0.7-0.4-1.2-0.9-1.7-1.4c-0.4-0.5-0.7-1.1-0.9-1.7
							c-0.7-2.5-0.9-4-1.1-5.5c-0.2-1.5-0.3-3.1-0.7-5.8l0-0.1l-0.1-0.1L-1227.6,1458.2l-0.6,0.1c0.4,2.7,0.6,4.2,0.7,5.7
							c0.2,1.5,0.4,3.1,1.1,5.7c0.2,0.8,0.6,1.5,1.2,2.2c0.9,1.1,2.3,2,3.8,2.7c2.3,1,4.9,1.7,7.4,2.1c2.5,0.4,4.7,0.6,6.1,0.7
							c0.1,0,0.1,0,0.2,0c1.1,0,2.4-0.2,3.7-0.5c2-0.5,4.1-1.3,6-2.3c0.9-0.5,1.8-0.9,2.5-1.4c0.7-0.5,1.4-0.9,1.9-1.4
							c0.7-0.7,1.2-1.6,1.7-2.7c0.7-1.7,1.2-3.8,1.6-6c0.5-2.2,0.8-4.5,1.3-6.4c0.1-0.6,0.4-1.3,0.8-2c0.6-1.3,1.6-2.9,2.7-4.6
							c1.6-2.6,3.5-5.7,5.1-9.1c1.5-3.4,2.7-7.2,2.8-11.3c0-0.1,0-0.1,0-0.2c0.1-3.1-0.7-6.1-2.1-8.9c-2.1-4.2-5.8-8-10.5-10.7
							c-4.7-2.7-10.5-4.4-16.9-4.6c-0.3,0-0.7,0-1.1,0c-8.8,0-15.3,1.5-20.3,4.5c-2.5,1.5-4.6,3.4-6.4,5.6c-1.8,2.2-3.3,4.8-4.7,7.6
							c-0.7,1.5-1,3.2-1.1,5.1c-0.1,3.1,0.7,6.6,1.8,10.1c1.7,5.2,4.4,10.3,6.6,14.1c2.2,3.8,4,6.4,4,6.4L-1227.6,1458.2l-0.6,0.1
							L-1227.6,1458.2z"/>
						<path id="XMLID_239_" d="M-1187.5,1453.1c1.4-1.2,2.7-2.7,4-3.8c0.7-0.6,1.4-1.1,2.2-1.4c0.7-0.4,1.5-0.6,2.4-0.6h0
							c0.1,0,0.1,0,0.2,0.1c0.1,0.1,0.3,0.3,0.4,0.6c0.1,0.3,0.2,0.6,0.2,0.8c0.1,0.3,0.1,0.6,0.1,0.9c0,0.5-0.1,1-0.2,1.5
							c-0.4,1.7-1.4,3.4-2.4,4.9c-1.1,1.6-2.7,2.8-4.4,3.7c-1.7,0.9-3.7,1.3-5.5,1.5l0.1,1.2c2-0.2,4-0.7,5.9-1.6
							c1.9-0.9,3.6-2.2,4.8-4.1c1.1-1.5,2.1-3.4,2.6-5.3c0.2-0.6,0.3-1.2,0.3-1.8c0-0.4,0-0.8-0.1-1.2c-0.1-0.4-0.2-1-0.5-1.5
							c-0.1-0.2-0.3-0.5-0.5-0.7c-0.2-0.2-0.5-0.3-0.9-0.3c0,0-0.1,0-0.1,0c-1,0-1.9,0.3-2.8,0.7c-1.3,0.6-2.4,1.6-3.5,2.5
							c-1.1,1-2,2-3,2.9L-1187.5,1453.1z"/>
						<path id="XMLID_238_" d="M-1180,1449.1c-0.1,0-1.5,0.1-3.5,1.3c-2,1.2-4.5,3.4-6.9,7.7l1,0.6c2.3-4.1,4.7-6.2,6.5-7.3
							c0.9-0.5,1.7-0.8,2.2-1c0.3-0.1,0.5-0.1,0.6-0.1c0.1,0,0.1,0,0.1,0l0,0h0l0-0.3l0,0.3l0,0l0-0.3l0,0.3L-1180,1449.1z"/>
						<path id="XMLID_237_" d="M-1228.9,1455c-1.2-1.2-2.6-2.8-4.1-4.1c-0.7-0.7-1.5-1.3-2.3-1.7c-0.8-0.5-1.6-0.8-2.5-0.9
							c0,0-0.1,0-0.1,0c-0.3,0-0.7,0.1-0.9,0.3c-0.4,0.3-0.6,0.7-0.8,1c-0.2,0.4-0.3,0.8-0.4,1.1l0,0c-0.1,0.4-0.1,0.8-0.1,1.2
							c0,0.6,0.1,1.2,0.2,1.8c0.4,2,1.3,3.8,2.3,5.4c1.2,1.9,2.8,3.3,4.6,4.3c1.8,1,3.9,1.7,5.8,2l0.2-1.2c-1.9-0.3-3.8-0.9-5.5-1.8
							c-1.7-0.9-3.2-2.2-4.2-3.9c-1-1.5-1.8-3.3-2.2-5c-0.1-0.5-0.2-1-0.2-1.5c0-0.3,0-0.6,0.1-0.9l0,0c0.1-0.3,0.2-0.8,0.4-1.1
							c0.1-0.2,0.2-0.3,0.3-0.3c0.1-0.1,0.1-0.1,0.2-0.1l0,0c0.7,0.1,1.4,0.3,2.1,0.7c1.1,0.6,2.2,1.5,3.2,2.6c1,1,2.1,2.1,3,3
							L-1228.9,1455z"/>
						<path id="XMLID_236_" d="M-1237.1,1452.7l0-0.3L-1237.1,1452.7L-1237.1,1452.7l0-0.3L-1237.1,1452.7c0,0,1.2,0.2,3,1.3
							c1.7,1.2,4,3.4,6.1,7.6l1-0.6c-2.2-4.4-4.6-6.8-6.5-8.1c-1.9-1.3-3.3-1.5-3.4-1.5L-1237.1,1452.7z"/>
						<path id="XMLID_234_" d="M-1183.6,1457c0,0,0.4-0.4,0.8-1.2c0.4-0.7,0.8-1.8,0.8-3.3c0-0.5,0-1.1-0.1-1.8l-1.1,0.2
							c0.1,0.5,0.1,1,0.1,1.5c0,1.2-0.4,2.1-0.7,2.7c-0.2,0.3-0.3,0.5-0.4,0.7c-0.1,0.1-0.1,0.1-0.1,0.2l0,0l0,0l0.1,0.1l-0.1-0.1v0
							l0.1,0.1l-0.1-0.1L-1183.6,1457z"/>
						<path id="XMLID_232_" d="M-1234.9,1453.2c0,0.1-0.5,1-0.5,2.4c0,1.1,0.2,2.5,1,4l1-0.6c-0.7-1.3-0.9-2.4-0.9-3.3
							c0-0.6,0.1-1.1,0.2-1.4c0-0.2,0.1-0.3,0.1-0.4c0,0,0-0.1,0-0.1l0,0v0l-0.3-0.1l0.3,0.1v0l-0.3-0.1l0.3,0.1L-1234.9,1453.2z"/>
					</g>
					<g id="XMLID_383_">
						<g id="XMLID_402_">
							<path id="XMLID_230_" class="st5" d="M-1199.3,1497.6c0.6-0.1,1.3-0.5,1.6-1.2c0.1-0.4,0.1-0.8,0-1.2c0,0,0,0,0-0.1
								c-0.1-0.2-0.3-1.6-2.2-2.2c-1.9-0.6-3.7,0.5-3.7,0.5c-1.3,0.6-3.1-0.3-4.4-0.3c-1.4,0-1.8,1.5-1.8,1.5l-1,0.2
								c0,0-1.7,0.7-2.8,0.5c-1.1-0.2-4.9-0.5-3.7,1.7l1,0c0,0,0.1,0.6,0.5,0.7c0.4,0.1,1.4-0.3,2.4-0.1c1,0.3,4.3-0.1,4.6,0
								c5.1,0.6,7.9,0.5,9.2,0.3C-1199.4,1497.6-1199.4,1497.6-1199.3,1497.6z"/>
						</g>
						<g id="XMLID_400_">
							<path id="XMLID_228_" class="st28" d="M-1207.8,1495.7c0,0,0.1-0.9,0.4-1.1c0.4-0.3,0-0.7-0.5-0.6c-0.5,0.1-1,0.5-1.1,1.1
								C-1209,1495.6-1208.4,1495.6-1207.8,1495.7z"/>
						</g>
						<path id="XMLID_226_" class="st27" d="M-1216.2,1496.5c0,0,0.4-0.5,0.9-0.5c0.5,0,1.9,0,1.9,0s1.4-0.4,2.4-0.6
							c0,0,1-0.2,1.2-0.2c0,0-0.2-0.5-0.1-0.8c0,0-0.9,0.1-1.6,0.4c-0.7,0.2-1.3,0.5-1.8,0.4c-0.5-0.1-1.8-0.1-1.8-0.1
							s1.8,0.2,1.6,0.4c-0.2,0.2-0.2,0.2-0.7,0.2C-1214.6,1495.8-1216,1495.5-1216.2,1496.5z"/>
						<g id="XMLID_397_" class="st29">
							<path id="XMLID_224_" class="st27" d="M-1199.3,1497.6c0.4,0,1-0.3,1.3-0.7c0.2-0.4,0.1-0.8,0.1-0.8c-1.1,2-9.4,1.5-9.3,0.6
								c0.1-0.9,3.4-0.4,4.7,0.1c1.3,0.5,0.9-1.4,0.7-1c-0.3,0.4-1.5,0.1-2.6-0.2c-1.2-0.3-2.8-0.1-3.5,0c-0.6,0.1-1.3-0.1-1.7-0.5
								c-0.3-0.3,0.2-1.4,0.2-1.4s-0.5,0.4-0.4,1c0.1,1.4,1.9,1.3,1.9,1.3c0.2,0.9-2.1,0.6-2.6,0.7c-0.5,0.1-2,0.5-2.7,0.6
								c-0.7,0.1-1.7-0.1-1.7-0.1c0-0.2-0.2-0.2-0.2-0.2c0.1,0.3,0,0.5,0,0.5s0.8-0.2,1.5,0c0.8,0.2,2.5,0.1,3.5,0
								c1-0.1,1-0.1,2.3,0c1.4,0.1,4.1,0.4,6.1,0.4c0.9,0,1.5-0.1,2.1-0.2C-1199.4,1497.6-1199.4,1497.6-1199.3,1497.6z"/>
						</g>
						<g id="XMLID_394_">
							<g id="XMLID_395_">
								<path id="XMLID_222_" d="M-1209.8,1494.6c-0.2,1.7,2,1.5,2.8,1.5c0.8,0,1.6,0,2.5,0c0.5,0,1.1,0.1,1.6,0.2
									c0.3,0.1,0.6,0.1,0.8,0.3c0,0,0.1-0.1,0.1-0.1c-0.3-0.2-0.6-0.3-0.9-0.3c-0.5-0.1-1.1-0.1-1.6-0.2c-0.8,0-1.7,0-2.5,0
									c-0.6,0-1.3,0.1-1.9-0.2c-0.2-0.1-0.5-0.2-0.6-0.4c-0.2-0.2-0.2-0.6-0.2-0.9C-1209.7,1494.6-1209.8,1494.6-1209.8,1494.6
									L-1209.8,1494.6z"/>
							</g>
						</g>
						<g id="XMLID_392_" class="st30">
							<path id="XMLID_220_" class="st27" d="M-1207.5,1493.4c-1.1-0.3-1.6,0.6-1.6,0.6c0.6-0.7,1.9-0.3,1.9-0.3
								c3.4,0.9,3.8,0,3.8,0C-1204.3,1494.4-1206.5,1493.7-1207.5,1493.4z"/>
						</g>
						<g id="XMLID_390_">
							<path id="XMLID_218_" d="M-1209.8,1494.9c-1.1,0.2-2.3,0.4-3.4,0.7c-0.2,0-0.3,0.1-0.5,0.1c-0.2,0-0.5,0-0.7,0
								c-0.4,0-0.7,0-1.1,0.1c-0.6,0.1-0.9,0.6-0.7,1.3c0,0.1,0.1,0,0.1-0.1c-0.4-1.2,0.8-1.3,1.5-1.3c0.2,0,0.4,0,0.6,0
								c0.1,0,0.3,0.1,0.5,0c0.2-0.1,0.5-0.2,0.7-0.2c1-0.2,2-0.4,3-0.6C-1209.7,1495-1209.7,1494.9-1209.8,1494.9L-1209.8,1494.9z"
								/>
						</g>
						<g id="XMLID_387_">
							<g id="XMLID_388_">
								<path id="XMLID_216_" d="M-1207.3,1494.3c0,0.2-0.1,0.3-0.2,0.4c0,0,0,0,0.1,0c-0.1,0.1-0.2,0.2-0.3,0.3
									c-0.1,0.2-0.2,0.3-0.2,0.5c0,0.1,0,0.2,0,0.3c0,0,0,0,0,0c0,0-0.1,0-0.1,0c-0.1,0-0.2,0-0.2,0c-0.2,0-0.4,0-0.5-0.2
									c-0.5-0.4-0.1-1.2,0.1-1.5C-1208.3,1493.7-1207.6,1493.8-1207.3,1494.3L-1207.3,1494.3c-0.3-0.6-0.9-0.6-1.2-0.2
									c-0.3,0.3-0.8,1-0.5,1.5c0.2,0.3,0.7,0.4,1,0.3c0.1,0,0.1-0.1,0.2-0.1c0,0,0-0.1,0-0.1c0-0.1,0-0.2,0-0.3
									c0-0.2,0.1-0.4,0.2-0.5c0.1-0.1,0.1-0.1,0.2-0.1C-1207.3,1494.5-1207.2,1494.4-1207.3,1494.3
									C-1207.2,1494.2-1207.3,1494.3-1207.3,1494.3z"/>
							</g>
						</g>
						<g id="XMLID_384_">
							<g id="XMLID_385_">
								<path id="XMLID_214_" d="M-1198.6,1497.4c-0.1,0-0.1,0-0.2,0c-0.2,0.1-0.3,0.1-0.5,0.1c-0.1,0-0.2,0-0.3,0.1
									c-0.8,0.1-1.7,0.2-2.9,0.2c-1.8,0-3.9-0.2-6.3-0.5c0,0-0.1,0-0.1,0c-0.2,0-0.5,0-1,0c-0.7,0-1.5,0.1-2.3,0.1
									c-0.6,0-1,0-1.2-0.1c-0.2-0.1-0.5-0.1-0.8-0.1c-0.4,0-0.8,0.1-1.1,0.1c-0.2,0-0.4,0.1-0.6,0.1c-0.3,0-0.3-0.5-0.3-0.5l0-0.1
									l-1,0c-0.2-0.4-0.3-0.7-0.1-0.9c0.2-0.4,1-0.6,2.1-0.6c0.7,0,1.4,0.1,1.6,0.1c0.1,0,0.2,0,0.4,0c1.1,0,2.4-0.5,2.4-0.5
									l1.1-0.2l0-0.1c0,0,0.4-1.4,1.7-1.4c0.5,0,1,0.1,1.6,0.3c0.6,0.1,1.2,0.3,1.8,0.3c0.4,0,0.7-0.1,1.1-0.2
									c0,0,1.1-0.7,2.4-0.7c0.4,0,0.8,0.1,1.2,0.2c0.9,0.3,1.4,0.8,1.7,1.2c0,0,0.1,0,0.1,0c0.1,0,0.1,0,0.2,0
									c-0.3-0.5-0.8-1.1-1.9-1.5c-0.4-0.1-0.8-0.2-1.3-0.2c-1.4,0-2.5,0.7-2.5,0.7c-0.3,0.1-0.6,0.2-0.9,0.2
									c-0.5,0-1.2-0.1-1.7-0.3c-0.6-0.1-1.2-0.3-1.7-0.3h0c-1.3,0-1.8,1.2-1.9,1.5l-0.9,0.2c0,0-1.3,0.5-2.3,0.5
									c-0.1,0-0.2,0-0.3,0c-0.2,0-0.9-0.1-1.6-0.1c-1.3,0-2.1,0.2-2.3,0.7c-0.2,0.3-0.1,0.7,0.2,1.2l0,0.1l0.9,0
									c0,0.2,0.2,0.6,0.5,0.7c0.2,0,0.4,0,0.6-0.1c0.3-0.1,0.6-0.1,1-0.1c0.3,0,0.5,0,0.7,0.1c0.3,0.1,0.7,0.1,1.3,0.1
									c0.8,0,1.6-0.1,2.3-0.1c0.5,0,0.9-0.1,1.1,0c2.4,0.3,4.5,0.5,6.3,0.5c1.2,0,2.2-0.1,3-0.2l0,0l0,0c0,0,0.1-0.1,0.2-0.1
									c0.3,0,0.6-0.2,0.9-0.3C-1198.4,1497.4-1198.5,1497.4-1198.6,1497.4z"/>
							</g>
						</g>
					</g>
				</g>
			</g>
		</g>
		<g id="XMLID_368_">
			
				<image style="overflow:visible;" width="96" height="94" xlink:href="62A904E2.png"  transform="matrix(1 0 0 1 -1255.1968 1435.9246)">
			</image>
		</g>
		<g id="XMLID_116_">
			<path id="XMLID_200_" class="st31" d="M-1215.7,1481.9c0.7-4.8,5.2-7.6,10.2-6.8c5.6,0.8,8.3,4.7,7.6,9.6
				c-0.7,4.5-4.4,7.7-10.2,6.8C-1213.5,1490.7-1216.4,1486.7-1215.7,1481.9L-1215.7,1481.9z"/>
			<path id="XMLID_198_" class="st32" d="M-1198.1,1484.7c0.7-4.8-1.9-8.6-7.4-9.4c-4.9-0.7-9.3,2-9.9,6.6c-0.7,4.7,2.1,8.6,7.4,9.4
				C-1202.4,1492.1-1198.8,1489.1-1198.1,1484.7L-1198.1,1484.7z"/>
			<g id="XMLID_363_">
				<path id="XMLID_196_" class="st33" d="M-1203.8,1478.1c-0.3,0.6-0.9,1.2-1.8,1.2c-1.8,0.1-1.8,0.4-2.1,1.2
					c-0.3,0.7-1.2,1.1-2.6,0.3c-1.4-0.7-1.9-0.5-2.3-0.4c-0.4,0.1,0.6,0,1.7,0.7c1.1,0.8,1.6,2.1,0.6,2.5c-1,0.4-1.5,0.5-0.6,1.1
					c0.9,0.6,0.9,1.1,0.3,2.3c-0.6,1.2-0.3,2,1.8,3.1c2.2,1.1,5,0.5,5.6-0.7c0.6-1.2-1.7-2.2-0.7-3.2c1.1-1.1,0.7-1.9,0.1-2.6
					c-0.6-0.7-0.5-2,1.3-2.5c1.8-0.5,3.2,0.1,3.3-0.2c0.1-0.3-0.4-0.5-1.5-0.4c-1.2,0.2-2.3,0.5-3,0c-0.7-0.6-0.7-1.6,0.4-2.1
					c1-0.4,1.3-1.3,0.3-1.8C-1203.9,1476.1-1203,1476.6-1203.8,1478.1L-1203.8,1478.1z"/>
				<path id="XMLID_194_" class="st34" d="M-1204.8,1479.8c0,0-1.6-0.3-2,1c-0.4,1.4-2,1.4-2.6,0.9c-0.6-0.5-0.2,0.2,0,0.9
					c0.2,0.7,0.1,1.6-0.6,1.6c-0.7,0.1-0.1,0.1,0.3,1.1c0.3,1,0.2,1.5-0.1,2.3c-0.3,0.8,0.4,1.9,2.6,2.3c2.2,0.4,4.3-0.4,3-1.8
					c-1.2-1.4,0-2.5,0.3-2.8c0.3-0.3,0.1-0.8-0.5-1.4c-0.6-0.6-0.3-2.3,0.3-2.6c0.5-0.2-0.5-0.8-0.4-1.1
					C-1204.5,1479.8-1204.8,1479.8-1204.8,1479.8L-1204.8,1479.8z"/>
			</g>
			<path id="XMLID_192_" class="st35" d="M-1215.2,1480.8c1.1,5.9,8.8,10.2,16.2,6.6c-1.5,2.9-4.7,4.6-9.1,4
				c-5.3-0.8-8.1-4.7-7.4-9.4C-1215.4,1481.5-1215.3,1481.1-1215.2,1480.8L-1215.2,1480.8z"/>
			<path id="XMLID_190_" class="st31" d="M-1215.7,1481.9c0.6-3.7,3.4-6.2,6.9-6.8h0l0.1,0l0.3,0c1.8,0,4.7,0.3,4.5,2.1
				c-0.2,1.4-2.1,1.7-3.4,1.9c-0.7,0.1-0.7,1.4-1.5,1.6c-1,0.2-1.4-0.7-2.8-0.9c-1-0.2-2.3,0.6-2.5,1.1c0,0.1,0,0.1,0.1,0.1
				c0.1,0,0.3,0.1,0.5,0.1c0.4,0,0.9,0,1.2,0.1c0.9,0.3,1.7,1,1.7,1.9c0,0.8-1.9,0.6-2,1.2c0,0.6,1.3,0.6,1.5,1.3
				c0.2,0.7-0.8,1-0.8,1.9c-0.1,1.7,1.5,3,3.3,3.8c0.1,0.1,0.1,0.2-0.1,0.2C-1213.6,1490.5-1216.4,1486.6-1215.7,1481.9
				L-1215.7,1481.9z"/>
			<path id="XMLID_188_" class="st36" d="M-1212,1487.4c0.1-1,0.9-1.2,0.8-1.8c-0.1-0.6-1.5-0.6-1.5-1.4c0.1-0.9,2-0.6,2-1.2
				c0-0.7-0.6-1.4-1.5-1.7c-0.5-0.1-2.2,0.2-1.9-0.5c0.3-0.6,1.6-1.4,2.7-1.2c1.4,0.3,1.8,1.1,2.7,0.9c0.6-0.1,0.7-1.4,1.5-1.6
				c1.4-0.2,3.1-0.5,3.2-1.7c0.2-1.5-2.7-1.9-4.6-1.8l-0.1,0l-0.6,0.1c-3.2,0.8-5.6,3.1-6.1,6.5c-0.6,4.2,1.7,7.9,6.1,9.1l0.1,0
				l-0.6-0.4C-1211.1,1489.9-1212.1,1488.8-1212,1487.4L-1212,1487.4z"/>
			<path id="XMLID_186_" class="st37" d="M-1212,1487.4c0-0.5,0.2-0.8,0.4-1c-1.9-1.4-3.2-3.4-3.6-5.6c0,0.2-0.1,0.3-0.1,0.5l0,0
				l0,0l0,0.1l0,0l0,0.1l0,0l0,0l0,0c0,0,0,0.1,0,0.1l0,0l0,0v0c0,0,0,0.1,0,0.1l0,0v0l0,0c0,0.1,0,0.1,0,0.2c0,0.1,0,0.1,0,0.2
				l0,0.1c0,0,0,0.1,0,0.1l0,0.1c0,0,0,0.1,0,0.1l0,0.1c0,0,0,0.1,0,0.1l0,0.1c0,0,0,0.1,0,0.1l0,0.1c0,0,0,0.1,0,0.1v0.1
				c0,0,0,0.1,0,0.1v0.1c0,0.1,0,0.1,0,0.2l0,0c0,0.1,0,0.1,0,0.2l0,0c0,0.3,0,0.5,0.1,0.8l0,0c0,0.1,0,0.1,0,0.2l0,0
				c0,0.1,0,0.1,0,0.2l0,0c0,0.1,0,0.1,0,0.2l0,0c0,0.1,0,0.1,0,0.2l0,0c0,0.1,0,0.1,0.1,0.2l0,0c0.1,0.4,0.3,0.9,0.5,1.3l0,0
				c0,0.1,0.1,0.1,0.1,0.2l0,0c0,0.1,0.1,0.1,0.1,0.1l0,0c0,0,0.1,0.1,0.1,0.1l0,0c0,0,0.1,0.1,0.1,0.1l0,0c0,0.1,0.1,0.1,0.1,0.2
				l0,0c0.1,0.1,0.1,0.2,0.2,0.3l0,0c0,0,0.1,0.1,0.1,0.1l0,0.1c0,0,0,0.1,0.1,0.1c0,0,0,0,0.1,0.1l0.1,0.1c0,0,0,0,0.1,0.1l0.1,0.1
				c0,0,0,0.1,0.1,0.1l0.1,0.1c0,0,0.1,0.1,0.1,0.1l0,0c0,0,0.1,0.1,0.1,0.1l0,0c0,0,0.1,0.1,0.1,0.1l0,0c1,0.8,2.2,1.5,3.6,1.9
				l0.1,0l-0.6-0.4C-1211.1,1489.9-1212.1,1488.8-1212,1487.4L-1212,1487.4z"/>
			<path id="XMLID_184_" class="st36" d="M-1211.8,1486.7c0.3-0.5,0.7-0.7,0.6-1.2c-0.1-0.6-1.5-0.6-1.5-1.4c0.1-0.9,2-0.6,2-1.2
				c0-0.7-0.6-1.4-1.5-1.7c-0.5-0.1-2,0.1-1.9-0.4c-0.1,0.1-0.2,0.5,0.4,0.6c0.7,0.1,1.6-0.1,2.1,0.6c0.4,0.7,0.2,1.1-0.5,1.3
				c-0.7,0.3-1.2,1-0.5,1.5c0.8,0.5,1.4,0.4,0.9,1.4C-1211.7,1486.4-1211.8,1486.6-1211.8,1486.7L-1211.8,1486.7z"/>
			<path id="XMLID_182_" class="st31" d="M-1202.6,1480.4c-0.4-0.1-0.8-0.7-0.8-1.1c0.1-0.6,1.1-0.6,1.3-1c0.4-0.6,0.5-1.2,0.3-1.8
				c0-0.1,0.1-0.2,0.2-0.1c1.5,0.9,2.5,2.1,3.1,3.6c0,0.1,0,0.2-0.1,0.1c-0.4-0.2-0.9-0.2-1.3-0.2
				C-1200.7,1480.1-1201.5,1480.7-1202.6,1480.4L-1202.6,1480.4z"/>
			<path id="XMLID_180_" class="st38" d="M-1199.9,1479.8c0.3,0,0.7,0,1.1,0.1l0.1,0l-0.1-0.3c-0.5-1-1.3-1.9-2.3-2.6l-0.3-0.2
				l0,0.2c0,0.5-0.1,1-0.4,1.5c-0.3,0.5-1.2,0.4-1.3,0.9c-0.1,0.3,0.3,0.8,0.6,0.9C-1201.5,1480.4-1200.8,1479.9-1199.9,1479.8
				L-1199.9,1479.8z"/>
			<path id="XMLID_178_" class="st31" d="M-1203.5,1491.1c0.9-0.6,1.5-1.4,1.5-2.2c0-0.8-1.3-1.1-1-2.5c0.1-0.7,1.1-0.8,1.2-1.4
				c0.1-0.9-2-1.9-1.2-2.8c0.7-0.9,2.3-1.1,3.5-0.9c0.6,0.1,1.1,0.3,1.6,0.6c0,0,0.1,0,0.1,0.1c0.1,0.9,0.1,1.8,0,2.8
				c-0.5,3.1-2.4,5.6-5.5,6.5C-1203.5,1491.3-1203.6,1491.1-1203.5,1491.1L-1203.5,1491.1z"/>
			<path id="XMLID_176_" class="st39" d="M-1198.1,1484.7c0.1-0.7,0.1-1.4,0.1-2.1l-0.1-0.6l-0.3-0.2c-0.4-0.2-0.8-0.3-1.2-0.4
				c-1.1-0.2-2.6,0-3.3,0.8c-0.3,0.3,0,0.7,0.4,1.2c0.4,0.4,0.9,1,0.9,1.5c-0.1,0.7-1.1,0.9-1.2,1.4c-0.2,1.3,1,1.5,1,2.4
				c0,0.7-0.4,1.3-1,1.9l-0.1,0.1l0.4-0.2C-1200,1489.5-1198.5,1487.3-1198.1,1484.7L-1198.1,1484.7z"/>
			<path id="XMLID_174_" class="st37" d="M-1202,1488.4c0.1,0.1,0.1,0.3,0.2,0.5c0,0.7-0.4,1.3-1,1.9l-0.1,0.1l0.4-0.2
				c1.4-0.7,2.5-1.7,3.3-3l0,0c0,0,0-0.1,0.1-0.1l0,0c0-0.1,0.1-0.1,0.1-0.2C-1200,1487.8-1201,1488.2-1202,1488.4L-1202,1488.4z"/>
			<path id="XMLID_172_" class="st40" d="M-1210.6,1487L-1210.6,1487c-0.6,1.2-0.3,2,1.8,3.1c2.2,1.1,5,0.5,5.6-0.7
				c0.2-0.3,0.1-0.6,0-0.9C-1205.9,1488.9-1208.5,1488.3-1210.6,1487L-1210.6,1487z"/>
			<path id="XMLID_170_" class="st41" d="M-1209.8,1487.4c0,0,0,0.1-0.1,0.2c-0.3,0.8,0.4,1.9,2.6,2.3c1.9,0.4,3.6-0.2,3.4-1.3
				C-1206,1488.6-1208,1488.2-1209.8,1487.4L-1209.8,1487.4z"/>
			<path id="XMLID_168_" class="st42" d="M-1198.5,1484.4c-0.2,1.6-0.7,3.1-1.8,4.3c-0.9,1-0.8,0.5-0.7,0c0.1-1-0.2-1-0.8-1.5
				c-0.3-0.3-0.3-0.7,0.2-1.1c0.9-0.7,1.1-1.5,0.1-2.5C-1203.2,1482.1-1198.1,1480.8-1198.5,1484.4L-1198.5,1484.4z"/>
			<path id="XMLID_167_" class="st43" d="M-1199.5,1487.6c-0.2,0.4-0.5,0.8-0.9,1.2c-0.9,1-0.8,0.5-0.7,0c0-0.3,0-0.5,0-0.6
				C-1200.5,1488-1200,1487.8-1199.5,1487.6L-1199.5,1487.6z"/>
			<path id="XMLID_164_" class="st38" d="M-1202.1,1484c0,0-1.3-1.3-0.1-1.9c1.2-0.6,2.2-0.4,3-0.1c0.7,0.3,1.2,0.8,0.9,3.2
				c0-0.1,0.1-0.3,0.1-0.4c0.1-0.7,0.1-1.4,0.1-2.1l-0.1-0.6l-0.3-0.2c-0.4-0.2-0.8-0.3-1.2-0.4c-1.1-0.2-2.6,0-3.3,0.8
				c-0.3,0.3,0,0.7,0.4,1.2C-1202.3,1483.7-1202.2,1483.8-1202.1,1484L-1202.1,1484L-1202.1,1484z"/>
			<path id="XMLID_162_" class="st38" d="M-1201.8,1484.3c0.3,0.2,0.4,0.7,0.3,0.9c-0.1,1-2,1.1-0.6,2.6c0.5,0.5,0.7,1.1,0.4,1.8
				c-0.2,0.6,0.4,0.3,1-0.1c-0.5,0.5-1.1,0.9-1.8,1.2l-0.4,0.2l0.1-0.1c0.6-0.5,1-1.2,1-1.9c0-0.9-1.3-1.1-1-2.4
				c0.1-0.5,1.1-0.7,1.2-1.4C-1201.6,1484.8-1201.7,1484.5-1201.8,1484.3L-1201.8,1484.3L-1201.8,1484.3z"/>
			<path id="XMLID_161_" class="st44" d="M-1201.7,1488.3c0.2,0.4,0.2,0.8,0,1.3c-0.2,0.6,0.4,0.3,1-0.1c-0.5,0.5-1.1,0.9-1.8,1.2
				l-0.4,0.2l0.1-0.1c0.6-0.5,1-1.2,1-1.9c0-0.2-0.1-0.4-0.2-0.5C-1201.9,1488.4-1201.8,1488.3-1201.7,1488.3L-1201.7,1488.3z"/>
			<path id="XMLID_158_" class="st42" d="M-1200.6,1477.4c-0.2-0.1-0.3-0.2-0.4-0.1c-0.3,0.2-0.1,0.5-0.5,1.1
				c-0.4,0.5-0.9,0.6-1.2,0.8c-0.4,0.2-0.1,0.7,0.2,0.9c0.3,0.2,0.9,0,1.5-0.2c0.6-0.3,1.1-0.3,1.6-0.2c0.3,0.1,0.4-0.2,0.3-0.5
				C-1199.5,1478.5-1200,1477.9-1200.6,1477.4L-1200.6,1477.4z"/>
			<path id="XMLID_156_" class="st42" d="M-1209.5,1476c2.4-0.6,3.6-0.2,4,0.4c0.5,0.6-0.1,1.5-1.6,1.5c-1.5,0-1.4,0.7-1.7,1.2
				c-0.3,0.5-1.2,0.3-2.4-0.1c-0.6-0.2-1.2-0.1-1.7,0.1c-1.1,0.5-2.3,1.5-0.3-1C-1212.4,1477.3-1211.2,1476.4-1209.5,1476
				L-1209.5,1476z"/>
			<path id="XMLID_154_" class="st42" d="M-1214.3,1486.5c1,2.4,3.1,3.3,3.1,3.3s-1.3-1.2-1.1-2.4c0.2-1.2,0.9-1.5,0-1.9
				c-0.9-0.4-1.5-1.8-0.4-2.1c1-0.3,0.9-1.5-0.1-1.5c-1.4,0.1-1.6,0-1.7-0.9c0-0.4-0.3-0.6-0.5,0.4
				C-1215.1,1482.6-1215.1,1484.8-1214.3,1486.5L-1214.3,1486.5z"/>
			<path id="XMLID_152_" class="st38" d="M-1210.9,1489.9c0,0.1,0,0.5-0.7,0.1c-0.8-0.4-2.2-1.5-3.3-4.1c-1-2.6-0.2-5.2,0.2-6.1
				c0.4-0.9,2.5-3.9,5.6-4.1c3.1-0.2,4.1,0.2,4.4,1.1c0.3,0.9-0.7,1.4-1.8,1.5c-1,0.1-1.4,0.2-2,1.1c-0.6,0.9-0.9,0.8-1.9,0.3
				c-1-0.5-2.6-0.4-3.2,0.4c0,0-0.1,0.1-0.1,0.1c0.6-0.4,1.4-0.8,2.2-0.6c1.4,0.3,1.8,1.1,2.7,0.9c0.6-0.1,0.7-1.4,1.5-1.6
				c1.4-0.2,3.1-0.5,3.2-1.7c0.2-1.5-2.7-1.9-4.6-1.8l-0.1,0l-0.6,0.1c-3.2,0.8-5.6,3.1-6.1,6.5c-0.6,4.2,1.7,7.9,6.1,9.1l0.1,0
				l-0.6-0.4C-1210.2,1490.5-1210.6,1490.2-1210.9,1489.9L-1210.9,1489.9z"/>
			<path id="XMLID_150_" class="st44" d="M-1210.9,1489.9c0,0.1,0,0.5-0.7,0.1c-0.8-0.4-2.2-1.5-3.3-4.1c-0.7-1.8-0.5-3.5-0.2-4.8
				c0-0.1-0.1-0.3-0.1-0.4c0,0.2-0.1,0.3-0.1,0.5l0,0l0,0l0,0.1l0,0l0,0.1l0,0l0,0l0,0c0,0,0,0.1,0,0.1l0,0l0,0v0c0,0,0,0.1,0,0.1
				l0,0v0l0,0c0,0.1,0,0.1,0,0.2c0,0.1,0,0.1,0,0.2l0,0.1c0,0,0,0.1,0,0.1l0,0.1c0,0,0,0.1,0,0.1l0,0.1c0,0,0,0.1,0,0.1l0,0.1
				c0,0,0,0.1,0,0.1l0,0.1c0,0,0,0.1,0,0.1v0.1c0,0,0,0.1,0,0.1v0.1c0,0,0,0.1,0,0.2l0,0c0,0.1,0,0.1,0,0.2l0,0c0,0.3,0,0.5,0.1,0.8
				l0,0c0,0.1,0,0.1,0,0.2l0,0c0,0.1,0,0.1,0,0.2l0,0c0,0.1,0,0.1,0,0.2l0,0c0,0.1,0,0.1,0,0.2v0c0,0.1,0,0.1,0.1,0.2l0,0
				c0.1,0.4,0.3,0.9,0.5,1.3l0,0c0,0.1,0.1,0.1,0.1,0.2l0,0c0,0.1,0.1,0.1,0.1,0.1l0,0c0,0,0.1,0.1,0.1,0.1l0,0c0,0,0.1,0.1,0.1,0.1
				l0,0c0,0.1,0.1,0.1,0.1,0.2l0,0c0.1,0.1,0.1,0.2,0.2,0.3l0,0c0,0,0.1,0.1,0.1,0.1l0,0.1c0,0,0,0.1,0.1,0.1c0,0,0,0,0.1,0.1
				l0.1,0.1c0,0,0,0,0.1,0.1l0.1,0.1c0,0,0,0.1,0.1,0.1l0.1,0.1c0,0,0.1,0.1,0.1,0.1l0,0c0,0,0.1,0.1,0.1,0.1l0,0
				c0,0,0.1,0.1,0.1,0.1l0,0c1,0.8,2.2,1.5,3.6,1.9l0.1,0l-0.6-0.4C-1210.2,1490.5-1210.6,1490.2-1210.9,1489.9L-1210.9,1489.9z"/>
			<path id="XMLID_148_" class="st45" d="M-1198.8,1482.9c-0.4-0.9-2.1-1.1-2.9-0.6c-0.4,0.2-0.6,0.6-0.2,1.2
				c0.6,0.8,1.1,1.3,0.4,2.1c-0.7,0.8-1.1,1.1-0.5,1.6c0.5,0.5,0.8,0.7,0.8,1.2c0,0.2,0,0.4,0,0.4s0.4-0.7-0.1-1.3
				c-0.5-0.7-1-0.8-0.2-1.5c1.8-1.9-0.1-1.9,0-3.1C-1201.3,1481.8-1199.3,1482.4-1198.8,1482.9L-1198.8,1482.9z"/>
			<path id="XMLID_146_" class="st45" d="M-1201.2,1477.8c0,0.2-0.2,0.8-0.8,1.1c-0.5,0.2-1,0.4-0.9,0.7c0.1,0.3,0.3,0.7,1,0.6
				c0.7-0.1,1-0.3,1.4-0.4c0.4-0.1,0.9-0.1,0.9-0.1s-0.7-0.3-1.4,0c-1.6,0.7-1.9-0.2-1.1-0.5
				C-1201.6,1478.8-1201.1,1478.4-1201.2,1477.8L-1201.2,1477.8z"/>
			<path id="XMLID_144_" class="st45" d="M-1209.2,1476c0.7-0.3,1.6-0.4,2.2-0.3c2.1,0.1,3,2,0.8,2.3c-1.7,0.2-1.9,0.1-2.2,0.8
				c-0.9,1.8-1.8,0.1-3.8,0.3c-0.5,0.1-0.9,0.2-1.3,0.5c2.2-2.4,4.2,0.6,4.6-0.8c0.3-0.7,0.5-1.1,1.8-1.2c2.5-0.2,2.1-1.3,0.1-1.5
				C-1208.1,1476-1209.2,1476-1209.2,1476L-1209.2,1476z"/>
			<path id="XMLID_142_" class="st45" d="M-1214.2,1481.5L-1214.2,1481.5c0.1,0.7,2.1-0.2,2.2,0.9c0.1,0.5-0.3,0.8-0.9,1.2
				c-0.6,0.4-0.6,1,0.1,1.5c0.7,0.5,1.1,0.5,0.7,1.5c-0.4,1-0.1,1.8-0.1,1.8s-0.6-0.8-0.2-1.7c0.4-0.9-0.3-1-0.8-1.3
				c-0.4-0.3-0.9-1.3-0.2-1.8c0.3-0.2,0.8-0.5,0.9-0.8C-1211.8,1481.6-1214.5,1482.5-1214.2,1481.5L-1214.2,1481.5z"/>
			<path id="XMLID_140_" class="st46" d="M-1207,1480.7c-0.4,0.9-0.8,1.4-1.7,1c-0.9-0.4-1.5-0.4-1.1,0.4c0.3,0.8,0.8,1.9-0.1,2
				c-0.9,0.1-0.3,0.8,0.1,1.5c0.4,0.7,0.1,1.7,0.1,1.7s0.7-0.8,0.2-1.8c-0.5-1-0.7-1-0.1-1.2c0.6-0.2,0.7-0.9,0.4-1.5
				c-0.3-0.7-0.6-1.1,0.1-0.9c0.7,0.2,1.5,0.6,2-0.2c0.8-1.3,0.6-1.6,2.2-1.8C-1205.8,1479.6-1206.5,1479.7-1207,1480.7
				L-1207,1480.7z"/>
			<path id="XMLID_138_" class="st46" d="M-1204.6,1481.9c-0.3,0.5-0.4,0.8-0.4,1.1c0.1,1.1,1.7,1.4,0.4,2.9
				c-0.3,0.4-0.6,0.9,0.2,1.9c0,0-0.6-1.1,0.1-1.9C-1202.8,1484.3-1205.1,1484.3-1204.6,1481.9L-1204.6,1481.9z"/>
			<path id="XMLID_136_" class="st47" d="M-1206.7,1482c-0.3,1-1.1,0.6-1.5,0.5c-0.4-0.1-0.4,0.1-0.2,0.9c0.2,0.8,0.1,0.9-0.3,1
				c-0.4,0.1-0.2,0.2-0.1,1.2c0.1,1,0.1,1.6,1.7,2c1.6,0.4,1.1-1,1.7-1.8c0.6-0.7-0.3-1.7-0.3-2.6c0-1.3,0.9-2.1,0.2-2.4
				C-1205.8,1480.6-1206.4,1480.7-1206.7,1482L-1206.7,1482z"/>
			<path id="XMLID_134_" class="st48" d="M-1215.4,1481.8c0,0,5.4,10.2,16.5,5.5c0,0-1.2,4.3-7.8,4.1c-6.6-0.2-9.6-5.7-8.7-9.5"/>
			<g id="XMLID_330_">
				<path id="XMLID_132_" class="st19" d="M-1207.4,1475h0.2c-0.2-0.4-0.5-0.3-0.5-0.3C-1207.5,1474.8-1207.4,1475-1207.4,1475z"/>
				<path id="XMLID_130_" class="st19" d="M-1202,1490.7l-0.1,0.1c0.1,0.1,0,0.3-0.1,0.4c-1.8,0.2-4.4-3.1-5.9-7.2
					c-1.5-4.3-1.2-8.4,0.5-9.2c-0.1,0-0.1,0-0.2,0c-1.9,0.7-2.2,4.9-0.6,9.3c1.5,4.3,4.3,7.7,6.2,7.2c0,0,0,0,0,0c0,0,0,0,0.1,0
					c0,0,0,0,0,0c0,0,0,0,0,0c0,0,0,0,0.1,0c0,0,0,0,0.1,0c0,0,0,0,0,0C-1201.9,1490.9-1202,1490.7-1202,1490.7z"/>
			</g>
			<g id="XMLID_327_">
				<path id="XMLID_128_" class="st19" d="M-1199.1,1478.5l0.1,0.1c0.3-0.4,0-0.6,0-0.6C-1199,1478.3-1199.1,1478.5-1199.1,1478.5z"
					/>
				<path id="XMLID_126_" class="st19" d="M-1210.2,1490.9l-0.1-0.1c-0.1,0.1-0.2,0.1-0.3,0.1c-1.1-1.5,0.5-5.4,3.4-8.7
					c3-3.4,6.7-5.2,8.3-4.1c0,0-0.1-0.1-0.1-0.1c-1.5-1.3-5.4,0.5-8.4,4c-3,3.4-4.6,7.5-3.2,8.9c0,0,0,0,0,0c0,0,0,0,0.1,0
					c0,0,0,0,0,0c0,0,0,0,0,0c0,0,0,0,0.1,0c0,0,0,0,0.1,0c0,0,0,0,0,0C-1210.3,1491.1-1210.2,1490.9-1210.2,1490.9z"/>
			</g>
			<g id="XMLID_324_">
				<path id="XMLID_124_" class="st19" d="M-1213.8,1488.8l0-0.2c-0.4,0.2-0.3,0.5-0.3,0.5
					C-1214,1488.9-1213.8,1488.8-1213.8,1488.8z"/>
				<path id="XMLID_122_" class="st19" d="M-1198,1481.3l0.1,0.1c0.1-0.1,0.3,0,0.4,0c0.4,1.9-2.7,5-6.8,7c-4.3,2.1-8.6,2.3-9.7,0.6
					c0,0.1,0,0.1,0.1,0.2c0.9,1.9,5.4,1.7,9.8-0.4c4.3-2.1,7.5-5.4,6.7-7.3c0,0,0,0,0,0c0,0,0,0,0-0.1c0,0,0,0,0,0c0,0,0,0,0,0
					c0,0,0,0,0-0.1c0,0,0,0,0-0.1c0,0,0,0,0,0C-1197.8,1481.1-1198,1481.3-1198,1481.3z"/>
			</g>
			<g id="XMLID_321_">
				<path id="XMLID_110_" class="st19" d="M-1212.2,1476.4l0.1-0.1c-0.4-0.2-0.7-0.1-0.7-0.1
					C-1212.5,1476.2-1212.2,1476.4-1212.2,1476.4z"/>
				<path id="XMLID_98_" class="st19" d="M-1198.1,1485.7l-0.1,0.1c0.1,0.1,0.2,0.2,0.2,0.3c-1.4,1.4-5.2,0.4-9.1-2
					c-4-2.5-6.5-6.1-5.7-7.9c0,0.1-0.1,0.1-0.1,0.1c-1.1,1.8,1.4,5.5,5.6,8.1c4.1,2.5,8.2,3.5,9.3,1.8c0,0,0,0,0,0c0,0,0,0,0-0.1
					c0,0,0,0,0,0c0,0,0,0,0,0c0,0,0,0,0-0.1c0,0,0,0,0-0.1c0,0,0,0,0,0C-1197.8,1485.8-1198.1,1485.7-1198.1,1485.7z"/>
			</g>
			<g id="XMLID_118_">
				<circle id="XMLID_96_" class="st19" cx="-1207.9" cy="1490" r="0.6"/>
				<circle id="XMLID_94_" class="st19" cx="-1201.3" cy="1486.8" r="0.6"/>
				<circle id="XMLID_88_" class="st19" cx="-1205" cy="1479.8" r="0.5"/>
				<circle id="XMLID_86_" class="st19" cx="-1208.4" cy="1483.4" r="0.5"/>
				<circle id="XMLID_83_" class="st19" cx="-1212.6" cy="1478.6" r="0.5"/>
				<circle id="XMLID_80_" class="st19" cx="-1209.3" cy="1477.3" r="0.5"/>
			</g>
		</g>
	</g>
	<line id="XMLID_79_" class="st49" x1="-1225.8" y1="1504.1" x2="-1189.4" y2="1504.1"/>
</g>
<g>
	<defs>
		<path id="SVGID_3_" d="M-1693.3,1287c0,0-49.4-50-118.6-50c-69.2,0-257.9,61.6-324.1,268.5c0,0-59.4,207.4,319.2,207.4
			C-1453.1,1712.9-1632,1334.7-1693.3,1287"/>
	</defs>
	<clipPath id="SVGID_5_">
		<use xlink:href="#SVGID_3_"  style="overflow:visible;"/>
	</clipPath>
	<g style="clip-path:url(#SVGID_5_);">
		
			<image style="overflow:visible;" width="3872" height="2592" xlink:href="62A904E6.jpg"  transform="matrix(0.1887 0 0 0.1887 -2255.1646 1232.1525)">
		</image>
	</g>
	<g style="clip-path:url(#SVGID_5_);">
		
			<image style="overflow:visible;" width="1868" height="2802" xlink:href="62A904E1.jpg"  transform="matrix(0.3037 0 0 0.3037 -2145.0376 933.9152)">
		</image>
	</g>
</g>
<g>
	<defs>
		<path id="SVGID_1_" d="M-480.8,1559.1c0,0,41.1-40.1,98.5-40.1s214.3,49.4,269.3,215.5c0,0,49.4,166.5-265.2,166.5
			C-680.4,1900.9-531.7,1597.4-480.8,1559.1"/>
	</defs>
	<clipPath id="SVGID_6_">
		<use xlink:href="#SVGID_1_"  style="overflow:visible;"/>
	</clipPath>
	<g style="clip-path:url(#SVGID_6_);">
		
			<image style="overflow:visible;" width="1200" height="900" xlink:href="62A904E2.jpg"  transform="matrix(0.518 0 0 0.5004 -722.4966 1506.2018)">
		</image>
	</g>
</g>
<g>
	<defs>
		<path id="SVGID_4_" d="M-1580,1970c0,0-20.9-39.8-5.2-75.8c15.7-36,98.2-116.9,246.5-93.2c0,0,147,27.4,60.9,224.4
			C-1360.4,2214.7-1563.2,2015.3-1580,1970"/>
	</defs>
	<clipPath id="SVGID_9_">
		<use xlink:href="#SVGID_4_"  style="overflow:visible;"/>
	</clipPath>
	<g transform="matrix(1 0 0 1 0 -1.220703e-04)" style="clip-path:url(#SVGID_9_);">
		
			<image style="overflow:visible;" width="1362" height="909" xlink:href="62A904E0.jpg"  transform="matrix(0.3801 0 0 0.3801 -1667.597 1766.304)">
		</image>
	</g>
</g>
<g>
	<defs>
		<path id="SVGID_2_" d="M-1580,1970c0,0-23.5-112.2-7.8-148.2c15.7-36-5.4-96.5,142.8-72.8c0,0,253.2,79.4,167.2,276.4
			C-1360.4,2214.7-1563.2,2015.3-1580,1970"/>
	</defs>
	<clipPath id="SVGID_10_">
		<use xlink:href="#SVGID_2_"  style="overflow:visible;"/>
	</clipPath>
	<g transform="matrix(1 0 0 1 0 -1.220703e-04)" style="clip-path:url(#SVGID_10_);">
		
			<image style="overflow:visible;" width="1362" height="909" xlink:href="62A904EE.png"  transform="matrix(0.3801 0 0 0.3801 -1667.597 1766.304)">
		</image>
	</g>
</g>
<g>
	<defs>
		<path id="SVGID_8_" d="M-1194.1,887.9c0,0-50.4-48.9-119.6-47.5s-256.6,66.8-318.6,275.1c0,0-55.2,208.6,323.4,200.8
			C-945.3,1308.9-1131.9,934.4-1194.1,887.9"/>
	</defs>
	<clipPath id="SVGID_11_">
		<use xlink:href="#SVGID_8_"  style="overflow:visible;"/>
	</clipPath>
	<g transform="matrix(1 0 0 1 -1.220703e-04 0)" style="clip-path:url(#SVGID_11_);">
		
			<image style="overflow:visible;" width="3872" height="2592" xlink:href="62A904EE.jpg"  transform="matrix(0.1887 -3.864708e-03 3.864708e-03 0.1887 -1757.0233 844.6458)">
		</image>
	</g>
	<g transform="matrix(1 0 0 1 0 6.103516e-05)" style="clip-path:url(#SVGID_11_);">
		
			<image style="overflow:visible;" width="4687" height="3125" xlink:href="62A904E3.jpg"  transform="matrix(0.1576 0 0 0.1576 -1749.132 833.2103)">
		</image>
	</g>
</g>
<g>
	<defs>
		<path id="SVGID_7_" d="M-833.2,896.1c0,0-20.9-39.8-5.2-75.8c15.7-36,98.2-116.9,246.5-93.2c0,0,147,27.4,60.9,224.4
			C-613.6,1140.8-816.4,941.4-833.2,896.1"/>
	</defs>
	<clipPath id="SVGID_12_">
		<use xlink:href="#SVGID_7_"  style="overflow:visible;"/>
	</clipPath>
	<g transform="matrix(1 0 0 1 0 0)" style="clip-path:url(#SVGID_12_);">
		
			<image style="overflow:visible;" width="2000" height="1319" xlink:href="62A904E7.jpg"  transform="matrix(0.2496 0 0 0.2496 -903.136 708.155)">
		</image>
	</g>
</g>
<g>
	<path d="M-1637.4,673.2L-1637.4,673.2c-3.8-3.8-9.2-5.2-14.4-3.8c0,0-18.8,5-18.8,5c-10.2,2.7-35.9,7.8-31.2,19.3
		c4.9,12,20.7,25.5,32.6,30.2c17.6,6.9,27-5.4,30.9-18.2c0.1-0.3,0.2-0.5,0.2-0.8l0-0.1l0.1-0.2c0.2-0.9,0.5-1.8,0.7-2.6l3.6-14.4
		C-1632.2,682.4-1633.6,677-1637.4,673.2z"/>
	<path class="st19" d="M-1645.2,684.4l-4.6,18.2c-0.3,1.2-1.5,2.1-2.7,2.1c-1.3,0-2.4-1-2.6-2.3l-1.5-7.7c-0.1-0.5-0.3-1-0.7-1.4
		c-0.4-0.4-0.9-0.6-1.4-0.7l-7.7-1.5c-0.6-0.1-1.1-0.4-1.4-0.8c-0.5-0.5-0.8-1.1-0.8-1.8c0-1.3,0.8-2.4,2.1-2.7l18.2-4.7
		c0.9-0.2,1.9,0,2.6,0.7l0,0C-1645.2,682.5-1645,683.5-1645.2,684.4z"/>
</g>
<g>
	<circle class="st50" cx="-1162.3" cy="651.9" r="2.2"/>
	<circle class="st50" cx="-1162.3" cy="662.9" r="2.2"/>
	<circle class="st50" cx="-1162.3" cy="673.9" r="2.2"/>
	<circle class="st50" cx="-1162.3" cy="684.9" r="2.2"/>
	<circle class="st50" cx="-1162.3" cy="695.2" r="2.2"/>
</g>
<path class="st51" d="M0.7,1005.2c300.6-290,144-713.7,86.6-1005"/>
</svg>
