<?xml version="1.0" encoding="utf-8"?>
<!-- Generator: Adobe Illustrator 21.0.0, SVG Export Plug-In . SVG Version: 6.00 Build 0)  -->
<svg version="1.1" id="Layer_1" xmlns="http://www.w3.org/2000/svg" xmlns:xlink="http://www.w3.org/1999/xlink" x="0px" y="0px"
	 viewBox="0 0 182.5 783.9" style="enable-background:new 0 0 182.5 783.9;" xml:space="preserve">
<style type="text/css">
	.st0{fill:#F1CA34;}
	.st1{fill:#FFF8F3;}
	.st2{fill:#CED8D9;}
	.st3{fill:#020202;}
	.st4{fill:#060606;}
	.st5{fill:#F8D6C5;}
	.st6{fill:#DFA483;}
	.st7{fill:#BD846C;}
	.st8{fill:#D6A189;}
	.st9{fill:#E7C5B3;}
	.st10{fill:#E6A687;}
	.st11{fill:#F58B24;}
	.st12{fill:#E15A26;}
	.st13{fill:#D9B9A9;}
	.st14{fill:#C48165;}
	.st15{fill:#D5712A;}
	.st16{fill:#C74C2A;}
	.st17{fill:#0C0C0C;}
	.st18{fill:#00ABAC;}
	.st19{fill:#FFFFFF;}
	.st20{clip-path:url(#XMLID_4_);}
	.st21{fill:#050505;}
	.st22{opacity:0.5;fill:#49261C;}
	.st23{fill:#603327;}
	.st24{fill:#854A3B;}
	.st25{fill:#F48120;}
	.st26{opacity:0.6;fill:#DFA483;}
	.st27{fill:#E7B08A;}
	.st28{fill:#FFF1EB;}
	.st29{opacity:0.8;}
	.st30{opacity:0.5;}
	.st31{fill-rule:evenodd;clip-rule:evenodd;}
	.st32{fill-rule:evenodd;clip-rule:evenodd;fill:#0A7FC2;}
	.st33{fill-rule:evenodd;clip-rule:evenodd;fill:#36AFCA;}
	.st34{fill-rule:evenodd;clip-rule:evenodd;fill:#3AC2D9;}
	.st35{fill-rule:evenodd;clip-rule:evenodd;fill:#026C96;}
	.st36{fill-rule:evenodd;clip-rule:evenodd;fill:#4DB259;}
	.st37{fill-rule:evenodd;clip-rule:evenodd;fill:#8EB03E;}
	.st38{fill-rule:evenodd;clip-rule:evenodd;fill:#338440;}
	.st39{fill-rule:evenodd;clip-rule:evenodd;fill:#B5CB3D;}
	.st40{fill-rule:evenodd;clip-rule:evenodd;fill:#00A1B3;}
	.st41{fill-rule:evenodd;clip-rule:evenodd;fill:#14B3D1;}
	.st42{fill-rule:evenodd;clip-rule:evenodd;fill:#A5CD39;}
	.st43{fill-rule:evenodd;clip-rule:evenodd;fill:#AFC63D;}
	.st44{fill-rule:evenodd;clip-rule:evenodd;fill:#3A9C5B;}
	.st45{fill-rule:evenodd;clip-rule:evenodd;fill:#F4F2AD;}
	.st46{fill-rule:evenodd;clip-rule:evenodd;fill:#C8E9F3;}
	.st47{fill-rule:evenodd;clip-rule:evenodd;fill:#56C7E1;}
	.st48{opacity:0.3;fill-rule:evenodd;clip-rule:evenodd;fill:#020202;}
	.st49{fill:none;stroke:#231F20;stroke-width:0.5507;stroke-miterlimit:10;}
	.st50{opacity:0.3;fill:#FEDA2F;}
	.st51{fill:none;stroke:#FFDA30;stroke-width:2;stroke-miterlimit:10;}
</style>
<g>
	
		<ellipse transform="matrix(0.9999 -1.342734e-02 1.342734e-02 0.9999 -26.5305 18.1145)" class="st0" cx="1335.8" cy="1984.8" rx="47.2" ry="47.2"/>
	<g id="XMLID_594_">
		<g id="XMLID_595_">
			<g id="XMLID_742_">
				<path id="XMLID_743_" class="st1" d="M1311.3,2026.2c0,0,39.3,5.3,51-2.2c0,0,9.4,18.2,17.9,21c0,0-27.8-4.5-50.6-1l-34.5,3.7
					C1295.1,2047.6,1308.3,2041.4,1311.3,2026.2z"/>
			</g>
			<g id="XMLID_740_">
				<path id="XMLID_741_" class="st2" d="M1311.3,2025.8c0,0,4.2,7.8,5.8,11.4c0,0-10,6.7-15,8c0,0,9.1-5.1,10.1-8.7
					C1313.3,2032.9,1311.3,2025.8,1311.3,2025.8z"/>
			</g>
			<g id="XMLID_738_">
				<path id="XMLID_739_" class="st2" d="M1362.3,2023.9c0,0-0.7,3.6-5.2,11.2c0,0,17.7,10,23.1,9.5c0,0-18.2-7.7-19.4-10.7
					C1360.7,2034,1362.5,2028.7,1362.3,2023.9z"/>
			</g>
			<g id="XMLID_736_">
				<path id="XMLID_737_" class="st2" d="M1298.5,2046.8c0,0,59.3-6.7,79.8-2.7C1378.3,2044.2,1352.5,2035.2,1298.5,2046.8z"/>
			</g>
			<g id="XMLID_734_">
				<path id="XMLID_735_" class="st2" d="M1311.6,2026.2l7.7,9.7c0,0,1.2,3.1,5.4,2.6c4.2-0.5,8.9-0.6,8.9-0.6s3.9,1.6,5,0.5
					c1.1-1.1,0,0.3,4.3,0.3c4.3,0.1,8.9,0.7,10.2-1.1c1.3-1.8,1-1.6,2.6-3.3c1.5-1.7-1.1-3.1-1.1-3.1s-0.8-3.6,1.5-3.9
					c2.3-0.4,6.2-3.3,6.2-3.3s-7.5,4.4-21.2,4C1327.4,2027.6,1311.6,2026.2,1311.6,2026.2z"/>
			</g>
			<g id="XMLID_732_">
				<path id="XMLID_733_" class="st3" d="M1295.1,2048c14.3-2,28.6-3.4,43-4.2c7.6-0.4,15.2-0.7,22.9-0.5c6.4,0.2,12.9,0.5,19.1,2.1
					c0.5,0.1,0.7-0.6,0.2-0.8c-5.4-2.2-9.4-7.4-12.6-12.1c-1.9-2.8-3.6-5.7-5.1-8.7c-0.1-0.2-0.4-0.2-0.6-0.1
					c-3.6,2.1-7.9,2.8-12,3.2c-5.1,0.6-10.2,0.7-15.4,0.6c-7.6-0.1-15.2-0.7-22.7-1.6c-0.2,0-0.4-0.1-0.6-0.1
					c-0.2,0-0.5,0.1-0.5,0.3c-0.4,2.6-1.4,5.1-2.6,7.4c-3,5.9-7.8,10.6-13.5,13.9c-0.5,0.3,0,1,0.4,0.7c5.7-3.2,10.4-7.9,13.5-13.7
					c1.3-2.5,2.5-5.3,2.9-8c-0.2,0.1-0.3,0.2-0.5,0.3c5.9,0.8,11.8,1.2,17.8,1.5c5.2,0.2,10.3,0.3,15.5,0.1c4.6-0.2,9.2-0.7,13.6-2
					c1.5-0.4,3.1-1,4.5-1.9c-0.2,0-0.4-0.1-0.6-0.1c1.6,3.3,3.5,6.5,5.6,9.5c3.2,4.6,7.2,9.6,12.5,11.7c0.1-0.3,0.1-0.5,0.2-0.8
					c-9-2.2-18.7-2.3-27.9-2.1c-10.8,0.1-21.6,0.9-32.4,1.9c-8.3,0.8-16.6,1.7-24.8,2.9C1294.6,2047.3,1294.6,2048.1,1295.1,2048z"
					/>
			</g>
			<g id="XMLID_730_">
				<path id="XMLID_731_" class="st4" d="M1320.3,2035.3c0,0-14,9.2-25.2,12.4C1295.1,2047.6,1305.8,2046.8,1320.3,2035.3z"/>
			</g>
			<g id="XMLID_728_">
				<path id="XMLID_729_" class="st4" d="M1354.4,2033.4c9.1,6.2,24.1,10.9,24.1,10.9C1361.5,2040.6,1354.4,2033.4,1354.4,2033.4z"
					/>
			</g>
			<g id="XMLID_726_">
				<path id="XMLID_727_" class="st4" d="M1313.4,2029.1c0,0,2.5,4.7,3.7,8.1"/>
			</g>
			<g id="XMLID_724_">
				<path id="XMLID_725_" class="st3" d="M1313.4,2029.7c1.4,2.6,2.7,5.3,3.7,8.1c-0.1-0.4,0.1-0.9,0-1.4c-1-2.8-2.3-5.5-3.7-8.1
					C1313.6,2028.7,1313.2,2029.4,1313.4,2029.7z"/>
			</g>
			<g id="XMLID_722_">
				<path id="XMLID_723_" class="st4" d="M1361.2,2027.6c0,0-2.3,4.8-4.4,7.8"/>
			</g>
			<g id="XMLID_720_">
				<path id="XMLID_721_" class="st3" d="M1361.2,2027c-1.3,2.7-2.7,5.3-4.4,7.8c-0.2,0.3,0.2,1.1,0,1.4c1.7-2.5,3.1-5.1,4.4-7.8
					C1361.4,2027.9,1361,2027.3,1361.2,2027z"/>
			</g>
			<g id="XMLID_718_">
				<path id="XMLID_719_" class="st5" d="M1329.6,2016.2c0,0-0.5,0.7-1.1,1.7c-1.1,1.6-2.6,4-2.9,4.8c-0.5,1.3-1.5,4.2,1.8,4.8
					c0,0-5.9,1.5-5.8,4c0.1,2.5,19.9,2.6,21.6-1c1.7-3.6,2.9-3.2,2.9-5.9s-0.2-5.4-0.1-6.3c0.1-1-1.9-3.3-1.9-3.3L1329.6,2016.2"/>
			</g>
			<g id="XMLID_716_">
				<path id="XMLID_717_" class="st5" d="M1315.8,1997.8c0,0-6.6-5.3-7.9-3.4c-1.3,1.8,0.2,8.4,4,10.3c3.8,1.9,7.5,2.8,7.5,2.8
					s0.8,6,5,7.4c4.2,1.3,15,3.6,20.4,0.6c5.4-3,8.1-3.2,8.9-11.9c0,0,9-1.4,10.7-7.1c1.7-5.7,1.6-6.4-0.3-6.7
					c-1.9-0.3-7.7,4.9-7.7,4.9s8.2-12.4,7.9-19.8c-0.3-7.4-7.9-19.1-25.5-19.6c-17.5-0.5-27.8,5.5-32,16.2
					C1302.6,1982.4,1315.2,1996,1315.8,1997.8"/>
			</g>
			<g id="XMLID_714_">
				<path id="XMLID_715_" class="st6" d="M1334.9,2012c0,0,2.9,1.3,5.4-0.5C1340.3,2011.5,1338.8,2015.6,1334.9,2012z"/>
			</g>
			<g id="XMLID_712_">
				<path id="XMLID_713_" class="st7" d="M1335.8,2026.2c0,0-1.1,2-3.6,2.1l3.2,0.2c0,0,0.1-0.5,1.9-0.4s2.8,0.1,2.8,0.1l0.4-0.3
					l-4.2-0.5l0.4-1L1335.8,2026.2z"/>
			</g>
			<g id="XMLID_710_">
				<path id="XMLID_711_" class="st8" d="M1332.2,2019.8c-1.4,1.4-1.8,4-1.8,4s0.1,0.8,0.6,0.8c0,0,0,0,0,0c0.5,0,1.3-0.2,1.3-0.2
					C1330.4,2023.9,1332.2,2019.8,1332.2,2019.8"/>
			</g>
			<g id="XMLID_708_">
				<path id="XMLID_709_" class="st9" d="M1317.3,1997.4c0,0-12.1-18.6-4.9-26.7c7.1-8.1,7.6-4.3,7.6-4.3s5.3,13.4,18.4,6.1
					c11.9-6.7,14.2-4.8,14.2-4.8s9.5,5.7,7.5,16.4c0,0,13.8-26.9-28.8-27.3C1331.2,1956.7,1289.5,1962.9,1317.3,1997.4z"/>
			</g>
			<g id="XMLID_706_">
				<path id="XMLID_707_" class="st6" d="M1319.9,2007.5c0,0,1.8,6,8.7,7.1c7,1.1,12.8,1.7,19.6-3.2c0,0,4.6-2.2,5.3-7.4
					c0,0,0.5,9.9-10.8,12.2c-11.3,2.3-16.6-0.6-16.6-0.6S1320.2,2014.8,1319.9,2007.5"/>
			</g>
			<g id="XMLID_704_">
				<path id="XMLID_705_" class="st10" d="M1334.3,2004.8c0,0,0.1,1.4,2.9,1.3c2.8-0.1,1.8-1.9,1.8-1.9s2.5,0.6,1,1.8
					c-1.5,1.1-4.2,1.1-5.1,0.8C1333.9,2006.4,1333.5,2005.7,1334.3,2004.8z"/>
			</g>
			<g id="XMLID_702_">
				<path id="XMLID_703_" class="st11" d="M1342,2016.2c0,0,0.8,3.8-6,7.1l-5.3,1.4c0,0,4.1,2,6.1,1.3l-0.7,1.5c0,0,3.5-0.5,4.4,0.3
					l-1.7,1.5c0,0,2.5,1.9,3,0.9c0.6-1,0.6-1,0.6-1s3.9,4.2,5.7,4.3c1.8,0.1,3-0.2,2.9-1.6c-0.1-1.4-0.7-2-0.7-3.4
					c0-1.4,1.3-7.6,0.5-9.5c-0.5-1.2-1.6-2.6-2.5-3.6c-0.6-0.6-1.1-1-1.3-1.1C1347.1,2014.3,1342.6,2015.8,1342,2016.2"/>
			</g>
			<g id="XMLID_700_">
				<path id="XMLID_701_" class="st11" d="M1326.8,2027.9c0,0,7.8,1.2,9,0c0,0-1.7,2.3,0.9,2c2.5-0.2,2.2-0.7,2.2-0.7
					s1.4,1.4,2.2,1.2c0.8-0.3,1.4-1.2,1.4-1.2l6.6,1.1l1.5-2.4c0,0,4-0.5,4,3.6c-0.1,4.1-3.4,6-5.3,6c-1.9,0-10.7-1.5-10.7-1.5
					s-0.4,1.7-2,1.7c-1.6,0-3.4-0.7-3.4-0.7s-6.5,1.6-8.3,0.6c-1.8-1-3.4-3.1-3.1-5.6C1321.9,2029.5,1324.2,2028,1326.8,2027.9z"/>
			</g>
			<g id="XMLID_698_">
				<path id="XMLID_699_" class="st12" d="M1339.1,2029.3c0,0,9.9,7.6,11.9,3.3c0,0-2.5,1.6-4.1,0.3c-1.6-1.4-5.1-4.7-6.2-5
					L1339.1,2029.3z"/>
			</g>
			<g id="XMLID_696_">
				<path id="XMLID_697_" class="st12" d="M1342.2,2030.7c0,0-1,3.7-3.8,5.4c0,0,4.4-1.5,5.4-4.1
					C1345,2029.4,1342.2,2030.7,1342.2,2030.7z"/>
			</g>
			<g id="XMLID_694_">
				<path id="XMLID_695_" class="st12" d="M1351.2,2031.6c0,0,0.8-1.8,1.7-0.8c0.9,1,0.2,5.6-3,6.4l-0.2,0.4c0,0,4.6-0.8,4.7-4.5
					c0.2-3.7-0.3-5.7-3.9-4.9C1350.5,2028.2,1350.4,2031.4,1351.2,2031.6z"/>
			</g>
			<g id="XMLID_692_">
				<path id="XMLID_693_" class="st12" d="M1346.3,2018.5c0,0-0.4,5-2.3,5.9l-1.1,0.4c0,0,1.1,1.3,3.1,1.7c0,0-3.5,0-6.2-1.5
					C1339.8,2025,1345.1,2024,1346.3,2018.5z"/>
			</g>
			<g id="XMLID_690_">
				<path id="XMLID_691_" class="st12" d="M1322.9,2029.5c0,0,3-0.7,7-0.6c4,0.2,4.1,2,2.1,2.9l3.7-1.9c0,0-1-0.9-0.2-1.5
					c0.8-0.6,0.2-0.1,0.2-0.1s-1.7,0.3-3.8,0.2c-2.7-0.1-6.2-0.5-7.2,0.1"/>
			</g>
			<g id="XMLID_688_">
				<path id="XMLID_689_" class="st12" d="M1339.7,2023.3c0,0,4.5-1.8,5.7-7.7l-1.6,0.7C1343.8,2016.2,1343,2021.3,1339.7,2023.3"/>
			</g>
			<g id="XMLID_686_">
				<path id="XMLID_687_" class="st6" d="M1340.2,2000.9c0,0,2.2-5.8,7.4-0.9C1347.7,2000.1,1344.9,1998.5,1340.2,2000.9z"/>
			</g>
			<g id="XMLID_684_">
				<path id="XMLID_685_" class="st6" d="M1325.3,2001.9c0,0,2.2-5.8,7.4-0.9C1332.7,2001.1,1330,1999.5,1325.3,2001.9z"/>
			</g>
			<g id="XMLID_682_">
				<path id="XMLID_683_" class="st6" d="M1309.6,1996.7l1.2,1.9l1.5,4.2l1-3.1c0,0,5.1,4.4,6.1,6.6
					C1319.4,2006.3,1315.9,1998,1309.6,1996.7z"/>
			</g>
			<g id="XMLID_680_">
				<path id="XMLID_681_" class="st6" d="M1363.2,1992.6l-1.1,1.1c0,0,1.1,3.5-2.5,5c0,0,0.6-2.6,0-3c0,0-4.7,3.2-5.6,6.1
					C1353.9,2001.8,1355.9,1994,1363.2,1992.6z"/>
			</g>
			<g id="XMLID_676_">
				<path id="XMLID_677_" class="st13" d="M1329.3,2016.6l-0.3,0.6C1329.1,2017,1329.3,2016.8,1329.3,2016.6
					C1329.3,2016.6,1329.3,2016.6,1329.3,2016.6 M1347.6,2014.6c0.3,0.2,0.6,0.5,0.9,0.8c0.1,0.1,0.2,0.2,0.3,0.3
					c0.1-0.1,0.1-0.1,0.1-0.2C1348.5,2015.3,1347.9,2014.8,1347.6,2014.6"/>
			</g>
			<g id="XMLID_674_">
				<path id="XMLID_675_" class="st8" d="M1329.4,2016.6c-0.1,0.2-0.2,0.4-0.4,0.6l-0.2,0.4l3.4,0.4c1.6,0.5,3.3,0.6,5,0.6
					c1.6,0,3.1-0.2,4.6-0.5c0.2-0.6,0.3-1.1,0.3-1.4c-1.4,0.4-3,0.6-4.5,0.6c-1.7,0-3.2-0.1-4.3-0.3
					C1331.7,2017,1330.4,2016.8,1329.4,2016.6"/>
			</g>
			<g id="XMLID_670_">
				<path id="XMLID_671_" class="st14" d="M1329.5,2016.2l-0.2,0.4c0,0,0.1,0,0.1,0c1.1,0.2,2.4,0.4,4,0.4c-1-0.1-1.6-0.3-1.6-0.3
					L1329.5,2016.2 M1347.4,2014.3c0,0-0.1,0-0.2,0c0.1,0,0.1,0.1,0.2,0.1C1347.4,2014.5,1347.6,2014.3,1347.4,2014.3"/>
			</g>
			<g id="XMLID_668_">
				<path id="XMLID_669_" class="st15" d="M1347.2,2014.4c-0.4,0.1-1.3,0.5-3.4,1.6c-0.5,0.3-1.1,0.5-1.8,0.7c0,0.3-0.1,0.8-0.3,1.4
					c0.6-0.1,1.1-0.2,1.7-0.4c0.3-0.9,0.4-1.6,0.4-1.6l1.6-0.7l0,0c-0.1,0.7-0.3,1.3-0.5,1.8c2-0.6,3.5-1.3,3.9-1.6
					c-0.1-0.1-0.2-0.2-0.3-0.3c-0.3-0.4-0.7-0.6-0.9-0.8c-0.1-0.1-0.2-0.1-0.2-0.1v0C1347.3,2014.4,1347.3,2014.4,1347.2,2014.4"/>
			</g>
			<g id="XMLID_666_">
				<path id="XMLID_667_" class="st16" d="M1345.4,2015.5l-1.6,0.7c0,0-0.1,0.7-0.4,1.6c0.5-0.1,1-0.3,1.5-0.4
					C1345.1,2016.8,1345.3,2016.2,1345.4,2015.5"/>
			</g>
			<g id="XMLID_664_">
				<path id="XMLID_665_" class="st12" d="M1340.6,2031c0,0-6.9,6.2-14.9,5.3c0,0-4.1-0.3-4.1-4.3c0,0-2.4,6.9,8.8,5.6
					C1330.4,2037.6,1338.2,2036.3,1340.6,2031z"/>
			</g>
			<g id="XMLID_662_">
				<path id="XMLID_663_" class="st17" d="M1324.1,1999.9c0,0,6.7-3.4,8.9-1.5C1333,1998.3,1328.1,1994.6,1324.1,1999.9z"/>
			</g>
			<g id="XMLID_660_">
				<path id="XMLID_661_" class="st17" d="M1338.6,1997.8c0,0,2.3,1.5,4.2-1c1.8-2.4,4.4-2.2,4.8-1.5c0,0-0.5-2.4-3.2-1.6
					C1341.8,1994.5,1340.2,1998.4,1338.6,1997.8z"/>
			</g>
			<g id="XMLID_658_">
				<path id="XMLID_659_" d="M1326.1,2002.2c1.8-1.3,4.2-1.8,6.3-0.9c0.4,0.2,1.4-0.4,1.2-0.5c-2.8-1.2-6.1-0.4-8.5,1.4
					C1324.5,2002.5,1325.8,2002.3,1326.1,2002.2z"/>
			</g>
			<g id="XMLID_656_">
				<path id="XMLID_657_" d="M1328.9,2010.1c0-0.7,0.3-1.4,0.9-1.8c0.2-0.1-0.3-0.2-0.5-0.1c-0.6,0.4-1,1.1-1,1.9
					C1328.3,2010.3,1328.9,2010.3,1328.9,2010.1z"/>
			</g>
			<g id="XMLID_654_">
				<path id="XMLID_655_" d="M1345.6,2005.3c0.6,0.4,1,1,1,1.7c0,0.2,0.5,0.2,0.5,0c0-0.7-0.4-1.5-1-1.9
					C1345.9,2005.1,1345.4,2005.2,1345.6,2005.3z"/>
			</g>
			<g id="XMLID_652_">
				<path id="XMLID_653_" d="M1340.8,2001.2c1.8-1.3,4.2-1.8,6.3-0.9c0.4,0.2,1.4-0.4,1.2-0.5c-2.8-1.2-6.1-0.4-8.5,1.4
					C1339.2,2001.5,1340.5,2001.3,1340.8,2001.2z"/>
			</g>
			<g id="XMLID_650_">
				<path id="XMLID_651_" d="M1338.8,2004.4c0.6,0.1,1.9,0.5,1.2,1.3c-0.8,0.9-2.5,1-3.6,1c-0.6,0-2.4,0-2.2-1
					c0.1-0.3,0.3-0.6,0.5-0.8c0.2-0.2-0.1-0.6-0.4-0.4c-0.4,0.4-0.7,0.9-0.7,1.4c0,1.3,2.1,1.4,3,1.4c1.3,0,3.3-0.2,4-1.5
					c0.6-1.1-0.9-1.7-1.7-1.8C1338.6,2003.8,1338.5,2004.4,1338.8,2004.4z"/>
			</g>
			<g id="XMLID_648_">
				<path id="XMLID_649_" class="st3" d="M1329,2009c0,0,9.3,4.2,17.6-3C1346.5,2006,1339.6,2013.7,1329,2009z"/>
			</g>
			<g id="XMLID_646_">
				<path id="XMLID_647_" d="M1329,2009l-0.1,0.2c0,0,2.8,1.3,6.8,1.2c3.2,0,7.3-1,11.1-4.3l-0.2-0.2l-0.2-0.2l0,0
					c-0.1,0.1-1.1,1.2-2.9,2.3c-1.8,1.1-4.3,2.1-7.4,2.2c-2.1,0-4.4-0.4-6.9-1.5l-0.2,0.5L1329,2009l-0.1,0.2c2.6,1.2,5,1.6,7.1,1.6
					c3.3,0,6-1.2,7.9-2.4c1.8-1.1,2.9-2.3,2.9-2.3l-0.4-0.4c-3.7,3.2-7.6,4.1-10.7,4.2c-1.9,0-3.6-0.3-4.7-0.6
					c-0.6-0.2-1-0.3-1.4-0.4c-0.2-0.1-0.3-0.1-0.4-0.1c0,0-0.1,0-0.1,0l0,0l0,0l-0.2,0.5L1329,2009z"/>
			</g>
			<g id="XMLID_644_">
				<path id="XMLID_645_" d="M1335.3,2012.4c1.8,0.4,4,0.3,5.5-0.7c0.2-0.2-0.7-0.6-0.9-0.4c-1.3,0.9-3.2,1-4.7,0.7
					C1334.4,2011.8,1334.8,2012.3,1335.3,2012.4z"/>
			</g>
			<g id="XMLID_642_">
				<path id="XMLID_643_" d="M1334.5,2015.1c2.5,0.7,5.5,0,7.9-1.1c-0.5,0.2-1.1,0.2-1.6,0.4c-1.4,0.7-3.2,0.7-4.8,0.3
					C1335.6,2014.6,1334.9,2015.2,1334.5,2015.1z"/>
			</g>
			<g id="XMLID_640_">
				<path id="XMLID_641_" d="M1318.7,2001.7l0.4-0.3c0,0,0,0,0,0c-0.4-0.4-3.5-4.3-6.5-9.4c-1.5-2.5-3-5.3-4.1-8.1
					c-1.1-2.8-1.9-5.6-1.9-8.1c0-1.5,0.2-2.8,0.7-4c1.1-2.5,2.4-4.7,4-6.6c2.3-2.9,5.3-5.1,9.2-6.6c3.9-1.6,8.7-2.5,14.8-2.7
					c0.3,0,0.6,0,1,0c7.8-0.1,14.7,2.2,19.6,5.7c2.5,1.8,4.4,3.9,5.8,6.1c1.4,2.3,2.1,4.7,2.1,7.2c0,0,0,0.1,0,0.1
					c0,2.6-0.5,5-1.3,7.4c-1.2,3.5-3.1,6.7-4.8,9.4c-0.8,1.4-1.6,2.6-2.3,3.8c-0.6,1.2-1.1,2.2-1.3,3.2c-0.5,2.4-0.8,5.1-1.4,7.5
					c-0.3,1.2-0.6,2.3-0.9,3.2c-0.4,0.9-0.8,1.6-1.2,2.1c-0.5,0.5-1.3,1-2.2,1.6c-1.4,0.9-3.3,1.7-5.1,2.4c-1.8,0.7-3.6,1.1-5,1.1
					c-0.1,0-0.1,0-0.2,0c-1.9,0-5.8-0.2-9.3-1c-1.8-0.4-3.4-0.9-4.7-1.6c-0.6-0.4-1.2-0.8-1.6-1.2c-0.4-0.4-0.7-0.9-0.9-1.4
					c-0.7-2.2-1-3.4-1.2-4.7c-0.2-1.3-0.4-2.7-0.9-5l0-0.1l-0.1-0.1L1318.7,2001.7l-0.5,0.1c0.5,2.3,0.7,3.7,0.9,5
					c0.2,1.3,0.5,2.7,1.2,4.9c0.2,0.7,0.6,1.3,1.2,1.9c0.9,0.9,2.2,1.6,3.6,2.2c2.2,0.8,4.7,1.3,7,1.6c2.3,0.3,4.5,0.4,5.8,0.4
					c0.1,0,0.1,0,0.2,0c1.1,0,2.3-0.2,3.5-0.6c1.9-0.5,3.8-1.3,5.5-2.2c0.9-0.4,1.6-0.9,2.3-1.3c0.7-0.4,1.3-0.9,1.7-1.3
					c0.6-0.6,1.1-1.5,1.5-2.5c0.6-1.5,1-3.4,1.3-5.3c0.3-1.9,0.6-3.9,1-5.6c0.1-0.5,0.3-1.1,0.7-1.8c0.6-1.2,1.4-2.6,2.4-4.2
					c1.4-2.3,3.1-5.1,4.5-8.1c1.3-3,2.3-6.4,2.3-10c0,0,0-0.1,0-0.1c0-2.7-0.8-5.3-2.3-7.7c-2.2-3.6-5.7-6.7-10.3-8.9
					c-4.5-2.2-10-3.5-16-3.4c-0.3,0-0.7,0-1,0c-8.2,0.3-14.3,1.9-18.9,4.7c-2.3,1.4-4.2,3.1-5.9,5.1c-1.6,2-3,4.3-4.1,6.8
					c-0.6,1.4-0.9,2.9-0.8,4.5c0,2.8,0.9,5.8,2.1,8.7c1.8,4.4,4.5,8.8,6.7,12.1c2.2,3.3,4,5.4,4,5.4L1318.7,2001.7l-0.5,0.1
					L1318.7,2001.7z"/>
			</g>
			<g id="XMLID_638_">
				<path id="XMLID_639_" d="M1356.2,1995.8c1.2-1.1,2.4-2.4,3.7-3.5c0.6-0.5,1.3-1,2-1.3c0.7-0.3,1.4-0.6,2.2-0.6l0,0
					c0.1,0,0.1,0,0.2,0.1c0.1,0.1,0.3,0.3,0.4,0.5c0.1,0.2,0.2,0.5,0.3,0.7c0.1,0.3,0.1,0.5,0.1,0.8c0,0.4-0.1,0.9-0.2,1.3
					c-0.4,1.5-1.2,3-2.1,4.4c-1,1.5-2.4,2.6-4,3.4c-1.6,0.8-3.4,1.3-5.2,1.5l0.1,1.1c1.9-0.2,3.8-0.8,5.5-1.6
					c1.7-0.9,3.3-2.1,4.4-3.7c1-1.4,1.8-3,2.3-4.7c0.1-0.5,0.2-1,0.2-1.6c0-0.3,0-0.7-0.1-1c-0.1-0.4-0.3-0.9-0.5-1.3
					c-0.1-0.2-0.3-0.4-0.5-0.6c-0.2-0.2-0.5-0.3-0.8-0.3c0,0-0.1,0-0.1,0c-0.9,0.1-1.8,0.4-2.6,0.7c-1.2,0.6-2.2,1.4-3.2,2.3
					c-1,0.9-1.8,1.8-2.7,2.6L1356.2,1995.8z"/>
			</g>
			<g id="XMLID_636_">
				<path id="XMLID_637_" d="M1363.1,1992c-0.1,0-1.4,0.1-3.2,1.2c-1.8,1.1-4.2,3.2-6.2,7l0.9,0.5c2-3.7,4.2-5.6,5.9-6.6
					c0.8-0.5,1.5-0.8,2-0.9c0.2-0.1,0.4-0.1,0.6-0.1c0.1,0,0.1,0,0.1,0l0,0l0,0l0-0.2l0,0.2l0,0l0-0.2l0,0.2L1363.1,1992z"/>
			</g>
			<g id="XMLID_634_">
				<path id="XMLID_635_" d="M1317.3,1999c-1.2-1-2.6-2.3-4-3.4c-0.7-0.5-1.5-1-2.2-1.4c-0.8-0.4-1.6-0.6-2.4-0.7c0,0-0.1,0-0.1,0
					c-0.3,0-0.6,0.1-0.8,0.3c-0.3,0.3-0.5,0.6-0.7,0.9c-0.2,0.3-0.3,0.7-0.3,1l0,0c-0.1,0.3-0.1,0.7-0.1,1c0,0.5,0.1,1.1,0.2,1.6
					c0.5,1.7,1.4,3.3,2.4,4.7c1.2,1.6,2.8,2.8,4.5,3.6c1.8,0.8,3.7,1.3,5.5,1.5l0.1-1.1c-1.8-0.2-3.6-0.6-5.2-1.4
					c-1.6-0.8-3.1-1.8-4.1-3.3c-1-1.3-1.8-2.8-2.2-4.3c-0.1-0.4-0.2-0.9-0.2-1.3c0-0.3,0-0.5,0.1-0.8l0,0c0.1-0.3,0.2-0.7,0.4-1
					c0.1-0.1,0.2-0.2,0.2-0.3c0.1-0.1,0.1-0.1,0.2-0.1l0,0c0.6,0,1.3,0.2,2,0.6c1,0.5,2.1,1.3,3.1,2.1c1,0.9,2,1.8,2.9,2.5
					L1317.3,1999z"/>
			</g>
			<g id="XMLID_632_">
				<path id="XMLID_633_" d="M1309.5,1997.3l0-0.2L1309.5,1997.3L1309.5,1997.3l0-0.2L1309.5,1997.3c0,0,1.2,0.1,2.9,1.1
					c1.7,1,3.9,2.8,6,6.4l0.9-0.5c-2.2-3.8-4.6-5.8-6.4-6.8c-1.9-1-3.2-1.1-3.2-1.1L1309.5,1997.3z"/>
			</g>
			<g id="XMLID_630_">
				<path id="XMLID_631_" d="M1360,1999.1c0,0,0.4-0.4,0.7-1.1c0.3-0.7,0.7-1.6,0.7-2.9c0-0.5-0.1-1-0.2-1.5l-1.1,0.3
					c0.1,0.5,0.2,0.9,0.2,1.3c0,1-0.3,1.8-0.5,2.4c-0.1,0.3-0.3,0.5-0.4,0.6c-0.1,0.1-0.1,0.1-0.1,0.1l0,0l0,0l0.1,0.1l-0.1-0.1l0,0
					l0.1,0.1l-0.1-0.1L1360,1999.1z"/>
			</g>
			<g id="XMLID_628_">
				<path id="XMLID_629_" d="M1311.6,1997.7c0,0-0.4,0.9-0.4,2.1c0,1,0.3,2.2,1.1,3.4l0.9-0.6c-0.7-1.1-0.9-2.1-0.9-2.9
					c0-0.5,0.1-0.9,0.1-1.2c0-0.1,0.1-0.3,0.1-0.3c0,0,0-0.1,0-0.1l0,0l0,0l-0.3-0.1l0.3,0.1l0,0l-0.3-0.1l0.3,0.1L1311.6,1997.7z"
					/>
			</g>
			<g id="XMLID_626_">
				<path id="XMLID_627_" d="M1345.6,2018.5c-0.7,2.5-2.7,6.3-5.7,6.3c-0.3,0-0.5,0.2-0.8,0.2c3.8,0,6.3-3.3,7.3-6.7
					C1346.4,2018.4,1345.7,2018.3,1345.6,2018.5z"/>
			</g>
			<g id="XMLID_624_">
				<path id="XMLID_625_" d="M1346.1,2026.4c-0.9-0.1-1.7-0.2-2.5-0.4c-0.9-0.2-1.8-0.5-2.6-0.8c-0.5-0.2-1-0.5-1.5-0.5
					c-1.8-0.1-3.2,1.2-3.7,3c0,0.2,0.4,0.1,0.4,0.1c1.4-0.4,2.9-0.1,4.2,0.5c2,0.8,3.3,2.9,5,4.2c2,1.5,5.6,2.8,6.2-0.7
					c0-0.2-0.7-0.1-0.8,0.1c-0.8,4.9-6.9-1.9-8.4-3.2c-1.7-1.4-4.2-1.7-6.3-1.2c0.1,0,0.3,0,0.4,0.1c0.2-0.8,0.6-1.4,1.1-2
					c1.1-1.1,3,0.2,4.2,0.6c1.2,0.4,2.5,0.6,3.8,0.7C1345.8,2026.7,1346.5,2026.4,1346.1,2026.4z"/>
			</g>
			<g id="XMLID_622_">
				<path id="XMLID_623_" d="M1346.3,2014.5c2.4,0.7,4.1,2.9,4.4,5.3c0.2,1.3-0.1,2.6-0.2,3.8c-0.1,1.3-0.3,2.5-0.3,3.8
					c-0.1,1.5-0.2,3.4,0.6,4.6c0.1,0.1,0.7-0.3,0.8-0.2c-0.8-1.2-0.7-2.9-0.7-4.3c0.1-2.6,0.8-5.4,0.6-8c-0.2-2.4-2.1-4.6-4.4-5.3
					C1346.8,2014.2,1346.5,2014.5,1346.3,2014.5z"/>
			</g>
			<g id="XMLID_620_">
				<path id="XMLID_621_" d="M1349.4,2026.6c0,0.8,0.1,1.6,0.2,2.3c0.1,1,0.2,2.4,1,3.1c-0.2-0.2,0-1.8,0-2c0-0.3,0.2-1.8,0-2
					c-0.7-0.7-0.8-2-0.9-2.9c-0.1-0.8-0.2-1.6-0.2-2.4C1349.4,2023.6,1349.3,2025.4,1349.4,2026.6z"/>
			</g>
			<g id="XMLID_618_">
				<path id="XMLID_619_" d="M1342.2,2016.2c-1,5-6.8,7.5-11.2,8.3c-0.4,0.1-0.6,0.5-0.1,0.4c4.7-0.8,11.1-3.4,12.1-8.8
					C1343,2015.8,1342.3,2016,1342.2,2016.2z"/>
			</g>
			<g id="XMLID_616_">
				<path id="XMLID_617_" d="M1340.1,2023.2c2.4-1.5,3.6-4.6,4.1-7.3c0,0.1-0.8,0.1-0.8,0.2c-0.5,2.7-1.8,5.7-4.1,7.3
					C1339.6,2023.2,1339.9,2023.3,1340.1,2023.2z"/>
			</g>
			<g id="XMLID_614_">
				<path id="XMLID_615_" d="M1331.8,2019.8c-1,1.3-1.9,3-1.9,4.7c0,0.1,0.8,0,0.8-0.2c0-1.6,0.9-3.2,1.8-4.5
					C1332.7,2019.5,1331.9,2019.6,1331.8,2019.8z"/>
			</g>
			<g id="XMLID_612_">
				<path id="XMLID_613_" d="M1328.8,2022.8c-0.1,0.5,0.3,1.1,0.7,1.4c1.7,1.6,4.6,1.9,6.8,2.2c0.2,0,0.5-0.3,0.8-0.2
					c-2.2-0.3-5-0.7-6.8-2.2c-0.4-0.3-0.8-0.9-0.7-1.4C1329.5,2022.7,1328.8,2022.7,1328.8,2022.8z"/>
			</g>
			<g id="XMLID_610_">
				<path id="XMLID_611_" d="M1329.4,2016.3c-1.3,1.6-2.5,3.4-3.5,5.2c-0.6,1.1-1.2,2.4-1.2,3.7c0.1,1.2,1.1,1.9,2.1,2.3
					c2.5,1,5.6,0.9,8.3,0.9c0.3,0,0.5-0.2,0.8-0.2c-2.7,0-5.5,0-8.1-0.8c-1.1-0.4-2.1-1.1-2.3-2.3c-0.2-1.2,0.5-2.5,1-3.5
					c1-2,2.3-3.8,3.7-5.6C1330.1,2016.3,1329.6,2016.1,1329.4,2016.3z"/>
			</g>
			<g id="XMLID_608_">
				<path id="XMLID_609_" d="M1340.2,2027.8c-0.7,0.8-1.6,1.5-2.5,1.9c-0.6,0.3-1.4,0.3-2-0.1c-0.7-0.5,0.4-1.7,0.7-2
					c0.3-0.4-0.4-0.5-0.7-0.2c-0.5,0.5-1.4,1.6-1,2.4c0.4,0.6,1.3,0.8,2,0.7c1.6-0.1,3-1.4,4.1-2.5
					C1341.2,2027.6,1340.5,2027.5,1340.2,2027.8z"/>
			</g>
			<g id="XMLID_606_">
				<path id="XMLID_607_" d="M1338.5,2029.5c0.6,0.5,1.3,1,2,1.2c1.1,0.3,1.9-0.4,2.1-1.5c0-0.3-0.7-0.1-0.8,0.1
					c0,0.2-0.1,1-0.5,1.1c-0.4,0-0.8-0.2-1.1-0.4c-0.4-0.2-0.7-0.5-1.1-0.8C1339.1,2029,1338.3,2029.3,1338.5,2029.5z"/>
			</g>
			<g id="XMLID_604_">
				<path id="XMLID_605_" d="M1328.8,2027.5c-2.7-0.2-7.1,0.3-7.6,3.7c-0.4,2.9,0.4,6,3.4,6.8c2.5,0.7,5.5,0.1,8-0.5
					c0.7-0.1,1.7,0.5,2.4,0.6c1.2,0.3,2-0.2,2.8-1c0.2-0.2,0.4-0.3,0.5-0.5c-0.2,0.2-0.6,0.1-0.1,0.2c0.8,0.2,1.5,0.3,2.3,0.4
					c2.3,0.4,4.7,0.7,7,0.8c3.2,0.1,5.9-1.1,7-4.3c0.5-1.5,0.3-3.4-0.4-4.8c-0.7-1.4-2.4-1.3-3.8-1.2c-0.5,0.1-0.5,0.9,0,0.8
					c1.6-0.2,2.8-0.1,3.4,1.6c0.5,1.6,0.2,3.4-0.7,4.8c-1.5,2.5-4.4,2.4-7,2.2c-2.3-0.2-4.6-0.5-6.8-1c-0.4-0.1-0.8-0.1-1.1-0.2
					c-0.6-0.1-1.4,1.1-1.7,1.3c-0.8,0.6-2.5-0.2-3.3-0.6c-0.4-0.2-0.9,0.1-1.3,0.2c-1.1,0.2-2.1,0.4-3.2,0.5
					c-1.9,0.2-4.6,0.3-5.9-1.4c-0.9-1.2-0.9-2.9-0.8-4.3c0-2.5,2.8-3.2,4.8-3.4c0.7-0.1,1.3-0.1,2,0
					C1329.4,2028.4,1329.4,2027.6,1328.8,2027.5z"/>
			</g>
			<g id="XMLID_602_">
				<path id="XMLID_603_" d="M1334.1,2030.5c-1.7,1.2-3.8,2.2-5.8,2.8c-0.5,0.2-0.5,0.2,0,0c0.7-0.2,1.5-0.4,2.2-0.6
					c2.4-0.7,4.7-1.6,6.7-3.1C1336.4,2030.2,1334.9,2029.9,1334.1,2030.5z"/>
			</g>
			<g id="XMLID_600_">
				<path id="XMLID_601_" d="M1331.2,2037.2c3.7-0.9,7.6-2.4,10.1-5.4c-0.3,0.3-1.3,0.1-1.6,0.4c-1.1,1.4-2.6,2.4-4.2,3.3
					c-0.7,0.4-1.5,0.7-2.2,1c-0.4,0.1-0.7,0.3-1.1,0.4c1-0.3,0.7-0.2,0.5-0.1C1332.3,2036.9,1331.6,2037.1,1331.2,2037.2z"/>
			</g>
			<g id="XMLID_598_">
				<path id="XMLID_599_" d="M1341.9,2031.5c-0.7,1.9-2.1,3.6-3.8,4.8c0.2-0.1,0.6-0.1,0.8-0.2c1.7-1.1,3.1-2.9,3.8-4.8
					C1342.6,2031.4,1341.9,2031.3,1341.9,2031.5z"/>
			</g>
			<g id="XMLID_596_">
				<path id="XMLID_597_" class="st3" d="M1318.4,2036.5c0.1,0,0.2-0.1,0.2-0.1C1318.5,2036.3,1318.5,2036.5,1318.4,2036.5z"/>
			</g>
		</g>
	</g>
</g>
<g>
	<polygon class="st18" points="1211.4,2003.7 1178.6,2017.3 1145.7,2003.7 1132.1,1970.9 1145.7,1938 1178.5,1924.4 1211.4,1938 
		1225,1970.9 	"/>
	<g>
		<path class="st19" d="M1154.2,1978.4c-0.5,0-1-0.1-1.5-0.1c-0.6-0.1-1.1-0.3-1.6-0.5c-0.4-0.2-0.8-0.5-1.1-0.8
			c-0.2-0.3-0.4-0.6-0.6-0.9c-0.3-0.4-0.4-0.9-0.5-1.4c-0.1-0.4-0.2-0.9-0.3-1.3c-0.1-0.6-0.1-1.2-0.1-1.9c0-0.1,0-0.2,0-0.4
			c0-0.3,0-0.6,0-0.9c0-0.5,0-1.1,0.1-1.6c0.1-0.6,0.2-1.1,0.4-1.7c0.2-0.6,0.5-1.3,0.9-1.8c0.1-0.1,0.2-0.2,0.3-0.3
			c0.4-0.4,0.8-0.6,1.2-0.8c0.4-0.2,0.8-0.3,1.2-0.4c0.7-0.2,1.3-0.2,2-0.2c0.6,0,1.1,0.1,1.7,0.2c0.4,0.1,0.8,0.2,1.1,0.4
			c0.5,0.3,1,0.6,1.4,1.1c0.3,0.4,0.6,0.9,0.8,1.4c0.2,0.5,0.3,0.9,0.4,1.4c0.1,0.4,0.2,0.8,0.2,1.2c0,0.6,0.1,1.3,0.1,1.9
			c0,0.8-0.1,1.6-0.2,2.4c0,0.3-0.1,0.6-0.2,0.9c-0.1,0.4-0.2,0.8-0.3,1.2c-0.2,0.5-0.4,0.9-0.7,1.3c-0.4,0.5-0.9,0.9-1.5,1.1
			c-0.6,0.3-1.2,0.4-1.8,0.5C1155.1,1978.4,1154.6,1978.4,1154.2,1978.4 M1157.9,1971c0-0.4,0-0.8-0.1-1.1c-0.1-0.7-0.2-1.5-0.3-2.2
			c-0.2-0.6-0.4-1.2-0.9-1.6c-0.3-0.3-0.6-0.5-1-0.5c-0.3-0.1-0.7-0.1-1-0.1c-0.4,0-0.8,0-1.2,0.1c-0.6,0.1-1.1,0.4-1.6,0.9
			c-0.2,0.3-0.4,0.6-0.5,0.9c-0.2,0.4-0.2,0.8-0.3,1.2c-0.1,0.4-0.1,0.8-0.1,1.2c0,0.3,0,0.5,0,0.8c0,0.5-0.1,0.9,0,1.4
			c0,0.2,0,0.4,0,0.6c0,0.3,0.1,0.7,0.1,1c0,0.2,0.1,0.3,0.1,0.5c0.1,0.5,0.3,1,0.5,1.5c0.2,0.3,0.4,0.5,0.7,0.7
			c0.6,0.4,1.2,0.5,1.9,0.5c0.4,0,0.8,0,1.2-0.1c0.6-0.1,1.1-0.3,1.5-0.8c0.3-0.3,0.5-0.7,0.6-1.2c0.1-0.6,0.3-1.1,0.3-1.7
			C1157.8,1972.1,1157.8,1971.5,1157.9,1971"/>
		<path class="st19" d="M1190.7,1963.4c0.6,0,1.1,0,1.7,0.1c0.8,0.1,1.6,0.4,2.2,1c0.4,0.3,0.8,0.7,1,1.2c0.1,0.3,0.3,0.5,0.4,0.8
			c0.1,0.3,0.2,0.6,0.3,1c0.1,0.3,0.1,0.6,0.2,0.9c0.1,0.4,0.1,0.9,0.1,1.3c0.1,0.6,0.1,1.1,0.1,1.7c0,0.3,0,0.6-0.1,1
			c0,0.4-0.1,0.7-0.1,1.1c-0.1,0.5-0.2,1-0.3,1.5c-0.1,0.5-0.3,1-0.6,1.5c-0.4,0.6-1,1.1-1.7,1.4c-0.3,0.1-0.6,0.3-1,0.4
			c-0.7,0.1-1.3,0.2-2,0.2c-0.3,0-0.6,0-0.9,0c-0.3,0-0.6-0.1-0.9-0.1c-0.4-0.1-0.8-0.2-1.1-0.4c-0.3-0.1-0.5-0.3-0.8-0.4
			c-0.3-0.2-0.6-0.5-0.8-0.8c-0.4-0.5-0.6-1.1-0.8-1.7c-0.2-0.6-0.3-1.3-0.4-2c-0.1-0.4-0.1-0.9-0.1-1.3c0-0.4,0-0.7,0-1.1
			c0-0.4,0-0.8,0.1-1.2c0.1-0.5,0.1-1,0.2-1.5c0.1-0.6,0.3-1.1,0.5-1.6c0.2-0.5,0.5-1,0.9-1.4c0.6-0.6,1.3-1,2.1-1.2
			C1189.4,1963.5,1190,1963.4,1190.7,1963.4 M1194.4,1971c0-0.4-0.1-0.8-0.1-1.2c0-0.6-0.1-1.1-0.2-1.6c-0.1-0.6-0.3-1.2-0.7-1.7
			c-0.3-0.4-0.7-0.7-1.2-0.9c-0.6-0.2-1.3-0.3-2-0.2c-0.4,0-0.8,0.1-1.1,0.3c-0.4,0.2-0.7,0.5-1,0.8c-0.2,0.3-0.3,0.7-0.5,1
			c-0.2,0.4-0.2,0.9-0.3,1.4c-0.1,0.5-0.1,1.1-0.1,1.6c0,0.6,0,1.1,0.1,1.7c0,0.2,0,0.4,0,0.6c0.1,0.4,0.1,0.8,0.2,1.2
			c0.1,0.5,0.3,0.9,0.6,1.3c0.2,0.2,0.3,0.4,0.5,0.5c0.6,0.3,1.2,0.5,1.9,0.5c0.5,0,1,0,1.4-0.1c0.4-0.1,0.8-0.3,1.1-0.6
			c0.4-0.3,0.6-0.7,0.7-1.2c0.2-0.6,0.3-1.3,0.4-2C1194.3,1972,1194.3,1971.5,1194.4,1971"/>
		<path class="st19" d="M1203.6,1978.4c-0.2,0-0.5,0-0.7,0c-0.3,0-0.6-0.1-0.9-0.1c-0.4,0-0.8-0.1-1.2-0.1c-0.4-0.1-0.7-0.1-1.1-0.2
			c0,0,0,0-0.1,0c-0.4-0.2-0.5-0.3-0.4-0.7c0-0.2,0.1-0.5,0.1-0.7c0.1-0.3,0.2-0.4,0.5-0.4c0.3,0,0.6,0.1,0.9,0.1
			c0.5,0,1,0.1,1.4,0.1c0.6,0.1,1.2,0.1,1.8,0.1c0.6,0,1.1-0.2,1.6-0.5c0.3-0.2,0.5-0.5,0.6-0.8c0.2-0.5,0.2-0.9,0.2-1.4
			c-0.1-0.6-0.5-1-1-1.3c-0.6-0.3-1.2-0.4-1.8-0.6c-0.5-0.1-1.1-0.3-1.6-0.5c-0.2-0.1-0.4-0.1-0.6-0.2c-0.3-0.2-0.6-0.3-0.9-0.5
			c-0.7-0.4-1.2-1.1-1.3-1.9c-0.1-0.4-0.1-0.8-0.2-1.2c0-0.3,0-0.7,0.1-1c0-0.3,0.1-0.6,0.2-0.9c0.3-0.6,0.7-1.1,1.2-1.4
			c0.5-0.3,1-0.5,1.6-0.6c0.4-0.1,0.9-0.1,1.3-0.2c0.4,0,0.8,0,1.3,0c1.1,0,2.1,0.2,3.1,0.4c0.4,0.1,0.5,0.2,0.5,0.6
			c0,0.3,0,0.6-0.1,0.9c0,0.3-0.2,0.4-0.5,0.4c-0.2,0-0.4,0-0.5-0.1c-0.4,0-0.9-0.1-1.3-0.1c-0.5,0-1-0.1-1.5-0.1
			c-0.6,0-1.1,0-1.6,0.1c-0.3,0.1-0.6,0.2-0.9,0.5c-0.5,0.5-0.6,1.1-0.5,1.8c0.1,0.6,0.5,0.9,1,1.1c0.8,0.3,1.6,0.6,2.4,0.8
			c0.5,0.2,1.1,0.3,1.6,0.5c0.5,0.2,0.9,0.4,1.3,0.7c0.3,0.2,0.6,0.5,0.8,0.9c0.1,0.3,0.2,0.6,0.3,1c0.2,0.8,0.1,1.6-0.1,2.3
			c-0.1,0.4-0.2,0.7-0.4,1c-0.2,0.4-0.5,0.8-0.9,1.1c-0.5,0.4-1,0.6-1.6,0.8c-0.5,0.1-1.1,0.2-1.6,0.2
			C1203.9,1978.4,1203.7,1978.4,1203.6,1978.4C1203.6,1978.4,1203.6,1978.4,1203.6,1978.4"/>
		<path class="st19" d="M1168,1978.4c-0.8,0-1.5,0-2.2-0.2c-0.9-0.2-1.6-0.6-2.1-1.3c-0.2-0.3-0.3-0.5-0.5-0.8
			c-0.2-0.4-0.3-0.9-0.4-1.3c-0.1-0.4-0.1-0.8-0.2-1.2c-0.1-0.5-0.1-1-0.1-1.4c0-0.3-0.1-0.6-0.1-0.9c0-0.4,0-0.8,0-1.2
			c0-0.2,0-0.5,0-0.7c0-0.5,0.1-0.9,0.1-1.4c0-0.2,0.1-0.4,0.1-0.7c0.1-0.6,0.3-1.2,0.6-1.8c0.2-0.3,0.4-0.6,0.6-0.9
			c0.3-0.4,0.7-0.6,1.2-0.8c0.6-0.3,1.2-0.4,1.9-0.4c0.4,0,0.8,0,1.2,0c0.6,0,1.1,0,1.7,0.1c0.5,0.1,1.1,0.2,1.6,0.3
			c0.3,0.1,0.5,0.2,0.5,0.5c0,0.3,0,0.6-0.1,1c0,0.2-0.2,0.4-0.5,0.4c-0.1,0-0.1,0-0.2,0c-0.5-0.1-1-0.2-1.6-0.2c-0.7,0-1.3,0-2,0
			c-0.6,0-1.1,0.2-1.6,0.5c-0.3,0.2-0.6,0.5-0.7,0.9c-0.3,0.5-0.4,1.1-0.5,1.7c-0.1,0.9-0.2,1.9-0.1,2.8c0,0.8,0.1,1.6,0.2,2.4
			c0.1,0.5,0.2,0.9,0.4,1.4c0.2,0.4,0.6,0.7,1,0.9c0.7,0.3,1.4,0.4,2.1,0.4c0.4,0,0.8,0,1.2-0.1c0.5-0.1,1.1-0.1,1.6-0.2
			c0,0,0,0,0.1,0c0.3,0,0.5,0.1,0.5,0.4c0,0.3,0,0.7,0,1c0,0.2-0.1,0.4-0.4,0.5c-0.3,0.1-0.7,0.2-1,0.2c-0.5,0.1-1,0.1-1.5,0.1
			C1168.6,1978.4,1168.3,1978.4,1168,1978.4"/>
		<path class="st19" d="M1177.3,1971.9c0-1.7,0-3.3,0-5c0-0.2,0-0.5,0-0.7c0-0.3-0.2-0.5-0.5-0.6c-0.3,0-0.6,0-0.9,0
			c-0.7,0-1.4,0-2.1,0c-0.1,0-0.2,0-0.4-0.1c-0.1,0-0.2-0.1-0.3-0.3c0-0.1,0-0.1,0-0.2c0-0.3,0-0.7,0-1c0-0.3,0.1-0.4,0.5-0.4
			c0.2,0,0.4,0,0.6,0c2.6,0,5.2,0,7.7,0c0.4,0,0.7,0,1.1,0c0.4,0,0.6,0.2,0.6,0.6c0,0.3,0,0.5,0,0.8c0,0,0,0.1,0,0.1
			c0,0.3-0.2,0.5-0.5,0.5c-0.2,0-0.4,0-0.5,0c-0.6,0-1.1,0-1.7,0c-0.3,0-0.5,0-0.8,0c-0.1,0-0.1,0-0.2,0c-0.2,0.1-0.4,0.2-0.4,0.5
			c0,0.2,0,0.5,0,0.7c0,3.3,0,6.6,0,9.9c0,0.2,0,0.4,0,0.6c0,0.1,0,0.3,0,0.4c0,0.2-0.1,0.3-0.3,0.3c0,0,0,0-0.1,0c-0.5,0-1,0-1.4,0
			c-0.3,0-0.4-0.2-0.4-0.5c0-0.1,0-0.2,0-0.2C1177.3,1975.6,1177.3,1973.8,1177.3,1971.9L1177.3,1971.9z"/>
	</g>
</g>
<g>
	<g id="XMLID_114_">
		<g id="XMLID_379_">
			<defs>
				<rect id="XMLID_212_" x="963.7" y="1904" width="69.2" height="101.3"/>
			</defs>
			<clipPath id="XMLID_4_">
				<use xlink:href="#XMLID_212_"  style="overflow:visible;"/>
			</clipPath>
			<g id="XMLID_381_" class="st20">
				<g id="XMLID_508_">
					<path id="XMLID_92_" class="st12" d="M1017.2,1980.9c0,0-1.2,13.2-4.4,25.6C1009.6,2018.9,1007.2,1976.3,1017.2,1980.9z"/>
					<g id="XMLID_102_">
						<g>
							<path class="st21" d="M1016.1,1981c-0.5,5.3-1.3,10.5-2.2,15.7c-0.7,3.7-1.7,7.3-2.5,10.9c0,0.1-0.5,0.8-0.4,0.9
								c0.1,0.3,1.3,0,1.4-0.3c0-0.1-0.2-0.3-0.2-0.5c-0.4-2.8-0.9-5.5-0.9-8.4c-0.1-3.7,0.1-7.5,0.9-11.2c0.3-1.5,1.6-8.1,4.2-6.9
								c0.5,0.2,2.5-0.3,1.9-0.6c-8.4-3.6-9,11.4-9.1,16.1c-0.1,3.5-0.5,8,0.9,11.3c0.4,1,1,1.4,2.1,1.1c1.2-0.3,1.5-1.3,1.8-2.4
								c2.4-8.4,3.7-17.3,4.5-26C1018.3,1980.3,1016.1,1980.3,1016.1,1981z"/>
						</g>
					</g>
					<path id="XMLID_100_" class="st22" d="M1016.4,1980.9c0,0-2.6,0.5-2.8,5.7c-0.2,5.2,1.3,8.2,1.3,8.2l-2.1,10
						C1012.7,2004.8,1009.8,1978.6,1016.4,1980.9z"/>
				</g>
				<g id="XMLID_382_">
					<path id="XMLID_90_" class="st5" d="M1015.1,1980c0,0-8.6-7.2-16.4-5.8c-7.8,1.4-16,2.6-18.8,9.2c-2.8,6.6-3.6,15.2-3.4,15.8
						c0.2,0.6,5.4,5.5,11.2,5.7v-6.7c0,0-2.2,0.6-3.8-2.2l1.6-7.3l2,4.3l27.5-12.1"/>
					<g id="XMLID_305_">
						<g>
							<path d="M1016,1980c-2.9-2.4-6.3-4.3-9.9-5.5c-5.4-1.8-11-0.6-16.4,0.9c-2.6,0.7-5.2,1.7-7.4,3.3c-2.4,1.9-3.5,4.4-4.4,7.2
								c-0.9,2.9-1.6,6-2,9.1c-0.1,1.1-0.7,3-0.2,4.1c0.7,1.5,3.5,2.9,4.8,3.6c2.6,1.5,5.5,2.5,8.6,2.8c0.3,0,0.6,0,0.6-0.3
								c0-2.2,0-4.5,0-6.7c0-0.6-1.5-0.8-1.9-0.7c-3.5,0.6-2.5-2.4-2.1-4c0.3-1.5,0.7-3.1,1-4.6c-0.7-0.2-1.4-0.4-2.1-0.6
								c0.7,1.4,1.3,2.8,2,4.3c0.2,0.5,1.3,1,1.9,0.7c9.2-4,18.4-8.1,27.5-12.1c0.8-0.3-1.1-1.3-1.7-1c-9.2,4-18.4,8.1-27.5,12.1
								c0.6,0.2,1.2,0.5,1.9,0.7c-0.7-1.4-1.3-2.8-2-4.3c-0.2-0.4-1.9-1.3-2.1-0.6c-0.3,1.2-0.5,2.4-0.8,3.7c-0.2,0.9-1,2.7-0.8,3.7
								c0.4,2.4,4.5,3.4,6.5,3.1c-0.6-0.2-1.2-0.5-1.9-0.7c0,2.2,0,4.5,0,6.7c0.2-0.1,0.4-0.2,0.6-0.3c-3.5-0.3-6.9-1.9-9.6-4.1
								c-1.3-1-1-1.8-0.8-3.4c0.6-5.4,1.6-13,5.9-16.8c2.2-1.9,5.1-3,7.9-3.7c3-0.8,6.4-1.7,9.5-1.7c4.7-0.1,9.6,2.5,13.2,5.5
								C1014.7,1980.4,1016.9,1980.7,1016,1980L1016,1980z"/>
						</g>
					</g>
					<path id="XMLID_304_" class="st6" d="M987.2,1977.4c0,0,7.1,8.1,17.5-0.5c0,0-11.3,1.5-15.1-0.7L987.2,1977.4z"/>
					<g id="XMLID_484_">
						<path id="XMLID_303_" class="st5" d="M999.1,2037.4c0,0-0.5,0.8,0.2,1.8c0.6,1,0.2,1.4,0,1.6c-0.2,0.2-3.9,1.2-6.6,0.9
							c-2.7-0.3-3.9-1.5-2.9-2.7c1-1.2,2.6-1,2.6-1s3.6,0.3,3.9-0.7L999.1,2037.4z"/>
						<path id="XMLID_302_" class="st6" d="M992.3,2038c0,0-1.8,1.9-1.2,3.4c0,0,2.7,0.4,4.1,0.3c0,0-1.4-2.3-0.7-3.7L992.3,2038z"
							/>
						<path id="XMLID_301_" class="st6" d="M995.2,2038c0,0,0.7,0.1,1.8,0.5c1.1,0.4,2.3,1.3,2.3,1.3s-1-1.3-0.2-2.4l-2.9-0.1
							L995.2,2038z"/>
						<g id="XMLID_493_">
							<path id="XMLID_300_" class="st23" d="M994.2,2038c0,0-1.1-1.7-2.1,0.8c0,0-0.1,2.1,0.5,2.7c0,0-2.2,0.2-2.9-1l-0.4,0.4
								c0,0-0.8,1.6,2.5,2.2c3.3,0.6,6.7-0.3,7.7-0.9c1-0.6,0.6-1.5,0.1-1.7c0,0-2.4,1.3-5,1C994.5,2041.5,993.3,2038.5,994.2,2038z
								"/>
							<path id="XMLID_299_" class="st24" d="M989.3,2040.9c0,0,0.5,1.6,4.4,1.4c3.9-0.2,5.7-0.5,5.9-1.7c0,0-2.2,0.9-4.4,1
								c-2.2,0.1-4.9,0.2-5.4-1c-0.5-1.2-0.1-0.1-0.1-0.1L989.3,2040.9z"/>
						</g>
						<g id="XMLID_491_">
							<path id="XMLID_298_" d="M992.5,2037.9c-1.1,0.2-2.1,0.2-2.9,1.1c-0.4,0.4-0.3,1-0.2,1.5c0.2,0.6,0.7,0.8,1.3,1
								c1.3,0.4,2.9,0.4,4.3,0.3c1.6-0.1,3.1-0.3,4.6-1c0,0,0.1-0.1,0.1-0.1c0.1-0.5,0-1-0.2-1.5c-0.1-0.2-0.2-0.4-0.3-0.7
								c-0.2-0.5-0.1-0.7,0.2-1.2c0.1-0.2-0.4-0.1-0.4,0c-0.2,0.4-0.5,0.6-0.3,1.1c0.3,0.6,0.5,1.2,0.6,1.8c0.1,1.2-3.8,1.2-4.6,1.3
								c-0.7,0-1.4,0-2-0.1c-0.8,0-1.7-0.1-2.4-0.7c-0.5-0.5-0.5-1.3-0.2-1.9c0.5-0.7,1.6-0.7,2.4-0.8
								C992.6,2038.1,992.8,2037.8,992.5,2037.9L992.5,2037.9z"/>
						</g>
						<g id="XMLID_489_">
							<path id="XMLID_297_" d="M996.1,2037.4c-0.5,0.4-1.1,0.4-1.7,0.4c-0.2,0-0.5,0.3-0.2,0.3c0.8,0,1.6-0.1,2.2-0.5
								C996.6,2037.4,996.2,2037.3,996.1,2037.4L996.1,2037.4z"/>
						</g>
						<g id="XMLID_487_">
							<path id="XMLID_296_" d="M994.5,2037.9c-0.7-1-1.9-0.4-2.4,0.4c-0.6,0.9-0.2,2.4,0.2,3.3c0,0.1,0.1,0.1,0.1,0.1
								c0.7,0,1.3,0,2,0c0.1,0,0.4-0.1,0.3-0.2C994.2,2040.5,993.8,2038.9,994.5,2037.9c0.1-0.1-0.3,0-0.4,0.1
								c-0.8,1-0.4,2.6,0.2,3.6c0.1-0.1,0.2-0.1,0.3-0.2c-0.4,0-0.9,0-1.3,0c-0.2,0-0.4,0-0.6,0c0.1,0,0.1,0.1,0.1,0
								c0-0.1-0.1-0.2-0.1-0.3c-0.3-0.7-0.4-1.5-0.3-2.2c0.1-0.8,1.1-1.7,1.8-0.8C994.2,2038.2,994.6,2038,994.5,2037.9z"/>
						</g>
						<g id="XMLID_485_">
							<path id="XMLID_295_" d="M989.6,2040.6c-1.1,0.1-0.7,1.4-0.1,1.8c1.3,1,3.4,1,5,0.9c1,0,7.8-0.8,5.1-3.1
								c-0.1-0.1-0.6,0.1-0.4,0.3c2,1.7-2.8,2.3-3.6,2.4c-1.6,0.2-3.2,0.2-4.7-0.3c-0.4-0.1-0.8-0.3-1.2-0.6
								c-0.2-0.2-0.7-1.1-0.2-1.1C989.8,2041,989.9,2040.6,989.6,2040.6L989.6,2040.6z"/>
						</g>
					</g>
					<path id="XMLID_294_" class="st6" d="M982.2,1983.6c0,0,1,3.6,0.6,5.6c-0.4,2-1.3,5.9-1.3,5.9s-3.3,0.5-2.1,2.9
						c0,0,2.2-1.5,2.7-0.9c0.5,0.7,3.2,3.7,5.9,2.7l0.2-1.9c0,0-4.5,0.1-4.1-2.1l1.4-7C985.6,1988.9,982.8,1983.7,982.2,1983.6z"/>
					<g id="XMLID_467_">
						<path id="XMLID_293_" class="st23" d="M1010.7,2042c0,0,1-1.8,0.1-3.2c-0.9-1.4-8.4-1.6-8.3,1.1c0,2.7,0.9,2.4,0.9,2.4
							L1010.7,2042z"/>
						<path id="XMLID_292_" class="st24" d="M1010.8,2039.8c-0.9-1.4-7.8-1.6-8.3,0.8c0-0.2,0-0.5,0-0.8c0-2.7,7.4-2.5,8.3-1.1
							c0.4,0.6,0.4,1.3,0.4,1.9C1011.1,2040.3,1011,2040.1,1010.8,2039.8z"/>
						<path id="XMLID_291_" class="st5" d="M1003.4,2040.6c-0.6,0.9-0.2,1.4,0,1.6c0.2,0.2,3,1.1,5.1,0.8c2.1-0.3,3-1.5,2.2-2.7
							c-0.8-1.2-2-1-2-1S1004.6,2038.8,1003.4,2040.6z"/>
						<path id="XMLID_290_" class="st6" d="M1003.4,2040.6c1.2-1.8,5.3-1.3,5.3-1.3s1.2-0.2,2,1c0.4,0.6,0.3,1.2-0.1,1.7
							c0-0.2-0.1-0.4-0.1-0.5c-0.7-2.4-1.9-2-1.9-2s-3.9-1.2-5,2.4c0,0.1-0.1,0.3-0.1,0.4c-0.1,0-0.1-0.1-0.1-0.1
							C1003.2,2042,1002.8,2041.5,1003.4,2040.6z"/>
						<g id="XMLID_476_">
							<path id="XMLID_289_" class="st23" d="M1008.6,2042.9c0,0,1.7,0.2,2.2-1.1l0.3,0.4c0,0,0.6,1.6-1.9,2.2
								c-2.5,0.6-5.1-0.2-6-0.8c-0.8-0.6-0.5-1.5-0.1-1.7c0,0,1.9,1.3,3.9,0.9"/>
							<path id="XMLID_288_" class="st24" d="M1011.1,2042.2c0,0-0.3,1.6-3.4,1.5c-3-0.1-4.4-0.5-4.6-1.6c0,0,1.7,0.9,3.4,0.9
								c1.7,0.1,3.8,0.1,4.2-1.1c0.4-1.2,0.1-0.1,0.1-0.1L1011.1,2042.2z"/>
						</g>
						<g id="XMLID_474_">
							<path id="XMLID_287_" d="M1010.9,2042c0.9,0,0.5,1.4,0.1,1.8c-1,1-2.6,1.1-3.9,1c-0.7,0-6.1-0.7-4-3c0.1-0.1,0.4,0.1,0.3,0.3
								c-1.5,1.7,2.2,2.2,2.9,2.3c1.2,0.2,2.5,0.1,3.7-0.3c0.3-0.1,0.6-0.3,0.9-0.6c0.1-0.2,0.5-1.1,0.1-1.1
								C1010.7,2042.3,1010.7,2042,1010.9,2042L1010.9,2042z"/>
						</g>
						<g id="XMLID_472_">
							<path id="XMLID_286_" class="st3" d="M1002.3,2039.6c0.1-1,1.2-1.3,1.8-1.6c1.2-0.4,2.5-0.5,3.7-0.4c1,0.1,2,0.2,2.9,0.7
								c1,0.7,0.8,2.6,0.3,3.6c0,0-0.1,0.1-0.1,0.1c0-0.1-0.1-0.3-0.1-0.4c0.4-1.1,0.5-2.6-0.5-3.2c-0.9-0.5-2.1-0.6-3.1-0.6
								c-1.1,0-2.2,0.1-3.2,0.5c-1.1,0.5-1.3,1.4-1,2.9c0.1,0.5,0.3,0.8,0.5,0.8c0,0.1,0,0.2,0,0.3c0,0,0,0-0.1,0
								C1002.3,2042.2,1002.2,2040.5,1002.3,2039.6z"/>
						</g>
						<g id="XMLID_470_">
							<path id="XMLID_285_" class="st3" d="M1003.1,2041.6c1.9,0.8,3.9,1.5,5.9,1c0.5-0.1,1.1-0.4,1.5-0.9c0.1-0.1,0.3-0.1,0.5-0.1
								c-0.1,0.2-0.1,0.4-0.2,0.5c-0.5,0.4-1.2,0.7-1.8,0.8c-2.1,0.5-4.3-0.1-6.2-0.9c-0.1-0.1-0.2-0.3-0.2-0.4
								C1002.8,2041.6,1003,2041.5,1003.1,2041.6z"/>
						</g>
						<g id="XMLID_468_">
							<path id="XMLID_284_" class="st3" d="M1011.1,2040.7c-0.8-1.5-2.9-1.7-4.4-1.6c-1.3,0.1-4,0.8-3.9,2.6c0,0.1,0.3,0.1,0.3,0
								c-0.1-1.4,1.9-2.1,3-2.3c1.5-0.3,3.9-0.3,4.7,1.4C1010.8,2040.8,1011.1,2040.8,1011.1,2040.7L1011.1,2040.7z"/>
						</g>
					</g>
					<path id="XMLID_283_" class="st25" d="M1010,1974.6c0,0-0.3-1.9-2.7,0c-2.4,1.9-18.2,17-18.2,17s-3.5,2.3-1.2,5.2
						c0,0,0.1,15-0.8,20.2c-0.8,5.2,2.1,6.1,2.1,6.1l-0.9,13.4c0,0,12.6,5.2,26.2-1.2l-2.4-47.4c0,0,1.1-9.3,5.1-7
						c0,0-0.9-4.3-2.9-3.7C1014.3,1977.2,1013.4,1972.1,1010,1974.6z"/>
					<path id="XMLID_282_" class="st12" d="M1012.7,2019.1c0,0,1.8,17.2-8.9,19c0,0,7.1-0.2,10.7-3.1l-1.3-18.9L1012.7,2019.1z"/>
					<path id="XMLID_281_" class="st12" d="M1014.3,1977c0,0-1.7-4.1-4.6-0.6c-2.9,3.6-5.7,9.9-8,13.8c0,0,6.2-9.4,7.3-10.1
						c1.1-0.6-5.4,7.2-8.7,16.3c-3.3,9.2-8.5,26.2-8.5,26.2s13.1-42,22.1-45.3"/>
					<path id="XMLID_280_" class="st12" d="M993.3,2025.5l-4.9,11.1c0,0,0.7,1.8,13.8,1.9C1002.2,2038.5,988.8,2036.4,993.3,2025.5z
						"/>
					<polygon id="XMLID_279_" class="st26" points="1004.4,1976.7 987.9,1989 987.6,1993.1 					"/>
					<path id="XMLID_278_" class="st12" d="M1009.6,1974.8c0,0-14.6,12.2-18.6,20.4c-4.1,8.2,1.1,0.3,0.5,2
						c-0.6,1.7-4.8,10.3-3.1,10.3C988.4,2007.4,996.9,1987.2,1009.6,1974.8z"/>
					<g id="XMLID_459_">
						<path id="XMLID_277_" d="M1010.4,1974.5c-0.9-3.7-11.3,7.3-12.2,8.1c-2.9,2.7-5.7,5.4-8.6,8.1c-1.3,1.3-3.9,3.2-2.7,5.3
							c1.6,2.8,0.5,8.2,0.4,11.3c-0.1,2.6-0.2,5.2-0.4,7.8c-0.2,2.2-0.7,4.3,0.2,6.5c0.3,0.7,1,1.4,1.7,1.7c0,0-0.2,2.3-0.2,2.9
							c-0.2,3.5-0.5,6.9-0.7,10.4c0,0.1,0.1,0.2,0.2,0.2c8.4,3.4,18.5,2.4,26.6-1.2c0.1-0.1,0.2-0.2,0.2-0.3c-0.5-9.5-1-19-1.4-28.4
							c-0.3-5.3-0.5-10.6-0.8-15.9c-0.1-2.5,0-11.7,4.2-9.8c0.2,0.1,0.8,0,0.7-0.3c-0.3-1.3-0.8-2.5-1.7-3.5c-0.8-0.8-1,0.2-1.3-0.9
							c-0.7-2.6-2.6-3.2-4.8-2c-0.5,0.3,0.2,0.5,0.5,0.3c2.5-1.4,3.4,1.1,3.7,2.6c0,0.1,0.2,0.2,0.3,0.2c1.7-0.1,2.2,2.2,2.5,3.4
							c-0.1-0.5,0.3-0.7-0.7-0.6c-1.4,0.1-2.1,0.9-2.8,2.1c-1.2,1.9-1.6,4.5-1.5,6.7c0.5,9.4,0.9,18.8,1.4,28.1
							c0.2,4.6,0.5,9.2,0.7,13.8c0.1,1.3,0.1,2.6,0.2,3.8c0.1,2-8.7,3-10.3,3.2c-4.2,0.5-8.5,0.1-12.6-0.9c-1.6-0.4-2.5-0.3-2.4-1.5
							c0.3-4.2,0.6-8.4,0.9-12.6c0-0.1-0.1-0.2-0.2-0.2c-2.7-1-2-4.9-1.8-7.1c0.4-3.1,0.4-6.3,0.5-9.5c0.1-2.8,0.1-5.6,0.1-8.3
							c0-2.3-1.2-4.6,1.1-6.2c3-2.1,5.6-5.3,8.3-7.9c2.1-2,4.3-4,6.4-6c0.4-0.3,5.1-5,5.6-3.2
							C1009.7,1975,1010.4,1974.8,1010.4,1974.5z"/>
					</g>
					<path id="XMLID_276_" class="st12" d="M1017,1980.7c0,0-2-3.4-4.3-0.4c-2.3,3-6.8,15.6-6.8,15.6s-4.3,15.9-7.1,20.2
						c-2.7,4.3,0.1,6.2,10.4-18.1c0,0,2-0.9-1.8,10c-3.9,10.9-9.8,22.4-7.2,20.1c2.6-2.3,9.6-7.9,12.1-35.1
						C1012.4,1993,1010.4,1978.1,1017,1980.7z"/>
					<path id="XMLID_275_" class="st12" d="M1003.9,1986.5c0,0-6.7,2.8-12.3,19.8c-5.6,16.9-2.3,14.7-2.3,14.7
						S996.1,1991.3,1003.9,1986.5z"/>
					<g id="XMLID_455_">
						<path id="XMLID_274_" d="M1009.6,1974.8c-8.9,9.2-16.6,20.6-21.2,32.6c0.1-0.2,0.6-0.2,0.7-0.4c4.6-12,12.3-23.4,21.2-32.6
							C1010.1,1974.5,1009.8,1974.6,1009.6,1974.8L1009.6,1974.8z"/>
					</g>
					<g id="XMLID_453_">
						<path id="XMLID_273_" d="M989.6,2022.9c0.8-5,2.1-10,3.5-14.9c2.2-7.4,5-16.1,10.8-21.5c-0.2,0.2-0.5,0.2-0.7,0.4
							c-5.9,5.4-8.6,14.1-10.8,21.5c-1.4,4.9-2.7,9.9-3.5,14.9C988.9,2023.2,989.5,2023.1,989.6,2022.9L989.6,2022.9z"/>
					</g>
					<path id="XMLID_272_" class="st12" d="M1011.8,1999.2c0,0,1.2,18.8-6.9,27.4c-8.1,8.6-8.4,3.5-8.4,3.5s-3.7,6.6,8.4,5.6
						c0,0,9.1-4.2,7.8-36.5H1011.8z"/>
					<g id="XMLID_450_">
						<path id="XMLID_271_" d="M1014.6,1977c-1.3,0.4-2.6,1.7-3.5,2.6c-4.3,4.6-7,10.8-9.5,16.6c-3.8,8.9-7,18-10.1,27.1
							c0.1-0.2,0.6-0.2,0.7-0.4c2.6-7.7,5.3-15.3,8.3-22.8c2.2-5.4,4.5-10.9,7.5-15.9c1.2-2,2.6-4,4.3-5.7c0.4-0.4,0.8-0.8,1.3-1.1
							c0.5-0.4-0.4,0.1,0.2-0.1C1014.2,1977.3,1014.4,1977.1,1014.6,1977L1014.6,1977z"/>
					</g>
					<g id="XMLID_448_">
						<path id="XMLID_270_" d="M1012,1992.5c-0.5,9.1-2,18.6-5.7,27c-1.1,2.5-2.5,4.9-4.3,6.9c-0.3,0.3-3.8,4-3.5,1.9
							c0.4-2.7,2.5-5.6,3.9-7.9c-0.1,0.2-0.6,0.2-0.7,0.4c-0.7,1.2-1.4,2.3-2,3.5c-0.7,1.3-2,3.2-1.9,4.7c0,0.8,1.4-0.2,1.7-0.3
							c2.4-1.5,4.3-3.8,5.8-6.3c3.5-5.7,5-12.7,6.1-19.2c0.6-3.7,1.1-7.5,1.3-11.2C1012.7,1992.3,1012,1992.4,1012,1992.5
							L1012,1992.5z"/>
					</g>
					<g id="XMLID_446_">
						<path id="XMLID_269_" d="M1012.9,2010.7c-0.1,3.3-0.5,6.5-1.1,9.7c-1,5.4-2.7,11.4-6.9,15.3c0.2-0.2,0.5-0.2,0.7-0.4
							c4.1-3.8,5.8-9.6,6.8-14.8c0.7-3.3,1.1-6.8,1.2-10.2C1013.6,2010.4,1012.9,2010.5,1012.9,2010.7L1012.9,2010.7z"/>
					</g>
					<path id="XMLID_268_" class="st5" d="M1017.3,1981c0-0.1-4-1.6-4.6,4.9l2.6,7.2c0,0-0.7,1.9-4.9,2.2c-1.5,0.1-2.8,0.2-3.8,0.3
						c0,1.1,0,2.3,0,3.4c2.7-0.6,14.9,2,16.6-2.3C1023.2,1996.8,1021.8,1987.5,1017.3,1981z"/>
					<path id="XMLID_267_" class="st27" d="M1022.5,1993.4c0,0-0.1,3.3-1.3,3.6c-1.3,0.2-5.6,0.4-6.9,0c-1.3-0.4-7.4,0.6-7.8,0.9
						c-0.4,0.2,0.5,0.9-0.5,1.4c-1,0.5,2.2-0.5,5.1,0c2.9,0.5,12.2,0.6,12.2-2.2C1023.2,1994.7,1022.5,1993.4,1022.5,1993.4z"/>
					<path id="XMLID_266_" class="st6" d="M1017.2,1981.1c0,0-3.5,0.6-2.5,4.3c1,3.6,2.8,7,2.8,7l-2.1,1l-2.5-7.4
						C1012.8,1985.9,1013,1979.9,1017.2,1981.1z"/>
					<g id="XMLID_441_">
						<path id="XMLID_265_" d="M1023.4,1996.8c0-0.1-1.5-9.4-5.9-15.9c-0.1-0.2-0.7-0.3-1.2-0.3c-1.2,0-3.3,0.7-3.7,5.3l0,0l2.5,7.2
							c-0.2,0.3-1.1,1.7-4.7,2.1c-1.5,0.1-2.7,0.2-3.7,0.3c0,0.1,0,0.3,0,0.4c1-0.1,2.2-0.2,3.7-0.3c4.3-0.4,5-2.3,5-2.4l0-0.1
							l-2.6-7.2c0.4-4.3,2.2-4.9,3.3-4.9c0.5,0,0.8,0.1,0.9,0.2c4.2,6.1,5.7,14.8,5.8,15.6c-0.7,1.6-3,2.3-7.2,2.3
							c-1.6,0-3.3-0.1-4.7-0.2c-1.2-0.1-2.3-0.1-3.1-0.1c-0.5,0-0.8,0-1.1,0.1c0,0.1,0,0.3,0,0.4c0.3,0,0.6-0.1,1.1-0.1
							c0.8,0,1.9,0.1,3.1,0.1c1.5,0.1,3.1,0.2,4.7,0.2c0,0,0,0,0,0c2.8,0,6.7-0.3,7.6-2.6L1023.4,1996.8L1023.4,1996.8z"/>
					</g>
					<g id="XMLID_439_">
						<path id="XMLID_264_" d="M988.1,1993c-1.5-3.2-3.2-6.4-5.2-9.4c-0.1-0.2-0.9-0.2-0.8,0c1.9,3,3.7,6.1,5.2,9.4
							C987.4,1993.2,988.2,1993.2,988.1,1993L988.1,1993z"/>
					</g>
					<g id="XMLID_437_">
						<path id="XMLID_263_" d="M984.1,1995.8c-1.9-0.3-4.6,0-5.5,2.1c-0.1,0.2,0.7,0.3,0.8,0.1c0.7-1.7,2.8-2.1,4.5-1.9
							C984.2,1996.2,984.7,1995.9,984.1,1995.8L984.1,1995.8z"/>
					</g>
					<g id="XMLID_435_">
						<path id="XMLID_262_" d="M1020.2,1992.6c-1.8-1.7-3.6-0.2-5.4,1.2c0,0.1,0.1,0.1,0.1,0.2c1.7-1.3,3.4-2.6,5-1.2
							C1020,1992.9,1020.3,1992.7,1020.2,1992.6z"/>
					</g>
					<g id="XMLID_404_">
						<path id="XMLID_261_" class="st5" d="M976.6,1955c0,0-6.8-6.3-8.3-4.3c-1.5,2-0.2,9.6,3.8,12c4,2.4,7.9,3.5,7.9,3.5
							s0.6,6.9,5,8.7c4.4,1.7,15.7,4.7,21.6,1.6c5.9-3.2,8.7-3.3,9.9-13.2c0,0,9.6-1.2,11.6-7.6c2.1-6.4,2-7.3-0.1-7.7
							c-2-0.4-8.4,5.3-8.4,5.3s9.2-13.8,9.2-22.3c0-8.5-7.6-22.2-26.2-23.6c-18.6-1.4-29.7,5-34.6,17.2
							C963.2,1936.7,976,1952.9,976.6,1955"/>
						<g id="XMLID_427_">
							<path id="XMLID_260_" class="st6" d="M1003.2,1959.1c0,0,2.9-6.8,8.9-0.7C1012.1,1958.4,1008.9,1956.4,1003.2,1959.1z"/>
							<path id="XMLID_259_" class="st6" d="M985.2,1959.6c0,0,2.9-6.8,8.9-0.7C994.1,1958.9,990.9,1956.9,985.2,1959.6z"/>
							<path id="XMLID_258_" class="st17" d="M983.9,1957.1c0,0,8.2-3.8,10.7-1.4C994.6,1955.7,988.9,1950.9,983.9,1957.1z"/>
							<path id="XMLID_257_" class="st17" d="M1001.3,1955.3c0,0,2.7,1.9,5.1-1c0.6-0.7,1.2-1.2,1.8-1.5c1.9-1,3.7-0.7,4-0.1
								c0,0-0.5-2.9-3.7-2.1C1005.4,1951.4,1003.2,1956.1,1001.3,1955.3z"/>
							<path id="XMLID_256_" d="M986.2,1959.9c2.2-1.5,5.2-1.9,7.6-0.7c0.4,0.2,1.7-0.5,1.5-0.6c-3.3-1.6-7.3-0.8-10.3,1.2
								C984.3,1960.3,985.8,1960.1,986.2,1959.9z"/>
							<path id="XMLID_255_" d="M1003.8,1959.4c2.2-1.5,5.2-1.9,7.6-0.7c0.4,0.2,1.7-0.5,1.5-0.6c-3.3-1.6-7.3-0.8-10.3,1.2
								C1001.9,1959.7,1003.5,1959.6,1003.8,1959.4z"/>
						</g>
						<path id="XMLID_254_" class="st6" d="M996.3,1972c0,0,3,1.6,5.8-0.3C1002.1,1971.7,1000.3,1976.3,996.3,1972z"/>
						<path id="XMLID_253_" class="st9" d="M978.3,1954.6c0,0-12-21.8-4.1-30.8c7.9-9,8.2-4.6,8.2-4.6s5.1,15.6,19.3,7.8
							c12.9-7.1,15.3-4.8,15.3-4.8s9.9,7,7.3,19c0,0,15.8-30.1-29.4-32.5C994.7,1908.6,950.2,1913.9,978.3,1954.6z"/>
						<path id="XMLID_252_" class="st6" d="M980.6,1966.3c0,0,1.6,6.9,9,8.5c7.4,1.6,13.5,2.5,20.9-2.8c0,0,5-2.3,5.9-8.3
							c0,0,0.1,11.4-12,13.5c-12.1,2.1-17.6-1.4-17.6-1.4S980.6,1974.5,980.6,1966.3"/>
						<path id="XMLID_251_" class="st10" d="M996,1963.8c0,0,0,1.6,3,1.6c2.9,0,2-2.1,2-2.1s2.6,0.8,1,2.1c-1.6,1.2-4.5,1.1-5.4,0.7
							C995.5,1965.6,995.1,1964.8,996,1963.8z"/>
						<path id="XMLID_250_" class="st6" d="M970.1,1953.5l1.2,2.2l1.4,4.8l1.1-3.5c0,0,5.3,5.2,6.2,7.8
							C980.1,1964.9,976.7,1955.2,970.1,1953.5z"/>
						<path id="XMLID_249_" class="st6" d="M1027.1,1951.1l-1.2,1.2c0,0,1,4.1-2.8,5.6c0,0,0.7-3,0.1-3.5c0,0-5.2,3.4-6.2,6.7
							C1016.9,1961.2,1019.3,1952.4,1027.1,1951.1z"/>
						<path id="XMLID_418_" class="st14" d="M990.4,1976.6l-0.2,0.4c0,0,0.1,0,0.1,0c1.1,0.3,2.5,0.5,4.2,0.7
							c-1.1-0.2-1.7-0.4-1.7-0.4L990.4,1976.6 M1009.5,1975.3c0,0-0.1,0-0.2,0c0.1,0,0.1,0.1,0.2,0.1
							C1009.5,1975.4,1009.7,1975.3,1009.5,1975.3"/>
						<path id="XMLID_246_" d="M990,1969.7c0-0.8,0.4-1.6,1-2c0.2-0.1-0.4-0.2-0.5-0.2c-0.7,0.4-1.1,1.3-1.1,2.1
							C989.4,1969.8,990,1969.8,990,1969.7z"/>
						<path id="XMLID_245_" d="M1007.9,1964.9c0.6,0.5,1,1.2,0.9,2c0,0.2,0.6,0.2,0.6,0c0.1-0.9-0.4-1.7-1-2.2
							C1008.3,1964.7,1007.8,1964.7,1007.9,1964.9z"/>
						<path id="XMLID_244_" d="M1000.8,1963.6c0.6,0.1,2,0.6,1.2,1.5c-0.9,1-2.7,1-3.9,0.9c-0.6,0-2.6-0.1-2.3-1.3
							c0.1-0.4,0.4-0.7,0.6-0.9c0.3-0.3-0.1-0.7-0.4-0.4c-0.4,0.4-0.8,1-0.8,1.6c-0.1,1.5,2.2,1.6,3.1,1.7c1.4,0.1,3.5-0.1,4.3-1.5
							c0.7-1.2-0.8-2-1.7-2.1C1000.6,1962.9,1000.4,1963.5,1000.8,1963.6z"/>
						<path id="XMLID_243_" class="st3" d="M990.1,1968.3c0,0,9.7,5.2,18.8-2.7C1008.9,1965.7,1001.2,1974.3,990.1,1968.3z"/>
						<path id="XMLID_242_" d="M990.1,1968.3l-0.1,0.3c0,0,3,1.6,7.2,1.7c3.5,0.1,7.8-0.8,11.9-4.4l-0.2-0.2l-0.2-0.2l0,0
							c-0.1,0.1-1.3,1.3-3.2,2.5c-1.9,1.1-4.7,2.2-8,2.1c-2.2-0.1-4.6-0.6-7.3-2l-0.3,0.6L990.1,1968.3l-0.1,0.3
							c2.7,1.5,5.2,2,7.5,2.1c3.5,0.1,6.4-1.1,8.5-2.3c2-1.2,3.1-2.5,3.1-2.5l-0.4-0.5c-4.1,3.5-8.2,4.4-11.6,4.3
							c-2-0.1-3.8-0.5-5-0.9c-0.6-0.2-1.1-0.4-1.4-0.5c-0.2-0.1-0.3-0.1-0.4-0.2c0,0-0.1,0-0.1,0l0,0l0,0l-0.3,0.6L990.1,1968.3z"/>
						<path id="XMLID_241_" d="M996.7,1972.6c1.9,0.5,4.2,0.6,5.9-0.6c0.3-0.2-0.7-0.7-1-0.6c-1.5,1-3.4,1-5,0.5
							C995.8,1971.8,996.2,1972.4,996.7,1972.6z"/>
						<path id="XMLID_240_" d="M979.5,1959.6l0.5-0.4c0,0,0,0,0,0c-0.4-0.5-3.5-5.1-6.5-11c-1.5-2.9-3-6.2-4-9.5
							c-1.1-3.2-1.7-6.5-1.7-9.3c0-1.7,0.3-3.2,1-4.5c1.3-2.8,2.8-5.2,4.5-7.4c2.6-3.2,5.8-5.6,10-7.2c4.2-1.6,9.4-2.5,15.8-2.5
							c0.3,0,0.7,0,1,0c8.3,0.2,15.5,3.1,20.5,7.4c2.5,2.1,4.5,4.6,5.9,7.3c1.3,2.6,2,5.5,2,8.3c0,0,0,0.1,0,0.1
							c-0.1,3-0.8,5.8-1.7,8.4c-1.5,3.9-3.6,7.5-5.5,10.6c-1,1.5-1.9,3-2.6,4.3c-0.7,1.3-1.3,2.5-1.5,3.6c-0.6,2.7-1.1,5.8-1.8,8.6
							c-0.3,1.4-0.7,2.6-1.1,3.7c-0.4,1-0.9,1.8-1.4,2.3c-0.5,0.5-1.4,1.1-2.4,1.7c-1.6,0.9-3.5,1.8-5.5,2.5c-2,0.7-3.9,1.1-5.4,1.1
							c-0.1,0-0.1,0-0.2,0c-2.1-0.1-6.1-0.5-9.8-1.5c-1.8-0.5-3.6-1.2-4.9-2.1c-0.7-0.4-1.2-0.9-1.7-1.4c-0.4-0.5-0.7-1.1-0.9-1.7
							c-0.7-2.5-0.9-4-1.1-5.5c-0.2-1.5-0.3-3.1-0.7-5.8l0-0.1l-0.1-0.1L979.5,1959.6l-0.6,0.1c0.4,2.7,0.6,4.2,0.7,5.7
							c0.2,1.5,0.4,3.1,1.1,5.7c0.2,0.8,0.6,1.5,1.2,2.2c0.9,1.1,2.3,2,3.8,2.7c2.3,1,4.9,1.7,7.4,2.1c2.5,0.4,4.7,0.6,6.1,0.7
							c0.1,0,0.1,0,0.2,0c1.1,0,2.4-0.2,3.7-0.5c2-0.5,4.1-1.3,6-2.3c0.9-0.5,1.8-0.9,2.5-1.4c0.7-0.5,1.4-0.9,1.9-1.4
							c0.7-0.7,1.2-1.6,1.7-2.7c0.7-1.7,1.2-3.8,1.6-6c0.5-2.2,0.8-4.5,1.3-6.4c0.1-0.6,0.4-1.3,0.8-2c0.6-1.3,1.6-2.9,2.7-4.6
							c1.6-2.6,3.5-5.7,5.1-9.1c1.5-3.4,2.7-7.2,2.8-11.3c0-0.1,0-0.1,0-0.2c0.1-3.1-0.7-6.1-2.1-8.9c-2.1-4.2-5.8-8-10.5-10.7
							c-4.7-2.7-10.5-4.4-16.9-4.6c-0.3,0-0.7,0-1.1,0c-8.8,0-15.3,1.5-20.3,4.5c-2.5,1.5-4.6,3.4-6.4,5.6c-1.8,2.2-3.3,4.8-4.7,7.6
							c-0.7,1.5-1,3.2-1.1,5.1c-0.1,3.1,0.7,6.6,1.8,10.1c1.7,5.2,4.4,10.3,6.6,14.1c2.2,3.8,4,6.4,4,6.4L979.5,1959.6l-0.6,0.1
							L979.5,1959.6z"/>
						<path id="XMLID_239_" d="M1019.6,1954.5c1.4-1.2,2.7-2.7,4-3.8c0.7-0.6,1.4-1.1,2.2-1.4c0.7-0.4,1.5-0.6,2.4-0.6h0
							c0.1,0,0.1,0,0.2,0.1c0.1,0.1,0.3,0.3,0.4,0.6c0.1,0.3,0.2,0.6,0.2,0.8c0.1,0.3,0.1,0.6,0.1,0.9c0,0.5-0.1,1-0.2,1.5
							c-0.4,1.7-1.4,3.4-2.4,4.9c-1.1,1.6-2.7,2.8-4.4,3.7c-1.7,0.9-3.7,1.3-5.5,1.5l0.1,1.2c2-0.2,4-0.7,5.9-1.6
							c1.9-0.9,3.6-2.2,4.8-4.1c1.1-1.5,2.1-3.4,2.6-5.3c0.2-0.6,0.3-1.2,0.3-1.8c0-0.4,0-0.8-0.1-1.2c-0.1-0.4-0.2-1-0.5-1.5
							c-0.1-0.2-0.3-0.5-0.5-0.7c-0.2-0.2-0.5-0.3-0.9-0.3c0,0-0.1,0-0.1,0c-1,0-1.9,0.3-2.8,0.7c-1.3,0.6-2.4,1.6-3.5,2.5
							c-1.1,1-2,2-3,2.9L1019.6,1954.5z"/>
						<path id="XMLID_238_" d="M1027.1,1950.5c-0.1,0-1.5,0.1-3.5,1.3c-2,1.2-4.5,3.4-6.9,7.7l1,0.6c2.3-4.1,4.7-6.2,6.5-7.3
							c0.9-0.5,1.7-0.8,2.2-1c0.3-0.1,0.5-0.1,0.6-0.1c0.1,0,0.1,0,0.1,0l0,0h0l0-0.3l0,0.3l0,0l0-0.3l0,0.3L1027.1,1950.5z"/>
						<path id="XMLID_237_" d="M978.2,1956.4c-1.2-1.2-2.6-2.8-4.1-4.1c-0.7-0.7-1.5-1.3-2.3-1.7c-0.8-0.5-1.6-0.8-2.5-0.9
							c0,0-0.1,0-0.1,0c-0.3,0-0.7,0.1-0.9,0.3c-0.4,0.3-0.6,0.7-0.8,1c-0.2,0.4-0.3,0.8-0.4,1.1l0,0c-0.1,0.4-0.1,0.8-0.1,1.2
							c0,0.6,0.1,1.2,0.2,1.8c0.4,2,1.3,3.8,2.3,5.4c1.2,1.9,2.8,3.3,4.6,4.3c1.8,1,3.9,1.7,5.8,2l0.2-1.2c-1.9-0.3-3.8-0.9-5.5-1.8
							c-1.7-0.9-3.2-2.2-4.2-3.9c-1-1.5-1.8-3.3-2.2-5c-0.1-0.5-0.2-1-0.2-1.5c0-0.3,0-0.6,0.1-0.9l0,0c0.1-0.3,0.2-0.8,0.4-1.1
							c0.1-0.2,0.2-0.3,0.3-0.3c0.1-0.1,0.1-0.1,0.2-0.1l0,0c0.7,0.1,1.4,0.3,2.1,0.7c1.1,0.6,2.2,1.5,3.2,2.6c1,1,2.1,2.1,3,3
							L978.2,1956.4z"/>
						<path id="XMLID_236_" d="M970,1954.1l0-0.3L970,1954.1L970,1954.1l0-0.3L970,1954.1c0,0,1.2,0.2,3,1.3c1.7,1.2,4,3.4,6.1,7.6
							l1-0.6c-2.2-4.4-4.6-6.8-6.5-8.1c-1.9-1.3-3.3-1.5-3.4-1.5L970,1954.1z"/>
						<path id="XMLID_234_" d="M1023.5,1958.4c0,0,0.4-0.4,0.8-1.2c0.4-0.7,0.8-1.8,0.8-3.3c0-0.5,0-1.1-0.1-1.8l-1.1,0.2
							c0.1,0.5,0.1,1,0.1,1.5c0,1.2-0.4,2.1-0.7,2.7c-0.2,0.3-0.3,0.5-0.4,0.7c-0.1,0.1-0.1,0.1-0.1,0.2l0,0l0,0l0.1,0.1l-0.1-0.1v0
							l0.1,0.1l-0.1-0.1L1023.5,1958.4z"/>
						<path id="XMLID_232_" d="M972.2,1954.6c0,0.1-0.5,1-0.5,2.4c0,1.1,0.2,2.5,1,4l1-0.6c-0.7-1.3-0.9-2.4-0.9-3.3
							c0-0.6,0.1-1.1,0.2-1.4c0-0.2,0.1-0.3,0.1-0.4c0,0,0-0.1,0-0.1l0,0v0l-0.3-0.1l0.3,0.1v0l-0.3-0.1l0.3,0.1L972.2,1954.6z"/>
					</g>
					<g id="XMLID_383_">
						<g id="XMLID_402_">
							<path id="XMLID_230_" class="st5" d="M1007.9,1999c0.6-0.1,1.3-0.5,1.6-1.2c0.1-0.4,0.1-0.8,0-1.2c0,0,0,0,0-0.1
								c-0.1-0.2-0.3-1.6-2.2-2.2c-1.9-0.6-3.7,0.5-3.7,0.5c-1.3,0.6-3.1-0.3-4.4-0.3c-1.4,0-1.8,1.5-1.8,1.5l-1,0.2
								c0,0-1.7,0.7-2.8,0.5c-1.1-0.2-4.9-0.5-3.7,1.7l1,0c0,0,0.1,0.6,0.5,0.7c0.4,0.1,1.4-0.3,2.4-0.1c1,0.3,4.3-0.1,4.6,0
								c5.1,0.6,7.9,0.5,9.2,0.3C1007.7,1999,1007.8,1999,1007.9,1999z"/>
						</g>
						<g id="XMLID_400_">
							<path id="XMLID_228_" class="st28" d="M999.3,1997c0,0,0.1-0.9,0.4-1.1c0.4-0.3,0-0.7-0.5-0.6c-0.5,0.1-1,0.5-1.1,1.1
								C998.1,1997,998.7,1997,999.3,1997z"/>
						</g>
						<path id="XMLID_226_" class="st27" d="M990.9,1997.9c0,0,0.4-0.5,0.9-0.5s1.9,0,1.9,0s1.4-0.4,2.4-0.6c0,0,1-0.2,1.2-0.2
							c0,0-0.2-0.5-0.1-0.8c0,0-0.9,0.1-1.6,0.4c-0.7,0.2-1.3,0.5-1.8,0.4c-0.5-0.1-1.8-0.1-1.8-0.1s1.8,0.2,1.6,0.4
							c-0.2,0.2-0.2,0.2-0.7,0.2C992.5,1997.2,991.1,1996.9,990.9,1997.9z"/>
						<g id="XMLID_397_" class="st29">
							<path id="XMLID_224_" class="st27" d="M1007.9,1999c0.4,0,1-0.3,1.3-0.7c0.2-0.4,0.1-0.8,0.1-0.8c-1.1,2-9.4,1.5-9.3,0.6
								c0.1-0.9,3.4-0.4,4.7,0.1c1.3,0.5,0.9-1.4,0.7-1c-0.3,0.4-1.5,0.1-2.6-0.2c-1.2-0.3-2.8-0.1-3.5,0c-0.6,0.1-1.3-0.1-1.7-0.5
								c-0.3-0.3,0.2-1.4,0.2-1.4s-0.5,0.4-0.4,1c0.1,1.4,1.9,1.3,1.9,1.3c0.2,0.9-2.1,0.6-2.6,0.7c-0.5,0.1-2,0.5-2.7,0.6
								c-0.7,0.1-1.7-0.1-1.7-0.1c0-0.2-0.2-0.2-0.2-0.2c0.1,0.3,0,0.5,0,0.5s0.8-0.2,1.5,0c0.8,0.2,2.5,0.1,3.5,0
								c1-0.1,1-0.1,2.3,0c1.4,0.1,4.1,0.4,6.1,0.4c0.9,0,1.5-0.1,2.1-0.2C1007.7,1999,1007.8,1999,1007.9,1999z"/>
						</g>
						<g id="XMLID_394_">
							<g id="XMLID_395_">
								<path id="XMLID_222_" d="M997.3,1996c-0.2,1.7,2,1.5,2.8,1.5c0.8,0,1.6,0,2.5,0c0.5,0,1.1,0.1,1.6,0.2
									c0.3,0.1,0.6,0.1,0.8,0.3c0,0,0.1-0.1,0.1-0.1c-0.3-0.2-0.6-0.3-0.9-0.3c-0.5-0.1-1.1-0.1-1.6-0.2c-0.8,0-1.7,0-2.5,0
									c-0.6,0-1.3,0.1-1.9-0.2c-0.2-0.1-0.5-0.2-0.6-0.4c-0.2-0.2-0.2-0.6-0.2-0.9C997.4,1995.9,997.3,1996,997.3,1996L997.3,1996
									z"/>
							</g>
						</g>
						<g id="XMLID_392_" class="st30">
							<path id="XMLID_220_" class="st27" d="M999.6,1994.8c-1.1-0.3-1.6,0.6-1.6,0.6c0.6-0.7,1.9-0.3,1.9-0.3c3.4,0.9,3.8,0,3.8,0
								C1002.8,1995.8,1000.7,1995.1,999.6,1994.8z"/>
						</g>
						<g id="XMLID_390_">
							<path id="XMLID_218_" d="M997.3,1996.3c-1.1,0.2-2.3,0.4-3.4,0.7c-0.2,0-0.3,0.1-0.5,0.1c-0.2,0-0.5,0-0.7,0
								c-0.4,0-0.7,0-1.1,0.1c-0.6,0.1-0.9,0.6-0.7,1.3c0,0.1,0.1,0,0.1-0.1c-0.4-1.2,0.8-1.3,1.5-1.3c0.2,0,0.4,0,0.6,0
								c0.1,0,0.3,0.1,0.5,0c0.2-0.1,0.5-0.2,0.7-0.2c1-0.2,2-0.4,3-0.6C997.4,1996.4,997.4,1996.3,997.3,1996.3L997.3,1996.3z"/>
						</g>
						<g id="XMLID_387_">
							<g id="XMLID_388_">
								<path id="XMLID_216_" d="M999.8,1995.7c0,0.2-0.1,0.3-0.2,0.4c0,0,0,0,0.1,0c-0.1,0.1-0.2,0.2-0.3,0.3
									c-0.1,0.2-0.2,0.3-0.2,0.5c0,0.1,0,0.2,0,0.3c0,0,0,0,0,0c0,0-0.1,0-0.1,0c-0.1,0-0.2,0-0.2,0c-0.2,0-0.4,0-0.5-0.2
									c-0.5-0.4-0.1-1.2,0.1-1.5C998.8,1995.1,999.5,1995.1,999.8,1995.7L999.8,1995.7c-0.3-0.6-0.9-0.6-1.2-0.2
									c-0.3,0.3-0.8,1-0.5,1.5c0.2,0.3,0.7,0.4,1,0.3c0.1,0,0.1-0.1,0.2-0.1c0,0,0-0.1,0-0.1c0-0.1,0-0.2,0-0.3
									c0-0.2,0.1-0.4,0.2-0.5c0.1-0.1,0.1-0.1,0.2-0.1C999.8,1995.9,999.9,1995.8,999.8,1995.7
									C999.9,1995.6,999.8,1995.6,999.8,1995.7z"/>
							</g>
						</g>
						<g id="XMLID_384_">
							<g id="XMLID_385_">
								<path id="XMLID_214_" d="M1008.5,1998.7c-0.1,0-0.1,0-0.2,0c-0.2,0.1-0.3,0.1-0.5,0.1c-0.1,0-0.2,0-0.3,0.1
									c-0.8,0.1-1.7,0.2-2.9,0.2c-1.8,0-3.9-0.2-6.3-0.5c0,0-0.1,0-0.1,0c-0.2,0-0.5,0-1,0c-0.7,0-1.5,0.1-2.3,0.1
									c-0.6,0-1,0-1.2-0.1c-0.2-0.1-0.5-0.1-0.8-0.1c-0.4,0-0.8,0.1-1.1,0.1c-0.2,0-0.4,0.1-0.6,0.1c-0.3,0-0.3-0.5-0.3-0.5l0-0.1
									l-1,0c-0.2-0.4-0.3-0.7-0.1-0.9c0.2-0.4,1-0.6,2.1-0.6c0.7,0,1.4,0.1,1.6,0.1c0.1,0,0.2,0,0.4,0c1.1,0,2.4-0.5,2.4-0.5
									l1.1-0.2l0-0.1c0,0,0.4-1.4,1.7-1.4c0.5,0,1,0.1,1.6,0.3c0.6,0.1,1.2,0.3,1.8,0.3c0.4,0,0.7-0.1,1.1-0.2
									c0,0,1.1-0.7,2.4-0.7c0.4,0,0.8,0.1,1.2,0.2c0.9,0.3,1.4,0.8,1.7,1.2c0,0,0.1,0,0.1,0c0.1,0,0.1,0,0.2,0
									c-0.3-0.5-0.8-1.1-1.9-1.5c-0.4-0.1-0.8-0.2-1.3-0.2c-1.4,0-2.5,0.7-2.5,0.7c-0.3,0.1-0.6,0.2-0.9,0.2
									c-0.5,0-1.2-0.1-1.7-0.3c-0.6-0.1-1.2-0.3-1.7-0.3h0c-1.3,0-1.8,1.2-1.9,1.5l-0.9,0.2c0,0-1.3,0.5-2.3,0.5
									c-0.1,0-0.2,0-0.3,0c-0.2,0-0.9-0.1-1.6-0.1c-1.3,0-2.1,0.2-2.3,0.7c-0.2,0.3-0.1,0.7,0.2,1.2l0,0.1l0.9,0
									c0,0.2,0.2,0.6,0.5,0.7c0.2,0,0.4,0,0.6-0.1c0.3-0.1,0.6-0.1,1-0.1c0.3,0,0.5,0,0.7,0.1c0.3,0.1,0.7,0.1,1.3,0.1
									c0.8,0,1.6-0.1,2.3-0.1c0.5,0,0.9-0.1,1.1,0c2.4,0.3,4.5,0.5,6.3,0.5c1.2,0,2.2-0.1,3-0.2l0,0l0,0c0,0,0.1-0.1,0.2-0.1
									c0.3,0,0.6-0.2,0.9-0.3C1008.7,1998.8,1008.6,1998.8,1008.5,1998.7z"/>
							</g>
						</g>
					</g>
				</g>
			</g>
		</g>
		<g id="XMLID_368_">
			
				<image style="overflow:visible;" width="96" height="94" xlink:href="22CE7D55.png"  transform="matrix(1 0 0 1 951.9134 1937.3168)">
			</image>
		</g>
		<g id="XMLID_116_">
			<path id="XMLID_200_" class="st31" d="M991.4,1983.3c0.7-4.8,5.2-7.6,10.2-6.8c5.6,0.8,8.3,4.7,7.6,9.6
				c-0.7,4.5-4.4,7.7-10.2,6.8C993.6,1992.1,990.7,1988.1,991.4,1983.3L991.4,1983.3z"/>
			<path id="XMLID_198_" class="st32" d="M1009,1986.1c0.7-4.8-1.9-8.6-7.4-9.4c-4.9-0.7-9.3,2-9.9,6.6c-0.7,4.7,2.1,8.6,7.4,9.4
				C1004.7,1993.5,1008.3,1990.4,1009,1986.1L1009,1986.1z"/>
			<g id="XMLID_363_">
				<path id="XMLID_196_" class="st33" d="M1003.4,1979.5c-0.3,0.6-0.9,1.2-1.8,1.2c-1.8,0.1-1.8,0.4-2.1,1.2
					c-0.3,0.7-1.2,1.1-2.6,0.3c-1.4-0.7-1.9-0.5-2.3-0.4c-0.4,0.1,0.6,0,1.7,0.7c1.1,0.8,1.6,2.1,0.6,2.5c-1,0.4-1.5,0.5-0.6,1.1
					c0.9,0.6,0.9,1.1,0.3,2.3c-0.6,1.2-0.3,2,1.8,3.1c2.2,1.1,5,0.5,5.6-0.7c0.6-1.2-1.7-2.2-0.7-3.2c1.1-1.1,0.7-1.9,0.1-2.6
					c-0.6-0.7-0.5-2,1.3-2.5c1.8-0.5,3.2,0.1,3.3-0.2c0.1-0.3-0.4-0.5-1.5-0.4c-1.2,0.2-2.3,0.5-3,0c-0.7-0.6-0.7-1.6,0.4-2.1
					c1-0.4,1.3-1.3,0.3-1.8C1003.2,1977.5,1004.1,1978,1003.4,1979.5L1003.4,1979.5z"/>
				<path id="XMLID_194_" class="st34" d="M1002.3,1981.2c0,0-1.6-0.3-2,1c-0.4,1.4-2,1.4-2.6,0.9c-0.6-0.5-0.2,0.2,0,0.9
					c0.2,0.7,0.1,1.6-0.6,1.6c-0.7,0.1-0.1,0.1,0.3,1.1c0.3,1,0.2,1.5-0.1,2.3c-0.3,0.8,0.4,1.9,2.6,2.3c2.2,0.4,4.3-0.4,3-1.8
					c-1.2-1.4,0-2.5,0.3-2.8c0.3-0.3,0.1-0.8-0.5-1.4c-0.6-0.6-0.3-2.3,0.3-2.6c0.5-0.2-0.5-0.8-0.4-1.1
					C1002.6,1981.2,1002.3,1981.2,1002.3,1981.2L1002.3,1981.2z"/>
			</g>
			<path id="XMLID_192_" class="st35" d="M991.9,1982.2c1.1,5.9,8.8,10.2,16.2,6.6c-1.5,2.9-4.7,4.6-9.1,4c-5.3-0.8-8.1-4.7-7.4-9.4
				C991.7,1982.9,991.8,1982.5,991.9,1982.2L991.9,1982.2z"/>
			<path id="XMLID_190_" class="st31" d="M991.4,1983.3c0.6-3.7,3.4-6.2,6.9-6.8h0l0.1,0l0.3,0c1.8,0,4.7,0.3,4.5,2.1
				c-0.2,1.4-2.1,1.7-3.4,1.9c-0.7,0.1-0.7,1.4-1.5,1.6c-1,0.2-1.4-0.7-2.8-0.9c-1-0.2-2.3,0.6-2.5,1.1c0,0.1,0,0.1,0.1,0.1
				c0.1,0,0.3,0.1,0.5,0.1c0.4,0,0.9,0,1.2,0.1c0.9,0.3,1.7,1,1.7,1.9c0,0.8-1.9,0.6-2,1.2c0,0.6,1.3,0.6,1.5,1.3
				c0.2,0.7-0.8,1-0.8,1.9c-0.1,1.7,1.5,3,3.3,3.8c0.1,0.1,0.1,0.2-0.1,0.2C993.5,1991.9,990.8,1988,991.4,1983.3L991.4,1983.3z"/>
			<path id="XMLID_188_" class="st36" d="M995.1,1988.8c0.1-1,0.9-1.2,0.8-1.8c-0.1-0.6-1.5-0.6-1.5-1.4c0.1-0.9,2-0.6,2-1.2
				c0-0.7-0.6-1.4-1.5-1.7c-0.5-0.1-2.2,0.2-1.9-0.5c0.3-0.6,1.6-1.4,2.7-1.2c1.4,0.3,1.8,1.1,2.7,0.9c0.6-0.1,0.7-1.4,1.5-1.6
				c1.4-0.2,3.1-0.5,3.2-1.7c0.2-1.5-2.7-1.9-4.6-1.8l-0.1,0l-0.6,0.1c-3.2,0.8-5.6,3.1-6.1,6.5c-0.6,4.2,1.7,7.9,6.1,9.1l0.1,0
				l-0.6-0.4C996,1991.3,995,1990.2,995.1,1988.8L995.1,1988.8z"/>
			<path id="XMLID_186_" class="st37" d="M995.1,1988.8c0-0.5,0.2-0.8,0.4-1c-1.9-1.4-3.2-3.4-3.6-5.6c0,0.2-0.1,0.3-0.1,0.5l0,0
				l0,0l0,0.1l0,0l0,0.1l0,0l0,0l0,0c0,0,0,0.1,0,0.1l0,0l0,0v0c0,0,0,0.1,0,0.1l0,0v0l0,0c0,0.1,0,0.1,0,0.2c0,0.1,0,0.1,0,0.2
				l0,0.1c0,0,0,0.1,0,0.1l0,0.1c0,0,0,0.1,0,0.1l0,0.1c0,0,0,0.1,0,0.1l0,0.1c0,0,0,0.1,0,0.1l0,0.1c0,0,0,0.1,0,0.1v0.1
				c0,0,0,0.1,0,0.1v0.1c0,0.1,0,0.1,0,0.2l0,0c0,0.1,0,0.1,0,0.2l0,0c0,0.3,0,0.5,0.1,0.8l0,0c0,0.1,0,0.1,0,0.2l0,0
				c0,0.1,0,0.1,0,0.2l0,0c0,0.1,0,0.1,0,0.2l0,0c0,0.1,0,0.1,0,0.2l0,0c0,0.1,0,0.1,0.1,0.2l0,0c0.1,0.4,0.3,0.9,0.5,1.3l0,0
				c0,0.1,0.1,0.1,0.1,0.2l0,0c0,0.1,0.1,0.1,0.1,0.1l0,0c0,0,0.1,0.1,0.1,0.1l0,0c0,0,0.1,0.1,0.1,0.1l0,0c0,0.1,0.1,0.1,0.1,0.2
				l0,0c0.1,0.1,0.1,0.2,0.2,0.3l0,0c0,0,0.1,0.1,0.1,0.1l0,0.1c0,0,0,0.1,0.1,0.1c0,0,0,0,0.1,0.1l0.1,0.1c0,0,0,0,0.1,0.1l0.1,0.1
				c0,0,0,0.1,0.1,0.1l0.1,0.1c0,0,0.1,0.1,0.1,0.1l0,0c0,0,0.1,0.1,0.1,0.1l0,0c0,0,0.1,0.1,0.1,0.1l0,0c1,0.8,2.2,1.5,3.6,1.9
				l0.1,0l-0.6-0.4C996,1991.3,995,1990.2,995.1,1988.8L995.1,1988.8z"/>
			<path id="XMLID_184_" class="st36" d="M995.3,1988.1c0.3-0.5,0.7-0.7,0.6-1.2c-0.1-0.6-1.5-0.6-1.5-1.4c0.1-0.9,2-0.6,2-1.2
				c0-0.7-0.6-1.4-1.5-1.7c-0.5-0.1-2,0.1-1.9-0.4c-0.1,0.1-0.2,0.5,0.4,0.6c0.7,0.1,1.6-0.1,2.1,0.6c0.4,0.7,0.2,1.1-0.5,1.3
				c-0.7,0.3-1.2,1-0.5,1.5c0.8,0.5,1.4,0.4,0.9,1.4C995.4,1987.8,995.3,1988,995.3,1988.1L995.3,1988.1z"/>
			<path id="XMLID_182_" class="st31" d="M1004.6,1981.8c-0.4-0.1-0.8-0.7-0.8-1.1c0.1-0.6,1.1-0.6,1.3-1c0.4-0.6,0.5-1.2,0.3-1.8
				c0-0.1,0.1-0.2,0.2-0.1c1.5,0.9,2.5,2.1,3.1,3.6c0,0.1,0,0.2-0.1,0.1c-0.4-0.2-0.9-0.2-1.3-0.2
				C1006.4,1981.5,1005.6,1982,1004.6,1981.8L1004.6,1981.8z"/>
			<path id="XMLID_180_" class="st38" d="M1007.2,1981.2c0.3,0,0.7,0,1.1,0.1l0.1,0l-0.1-0.3c-0.5-1-1.3-1.9-2.3-2.6l-0.3-0.2l0,0.2
				c0,0.5-0.1,1-0.4,1.5c-0.3,0.5-1.2,0.4-1.3,0.9c-0.1,0.3,0.3,0.8,0.6,0.9C1005.6,1981.8,1006.3,1981.3,1007.2,1981.2
				L1007.2,1981.2z"/>
			<path id="XMLID_178_" class="st31" d="M1003.6,1992.5c0.9-0.6,1.5-1.4,1.5-2.2c0-0.8-1.3-1.1-1-2.5c0.1-0.7,1.1-0.8,1.2-1.4
				c0.1-0.9-2-1.9-1.2-2.8c0.7-0.9,2.3-1.1,3.5-0.9c0.6,0.1,1.1,0.3,1.6,0.6c0,0,0.1,0,0.1,0.1c0.1,0.9,0.1,1.8,0,2.8
				c-0.5,3.1-2.4,5.6-5.5,6.5C1003.6,1992.7,1003.5,1992.5,1003.6,1992.5L1003.6,1992.5z"/>
			<path id="XMLID_176_" class="st39" d="M1009,1986.1c0.1-0.7,0.1-1.4,0.1-2.1l-0.1-0.6l-0.3-0.2c-0.4-0.2-0.8-0.3-1.2-0.4
				c-1.1-0.2-2.6,0-3.3,0.8c-0.3,0.3,0,0.7,0.4,1.2c0.4,0.4,0.9,1,0.9,1.5c-0.1,0.7-1.1,0.9-1.2,1.4c-0.2,1.3,1,1.5,1,2.4
				c0,0.7-0.4,1.3-1,1.9l-0.1,0.1l0.4-0.2C1007.1,1990.9,1008.6,1988.7,1009,1986.1L1009,1986.1z"/>
			<path id="XMLID_174_" class="st37" d="M1005.2,1989.8c0.1,0.1,0.1,0.3,0.2,0.5c0,0.7-0.4,1.3-1,1.9l-0.1,0.1l0.4-0.2
				c1.4-0.7,2.5-1.7,3.3-3l0,0c0,0,0-0.1,0.1-0.1l0,0c0-0.1,0.1-0.1,0.1-0.2C1007.1,1989.2,1006.1,1989.5,1005.2,1989.8
				L1005.2,1989.8z"/>
			<path id="XMLID_172_" class="st40" d="M996.6,1988.4L996.6,1988.4c-0.6,1.2-0.3,2,1.8,3.1c2.2,1.1,5,0.5,5.6-0.7
				c0.2-0.3,0.1-0.6,0-0.9C1001.2,1990.3,998.6,1989.7,996.6,1988.4L996.6,1988.4z"/>
			<path id="XMLID_170_" class="st41" d="M997.3,1988.8c0,0,0,0.1-0.1,0.2c-0.3,0.8,0.4,1.9,2.6,2.3c1.9,0.4,3.6-0.2,3.4-1.3
				C1001.1,1990,999.1,1989.5,997.3,1988.8L997.3,1988.8z"/>
			<path id="XMLID_168_" class="st42" d="M1008.6,1985.8c-0.2,1.6-0.7,3.1-1.8,4.3c-0.9,1-0.8,0.5-0.7,0c0.1-1-0.2-1-0.8-1.5
				c-0.3-0.3-0.3-0.7,0.2-1.1c0.9-0.7,1.1-1.5,0.1-2.5C1004,1983.5,1009,1982.2,1008.6,1985.8L1008.6,1985.8z"/>
			<path id="XMLID_167_" class="st43" d="M1007.6,1989c-0.2,0.4-0.5,0.8-0.9,1.2c-0.9,1-0.8,0.5-0.7,0c0-0.3,0-0.5,0-0.6
				C1006.6,1989.4,1007.1,1989.2,1007.6,1989L1007.6,1989z"/>
			<path id="XMLID_164_" class="st38" d="M1005,1985.3c0,0-1.3-1.3-0.1-1.9c1.2-0.6,2.2-0.4,3-0.1c0.7,0.3,1.2,0.8,0.9,3.2
				c0-0.1,0.1-0.3,0.1-0.4c0.1-0.7,0.1-1.4,0.1-2.1l-0.1-0.6l-0.3-0.2c-0.4-0.2-0.8-0.3-1.2-0.4c-1.1-0.2-2.6,0-3.3,0.8
				c-0.3,0.3,0,0.7,0.4,1.2C1004.8,1985,1004.9,1985.2,1005,1985.3L1005,1985.3L1005,1985.3z"/>
			<path id="XMLID_162_" class="st38" d="M1005.3,1985.7c0.3,0.2,0.4,0.7,0.3,0.9c-0.1,1-2,1.1-0.6,2.6c0.5,0.5,0.7,1.1,0.4,1.8
				c-0.2,0.6,0.4,0.3,1-0.1c-0.5,0.5-1.1,0.9-1.8,1.2l-0.4,0.2l0.1-0.1c0.6-0.5,1-1.2,1-1.9c0-0.9-1.3-1.1-1-2.4
				c0.1-0.5,1.1-0.7,1.2-1.4C1005.5,1986.2,1005.4,1985.9,1005.3,1985.7L1005.3,1985.7L1005.3,1985.7z"/>
			<path id="XMLID_161_" class="st44" d="M1005.4,1989.7c0.2,0.4,0.2,0.8,0,1.3c-0.2,0.6,0.4,0.3,1-0.1c-0.5,0.5-1.1,0.9-1.8,1.2
				l-0.4,0.2l0.1-0.1c0.6-0.5,1-1.2,1-1.9c0-0.2-0.1-0.4-0.2-0.5C1005.2,1989.7,1005.3,1989.7,1005.4,1989.7L1005.4,1989.7z"/>
			<path id="XMLID_158_" class="st42" d="M1006.6,1978.8c-0.2-0.1-0.3-0.2-0.4-0.1c-0.3,0.2-0.1,0.5-0.5,1.1
				c-0.4,0.5-0.9,0.6-1.2,0.8c-0.4,0.2-0.1,0.7,0.2,0.9c0.3,0.2,0.9,0,1.5-0.2c0.6-0.3,1.1-0.3,1.6-0.2c0.3,0.1,0.4-0.2,0.3-0.5
				C1007.6,1979.9,1007.1,1979.3,1006.6,1978.8L1006.6,1978.8z"/>
			<path id="XMLID_156_" class="st42" d="M997.6,1977.4c2.4-0.6,3.6-0.2,4,0.4c0.5,0.6-0.1,1.5-1.6,1.5c-1.5,0-1.4,0.7-1.7,1.2
				c-0.3,0.5-1.2,0.3-2.4-0.1c-0.6-0.2-1.2-0.1-1.7,0.1c-1.1,0.5-2.3,1.5-0.3-1C994.7,1978.7,995.9,1977.8,997.6,1977.4
				L997.6,1977.4z"/>
			<path id="XMLID_154_" class="st42" d="M992.8,1987.9c1,2.4,3.1,3.3,3.1,3.3s-1.3-1.2-1.1-2.4c0.2-1.2,0.9-1.5,0-1.9
				c-0.9-0.4-1.5-1.8-0.4-2.1c1-0.3,0.9-1.5-0.1-1.5c-1.4,0.1-1.6,0-1.7-0.9c0-0.4-0.3-0.6-0.5,0.4
				C992,1984,992,1986.1,992.8,1987.9L992.8,1987.9z"/>
			<path id="XMLID_152_" class="st38" d="M996.2,1991.2c0,0.1,0,0.5-0.7,0.1c-0.8-0.4-2.2-1.5-3.3-4.1c-1-2.6-0.2-5.2,0.2-6.1
				c0.4-0.9,2.5-3.9,5.6-4.1c3.1-0.2,4.1,0.2,4.4,1.1c0.3,0.9-0.7,1.4-1.8,1.5c-1,0.1-1.4,0.2-2,1.1c-0.6,0.9-0.9,0.8-1.9,0.3
				c-1-0.5-2.6-0.4-3.2,0.4c0,0-0.1,0.1-0.1,0.1c0.6-0.4,1.4-0.8,2.2-0.6c1.4,0.3,1.8,1.1,2.7,0.9c0.6-0.1,0.7-1.4,1.5-1.6
				c1.4-0.2,3.1-0.5,3.2-1.7c0.2-1.5-2.7-1.9-4.6-1.8l-0.1,0l-0.6,0.1c-3.2,0.8-5.6,3.1-6.1,6.5c-0.6,4.2,1.7,7.9,6.1,9.1l0.1,0
				l-0.6-0.4C996.9,1991.8,996.5,1991.6,996.2,1991.2L996.2,1991.2z"/>
			<path id="XMLID_150_" class="st44" d="M996.2,1991.2c0,0.1,0,0.5-0.7,0.1c-0.8-0.4-2.2-1.5-3.3-4.1c-0.7-1.8-0.5-3.5-0.2-4.8
				c0-0.1-0.1-0.3-0.1-0.4c0,0.2-0.1,0.3-0.1,0.5l0,0l0,0l0,0.1l0,0l0,0.1l0,0l0,0l0,0c0,0,0,0.1,0,0.1l0,0l0,0v0c0,0,0,0.1,0,0.1
				l0,0v0l0,0c0,0.1,0,0.1,0,0.2c0,0.1,0,0.1,0,0.2l0,0.1c0,0,0,0.1,0,0.1l0,0.1c0,0,0,0.1,0,0.1l0,0.1c0,0,0,0.1,0,0.1l0,0.1
				c0,0,0,0.1,0,0.1l0,0.1c0,0,0,0.1,0,0.1v0.1c0,0,0,0.1,0,0.1v0.1c0,0,0,0.1,0,0.2l0,0c0,0.1,0,0.1,0,0.2l0,0c0,0.3,0,0.5,0.1,0.8
				l0,0c0,0.1,0,0.1,0,0.2l0,0c0,0.1,0,0.1,0,0.2l0,0c0,0.1,0,0.1,0,0.2l0,0c0,0.1,0,0.1,0,0.2v0c0,0.1,0,0.1,0.1,0.2l0,0
				c0.1,0.4,0.3,0.9,0.5,1.3l0,0c0,0.1,0.1,0.1,0.1,0.2l0,0c0,0.1,0.1,0.1,0.1,0.1l0,0c0,0,0.1,0.1,0.1,0.1l0,0c0,0,0.1,0.1,0.1,0.1
				l0,0c0,0.1,0.1,0.1,0.1,0.2l0,0c0.1,0.1,0.1,0.2,0.2,0.3l0,0c0,0,0.1,0.1,0.1,0.1l0,0.1c0,0,0,0.1,0.1,0.1c0,0,0,0,0.1,0.1
				l0.1,0.1c0,0,0,0,0.1,0.1l0.1,0.1c0,0,0,0.1,0.1,0.1l0.1,0.1c0,0,0.1,0.1,0.1,0.1l0,0c0,0,0.1,0.1,0.1,0.1l0,0
				c0,0,0.1,0.1,0.1,0.1l0,0c1,0.8,2.2,1.5,3.6,1.9l0.1,0l-0.6-0.4C996.9,1991.8,996.5,1991.6,996.2,1991.2L996.2,1991.2z"/>
			<path id="XMLID_148_" class="st45" d="M1008.3,1984.3c-0.4-0.9-2.1-1.1-2.9-0.6c-0.4,0.2-0.6,0.6-0.2,1.2
				c0.6,0.8,1.1,1.3,0.4,2.1c-0.7,0.8-1.1,1.1-0.5,1.6c0.5,0.5,0.8,0.7,0.8,1.2c0,0.2,0,0.4,0,0.4s0.4-0.7-0.1-1.3
				c-0.5-0.7-1-0.8-0.2-1.5c1.8-1.9-0.1-1.9,0-3.1C1005.8,1983.2,1007.8,1983.8,1008.3,1984.3L1008.3,1984.3z"/>
			<path id="XMLID_146_" class="st45" d="M1005.9,1979.1c0,0.2-0.2,0.8-0.8,1.1c-0.5,0.2-1,0.4-0.9,0.7c0.1,0.3,0.3,0.7,1,0.6
				c0.7-0.1,1-0.3,1.4-0.4c0.4-0.1,0.9-0.1,0.9-0.1s-0.7-0.3-1.4,0c-1.6,0.7-1.9-0.2-1.1-0.5
				C1005.5,1980.2,1006.1,1979.8,1005.9,1979.1L1005.9,1979.1z"/>
			<path id="XMLID_144_" class="st45" d="M997.9,1977.4c0.7-0.3,1.6-0.4,2.2-0.3c2.1,0.1,3,2,0.8,2.3c-1.7,0.2-1.9,0.1-2.2,0.8
				c-0.9,1.8-1.8,0.1-3.8,0.3c-0.5,0.1-0.9,0.2-1.3,0.5c2.2-2.4,4.2,0.6,4.6-0.8c0.3-0.7,0.5-1.1,1.8-1.2c2.5-0.2,2.1-1.3,0.1-1.5
				C999,1977.4,997.9,1977.4,997.9,1977.4L997.9,1977.4z"/>
			<path id="XMLID_142_" class="st45" d="M992.9,1982.9L992.9,1982.9c0.1,0.7,2.1-0.2,2.2,0.9c0.1,0.5-0.3,0.8-0.9,1.2
				c-0.6,0.4-0.6,1,0.1,1.5c0.7,0.5,1.1,0.5,0.7,1.5c-0.4,1-0.1,1.8-0.1,1.8s-0.6-0.8-0.2-1.7c0.4-0.9-0.3-1-0.8-1.3
				c-0.4-0.3-0.9-1.3-0.2-1.8c0.3-0.2,0.8-0.5,0.9-0.8C995.3,1983,992.7,1983.9,992.9,1982.9L992.9,1982.9z"/>
			<path id="XMLID_140_" class="st46" d="M1000.2,1982.1c-0.4,0.9-0.8,1.4-1.7,1c-0.9-0.4-1.5-0.4-1.1,0.4c0.3,0.8,0.8,1.9-0.1,2
				c-0.9,0.1-0.3,0.8,0.1,1.5c0.4,0.7,0.1,1.7,0.1,1.7s0.7-0.8,0.2-1.8c-0.5-1-0.7-1-0.1-1.2c0.6-0.2,0.7-0.9,0.4-1.5
				c-0.3-0.7-0.6-1.1,0.1-0.9c0.7,0.2,1.5,0.6,2-0.2c0.8-1.3,0.6-1.6,2.2-1.8C1001.3,1981,1000.6,1981.1,1000.2,1982.1
				L1000.2,1982.1z"/>
			<path id="XMLID_138_" class="st46" d="M1002.5,1983.3c-0.3,0.5-0.4,0.8-0.4,1.1c0.1,1.1,1.7,1.4,0.4,2.9
				c-0.3,0.4-0.6,0.9,0.2,1.9c0,0-0.6-1.1,0.1-1.9C1004.3,1985.6,1002,1985.7,1002.5,1983.3L1002.5,1983.3z"/>
			<path id="XMLID_136_" class="st47" d="M1000.4,1983.4c-0.3,1-1.1,0.6-1.5,0.5c-0.4-0.1-0.4,0.1-0.2,0.9c0.2,0.8,0.1,0.9-0.3,1
				c-0.4,0.1-0.2,0.2-0.1,1.2c0.1,1,0.1,1.6,1.7,2c1.6,0.4,1.1-1,1.7-1.8c0.6-0.7-0.3-1.7-0.3-2.6c0-1.3,0.9-2.1,0.2-2.4
				C1001.3,1982,1000.7,1982.1,1000.4,1983.4L1000.4,1983.4z"/>
			<path id="XMLID_134_" class="st48" d="M991.7,1983.2c0,0,5.4,10.2,16.5,5.5c0,0-1.2,4.3-7.8,4.1c-6.6-0.2-9.6-5.7-8.7-9.5"/>
			<g id="XMLID_330_">
				<path id="XMLID_132_" class="st19" d="M999.7,1976.4h0.2c-0.2-0.4-0.5-0.3-0.5-0.3C999.6,1976.2,999.7,1976.4,999.7,1976.4z"/>
				<path id="XMLID_130_" class="st19" d="M1005.1,1992.1l-0.1,0.1c0.1,0.1,0,0.3-0.1,0.4c-1.8,0.2-4.4-3.1-5.9-7.2
					c-1.5-4.3-1.2-8.4,0.5-9.2c-0.1,0-0.1,0-0.2,0c-1.9,0.7-2.2,4.9-0.6,9.3c1.5,4.3,4.3,7.7,6.2,7.2c0,0,0,0,0,0c0,0,0,0,0.1,0
					c0,0,0,0,0,0c0,0,0,0,0,0c0,0,0,0,0.1,0c0,0,0,0,0.1,0c0,0,0,0,0,0C1005.2,1992.3,1005.1,1992.1,1005.1,1992.1z"/>
			</g>
			<g id="XMLID_327_">
				<path id="XMLID_128_" class="st19" d="M1008,1979.9l0.1,0.1c0.3-0.4,0-0.6,0-0.6C1008.1,1979.7,1008,1979.9,1008,1979.9z"/>
				<path id="XMLID_126_" class="st19" d="M996.9,1992.3l-0.1-0.1c-0.1,0.1-0.2,0.1-0.3,0.1c-1.1-1.5,0.5-5.4,3.4-8.7
					c3-3.4,6.7-5.2,8.3-4.1c0,0-0.1-0.1-0.1-0.1c-1.5-1.3-5.4,0.5-8.4,4c-3,3.4-4.6,7.5-3.2,8.9c0,0,0,0,0,0c0,0,0,0,0.1,0
					c0,0,0,0,0,0c0,0,0,0,0,0c0,0,0,0,0.1,0c0,0,0,0,0.1,0c0,0,0,0,0,0C996.8,1992.5,996.9,1992.3,996.9,1992.3z"/>
			</g>
			<g id="XMLID_324_">
				<path id="XMLID_124_" class="st19" d="M993.3,1990.1l0-0.2c-0.4,0.2-0.3,0.5-0.3,0.5C993.1,1990.3,993.3,1990.1,993.3,1990.1z"
					/>
				<path id="XMLID_122_" class="st19" d="M1009.1,1982.7l0.1,0.1c0.1-0.1,0.3,0,0.4,0c0.4,1.9-2.7,5-6.8,7
					c-4.3,2.1-8.6,2.3-9.7,0.6c0,0.1,0,0.1,0.1,0.2c0.9,1.9,5.4,1.7,9.8-0.4c4.3-2.1,7.5-5.4,6.7-7.3c0,0,0,0,0,0c0,0,0,0,0-0.1
					c0,0,0,0,0,0c0,0,0,0,0,0c0,0,0,0,0-0.1c0,0,0,0,0-0.1c0,0,0,0,0,0C1009.3,1982.5,1009.1,1982.7,1009.1,1982.7z"/>
			</g>
			<g id="XMLID_321_">
				<path id="XMLID_110_" class="st19" d="M994.9,1977.8l0.1-0.1c-0.4-0.2-0.7-0.1-0.7-0.1C994.6,1977.6,994.9,1977.8,994.9,1977.8z
					"/>
				<path id="XMLID_98_" class="st19" d="M1009.1,1987.1l-0.1,0.1c0.1,0.1,0.2,0.2,0.2,0.3c-1.4,1.4-5.2,0.4-9.1-2
					c-4-2.5-6.5-6.1-5.7-7.9c0,0.1-0.1,0.1-0.1,0.1c-1.1,1.8,1.4,5.5,5.6,8.1c4.1,2.5,8.2,3.5,9.3,1.8c0,0,0,0,0,0c0,0,0,0,0-0.1
					c0,0,0,0,0,0c0,0,0,0,0,0c0,0,0,0,0-0.1c0,0,0,0,0-0.1c0,0,0,0,0,0C1009.3,1987.2,1009.1,1987.1,1009.1,1987.1z"/>
			</g>
			<g id="XMLID_118_">
				<circle id="XMLID_96_" class="st19" cx="999.2" cy="1991.4" r="0.6"/>
				<circle id="XMLID_94_" class="st19" cx="1005.8" cy="1988.2" r="0.6"/>
				<circle id="XMLID_88_" class="st19" cx="1002.1" cy="1981.2" r="0.5"/>
				<circle id="XMLID_86_" class="st19" cx="998.7" cy="1984.8" r="0.5"/>
				<circle id="XMLID_83_" class="st19" cx="994.5" cy="1980" r="0.5"/>
				<circle id="XMLID_80_" class="st19" cx="997.8" cy="1978.7" r="0.5"/>
			</g>
		</g>
	</g>
	<line id="XMLID_79_" class="st49" x1="981.3" y1="2005.5" x2="1017.7" y2="2005.5"/>
</g>
<g>
	<defs>
		<path id="SVGID_3_" d="M513.8,1788.4c0,0-49.4-50-118.6-50S137.3,1800,71.1,2006.9c0,0-59.4,207.4,319.2,207.4
			C754,2214.3,575.1,1836.1,513.8,1788.4"/>
	</defs>
	<clipPath id="SVGID_5_">
		<use xlink:href="#SVGID_3_"  style="overflow:visible;"/>
	</clipPath>
	<g transform="matrix(1 0 0 1 0 1.220703e-04)" style="clip-path:url(#SVGID_5_);">
		
			<image style="overflow:visible;" width="3872" height="2592" xlink:href="22CE7D57.jpg"  transform="matrix(0.1887 0 0 0.1887 -48.0542 1733.5447)">
		</image>
	</g>
	<g style="clip-path:url(#SVGID_5_);">
		
			<image style="overflow:visible;" width="1868" height="2802" xlink:href="22CE7D55.jpg"  transform="matrix(0.3037 0 0 0.3037 62.0726 1435.3074)">
		</image>
	</g>
</g>
<g>
	<defs>
		<path id="SVGID_1_" d="M1726.3,2060.5c0,0,41.1-40.1,98.5-40.1s214.3,49.4,269.3,215.5c0,0,49.4,166.5-265.2,166.5
			C1526.7,2402.3,1675.4,2098.8,1726.3,2060.5"/>
	</defs>
	<clipPath id="SVGID_6_">
		<use xlink:href="#SVGID_1_"  style="overflow:visible;"/>
	</clipPath>
	<g style="clip-path:url(#SVGID_6_);">
		
			<image style="overflow:visible;" width="1200" height="900" xlink:href="22CE7D53.jpg"  transform="matrix(0.518 0 0 0.5004 1484.6136 2007.594)">
		</image>
	</g>
</g>
<g>
	<defs>
		<path id="SVGID_4_" d="M627.1,2471.4c0,0-20.9-39.8-5.2-75.8c15.7-36,98.2-116.9,246.5-93.2c0,0,147,27.4,60.9,224.4
			C846.7,2716.1,643.9,2516.7,627.1,2471.4"/>
	</defs>
	<clipPath id="SVGID_9_">
		<use xlink:href="#SVGID_4_"  style="overflow:visible;"/>
	</clipPath>
	<g style="clip-path:url(#SVGID_9_);">
		
			<image style="overflow:visible;" width="1362" height="909" xlink:href="22CE7D5D.jpg"  transform="matrix(0.3801 0 0 0.3801 539.5131 2267.6963)">
		</image>
	</g>
</g>
<g>
	<defs>
		<path id="SVGID_2_" d="M627.1,2471.4c0,0-23.5-112.2-7.8-148.2c15.7-36-5.4-96.5,142.8-72.8c0,0,253.2,79.4,167.2,276.4
			C846.7,2716.1,643.9,2516.7,627.1,2471.4"/>
	</defs>
	<clipPath id="SVGID_10_">
		<use xlink:href="#SVGID_2_"  style="overflow:visible;"/>
	</clipPath>
	<g style="clip-path:url(#SVGID_10_);">
		
			<image style="overflow:visible;" width="1362" height="909" xlink:href="22CE7D5F.png"  transform="matrix(0.3801 0 0 0.3801 539.5131 2267.6963)">
		</image>
	</g>
</g>
<g>
	<defs>
		<path id="SVGID_8_" d="M1013,1389.3c0,0-50.4-48.9-119.6-47.5c-69.2,1.4-256.6,66.8-318.6,275.1c0,0-55.2,208.6,323.4,200.8
			C1261.8,1810.3,1075.2,1435.8,1013,1389.3"/>
	</defs>
	<clipPath id="SVGID_11_">
		<use xlink:href="#SVGID_8_"  style="overflow:visible;"/>
	</clipPath>
	<g transform="matrix(1 0 0 1 0 0)" style="clip-path:url(#SVGID_11_);">
		
			<image style="overflow:visible;" width="3872" height="2592" xlink:href="22CE7D52.jpg"  transform="matrix(0.1887 -3.864708e-03 3.864708e-03 0.1887 450.0869 1346.038)">
		</image>
	</g>
	<g style="clip-path:url(#SVGID_11_);">
		
			<image style="overflow:visible;" width="4687" height="3125" xlink:href="22CE7D51.jpg"  transform="matrix(0.1576 0 0 0.1576 457.9782 1334.6024)">
		</image>
	</g>
</g>
<g>
	<defs>
		<path id="SVGID_7_" d="M1373.9,1397.5c0,0-20.9-39.8-5.2-75.8s98.2-116.9,246.5-93.2c0,0,147,27.4,60.9,224.4
			C1593.5,1642.2,1390.7,1442.8,1373.9,1397.5"/>
	</defs>
	<clipPath id="SVGID_12_">
		<use xlink:href="#SVGID_7_"  style="overflow:visible;"/>
	</clipPath>
	<g transform="matrix(1 0 0 1 0 0)" style="clip-path:url(#SVGID_12_);">
		
			<image style="overflow:visible;" width="2000" height="1319" xlink:href="22CE7D56.jpg"  transform="matrix(0.2496 0 0 0.2496 1303.9742 1209.5472)">
		</image>
	</g>
</g>
<g>
	<path d="M569.7,1174.6L569.7,1174.6c-3.8-3.8-9.2-5.2-14.4-3.8c0,0-18.8,5-18.8,5c-10.2,2.7-35.9,7.8-31.2,19.3
		c4.9,12,20.7,25.5,32.6,30.2c17.6,6.9,27-5.4,30.9-18.2c0.1-0.3,0.2-0.5,0.2-0.8l0-0.1l0.1-0.2c0.2-0.9,0.5-1.8,0.7-2.6l3.6-14.4
		C574.9,1183.8,573.5,1178.4,569.7,1174.6z"/>
	<path class="st19" d="M561.9,1185.8l-4.6,18.2c-0.3,1.2-1.5,2.1-2.7,2.1c-1.3,0-2.4-1-2.6-2.3l-1.5-7.7c-0.1-0.5-0.3-1-0.7-1.4
		c-0.4-0.4-0.9-0.6-1.4-0.7l-7.7-1.5c-0.6-0.1-1.1-0.4-1.4-0.8c-0.5-0.5-0.8-1.1-0.8-1.8c0-1.3,0.8-2.4,2.1-2.7l18.2-4.7
		c0.9-0.2,1.9,0,2.6,0.7l0,0C561.9,1183.9,562.1,1184.9,561.9,1185.8z"/>
</g>
<g>
	<circle class="st50" cx="1044.8" cy="1153.3" r="2.2"/>
	<circle class="st50" cx="1044.8" cy="1164.3" r="2.2"/>
	<circle class="st50" cx="1044.8" cy="1175.3" r="2.2"/>
	<circle class="st50" cx="1044.8" cy="1186.3" r="2.2"/>
	<circle class="st50" cx="1044.8" cy="1196.6" r="2.2"/>
</g>
<path class="st51" d="M2207.8,1506.6c300.6-290,144-713.7,86.6-1005"/>
<path class="st51" d="M40,0.7c0,0-123.7,137.2,69.6,353.2c76.4,85.4,90.5,233.4,49,429.8"/>
</svg>
