<?xml version="1.0" encoding="utf-8"?>
<!-- Generator: Adobe Illustrator 21.0.0, SVG Export Plug-In . SVG Version: 6.00 Build 0)  -->
<svg version="1.1" id="Layer_1" xmlns="http://www.w3.org/2000/svg" xmlns:xlink="http://www.w3.org/1999/xlink" x="0px" y="0px"
	 viewBox="0 0 4.4 50.8" style="enable-background:new 0 0 4.4 50.8;" xml:space="preserve">
<style type="text/css">
	.st0{fill:#F1CA34;}
	.st1{fill:#FFF8F3;}
	.st2{fill:#CED8D9;}
	.st3{fill:#020202;}
	.st4{fill:#060606;}
	.st5{fill:#F8D6C5;}
	.st6{fill:#DFA483;}
	.st7{fill:#BD846C;}
	.st8{fill:#D6A189;}
	.st9{fill:#E7C5B3;}
	.st10{fill:#E6A687;}
	.st11{fill:#F58B24;}
	.st12{fill:#E15A26;}
	.st13{fill:#D9B9A9;}
	.st14{fill:#C48165;}
	.st15{fill:#D5712A;}
	.st16{fill:#C74C2A;}
	.st17{fill:#0C0C0C;}
	.st18{fill:#00ABAC;}
	.st19{fill:#FFFFFF;}
	.st20{clip-path:url(#XMLID_4_);}
	.st21{fill:#050505;}
	.st22{opacity:0.5;fill:#49261C;}
	.st23{fill:#603327;}
	.st24{fill:#854A3B;}
	.st25{fill:#F48120;}
	.st26{opacity:0.6;fill:#DFA483;}
	.st27{fill:#E7B08A;}
	.st28{fill:#FFF1EB;}
	.st29{opacity:0.8;}
	.st30{opacity:0.5;}
	.st31{fill-rule:evenodd;clip-rule:evenodd;}
	.st32{fill-rule:evenodd;clip-rule:evenodd;fill:#0A7FC2;}
	.st33{fill-rule:evenodd;clip-rule:evenodd;fill:#36AFCA;}
	.st34{fill-rule:evenodd;clip-rule:evenodd;fill:#3AC2D9;}
	.st35{fill-rule:evenodd;clip-rule:evenodd;fill:#026C96;}
	.st36{fill-rule:evenodd;clip-rule:evenodd;fill:#4DB259;}
	.st37{fill-rule:evenodd;clip-rule:evenodd;fill:#8EB03E;}
	.st38{fill-rule:evenodd;clip-rule:evenodd;fill:#338440;}
	.st39{fill-rule:evenodd;clip-rule:evenodd;fill:#B5CB3D;}
	.st40{fill-rule:evenodd;clip-rule:evenodd;fill:#00A1B3;}
	.st41{fill-rule:evenodd;clip-rule:evenodd;fill:#14B3D1;}
	.st42{fill-rule:evenodd;clip-rule:evenodd;fill:#A5CD39;}
	.st43{fill-rule:evenodd;clip-rule:evenodd;fill:#AFC63D;}
	.st44{fill-rule:evenodd;clip-rule:evenodd;fill:#3A9C5B;}
	.st45{fill-rule:evenodd;clip-rule:evenodd;fill:#F4F2AD;}
	.st46{fill-rule:evenodd;clip-rule:evenodd;fill:#C8E9F3;}
	.st47{fill-rule:evenodd;clip-rule:evenodd;fill:#56C7E1;}
	.st48{opacity:0.3;fill-rule:evenodd;clip-rule:evenodd;fill:#020202;}
	.st49{fill:none;stroke:#231F20;stroke-width:0.5507;stroke-miterlimit:10;}
	.st50{opacity:0.3;fill:#FEDA2F;}
</style>
<g>
	
		<ellipse transform="matrix(0.9999 -1.342734e-02 1.342734e-02 0.9999 -11.1884 4.0106)" class="st0" cx="293.1" cy="835.2" rx="47.2" ry="47.2"/>
	<g id="XMLID_594_">
		<g id="XMLID_595_">
			<g id="XMLID_742_">
				<path id="XMLID_743_" class="st1" d="M268.6,876.6c0,0,39.3,5.3,51-2.2c0,0,9.4,18.2,17.9,21c0,0-27.8-4.5-50.6-1l-34.5,3.7
					C252.4,898,265.6,891.8,268.6,876.6z"/>
			</g>
			<g id="XMLID_740_">
				<path id="XMLID_741_" class="st2" d="M268.7,876.2c0,0,4.2,7.8,5.8,11.4c0,0-10,6.7-15,8c0,0,9.1-5.1,10.1-8.7
					C270.7,883.3,268.7,876.2,268.7,876.2z"/>
			</g>
			<g id="XMLID_738_">
				<path id="XMLID_739_" class="st2" d="M319.6,874.3c0,0-0.7,3.6-5.2,11.2c0,0,17.7,10,23.1,9.5c0,0-18.2-7.7-19.4-10.7
					C318,884.4,319.9,879.1,319.6,874.3z"/>
			</g>
			<g id="XMLID_736_">
				<path id="XMLID_737_" class="st2" d="M255.9,897.3c0,0,59.3-6.7,79.8-2.7C335.7,894.6,309.8,885.6,255.9,897.3z"/>
			</g>
			<g id="XMLID_734_">
				<path id="XMLID_735_" class="st2" d="M268.9,876.6l7.7,9.7c0,0,1.2,3.1,5.4,2.6c4.2-0.5,8.9-0.6,8.9-0.6s3.9,1.6,5,0.5
					c1.1-1.1,0,0.3,4.3,0.3c4.3,0.1,8.9,0.7,10.2-1.1c1.3-1.8,1-1.6,2.6-3.3c1.5-1.7-1.1-3.1-1.1-3.1s-0.8-3.6,1.5-3.9
					c2.3-0.4,6.2-3.3,6.2-3.3s-7.5,4.4-21.2,4C284.8,878,268.9,876.6,268.9,876.6z"/>
			</g>
			<g id="XMLID_732_">
				<path id="XMLID_733_" class="st3" d="M252.4,898.4c14.3-2,28.6-3.4,43-4.2c7.6-0.4,15.2-0.7,22.9-0.5c6.4,0.2,12.9,0.5,19.1,2.1
					c0.5,0.1,0.7-0.6,0.2-0.8c-5.4-2.2-9.4-7.4-12.6-12.1c-1.9-2.8-3.6-5.7-5.1-8.7c-0.1-0.2-0.4-0.2-0.6-0.1
					c-3.6,2.1-7.9,2.8-12,3.2c-5.1,0.6-10.2,0.7-15.4,0.6c-7.6-0.1-15.2-0.7-22.7-1.6c-0.2,0-0.4-0.1-0.6-0.1
					c-0.2,0-0.5,0.1-0.5,0.3c-0.4,2.6-1.4,5.1-2.6,7.4c-3,5.9-7.8,10.6-13.5,13.9c-0.5,0.3,0,1,0.4,0.7c5.7-3.2,10.4-7.9,13.5-13.7
					c1.3-2.5,2.5-5.3,2.9-8c-0.2,0.1-0.3,0.2-0.5,0.3c5.9,0.8,11.8,1.2,17.8,1.5c5.2,0.2,10.3,0.3,15.5,0.1c4.6-0.2,9.2-0.7,13.6-2
					c1.5-0.4,3.1-1,4.5-1.9c-0.2,0-0.4-0.1-0.6-0.1c1.6,3.3,3.5,6.5,5.6,9.5c3.2,4.6,7.2,9.6,12.5,11.7c0.1-0.3,0.1-0.5,0.2-0.8
					c-9-2.2-18.7-2.3-27.9-2.1c-10.8,0.1-21.6,0.9-32.4,1.9c-8.3,0.8-16.6,1.7-24.8,2.9C251.9,897.7,251.9,898.5,252.4,898.4z"/>
			</g>
			<g id="XMLID_730_">
				<path id="XMLID_731_" class="st4" d="M277.6,885.7c0,0-14,9.2-25.2,12.4C252.4,898,263.1,897.2,277.6,885.7z"/>
			</g>
			<g id="XMLID_728_">
				<path id="XMLID_729_" class="st4" d="M311.7,883.8c9.1,6.2,24.1,10.9,24.1,10.9C318.8,891,311.7,883.8,311.7,883.8z"/>
			</g>
			<g id="XMLID_726_">
				<path id="XMLID_727_" class="st4" d="M270.7,879.5c0,0,2.5,4.7,3.7,8.1"/>
			</g>
			<g id="XMLID_724_">
				<path id="XMLID_725_" class="st3" d="M270.7,880.1c1.4,2.6,2.7,5.3,3.7,8.1c-0.1-0.4,0.1-0.9,0-1.4c-1-2.8-2.3-5.5-3.7-8.1
					C270.9,879.1,270.6,879.8,270.7,880.1z"/>
			</g>
			<g id="XMLID_722_">
				<path id="XMLID_723_" class="st4" d="M318.6,878c0,0-2.3,4.8-4.4,7.8"/>
			</g>
			<g id="XMLID_720_">
				<path id="XMLID_721_" class="st3" d="M318.5,877.4c-1.3,2.7-2.7,5.3-4.4,7.8c-0.2,0.3,0.2,1,0,1.4c1.7-2.5,3.1-5.1,4.4-7.8
					C318.7,878.3,318.4,877.7,318.5,877.4z"/>
			</g>
			<g id="XMLID_718_">
				<path id="XMLID_719_" class="st5" d="M287,866.6c0,0-0.5,0.7-1.1,1.7c-1.1,1.6-2.6,4-2.9,4.8c-0.5,1.3-1.5,4.2,1.8,4.8
					c0,0-5.9,1.5-5.8,4c0.1,2.5,19.9,2.6,21.6-1c1.7-3.6,2.9-3.2,2.9-5.9c-0.1-2.7-0.2-5.4-0.1-6.3c0.1-1-1.9-3.3-1.9-3.3L287,866.6
					"/>
			</g>
			<g id="XMLID_716_">
				<path id="XMLID_717_" class="st5" d="M273.1,848.2c0,0-6.6-5.3-7.9-3.4c-1.3,1.8,0.2,8.4,4,10.3c3.8,1.9,7.5,2.8,7.5,2.8
					s0.8,6,5,7.4c4.2,1.3,15,3.6,20.4,0.6c5.4-3,8.1-3.2,8.9-11.9c0,0,9-1.4,10.7-7.1c1.7-5.7,1.6-6.4-0.3-6.7
					c-1.9-0.3-7.7,4.9-7.7,4.9s8.2-12.4,7.9-19.8c-0.3-7.4-7.9-19.1-25.5-19.6c-17.5-0.5-27.8,5.5-32,16.2
					C259.9,832.8,272.5,846.4,273.1,848.2"/>
			</g>
			<g id="XMLID_714_">
				<path id="XMLID_715_" class="st6" d="M292.2,862.4c0,0,2.9,1.3,5.4-0.5C297.7,861.9,296.1,866,292.2,862.4z"/>
			</g>
			<g id="XMLID_712_">
				<path id="XMLID_713_" class="st7" d="M293.2,876.6c0,0-1.1,2-3.6,2.1l3.2,0.2c0,0,0.1-0.5,1.9-0.4c1.8,0.2,2.8,0.1,2.8,0.1
					l0.4-0.3l-4.2-0.5l0.4-1L293.2,876.6z"/>
			</g>
			<g id="XMLID_710_">
				<path id="XMLID_711_" class="st8" d="M289.5,870.2c-1.4,1.4-1.8,4-1.8,4s0.1,0.8,0.6,0.8c0,0,0,0,0,0c0.5,0,1.3-0.2,1.3-0.2
					C287.7,874.3,289.5,870.2,289.5,870.2"/>
			</g>
			<g id="XMLID_708_">
				<path id="XMLID_709_" class="st9" d="M274.7,847.8c0,0-12.1-18.6-4.9-26.7c7.1-8.1,7.6-4.3,7.6-4.3s5.3,13.4,18.4,6.1
					c11.9-6.7,14.2-4.8,14.2-4.8s9.5,5.7,7.5,16.4c0,0,13.8-26.9-28.8-27.3C288.6,807.1,246.9,813.3,274.7,847.8z"/>
			</g>
			<g id="XMLID_706_">
				<path id="XMLID_707_" class="st6" d="M277.3,857.9c0,0,1.8,6,8.7,7.1c7,1.1,12.8,1.7,19.6-3.2c0,0,4.6-2.2,5.3-7.4
					c0,0,0.5,9.9-10.8,12.2c-11.3,2.3-16.6-0.6-16.6-0.6S277.6,865.2,277.3,857.9"/>
			</g>
			<g id="XMLID_704_">
				<path id="XMLID_705_" class="st10" d="M291.6,855.2c0,0,0.1,1.4,2.9,1.3c2.8-0.1,1.8-1.9,1.8-1.9s2.5,0.6,1,1.8
					c-1.5,1.1-4.2,1.1-5.1,0.8C291.3,856.8,290.8,856.1,291.6,855.2z"/>
			</g>
			<g id="XMLID_702_">
				<path id="XMLID_703_" class="st11" d="M299.4,866.6c0,0,0.8,3.8-6,7.1l-5.3,1.4c0,0,4.1,2,6.1,1.3l-0.7,1.5c0,0,3.5-0.5,4.4,0.3
					l-1.7,1.5c0,0,2.5,1.9,3,0.9c0.6-1,0.6-1,0.6-1s3.9,4.2,5.7,4.3c1.8,0.1,3-0.2,2.9-1.6c-0.1-1.4-0.7-2-0.7-3.4
					c0-1.4,1.3-7.6,0.5-9.5c-0.5-1.2-1.6-2.6-2.5-3.6c-0.6-0.6-1.1-1-1.3-1.1C304.5,864.8,299.9,866.2,299.4,866.6"/>
			</g>
			<g id="XMLID_700_">
				<path id="XMLID_701_" class="st11" d="M284.2,878.3c0,0,7.8,1.2,9,0c0,0-1.7,2.3,0.9,2c2.5-0.2,2.2-0.7,2.2-0.7s1.4,1.4,2.2,1.2
					c0.8-0.3,1.4-1.2,1.4-1.2l6.6,1.1l1.5-2.4c0,0,4-0.5,4,3.6c-0.1,4.1-3.4,6-5.3,6c-1.9,0-10.7-1.5-10.7-1.5s-0.4,1.7-2,1.7
					c-1.6,0-3.4-0.7-3.4-0.7s-6.5,1.6-8.3,0.6c-1.8-1-3.4-3.1-3.1-5.6C279.2,879.9,281.5,878.4,284.2,878.3z"/>
			</g>
			<g id="XMLID_698_">
				<path id="XMLID_699_" class="st12" d="M296.4,879.7c0,0,9.9,7.6,11.9,3.3c0,0-2.5,1.6-4.1,0.3c-1.6-1.4-5.1-4.7-6.2-5
					L296.4,879.7z"/>
			</g>
			<g id="XMLID_696_">
				<path id="XMLID_697_" class="st12" d="M299.6,881.1c0,0-1,3.7-3.8,5.4c0,0,4.4-1.5,5.4-4.1C302.3,879.8,299.6,881.1,299.6,881.1
					z"/>
			</g>
			<g id="XMLID_694_">
				<path id="XMLID_695_" class="st12" d="M308.5,882c0,0,0.8-1.8,1.7-0.8c0.9,1,0.2,5.6-3,6.4L307,888c0,0,4.6-0.8,4.7-4.5
					c0.2-3.7-0.3-5.7-3.9-4.9C307.8,878.6,307.7,881.8,308.5,882z"/>
			</g>
			<g id="XMLID_692_">
				<path id="XMLID_693_" class="st12" d="M303.6,868.9c0,0-0.4,5-2.3,5.9l-1.1,0.4c0,0,1.1,1.3,3.1,1.7c0,0-3.5,0-6.2-1.5
					C297.1,875.4,302.4,874.4,303.6,868.9z"/>
			</g>
			<g id="XMLID_690_">
				<path id="XMLID_691_" class="st12" d="M280.2,879.9c0,0,3-0.7,7-0.6c4,0.2,4.1,2,2.1,2.9l3.7-1.9c0,0-1-0.9-0.2-1.5
					c0.8-0.6,0.2-0.1,0.2-0.1s-1.7,0.3-3.8,0.2c-2.7-0.1-6.2-0.5-7.2,0.1"/>
			</g>
			<g id="XMLID_688_">
				<path id="XMLID_689_" class="st12" d="M297.1,873.7c0,0,4.5-1.8,5.7-7.7l-1.6,0.7C301.1,866.6,300.4,871.7,297.1,873.7"/>
			</g>
			<g id="XMLID_686_">
				<path id="XMLID_687_" class="st6" d="M297.6,851.3c0,0,2.2-5.8,7.4-0.9C305,850.5,302.2,848.9,297.6,851.3z"/>
			</g>
			<g id="XMLID_684_">
				<path id="XMLID_685_" class="st6" d="M282.6,852.3c0,0,2.2-5.8,7.4-0.9C290,851.5,287.3,849.9,282.6,852.3z"/>
			</g>
			<g id="XMLID_682_">
				<path id="XMLID_683_" class="st6" d="M266.9,847.1l1.2,1.9l1.5,4.2l1-3.1c0,0,5.1,4.4,6.1,6.6
					C276.7,856.7,273.2,848.4,266.9,847.1z"/>
			</g>
			<g id="XMLID_680_">
				<path id="XMLID_681_" class="st6" d="M320.5,843l-1.1,1.1c0,0,1.1,3.5-2.5,5c0,0,0.6-2.6,0-3c0,0-4.7,3.2-5.6,6.1
					C311.2,852.2,313.2,844.4,320.5,843z"/>
			</g>
			<g id="XMLID_676_">
				<path id="XMLID_677_" class="st13" d="M286.6,867l-0.3,0.6C286.5,867.4,286.6,867.2,286.6,867C286.7,867,286.6,867,286.6,867
					 M304.9,865c0.3,0.2,0.6,0.5,0.9,0.8c0.1,0.1,0.2,0.2,0.3,0.3c0.1-0.1,0.1-0.1,0.1-0.2C305.9,865.7,305.2,865.2,304.9,865"/>
			</g>
			<g id="XMLID_674_">
				<path id="XMLID_675_" class="st8" d="M286.7,867c-0.1,0.2-0.2,0.4-0.4,0.6l-0.2,0.4l3.4,0.4c1.6,0.5,3.3,0.6,5,0.6
					c1.6,0,3.1-0.2,4.6-0.5c0.2-0.6,0.3-1.1,0.3-1.4c-1.4,0.4-3,0.6-4.5,0.6c-1.7,0-3.2-0.1-4.3-0.3
					C289.1,867.4,287.8,867.2,286.7,867"/>
			</g>
			<g id="XMLID_670_">
				<path id="XMLID_671_" class="st14" d="M286.8,866.6l-0.2,0.4c0,0,0.1,0,0.1,0c1.1,0.2,2.4,0.4,4,0.4c-1-0.1-1.6-0.3-1.6-0.3
					L286.8,866.6 M304.8,864.7c0,0-0.1,0-0.2,0c0.1,0,0.1,0.1,0.2,0.1C304.7,864.9,304.9,864.7,304.8,864.7"/>
			</g>
			<g id="XMLID_668_">
				<path id="XMLID_669_" class="st15" d="M304.5,864.8c-0.4,0.1-1.3,0.5-3.4,1.6c-0.5,0.3-1.1,0.5-1.8,0.7c0,0.3-0.1,0.8-0.3,1.4
					c0.6-0.1,1.1-0.2,1.7-0.4c0.3-0.9,0.4-1.6,0.4-1.6l1.6-0.7l0,0c-0.1,0.7-0.3,1.3-0.5,1.8c2-0.6,3.5-1.3,3.9-1.6
					c-0.1-0.1-0.2-0.2-0.3-0.3c-0.3-0.4-0.7-0.6-0.9-0.8c-0.1-0.1-0.2-0.1-0.2-0.1v0C304.7,864.8,304.6,864.8,304.5,864.8"/>
			</g>
			<g id="XMLID_666_">
				<path id="XMLID_667_" class="st16" d="M302.7,865.9l-1.6,0.7c0,0-0.1,0.7-0.4,1.6c0.5-0.1,1-0.3,1.5-0.4
					C302.4,867.2,302.6,866.6,302.7,865.9"/>
			</g>
			<g id="XMLID_664_">
				<path id="XMLID_665_" class="st12" d="M297.9,881.4c0,0-6.9,6.2-14.9,5.3c0,0-4.1-0.3-4.1-4.3c0,0-2.4,6.9,8.8,5.6
					C287.7,888,295.5,886.7,297.9,881.4z"/>
			</g>
			<g id="XMLID_662_">
				<path id="XMLID_663_" class="st17" d="M281.4,850.3c0,0,6.7-3.4,8.9-1.5C290.3,848.7,285.4,845,281.4,850.3z"/>
			</g>
			<g id="XMLID_660_">
				<path id="XMLID_661_" class="st17" d="M295.9,848.2c0,0,2.3,1.5,4.2-1c1.8-2.4,4.4-2.2,4.8-1.5c0,0-0.5-2.4-3.2-1.6
					C299.2,844.9,297.5,848.8,295.9,848.2z"/>
			</g>
			<g id="XMLID_658_">
				<path id="XMLID_659_" d="M283.4,852.6c1.8-1.3,4.2-1.8,6.3-0.9c0.4,0.2,1.4-0.4,1.2-0.5c-2.8-1.2-6.1-0.4-8.5,1.4
					C281.8,852.9,283.2,852.7,283.4,852.6z"/>
			</g>
			<g id="XMLID_656_">
				<path id="XMLID_657_" d="M286.2,860.5c0-0.7,0.3-1.4,0.9-1.8c0.2-0.1-0.3-0.2-0.5-0.1c-0.6,0.4-1,1.1-1,1.9
					C285.7,860.7,286.2,860.7,286.2,860.5z"/>
			</g>
			<g id="XMLID_654_">
				<path id="XMLID_655_" d="M302.9,855.7c0.6,0.4,1,1,1,1.7c0,0.2,0.5,0.2,0.5,0c0-0.7-0.4-1.5-1-1.9
					C303.3,855.5,302.8,855.6,302.9,855.7z"/>
			</g>
			<g id="XMLID_652_">
				<path id="XMLID_653_" d="M298.1,851.6c1.8-1.3,4.2-1.8,6.3-0.9c0.4,0.2,1.4-0.4,1.2-0.5c-2.8-1.2-6.1-0.4-8.5,1.4
					C296.5,851.9,297.8,851.8,298.1,851.6z"/>
			</g>
			<g id="XMLID_650_">
				<path id="XMLID_651_" d="M296.1,854.8c0.6,0.1,1.9,0.5,1.2,1.3c-0.8,0.9-2.5,1-3.6,1c-0.6,0-2.4,0-2.2-1
					c0.1-0.3,0.3-0.6,0.5-0.8c0.2-0.2-0.1-0.6-0.4-0.4c-0.4,0.4-0.7,0.9-0.7,1.4c0,1.3,2.1,1.4,3,1.4c1.3,0,3.3-0.2,4-1.5
					c0.6-1.1-0.9-1.7-1.7-1.8C295.9,854.2,295.8,854.8,296.1,854.8z"/>
			</g>
			<g id="XMLID_648_">
				<path id="XMLID_649_" class="st3" d="M286.3,859.4c0,0,9.3,4.2,17.6-3C303.9,856.4,296.9,864.1,286.3,859.4z"/>
			</g>
			<g id="XMLID_646_">
				<path id="XMLID_647_" d="M286.3,859.4l-0.1,0.2c0,0,2.8,1.3,6.8,1.2c3.2,0,7.3-1,11.1-4.3l-0.2-0.2l-0.2-0.2l0,0
					c-0.1,0.1-1.1,1.2-2.9,2.3c-1.8,1.1-4.3,2.1-7.4,2.2c-2.1,0-4.4-0.4-6.9-1.5l-0.2,0.5L286.3,859.4l-0.1,0.2
					c2.6,1.2,5,1.6,7.1,1.6c3.3,0,6-1.2,7.9-2.4c1.8-1.1,2.9-2.3,2.9-2.3l-0.4-0.4c-3.7,3.2-7.6,4.1-10.7,4.2
					c-1.9,0-3.6-0.3-4.7-0.6c-0.6-0.2-1-0.3-1.4-0.4c-0.2-0.1-0.3-0.1-0.4-0.1c0,0-0.1,0-0.1,0l0,0l0,0l-0.2,0.5L286.3,859.4z"/>
			</g>
			<g id="XMLID_644_">
				<path id="XMLID_645_" d="M292.6,862.8c1.8,0.4,4,0.3,5.5-0.7c0.2-0.2-0.7-0.6-0.9-0.4c-1.3,0.9-3.2,1-4.7,0.7
					C291.8,862.2,292.2,862.7,292.6,862.8z"/>
			</g>
			<g id="XMLID_642_">
				<path id="XMLID_643_" d="M291.8,865.5c2.5,0.7,5.5,0,7.9-1.1c-0.5,0.2-1.1,0.2-1.6,0.4c-1.4,0.7-3.2,0.7-4.8,0.3
					C292.9,865,292.3,865.6,291.8,865.5z"/>
			</g>
			<g id="XMLID_640_">
				<path id="XMLID_641_" d="M276,852.1l0.4-0.3c0,0,0,0,0,0c-0.4-0.4-3.5-4.3-6.5-9.4c-1.5-2.5-3-5.3-4.1-8.1
					c-1.1-2.8-1.9-5.6-1.9-8.1c0-1.5,0.2-2.8,0.7-4c1.1-2.5,2.4-4.7,4-6.6c2.3-2.9,5.3-5.1,9.2-6.6c3.9-1.6,8.7-2.5,14.8-2.7
					c0.3,0,0.6,0,1,0c7.8-0.1,14.7,2.2,19.6,5.7c2.5,1.8,4.4,3.9,5.8,6.1c1.4,2.3,2.1,4.7,2.1,7.2c0,0,0,0.1,0,0.1
					c0,2.6-0.5,5-1.3,7.4c-1.2,3.5-3.1,6.7-4.8,9.4c-0.8,1.4-1.6,2.6-2.3,3.8c-0.6,1.2-1.1,2.2-1.3,3.2c-0.5,2.4-0.8,5.1-1.4,7.5
					c-0.3,1.2-0.6,2.3-0.9,3.2c-0.4,0.9-0.8,1.6-1.2,2.1c-0.5,0.5-1.3,1-2.2,1.6c-1.4,0.9-3.3,1.7-5.1,2.4c-1.8,0.7-3.6,1.1-5,1.1
					c-0.1,0-0.1,0-0.2,0c-1.9,0-5.8-0.2-9.3-1c-1.8-0.4-3.4-0.9-4.7-1.6c-0.6-0.4-1.2-0.8-1.6-1.2c-0.4-0.4-0.7-0.9-0.9-1.4
					c-0.7-2.2-1-3.4-1.2-4.7c-0.2-1.3-0.4-2.7-0.9-5l0-0.1l-0.1-0.1L276,852.1l-0.5,0.1c0.5,2.3,0.7,3.7,0.9,5
					c0.2,1.3,0.5,2.7,1.2,4.9c0.2,0.7,0.6,1.3,1.2,1.9c0.9,0.9,2.2,1.6,3.6,2.2c2.2,0.8,4.7,1.3,7,1.6c2.3,0.3,4.5,0.4,5.8,0.4
					c0.1,0,0.1,0,0.2,0c1.1,0,2.3-0.2,3.5-0.6c1.9-0.5,3.8-1.3,5.5-2.2c0.9-0.4,1.6-0.9,2.3-1.3c0.7-0.4,1.3-0.9,1.7-1.3
					c0.6-0.6,1.1-1.5,1.5-2.5c0.6-1.5,1-3.4,1.3-5.3c0.3-1.9,0.6-3.9,1-5.6c0.1-0.5,0.3-1.1,0.7-1.8c0.6-1.2,1.4-2.6,2.4-4.2
					c1.4-2.3,3.1-5.1,4.5-8.1c1.3-3,2.3-6.4,2.3-10c0,0,0-0.1,0-0.1c0-2.7-0.8-5.3-2.3-7.7c-2.2-3.6-5.7-6.7-10.3-8.9
					c-4.5-2.2-10-3.5-16-3.4c-0.3,0-0.7,0-1,0c-8.2,0.3-14.3,1.9-18.9,4.7c-2.3,1.4-4.2,3.1-5.9,5.1c-1.6,2-3,4.3-4.1,6.8
					c-0.6,1.4-0.9,2.9-0.8,4.5c0,2.8,0.9,5.8,2.1,8.7c1.8,4.4,4.5,8.8,6.7,12.1c2.2,3.3,4,5.4,4,5.4L276,852.1l-0.5,0.1L276,852.1z"
					/>
			</g>
			<g id="XMLID_638_">
				<path id="XMLID_639_" d="M313.5,846.2c1.2-1.1,2.4-2.4,3.7-3.5c0.6-0.5,1.3-1,2-1.3c0.7-0.3,1.4-0.6,2.2-0.6l0,0
					c0.1,0,0.1,0,0.2,0.1c0.1,0.1,0.3,0.3,0.4,0.5c0.1,0.2,0.2,0.5,0.3,0.7c0.1,0.3,0.1,0.5,0.1,0.8c0,0.4-0.1,0.9-0.2,1.3
					c-0.4,1.5-1.2,3-2.1,4.4c-1,1.5-2.4,2.6-4,3.4c-1.6,0.8-3.4,1.3-5.2,1.5l0.1,1.1c1.9-0.2,3.8-0.8,5.5-1.6
					c1.7-0.9,3.3-2.1,4.4-3.7c1-1.4,1.8-3,2.3-4.7c0.1-0.5,0.2-1,0.2-1.6c0-0.3,0-0.7-0.1-1c-0.1-0.4-0.3-0.9-0.5-1.3
					c-0.1-0.2-0.3-0.4-0.5-0.6c-0.2-0.2-0.5-0.3-0.8-0.3c0,0-0.1,0-0.1,0c-0.9,0.1-1.8,0.4-2.6,0.7c-1.2,0.6-2.2,1.4-3.2,2.3
					c-1,0.9-1.8,1.8-2.7,2.6L313.5,846.2z"/>
			</g>
			<g id="XMLID_636_">
				<path id="XMLID_637_" d="M320.4,842.4c-0.1,0-1.4,0.1-3.2,1.2c-1.8,1.1-4.2,3.2-6.2,7l0.9,0.5c2-3.7,4.2-5.6,5.9-6.6
					c0.8-0.5,1.5-0.8,2-0.9c0.2-0.1,0.4-0.1,0.6-0.1c0.1,0,0.1,0,0.1,0l0,0l0,0l0-0.2l0,0.2l0,0l0-0.2l0,0.2L320.4,842.4z"/>
			</g>
			<g id="XMLID_634_">
				<path id="XMLID_635_" d="M274.7,849.4c-1.2-1-2.6-2.3-4-3.4c-0.7-0.5-1.5-1-2.2-1.4c-0.8-0.4-1.6-0.6-2.4-0.7c0,0-0.1,0-0.1,0
					c-0.3,0-0.6,0.1-0.8,0.3c-0.3,0.3-0.5,0.6-0.7,0.9c-0.2,0.3-0.3,0.7-0.3,1l0,0c-0.1,0.3-0.1,0.7-0.1,1c0,0.5,0.1,1.1,0.2,1.6
					c0.5,1.7,1.4,3.3,2.4,4.7c1.2,1.6,2.8,2.8,4.5,3.6c1.8,0.8,3.7,1.3,5.5,1.5l0.1-1.1c-1.8-0.2-3.6-0.6-5.2-1.4
					c-1.6-0.8-3.1-1.8-4.1-3.3c-1-1.3-1.8-2.8-2.2-4.3c-0.1-0.4-0.2-0.9-0.2-1.3c0-0.3,0-0.5,0.1-0.8l0,0c0.1-0.3,0.2-0.7,0.4-1
					c0.1-0.1,0.2-0.2,0.2-0.3c0.1-0.1,0.1-0.1,0.2-0.1l0,0c0.6,0,1.3,0.2,2,0.6c1,0.5,2.1,1.3,3.1,2.1c1,0.9,2,1.8,2.9,2.5
					L274.7,849.4z"/>
			</g>
			<g id="XMLID_632_">
				<path id="XMLID_633_" d="M266.9,847.7l0-0.2L266.9,847.7L266.9,847.7l0-0.2L266.9,847.7c0,0,1.2,0.1,2.9,1.1
					c1.7,1,3.9,2.8,6,6.4l0.9-0.5c-2.2-3.8-4.6-5.8-6.4-6.8c-1.9-1-3.2-1.1-3.2-1.1L266.9,847.7z"/>
			</g>
			<g id="XMLID_630_">
				<path id="XMLID_631_" d="M317.3,849.5c0,0,0.4-0.4,0.7-1.1c0.3-0.7,0.7-1.6,0.7-2.9c0-0.5-0.1-1-0.2-1.5l-1.1,0.3
					c0.1,0.5,0.2,0.9,0.2,1.3c0,1-0.3,1.8-0.5,2.4c-0.1,0.3-0.3,0.5-0.4,0.6c-0.1,0.1-0.1,0.1-0.1,0.1l0,0l0,0l0.1,0.1l-0.1-0.1l0,0
					l0.1,0.1l-0.1-0.1L317.3,849.5z"/>
			</g>
			<g id="XMLID_628_">
				<path id="XMLID_629_" d="M268.9,848.1c0,0-0.4,0.9-0.4,2.1c0,1,0.3,2.2,1.1,3.4l0.9-0.6c-0.7-1.1-0.9-2.1-0.9-2.9
					c0-0.5,0.1-0.9,0.1-1.2c0-0.1,0.1-0.3,0.1-0.3c0,0,0-0.1,0-0.1l0,0l0,0l-0.3-0.1l0.3,0.1l0,0l-0.3-0.1l0.3,0.1L268.9,848.1z"/>
			</g>
			<g id="XMLID_626_">
				<path id="XMLID_627_" d="M302.9,868.9c-0.7,2.5-2.7,6.3-5.7,6.3c-0.3,0-0.5,0.2-0.8,0.2c3.8,0,6.3-3.3,7.3-6.7
					C303.7,868.8,303,868.7,302.9,868.9z"/>
			</g>
			<g id="XMLID_624_">
				<path id="XMLID_625_" d="M303.5,876.8c-0.9-0.1-1.7-0.2-2.5-0.4c-0.9-0.2-1.8-0.5-2.6-0.8c-0.5-0.2-1-0.5-1.5-0.5
					c-1.8-0.1-3.2,1.2-3.7,3c0,0.2,0.4,0.1,0.4,0.1c1.4-0.4,2.9-0.1,4.2,0.5c2,0.8,3.3,2.9,5,4.2c2,1.5,5.6,2.8,6.2-0.7
					c0-0.2-0.7-0.1-0.8,0.1c-0.8,4.9-6.9-1.9-8.4-3.2c-1.7-1.4-4.2-1.7-6.3-1.2c0.1,0,0.3,0,0.4,0.1c0.2-0.8,0.6-1.4,1.1-2
					c1.1-1.1,3,0.2,4.2,0.6c1.2,0.4,2.5,0.6,3.8,0.7C303.2,877.1,303.9,876.8,303.5,876.8z"/>
			</g>
			<g id="XMLID_622_">
				<path id="XMLID_623_" d="M303.6,864.9c2.4,0.7,4.1,2.9,4.4,5.3c0.2,1.3-0.1,2.6-0.2,3.8c-0.1,1.3-0.3,2.5-0.3,3.8
					c-0.1,1.5-0.2,3.4,0.6,4.6c0.1,0.1,0.7-0.3,0.8-0.2c-0.8-1.2-0.7-2.9-0.7-4.3c0.1-2.6,0.8-5.4,0.6-8c-0.2-2.4-2.1-4.6-4.4-5.3
					C304.1,864.6,303.8,864.9,303.6,864.9z"/>
			</g>
			<g id="XMLID_620_">
				<path id="XMLID_621_" d="M306.7,877c0,0.8,0.1,1.6,0.2,2.3c0.1,1,0.2,2.4,1,3.1c-0.2-0.2,0-1.8,0-2c0-0.3,0.2-1.8,0-2
					c-0.7-0.7-0.8-2-0.9-2.9c-0.1-0.8-0.2-1.6-0.2-2.4C306.7,874,306.7,875.8,306.7,877z"/>
			</g>
			<g id="XMLID_618_">
				<path id="XMLID_619_" d="M299.5,866.6c-1,5-6.8,7.5-11.2,8.3c-0.4,0.1-0.6,0.5-0.1,0.4c4.7-0.8,11.1-3.4,12.1-8.8
					C300.4,866.2,299.6,866.4,299.5,866.6z"/>
			</g>
			<g id="XMLID_616_">
				<path id="XMLID_617_" d="M297.4,873.6c2.4-1.5,3.6-4.6,4.1-7.3c0,0.1-0.8,0.1-0.8,0.2c-0.5,2.7-1.8,5.7-4.1,7.3
					C296.9,873.6,297.2,873.7,297.4,873.6z"/>
			</g>
			<g id="XMLID_614_">
				<path id="XMLID_615_" d="M289.1,870.2c-1,1.3-1.9,3-1.9,4.7c0,0.1,0.8,0,0.8-0.2c0-1.6,0.9-3.2,1.8-4.5
					C290,869.9,289.3,870,289.1,870.2z"/>
			</g>
			<g id="XMLID_612_">
				<path id="XMLID_613_" d="M286.1,873.2c-0.1,0.5,0.3,1.1,0.7,1.4c1.7,1.6,4.6,1.9,6.8,2.2c0.2,0,0.5-0.3,0.8-0.2
					c-2.2-0.3-5-0.7-6.8-2.2c-0.4-0.3-0.8-0.9-0.7-1.4C286.8,873.1,286.1,873.1,286.1,873.2z"/>
			</g>
			<g id="XMLID_610_">
				<path id="XMLID_611_" d="M286.8,866.7c-1.3,1.6-2.5,3.4-3.5,5.2c-0.6,1.1-1.2,2.4-1.2,3.7c0.1,1.2,1.1,1.9,2.1,2.3
					c2.5,1,5.6,0.9,8.3,0.9c0.3,0,0.5-0.2,0.8-0.2c-2.7,0-5.5,0-8.1-0.8c-1.1-0.4-2.1-1.1-2.3-2.3c-0.2-1.2,0.5-2.5,1-3.5
					c1-2,2.3-3.8,3.7-5.6C287.4,866.7,286.9,866.5,286.8,866.7z"/>
			</g>
			<g id="XMLID_608_">
				<path id="XMLID_609_" d="M297.6,878.2c-0.7,0.8-1.6,1.5-2.5,1.9c-0.6,0.3-1.4,0.3-2-0.1c-0.7-0.5,0.4-1.7,0.7-2
					c0.3-0.4-0.4-0.5-0.7-0.2c-0.5,0.5-1.4,1.6-1,2.4c0.4,0.6,1.3,0.8,2,0.7c1.6-0.1,3-1.4,4.1-2.5
					C298.6,878,297.8,877.9,297.6,878.2z"/>
			</g>
			<g id="XMLID_606_">
				<path id="XMLID_607_" d="M295.8,879.9c0.6,0.5,1.3,1,2,1.2c1.1,0.3,1.9-0.4,2.1-1.5c0-0.3-0.7-0.1-0.8,0.1c0,0.2-0.1,1-0.5,1.1
					c-0.4,0-0.8-0.2-1.1-0.4c-0.4-0.2-0.7-0.5-1.1-0.8C296.4,879.4,295.7,879.7,295.8,879.9z"/>
			</g>
			<g id="XMLID_604_">
				<path id="XMLID_605_" d="M286.2,877.9c-2.7-0.2-7.1,0.3-7.6,3.7c-0.4,2.9,0.4,6,3.4,6.8c2.5,0.7,5.5,0.1,8-0.5
					c0.7-0.1,1.7,0.5,2.4,0.6c1.2,0.3,2-0.2,2.8-1c0.2-0.2,0.4-0.3,0.5-0.5c-0.2,0.2-0.6,0.1-0.1,0.2c0.8,0.2,1.5,0.3,2.3,0.4
					c2.3,0.4,4.7,0.7,7,0.8c3.2,0.1,5.9-1.1,7-4.3c0.5-1.5,0.3-3.4-0.4-4.8c-0.7-1.4-2.4-1.3-3.8-1.2c-0.5,0.1-0.5,0.9,0,0.8
					c1.6-0.2,2.8-0.1,3.4,1.6c0.5,1.6,0.2,3.4-0.7,4.8c-1.5,2.5-4.4,2.4-7,2.2c-2.3-0.2-4.6-0.5-6.8-1c-0.4-0.1-0.8-0.1-1.1-0.2
					c-0.6-0.1-1.4,1.1-1.7,1.3c-0.8,0.6-2.5-0.2-3.3-0.6c-0.4-0.2-0.9,0.1-1.3,0.2c-1.1,0.2-2.1,0.4-3.2,0.5
					c-1.9,0.2-4.6,0.3-5.9-1.4c-0.9-1.2-0.9-2.9-0.8-4.3c0-2.5,2.8-3.2,4.8-3.4c0.7-0.1,1.3-0.1,2,0
					C286.7,878.8,286.7,878,286.2,877.9z"/>
			</g>
			<g id="XMLID_602_">
				<path id="XMLID_603_" d="M291.4,880.9c-1.7,1.2-3.8,2.2-5.8,2.8c-0.5,0.2-0.5,0.2,0,0c0.7-0.2,1.5-0.4,2.2-0.6
					c2.4-0.7,4.7-1.6,6.7-3.1C293.7,880.6,292.3,880.3,291.4,880.9z"/>
			</g>
			<g id="XMLID_600_">
				<path id="XMLID_601_" d="M288.6,887.6c3.7-0.9,7.6-2.4,10.1-5.4c-0.3,0.3-1.3,0.1-1.6,0.4c-1.1,1.4-2.6,2.4-4.2,3.3
					c-0.7,0.4-1.5,0.7-2.2,1c-0.4,0.1-0.7,0.3-1.1,0.4c1-0.3,0.7-0.2,0.5-0.1C289.6,887.3,288.9,887.5,288.6,887.6z"/>
			</g>
			<g id="XMLID_598_">
				<path id="XMLID_599_" d="M299.2,881.9c-0.7,1.9-2.1,3.6-3.8,4.8c0.2-0.1,0.6-0.1,0.8-0.2c1.7-1.1,3.1-2.9,3.8-4.8
					C299.9,881.8,299.2,881.7,299.2,881.9z"/>
			</g>
			<g id="XMLID_596_">
				<path id="XMLID_597_" class="st3" d="M275.7,886.9c0.1,0,0.2-0.1,0.2-0.1C275.9,886.7,275.8,886.9,275.7,886.9z"/>
			</g>
		</g>
	</g>
</g>
<g>
	<polygon class="st18" points="168.7,854.1 135.9,867.7 103,854.1 89.4,821.3 103,788.4 135.9,774.8 168.7,788.4 182.3,821.3 	"/>
	<g>
		<path class="st19" d="M111.5,828.8c-0.5,0-1-0.1-1.5-0.1c-0.6-0.1-1.1-0.3-1.6-0.5c-0.4-0.2-0.8-0.5-1.1-0.8
			c-0.2-0.3-0.4-0.6-0.6-0.9c-0.3-0.4-0.4-0.9-0.5-1.4c-0.1-0.4-0.2-0.9-0.3-1.3c-0.1-0.6-0.1-1.2-0.1-1.9c0-0.1,0-0.2,0-0.4
			c0-0.3,0-0.6,0-0.9c0-0.5,0-1.1,0.1-1.6c0.1-0.6,0.2-1.1,0.4-1.7c0.2-0.6,0.5-1.3,0.9-1.8c0.1-0.1,0.2-0.2,0.3-0.3
			c0.4-0.4,0.8-0.6,1.2-0.8c0.4-0.2,0.8-0.3,1.2-0.4c0.7-0.2,1.3-0.2,2-0.2c0.6,0,1.1,0.1,1.7,0.2c0.4,0.1,0.8,0.2,1.1,0.4
			c0.5,0.3,1,0.6,1.4,1.1c0.3,0.4,0.6,0.9,0.8,1.4c0.2,0.5,0.3,0.9,0.4,1.4c0.1,0.4,0.2,0.8,0.2,1.2c0,0.6,0.1,1.3,0.1,1.9
			c0,0.8-0.1,1.6-0.2,2.4c0,0.3-0.1,0.6-0.2,0.9c-0.1,0.4-0.2,0.8-0.3,1.2c-0.2,0.5-0.4,0.9-0.7,1.3c-0.4,0.5-0.9,0.9-1.5,1.1
			c-0.6,0.3-1.2,0.4-1.8,0.5C112.4,828.8,112,828.8,111.5,828.8 M115.2,821.4c0-0.4,0-0.8-0.1-1.1c-0.1-0.7-0.2-1.5-0.3-2.2
			c-0.2-0.6-0.4-1.2-0.9-1.6c-0.3-0.3-0.6-0.5-1-0.5c-0.3-0.1-0.7-0.1-1-0.1c-0.4,0-0.8,0-1.2,0.1c-0.6,0.1-1.1,0.4-1.6,0.9
			c-0.2,0.3-0.4,0.6-0.5,0.9c-0.2,0.4-0.2,0.8-0.3,1.2c-0.1,0.4-0.1,0.8-0.1,1.2c0,0.3,0,0.5,0,0.8c0,0.5-0.1,0.9,0,1.4
			c0,0.2,0,0.4,0,0.6c0,0.3,0.1,0.7,0.1,1c0,0.2,0.1,0.3,0.1,0.5c0.1,0.5,0.3,1,0.5,1.5c0.2,0.3,0.4,0.5,0.7,0.7
			c0.6,0.4,1.2,0.5,1.9,0.5c0.4,0,0.8,0,1.2-0.1c0.6-0.1,1.1-0.3,1.5-0.8c0.3-0.3,0.5-0.7,0.6-1.2c0.1-0.6,0.3-1.1,0.3-1.7
			C115.1,822.5,115.2,821.9,115.2,821.4"/>
		<path class="st19" d="M148.1,813.8c0.6,0,1.1,0,1.7,0.1c0.8,0.1,1.6,0.4,2.2,1c0.4,0.3,0.8,0.7,1,1.2c0.1,0.3,0.3,0.5,0.4,0.8
			c0.1,0.3,0.2,0.6,0.3,1c0.1,0.3,0.1,0.6,0.2,0.9c0.1,0.4,0.1,0.9,0.1,1.3c0.1,0.6,0.1,1.1,0.1,1.7c0,0.3,0,0.6-0.1,1
			c0,0.4-0.1,0.7-0.1,1.1c-0.1,0.5-0.2,1-0.3,1.5c-0.1,0.5-0.3,1-0.6,1.5c-0.4,0.6-1,1.1-1.7,1.4c-0.3,0.1-0.6,0.3-1,0.4
			c-0.7,0.1-1.3,0.2-2,0.2c-0.3,0-0.6,0-0.9,0c-0.3,0-0.6-0.1-0.9-0.1c-0.4-0.1-0.8-0.2-1.1-0.4c-0.3-0.1-0.5-0.3-0.8-0.4
			c-0.3-0.2-0.6-0.5-0.8-0.8c-0.4-0.5-0.6-1.1-0.8-1.7c-0.2-0.6-0.3-1.3-0.4-2c-0.1-0.4-0.1-0.9-0.1-1.3c0-0.4,0-0.7,0-1.1
			c0-0.4,0-0.8,0.1-1.2c0.1-0.5,0.1-1,0.2-1.5c0.1-0.6,0.3-1.1,0.5-1.6c0.2-0.5,0.5-1,0.9-1.4c0.6-0.6,1.3-1,2.1-1.2
			C146.7,813.9,147.4,813.8,148.1,813.8 M151.7,821.4c0-0.4-0.1-0.8-0.1-1.2c0-0.6-0.1-1.1-0.2-1.6c-0.1-0.6-0.3-1.2-0.7-1.7
			c-0.3-0.4-0.7-0.7-1.2-0.9c-0.6-0.2-1.3-0.3-2-0.2c-0.4,0-0.8,0.1-1.1,0.3c-0.4,0.2-0.7,0.5-1,0.8c-0.2,0.3-0.3,0.7-0.5,1
			c-0.2,0.4-0.2,0.9-0.3,1.4c-0.1,0.5-0.1,1.1-0.1,1.6c0,0.6,0,1.1,0.1,1.7c0,0.2,0,0.4,0,0.6c0.1,0.4,0.1,0.8,0.2,1.2
			c0.1,0.5,0.3,0.9,0.6,1.3c0.2,0.2,0.3,0.4,0.5,0.5c0.6,0.3,1.2,0.5,1.9,0.5c0.5,0,1,0,1.4-0.1c0.4-0.1,0.8-0.3,1.1-0.6
			c0.4-0.3,0.6-0.7,0.7-1.2c0.2-0.6,0.3-1.3,0.4-2C151.6,822.4,151.7,821.9,151.7,821.4"/>
		<path class="st19" d="M160.9,828.8c-0.2,0-0.5,0-0.7,0c-0.3,0-0.6-0.1-0.9-0.1c-0.4,0-0.8-0.1-1.2-0.1c-0.4-0.1-0.7-0.1-1.1-0.2
			c0,0,0,0-0.1,0c-0.4-0.2-0.5-0.3-0.4-0.7c0-0.2,0.1-0.5,0.1-0.7c0.1-0.3,0.2-0.4,0.5-0.4c0.3,0,0.6,0.1,0.9,0.1
			c0.5,0,1,0.1,1.4,0.1c0.6,0.1,1.2,0.1,1.8,0.1c0.6,0,1.1-0.2,1.6-0.5c0.3-0.2,0.5-0.5,0.6-0.8c0.2-0.5,0.2-0.9,0.2-1.4
			c-0.1-0.6-0.5-1-1-1.3c-0.6-0.3-1.2-0.4-1.8-0.6c-0.5-0.1-1.1-0.3-1.6-0.5c-0.2-0.1-0.4-0.1-0.6-0.2c-0.3-0.2-0.6-0.3-0.9-0.5
			c-0.7-0.4-1.2-1.1-1.3-1.9c-0.1-0.4-0.1-0.8-0.2-1.2c0-0.3,0-0.7,0.1-1c0-0.3,0.1-0.6,0.2-0.9c0.3-0.6,0.7-1.1,1.2-1.4
			c0.5-0.3,1-0.5,1.6-0.6c0.4-0.1,0.9-0.1,1.3-0.2c0.4,0,0.8,0,1.3,0c1.1,0,2.1,0.2,3.1,0.4c0.4,0.1,0.5,0.2,0.5,0.6
			c0,0.3,0,0.6-0.1,0.9c0,0.3-0.2,0.4-0.5,0.4c-0.2,0-0.4,0-0.5-0.1c-0.4,0-0.9-0.1-1.3-0.1c-0.5,0-1-0.1-1.5-0.1
			c-0.6,0-1.1,0-1.6,0.1c-0.3,0.1-0.6,0.2-0.9,0.5c-0.5,0.5-0.6,1.1-0.5,1.8c0.1,0.6,0.5,0.9,1,1.1c0.8,0.3,1.6,0.6,2.4,0.8
			c0.5,0.2,1.1,0.3,1.6,0.5c0.5,0.2,0.9,0.4,1.3,0.7c0.3,0.2,0.6,0.5,0.8,0.9c0.1,0.3,0.2,0.6,0.3,1c0.2,0.8,0.1,1.6-0.1,2.3
			c-0.1,0.4-0.2,0.7-0.4,1c-0.2,0.4-0.5,0.8-0.9,1.1c-0.5,0.4-1,0.6-1.6,0.8c-0.5,0.1-1.1,0.2-1.6,0.2
			C161.2,828.8,161.1,828.8,160.9,828.8C160.9,828.8,160.9,828.8,160.9,828.8"/>
		<path class="st19" d="M125.4,828.8c-0.8,0-1.5,0-2.2-0.2c-0.9-0.2-1.6-0.6-2.1-1.3c-0.2-0.3-0.3-0.5-0.5-0.8
			c-0.2-0.4-0.3-0.9-0.4-1.3c-0.1-0.4-0.1-0.8-0.2-1.2c-0.1-0.5-0.1-1-0.1-1.4c0-0.3-0.1-0.6-0.1-0.9c0-0.4,0-0.8,0-1.2
			c0-0.2,0-0.5,0-0.7c0-0.5,0.1-0.9,0.1-1.4c0-0.2,0.1-0.4,0.1-0.7c0.1-0.6,0.3-1.2,0.6-1.8c0.2-0.3,0.4-0.6,0.6-0.9
			c0.3-0.4,0.7-0.6,1.2-0.8c0.6-0.3,1.2-0.4,1.9-0.4c0.4,0,0.8,0,1.2,0c0.6,0,1.1,0,1.7,0.1c0.5,0.1,1.1,0.2,1.6,0.3
			c0.3,0.1,0.5,0.2,0.5,0.5c0,0.3,0,0.6-0.1,1c0,0.2-0.2,0.4-0.5,0.4c-0.1,0-0.1,0-0.2,0c-0.5-0.1-1-0.2-1.6-0.2c-0.7,0-1.3,0-2,0
			c-0.6,0-1.1,0.2-1.6,0.5c-0.3,0.2-0.6,0.5-0.7,0.9c-0.3,0.5-0.4,1.1-0.5,1.7c-0.1,0.9-0.2,1.9-0.1,2.8c0,0.8,0.1,1.6,0.2,2.4
			c0.1,0.5,0.2,0.9,0.4,1.4c0.2,0.4,0.6,0.7,1,0.9c0.7,0.3,1.4,0.4,2.1,0.4c0.4,0,0.8,0,1.2-0.1c0.5-0.1,1.1-0.1,1.6-0.2
			c0,0,0,0,0.1,0c0.3,0,0.5,0.1,0.5,0.4c0,0.3,0,0.7,0,1c0,0.2-0.1,0.4-0.4,0.5c-0.3,0.1-0.7,0.2-1,0.2c-0.5,0.1-1,0.1-1.5,0.1
			C126,828.8,125.7,828.8,125.4,828.8"/>
		<path class="st19" d="M134.6,822.3c0-1.7,0-3.3,0-5c0-0.2,0-0.5,0-0.7c0-0.3-0.2-0.5-0.5-0.6c-0.3,0-0.6,0-0.9,0
			c-0.7,0-1.4,0-2.1,0c-0.1,0-0.2,0-0.4-0.1c-0.1,0-0.2-0.1-0.3-0.3c0-0.1,0-0.1,0-0.2c0-0.3,0-0.7,0-1c0-0.3,0.1-0.4,0.5-0.4
			c0.2,0,0.4,0,0.6,0c2.6,0,5.2,0,7.7,0c0.4,0,0.7,0,1.1,0c0.4,0,0.6,0.2,0.6,0.6c0,0.3,0,0.5,0,0.8c0,0,0,0.1,0,0.1
			c0,0.3-0.2,0.5-0.5,0.5c-0.2,0-0.4,0-0.5,0c-0.6,0-1.1,0-1.7,0c-0.3,0-0.5,0-0.8,0c-0.1,0-0.1,0-0.2,0c-0.2,0.1-0.4,0.2-0.4,0.5
			c0,0.2,0,0.5,0,0.7c0,3.3,0,6.6,0,9.9c0,0.2,0,0.4,0,0.6c0,0.1,0,0.3,0,0.4c0,0.2-0.1,0.3-0.3,0.3c0,0,0,0-0.1,0c-0.5,0-1,0-1.4,0
			c-0.3,0-0.4-0.2-0.4-0.5c0-0.1,0-0.2,0-0.2C134.6,826,134.6,824.2,134.6,822.3L134.6,822.3z"/>
	</g>
</g>
<g>
	<g id="XMLID_114_">
		<g id="XMLID_379_">
			<defs>
				<rect id="XMLID_212_" x="-78.9" y="754.4" width="69.2" height="101.3"/>
			</defs>
			<clipPath id="XMLID_4_">
				<use xlink:href="#XMLID_212_"  style="overflow:visible;"/>
			</clipPath>
			<g id="XMLID_381_" class="st20">
				<g id="XMLID_508_">
					<path id="XMLID_92_" class="st12" d="M-25.5,831.3c0,0-1.2,13.2-4.4,25.6C-33,869.3-35.5,826.7-25.5,831.3z"/>
					<g id="XMLID_102_">
						<g>
							<path class="st21" d="M-26.6,831.4c-0.5,5.3-1.3,10.5-2.2,15.7c-0.7,3.7-1.7,7.3-2.5,10.9c0,0.1-0.5,0.8-0.4,0.9
								c0.1,0.3,1.3,0,1.4-0.3c0-0.1-0.2-0.3-0.2-0.5c-0.4-2.8-0.9-5.5-0.9-8.4c-0.1-3.7,0.1-7.5,0.9-11.2c0.3-1.5,1.6-8.1,4.2-6.9
								c0.5,0.2,2.5-0.3,1.9-0.6c-8.4-3.6-9,11.4-9.1,16.1c-0.1,3.5-0.5,8,0.9,11.3c0.4,1,1,1.4,2.1,1.1c1.2-0.3,1.5-1.3,1.8-2.4
								c2.4-8.4,3.7-17.3,4.5-26C-24.4,830.7-26.5,830.7-26.6,831.4z"/>
						</g>
					</g>
					<path id="XMLID_100_" class="st22" d="M-26.3,831.3c0,0-2.6,0.5-2.8,5.7c-0.2,5.2,1.3,8.2,1.3,8.2l-2.1,10
						C-30,855.2-32.9,829-26.3,831.3z"/>
				</g>
				<g id="XMLID_382_">
					<path id="XMLID_90_" class="st5" d="M-27.5,830.4c0,0-8.6-7.2-16.4-5.8c-7.8,1.4-16,2.6-18.8,9.2c-2.8,6.6-3.6,15.2-3.4,15.8
						c0.2,0.6,5.4,5.5,11.2,5.7v-6.7c0,0-2.2,0.6-3.8-2.2l1.6-7.3l2,4.3l27.5-12.1"/>
					<g id="XMLID_305_">
						<g>
							<path d="M-26.7,830.4c-2.9-2.4-6.3-4.3-9.9-5.5c-5.4-1.8-11-0.6-16.4,0.9c-2.6,0.7-5.2,1.7-7.4,3.3c-2.4,1.9-3.5,4.4-4.4,7.2
								c-0.9,2.9-1.6,6-2,9.1c-0.1,1.1-0.7,3-0.2,4.1c0.7,1.5,3.5,2.9,4.8,3.6c2.6,1.5,5.5,2.5,8.6,2.8c0.3,0,0.6,0,0.6-0.3
								c0-2.2,0-4.5,0-6.7c0-0.6-1.5-0.8-1.9-0.7c-3.5,0.6-2.5-2.4-2.1-4c0.3-1.5,0.7-3.1,1-4.6c-0.7-0.2-1.4-0.4-2.1-0.6
								c0.7,1.4,1.3,2.8,2,4.3c0.2,0.5,1.3,1,1.9,0.7c9.2-4,18.4-8.1,27.5-12.1c0.8-0.3-1.1-1.3-1.7-1c-9.2,4-18.4,8.1-27.5,12.1
								c0.6,0.2,1.2,0.5,1.9,0.7c-0.7-1.4-1.3-2.8-2-4.3c-0.2-0.4-1.9-1.3-2.1-0.6c-0.3,1.2-0.5,2.4-0.8,3.7c-0.2,0.9-1,2.7-0.8,3.7
								c0.4,2.4,4.5,3.4,6.5,3.1c-0.6-0.2-1.2-0.5-1.9-0.7c0,2.2,0,4.5,0,6.7c0.2-0.1,0.4-0.2,0.6-0.3c-3.5-0.3-6.9-1.9-9.6-4.1
								c-1.3-1-1-1.8-0.8-3.4c0.6-5.4,1.6-13,5.9-16.8c2.2-1.9,5.1-3,7.9-3.7c3-0.8,6.4-1.7,9.5-1.7c4.7-0.1,9.6,2.5,13.2,5.5
								C-27.9,830.8-25.8,831.1-26.7,830.4L-26.7,830.4z"/>
						</g>
					</g>
					<path id="XMLID_304_" class="st6" d="M-55.5,827.8c0,0,7.1,8.1,17.5-0.5c0,0-11.3,1.5-15.1-0.7L-55.5,827.8z"/>
					<g id="XMLID_484_">
						<path id="XMLID_303_" class="st5" d="M-43.6,887.8c0,0-0.5,0.8,0.2,1.8c0.6,1,0.2,1.4,0,1.6c-0.2,0.2-3.9,1.2-6.6,0.9
							c-2.7-0.3-3.9-1.5-2.9-2.7c1-1.2,2.6-1,2.6-1s3.6,0.3,3.9-0.7L-43.6,887.8z"/>
						<path id="XMLID_302_" class="st6" d="M-50.3,888.4c0,0-1.8,1.9-1.2,3.4c0,0,2.7,0.4,4.1,0.3c0,0-1.4-2.3-0.7-3.7L-50.3,888.4z
							"/>
						<path id="XMLID_301_" class="st6" d="M-47.4,888.4c0,0,0.7,0.1,1.8,0.5c1.1,0.4,2.3,1.3,2.3,1.3s-1-1.3-0.2-2.4l-2.9-0.1
							L-47.4,888.4z"/>
						<g id="XMLID_493_">
							<path id="XMLID_300_" class="st23" d="M-48.4,888.4c0,0-1.1-1.7-2.1,0.8c0,0-0.1,2.1,0.5,2.7c0,0-2.2,0.2-2.9-1l-0.4,0.4
								c0,0-0.8,1.6,2.5,2.2c3.3,0.6,6.7-0.3,7.7-0.9c1-0.6,0.6-1.5,0.1-1.7c0,0-2.4,1.3-5,1C-48.2,891.9-49.4,888.9-48.4,888.4z"/>
							<path id="XMLID_299_" class="st24" d="M-53.4,891.3c0,0,0.5,1.6,4.4,1.4c3.9-0.2,5.7-0.5,5.9-1.7c0,0-2.2,0.9-4.4,1
								c-2.2,0.1-4.9,0.2-5.4-1c-0.5-1.2-0.1-0.1-0.1-0.1L-53.4,891.3z"/>
						</g>
						<g id="XMLID_491_">
							<path id="XMLID_298_" d="M-50.2,888.3c-1.1,0.2-2.1,0.2-2.9,1.1c-0.4,0.4-0.3,1-0.2,1.5c0.2,0.6,0.7,0.8,1.3,1
								c1.3,0.4,2.9,0.4,4.3,0.3c1.6-0.1,3.1-0.3,4.6-1c0,0,0.1-0.1,0.1-0.1c0.1-0.5,0-1-0.2-1.5c-0.1-0.2-0.2-0.4-0.3-0.7
								c-0.2-0.5-0.1-0.7,0.2-1.2c0.1-0.2-0.4-0.1-0.4,0c-0.2,0.4-0.5,0.6-0.3,1.1c0.3,0.6,0.5,1.2,0.6,1.8c0.1,1.2-3.8,1.2-4.6,1.3
								c-0.7,0-1.4,0-2-0.1c-0.8,0-1.7-0.1-2.4-0.7c-0.5-0.5-0.5-1.3-0.2-1.9c0.5-0.7,1.6-0.7,2.4-0.8
								C-50.1,888.5-49.9,888.2-50.2,888.3L-50.2,888.3z"/>
						</g>
						<g id="XMLID_489_">
							<path id="XMLID_297_" d="M-46.6,887.8c-0.5,0.4-1.1,0.4-1.7,0.4c-0.2,0-0.5,0.3-0.2,0.3c0.8,0,1.6-0.1,2.2-0.5
								C-46,887.8-46.4,887.7-46.6,887.8L-46.6,887.8z"/>
						</g>
						<g id="XMLID_487_">
							<path id="XMLID_296_" d="M-48.1,888.3c-0.7-1-1.9-0.4-2.4,0.4c-0.6,0.9-0.2,2.4,0.2,3.3c0,0.1,0.1,0.1,0.1,0.1
								c0.7,0,1.3,0,2,0c0.1,0,0.4-0.1,0.3-0.2C-48.4,890.9-48.9,889.3-48.1,888.3c0.1-0.1-0.3,0-0.4,0.1c-0.8,1-0.4,2.6,0.2,3.6
								c0.1-0.1,0.2-0.1,0.3-0.2c-0.4,0-0.9,0-1.3,0c-0.2,0-0.4,0-0.6,0c0.1,0,0.1,0.1,0.1,0c0-0.1-0.1-0.2-0.1-0.3
								c-0.3-0.7-0.4-1.5-0.3-2.2c0.1-0.8,1.1-1.7,1.8-0.8C-48.5,888.6-48,888.4-48.1,888.3z"/>
						</g>
						<g id="XMLID_485_">
							<path id="XMLID_295_" d="M-53.1,891.1c-1.1,0.1-0.7,1.4-0.1,1.8c1.3,1,3.4,1,5,0.9c1,0,7.8-0.8,5.1-3.1
								c-0.1-0.1-0.6,0.1-0.4,0.3c2,1.7-2.8,2.3-3.6,2.4c-1.6,0.2-3.2,0.2-4.7-0.3c-0.4-0.1-0.8-0.3-1.2-0.6
								c-0.2-0.2-0.7-1.1-0.2-1.1C-52.9,891.4-52.8,891-53.1,891.1L-53.1,891.1z"/>
						</g>
					</g>
					<path id="XMLID_294_" class="st6" d="M-60.5,834c0,0,1,3.6,0.6,5.6c-0.4,2-1.3,5.9-1.3,5.9s-3.3,0.5-2.1,2.9
						c0,0,2.2-1.5,2.7-0.9c0.5,0.7,3.2,3.7,5.9,2.7l0.2-1.9c0,0-4.5,0.1-4.1-2.1l1.4-7C-57.1,839.3-59.8,834.1-60.5,834z"/>
					<g id="XMLID_467_">
						<path id="XMLID_293_" class="st23" d="M-32,892.4c0,0,1-1.8,0.1-3.2c-0.9-1.4-8.4-1.6-8.3,1.1c0,2.7,0.9,2.4,0.9,2.4
							L-32,892.4z"/>
						<path id="XMLID_292_" class="st24" d="M-31.9,890.2c-0.9-1.4-7.8-1.6-8.3,0.8c0-0.2,0-0.5,0-0.8c0-2.7,7.4-2.5,8.3-1.1
							c0.4,0.6,0.4,1.3,0.4,1.9C-31.6,890.8-31.7,890.5-31.9,890.2z"/>
						<path id="XMLID_291_" class="st5" d="M-39.3,891c-0.6,0.9-0.2,1.4,0,1.6c0.2,0.2,3,1.1,5.1,0.8c2.1-0.3,3-1.5,2.2-2.7
							c-0.8-1.2-2-1-2-1S-38.1,889.2-39.3,891z"/>
						<path id="XMLID_290_" class="st6" d="M-39.3,891c1.2-1.8,5.3-1.3,5.3-1.3s1.2-0.2,2,1c0.4,0.6,0.3,1.2-0.1,1.7
							c0-0.2-0.1-0.4-0.1-0.5c-0.7-2.4-1.9-2-1.9-2s-3.9-1.2-5,2.4c0,0.1-0.1,0.3-0.1,0.4c-0.1,0-0.1-0.1-0.1-0.1
							C-39.5,892.4-39.9,891.9-39.3,891z"/>
						<g id="XMLID_476_">
							<path id="XMLID_289_" class="st23" d="M-34.1,893.3c0,0,1.7,0.2,2.2-1.1l0.3,0.4c0,0,0.6,1.6-1.9,2.2c-2.5,0.6-5.1-0.2-6-0.8
								c-0.8-0.6-0.5-1.5-0.1-1.7c0,0,1.9,1.3,3.9,0.9"/>
							<path id="XMLID_288_" class="st24" d="M-31.6,892.6c0,0-0.3,1.6-3.4,1.5c-3-0.1-4.4-0.5-4.6-1.6c0,0,1.7,0.9,3.4,0.9
								c1.7,0.1,3.8,0.1,4.2-1.1c0.4-1.2,0.1-0.1,0.1-0.1L-31.6,892.6z"/>
						</g>
						<g id="XMLID_474_">
							<path id="XMLID_287_" d="M-31.8,892.4c0.9,0,0.5,1.4,0.1,1.8c-1,1-2.6,1.1-3.9,1c-0.7,0-6.1-0.7-4-3c0.1-0.1,0.4,0.1,0.3,0.3
								c-1.5,1.7,2.2,2.2,2.9,2.3c1.2,0.2,2.5,0.1,3.7-0.3c0.3-0.1,0.6-0.3,0.9-0.6c0.1-0.2,0.5-1.1,0.1-1.1
								C-31.9,892.7-32,892.4-31.8,892.4L-31.8,892.4z"/>
						</g>
						<g id="XMLID_472_">
							<path id="XMLID_286_" class="st3" d="M-40.4,890c0.1-1,1.2-1.3,1.8-1.6c1.2-0.4,2.5-0.5,3.7-0.4c1,0.1,2,0.2,2.9,0.7
								c1,0.7,0.8,2.6,0.3,3.6c0,0-0.1,0.1-0.1,0.1c0-0.1-0.1-0.3-0.1-0.4c0.4-1.1,0.5-2.6-0.5-3.2c-0.9-0.5-2.1-0.6-3.1-0.6
								c-1.1,0-2.2,0.1-3.2,0.5c-1.1,0.5-1.3,1.4-1,2.9c0.1,0.5,0.3,0.8,0.5,0.8c0,0.1,0,0.2,0,0.3c0,0,0,0-0.1,0
								C-40.3,892.6-40.5,890.9-40.4,890z"/>
						</g>
						<g id="XMLID_470_">
							<path id="XMLID_285_" class="st3" d="M-39.6,892c1.9,0.8,3.9,1.5,5.9,1c0.5-0.1,1.1-0.4,1.5-0.9c0.1-0.1,0.3-0.1,0.5-0.1
								c-0.1,0.2-0.1,0.4-0.2,0.5c-0.5,0.4-1.2,0.7-1.8,0.8c-2.1,0.5-4.3-0.1-6.2-0.9c-0.1-0.1-0.2-0.3-0.2-0.4
								C-39.9,892-39.7,891.9-39.6,892z"/>
						</g>
						<g id="XMLID_468_">
							<path id="XMLID_284_" class="st3" d="M-31.6,891.1c-0.8-1.5-2.9-1.7-4.4-1.6c-1.3,0.1-4,0.8-3.9,2.6c0,0.1,0.3,0.1,0.3,0
								c-0.1-1.4,1.9-2.1,3-2.3c1.5-0.3,3.9-0.3,4.7,1.4C-31.9,891.2-31.5,891.2-31.6,891.1L-31.6,891.1z"/>
						</g>
					</g>
					<path id="XMLID_283_" class="st25" d="M-32.7,825c0,0-0.3-1.9-2.7,0c-2.4,1.9-18.2,17-18.2,17s-3.5,2.3-1.2,5.2
						c0,0,0.1,15-0.8,20.2c-0.8,5.2,2.1,6.1,2.1,6.1l-0.9,13.4c0,0,12.6,5.2,26.2-1.2l-2.4-47.4c0,0,1.1-9.3,5.1-7
						c0,0-0.9-4.3-2.9-3.7C-28.4,827.6-29.2,822.5-32.7,825z"/>
					<path id="XMLID_282_" class="st12" d="M-30,869.5c0,0,1.8,17.2-8.9,19c0,0,7.1-0.2,10.7-3.1l-1.3-18.9L-30,869.5z"/>
					<path id="XMLID_281_" class="st12" d="M-28.4,827.4c0,0-1.7-4.1-4.6-0.6c-2.9,3.6-5.7,9.9-8,13.8c0,0,6.2-9.4,7.3-10.1
						c1.1-0.6-5.4,7.2-8.7,16.3c-3.3,9.2-8.5,26.2-8.5,26.2s13.1-42,22.1-45.3"/>
					<path id="XMLID_280_" class="st12" d="M-49.4,875.9l-4.9,11.1c0,0,0.7,1.8,13.8,1.9C-40.4,888.9-53.8,886.8-49.4,875.9z"/>
					<polygon id="XMLID_279_" class="st26" points="-38.3,827.1 -54.8,839.4 -55.1,843.5 					"/>
					<path id="XMLID_278_" class="st12" d="M-33,825.2c0,0-14.6,12.2-18.6,20.4c-4.1,8.2,1.1,0.3,0.5,2c-0.6,1.7-4.8,10.3-3.1,10.3
						C-54.3,857.8-45.7,837.6-33,825.2z"/>
					<g id="XMLID_459_">
						<path id="XMLID_277_" d="M-32.3,824.9c-0.9-3.7-11.3,7.3-12.2,8.1c-2.9,2.7-5.7,5.4-8.6,8.1c-1.3,1.3-3.9,3.2-2.7,5.3
							c1.6,2.8,0.5,8.2,0.4,11.3c-0.1,2.6-0.2,5.2-0.4,7.8c-0.2,2.2-0.7,4.3,0.2,6.5c0.3,0.7,1,1.4,1.7,1.7c0,0-0.2,2.3-0.2,2.9
							c-0.2,3.5-0.5,6.9-0.7,10.4c0,0.1,0.1,0.2,0.2,0.2c8.4,3.4,18.5,2.4,26.6-1.2c0.1-0.1,0.2-0.2,0.2-0.3c-0.5-9.5-1-19-1.4-28.4
							c-0.3-5.3-0.5-10.6-0.8-15.9c-0.1-2.5,0-11.7,4.2-9.8c0.2,0.1,0.8,0,0.7-0.3c-0.3-1.3-0.8-2.5-1.7-3.5c-0.8-0.8-1,0.2-1.3-0.9
							c-0.7-2.6-2.6-3.2-4.8-2c-0.5,0.3,0.2,0.5,0.5,0.3c2.5-1.4,3.4,1.1,3.7,2.6c0,0.1,0.2,0.2,0.3,0.2c1.7-0.1,2.2,2.2,2.5,3.4
							c-0.1-0.5,0.3-0.7-0.7-0.6c-1.4,0.1-2.1,0.9-2.8,2.1c-1.2,1.9-1.6,4.5-1.5,6.7c0.5,9.4,0.9,18.8,1.4,28.1
							c0.2,4.6,0.5,9.2,0.7,13.8c0.1,1.3,0.1,2.6,0.2,3.8c0.1,2-8.7,3-10.3,3.2c-4.2,0.5-8.5,0.1-12.6-0.9c-1.6-0.4-2.5-0.3-2.4-1.5
							c0.3-4.2,0.6-8.4,0.9-12.6c0-0.1-0.1-0.2-0.2-0.2c-2.7-1-2-4.9-1.8-7.1c0.4-3.1,0.4-6.3,0.5-9.5c0.1-2.8,0.1-5.6,0.1-8.3
							c0-2.3-1.2-4.6,1.1-6.2c3-2.1,5.6-5.3,8.3-7.9c2.1-2,4.3-4,6.4-6c0.4-0.3,5.1-5,5.6-3.2C-33,825.4-32.2,825.2-32.3,824.9z"/>
					</g>
					<path id="XMLID_276_" class="st12" d="M-25.7,831.1c0,0-2-3.4-4.3-0.4c-2.3,3-6.8,15.6-6.8,15.6s-4.3,15.9-7.1,20.2
						c-2.7,4.3,0.1,6.2,10.4-18.1c0,0,2-0.9-1.8,10c-3.9,10.9-9.8,22.4-7.2,20.1c2.6-2.3,9.6-7.9,12.1-35.1
						C-30.3,843.4-32.2,828.5-25.7,831.1z"/>
					<path id="XMLID_275_" class="st12" d="M-38.8,836.9c0,0-6.7,2.8-12.3,19.8c-5.6,16.9-2.3,14.7-2.3,14.7S-46.6,841.7-38.8,836.9
						z"/>
					<g id="XMLID_455_">
						<path id="XMLID_274_" d="M-33,825.2c-8.9,9.2-16.6,20.6-21.2,32.6c0.1-0.2,0.6-0.2,0.7-0.4c4.6-12,12.3-23.4,21.2-32.6
							C-32.5,824.9-32.9,825-33,825.2L-33,825.2z"/>
					</g>
					<g id="XMLID_453_">
						<path id="XMLID_273_" d="M-53.1,873.3c0.8-5,2.1-10,3.5-14.9c2.2-7.4,5-16.1,10.8-21.5c-0.2,0.2-0.5,0.2-0.7,0.4
							c-5.9,5.4-8.6,14.1-10.8,21.5c-1.4,4.9-2.7,9.9-3.5,14.9C-53.8,873.6-53.1,873.5-53.1,873.3L-53.1,873.3z"/>
					</g>
					<path id="XMLID_272_" class="st12" d="M-30.9,849.6c0,0,1.2,18.8-6.9,27.4c-8.1,8.6-8.4,3.5-8.4,3.5s-3.7,6.6,8.4,5.6
						c0,0,9.1-4.2,7.8-36.5H-30.9z"/>
					<g id="XMLID_450_">
						<path id="XMLID_271_" d="M-28,827.4c-1.3,0.4-2.6,1.7-3.5,2.6c-4.3,4.6-7,10.8-9.5,16.6c-3.8,8.9-7,18-10.1,27.1
							c0.1-0.2,0.6-0.2,0.7-0.4c2.6-7.7,5.3-15.3,8.3-22.8c2.2-5.4,4.5-10.9,7.5-15.9c1.2-2,2.6-4,4.3-5.7c0.4-0.4,0.8-0.8,1.3-1.1
							c0.5-0.4-0.4,0.1,0.2-0.1C-28.5,827.8-28.3,827.5-28,827.4L-28,827.4z"/>
					</g>
					<g id="XMLID_448_">
						<path id="XMLID_270_" d="M-30.7,842.9c-0.5,9.1-2,18.6-5.7,27c-1.1,2.5-2.5,4.9-4.3,6.9c-0.3,0.3-3.8,4-3.5,1.9
							c0.4-2.7,2.5-5.6,3.9-7.9c-0.1,0.2-0.6,0.2-0.7,0.4c-0.7,1.2-1.4,2.3-2,3.5c-0.7,1.3-2,3.2-1.9,4.7c0,0.8,1.4-0.2,1.7-0.3
							c2.4-1.5,4.3-3.8,5.8-6.3c3.5-5.7,5-12.7,6.1-19.2c0.6-3.7,1.1-7.5,1.3-11.2C-30,842.7-30.7,842.8-30.7,842.9L-30.7,842.9z"/>
					</g>
					<g id="XMLID_446_">
						<path id="XMLID_269_" d="M-29.8,861.1c-0.1,3.3-0.5,6.5-1.1,9.7c-1,5.4-2.7,11.4-6.9,15.3c0.2-0.2,0.5-0.2,0.7-0.4
							c4.1-3.8,5.8-9.6,6.8-14.8c0.7-3.3,1.1-6.8,1.2-10.2C-29.1,860.8-29.8,860.9-29.8,861.1L-29.8,861.1z"/>
					</g>
					<path id="XMLID_268_" class="st5" d="M-25.3,831.4c0-0.1-4-1.6-4.6,4.9l2.6,7.2c0,0-0.7,1.9-4.9,2.2c-1.5,0.1-2.8,0.2-3.8,0.3
						c0,1.1,0,2.3,0,3.4c2.7-0.6,14.9,2,16.6-2.3C-19.4,847.2-20.9,837.9-25.3,831.4z"/>
					<path id="XMLID_267_" class="st27" d="M-20.2,843.8c0,0-0.1,3.3-1.3,3.6c-1.3,0.2-5.6,0.4-6.9,0c-1.3-0.4-7.4,0.6-7.8,0.9
						c-0.4,0.2,0.5,0.9-0.5,1.4c-1,0.5,2.2-0.5,5.1,0c2.9,0.5,12.2,0.6,12.2-2.2C-19.4,845.1-20.2,843.8-20.2,843.8z"/>
					<path id="XMLID_266_" class="st6" d="M-25.5,831.5c0,0-3.5,0.6-2.5,4.3c1,3.6,2.8,7,2.8,7l-2.1,1l-2.5-7.4
						C-29.9,836.3-29.7,830.3-25.5,831.5z"/>
					<g id="XMLID_441_">
						<path id="XMLID_265_" d="M-19.2,847.2c0-0.1-1.5-9.4-5.9-15.9c-0.1-0.2-0.7-0.3-1.2-0.3c-1.2,0-3.3,0.7-3.7,5.3l0,0l2.5,7.2
							c-0.2,0.3-1.1,1.7-4.7,2.1c-1.5,0.1-2.7,0.2-3.7,0.3c0,0.1,0,0.3,0,0.4c1-0.1,2.2-0.2,3.7-0.3c4.3-0.4,5-2.3,5-2.4l0-0.1
							l-2.6-7.2c0.4-4.3,2.2-4.9,3.3-4.9c0.5,0,0.8,0.1,0.9,0.2c4.2,6.1,5.7,14.8,5.8,15.6c-0.7,1.6-3,2.3-7.2,2.3
							c-1.6,0-3.3-0.1-4.7-0.2c-1.2-0.1-2.3-0.1-3.1-0.1c-0.5,0-0.8,0-1.1,0.1c0,0.1,0,0.3,0,0.4c0.3,0,0.6-0.1,1.1-0.1
							c0.8,0,1.9,0.1,3.1,0.1c1.5,0.1,3.1,0.2,4.7,0.2c0,0,0,0,0,0c2.8,0,6.7-0.3,7.6-2.6L-19.2,847.2L-19.2,847.2z"/>
					</g>
					<g id="XMLID_439_">
						<path id="XMLID_264_" d="M-54.6,843.4c-1.5-3.2-3.2-6.4-5.2-9.4c-0.1-0.2-0.9-0.2-0.8,0c1.9,3,3.7,6.1,5.2,9.4
							C-55.3,843.6-54.5,843.6-54.6,843.4L-54.6,843.4z"/>
					</g>
					<g id="XMLID_437_">
						<path id="XMLID_263_" d="M-58.5,846.2c-1.9-0.3-4.6,0-5.5,2.1c-0.1,0.2,0.7,0.3,0.8,0.1c0.7-1.7,2.8-2.1,4.5-1.9
							C-58.4,846.6-58,846.3-58.5,846.2L-58.5,846.2z"/>
					</g>
					<g id="XMLID_435_">
						<path id="XMLID_262_" d="M-22.4,843c-1.8-1.7-3.6-0.2-5.4,1.2c0,0.1,0.1,0.1,0.1,0.2c1.7-1.3,3.4-2.6,5-1.2
							C-22.6,843.3-22.3,843.1-22.4,843z"/>
					</g>
					<g id="XMLID_404_">
						<path id="XMLID_261_" class="st5" d="M-66.1,805.4c0,0-6.8-6.3-8.3-4.3c-1.5,2-0.2,9.6,3.8,12c4,2.4,7.9,3.5,7.9,3.5
							s0.6,6.9,5,8.7c4.4,1.7,15.7,4.7,21.6,1.6c5.9-3.2,8.7-3.3,9.9-13.2c0,0,9.6-1.2,11.6-7.6c2.1-6.4,2-7.3-0.1-7.7
							c-2-0.4-8.4,5.3-8.4,5.3s9.2-13.8,9.2-22.3c0-8.5-7.6-22.2-26.2-23.6c-18.6-1.4-29.7,5-34.6,17.2
							C-79.4,787.1-66.6,803.3-66.1,805.4"/>
						<g id="XMLID_427_">
							<path id="XMLID_260_" class="st6" d="M-39.5,809.5c0,0,2.9-6.8,8.9-0.7C-30.6,808.8-33.8,806.8-39.5,809.5z"/>
							<path id="XMLID_259_" class="st6" d="M-57.5,810c0,0,2.9-6.8,8.9-0.7C-48.5,809.3-51.8,807.3-57.5,810z"/>
							<path id="XMLID_258_" class="st17" d="M-58.8,807.5c0,0,8.2-3.8,10.7-1.4C-48.1,806.1-53.8,801.3-58.8,807.5z"/>
							<path id="XMLID_257_" class="st17" d="M-41.3,805.7c0,0,2.7,1.9,5.1-1c0.6-0.7,1.2-1.2,1.8-1.5c1.9-1,3.7-0.7,4-0.1
								c0,0-0.5-2.9-3.7-2.1C-37.3,801.8-39.4,806.5-41.3,805.7z"/>
							<path id="XMLID_256_" d="M-56.5,810.3c2.2-1.5,5.2-1.9,7.6-0.7c0.4,0.2,1.7-0.5,1.5-0.6c-3.3-1.6-7.3-0.8-10.3,1.2
								C-58.4,810.7-56.8,810.5-56.5,810.3z"/>
							<path id="XMLID_255_" d="M-38.9,809.8c2.2-1.5,5.2-1.9,7.6-0.7c0.4,0.2,1.7-0.5,1.5-0.6c-3.3-1.6-7.3-0.8-10.3,1.2
								C-40.8,810.2-39.2,810-38.9,809.8z"/>
						</g>
						<path id="XMLID_254_" class="st6" d="M-46.3,822.4c0,0,3,1.6,5.8-0.3C-40.6,822.1-42.4,826.8-46.3,822.4z"/>
						<path id="XMLID_253_" class="st9" d="M-64.4,805c0,0-12-21.8-4.1-30.8c7.9-9,8.2-4.6,8.2-4.6s5.1,15.6,19.3,7.8
							c12.9-7.1,15.3-4.8,15.3-4.8s9.9,7,7.3,19c0,0,15.8-30.1-29.4-32.5C-47.9,759-92.5,764.3-64.4,805z"/>
						<path id="XMLID_252_" class="st6" d="M-62.1,816.7c0,0,1.6,6.9,9,8.5c7.4,1.6,13.5,2.5,20.9-2.8c0,0,5-2.3,5.9-8.3
							c0,0,0.1,11.4-12,13.5c-12.1,2.1-17.6-1.4-17.6-1.4S-62,824.9-62.1,816.7"/>
						<path id="XMLID_251_" class="st10" d="M-46.7,814.2c0,0,0,1.6,3,1.6c2.9,0,2-2.1,2-2.1s2.6,0.8,1,2.1
							c-1.6,1.2-4.5,1.1-5.4,0.7C-47.1,816-47.6,815.2-46.7,814.2z"/>
						<path id="XMLID_250_" class="st6" d="M-72.6,803.9l1.2,2.2l1.4,4.8l1.1-3.5c0,0,5.3,5.2,6.2,7.8
							C-62.6,815.3-66,805.6-72.6,803.9z"/>
						<path id="XMLID_249_" class="st6" d="M-15.6,801.5l-1.2,1.2c0,0,1,4.1-2.8,5.6c0,0,0.7-3,0.1-3.5c0,0-5.2,3.4-6.2,6.7
							C-25.8,811.6-23.3,802.8-15.6,801.5z"/>
						<path id="XMLID_418_" class="st14" d="M-52.3,827l-0.2,0.4c0,0,0.1,0,0.1,0c1.1,0.3,2.5,0.5,4.2,0.7c-1.1-0.2-1.7-0.4-1.7-0.4
							L-52.3,827 M-33.2,825.7c0,0-0.1,0-0.2,0c0.1,0,0.1,0.1,0.2,0.1C-33.2,825.9-33,825.7-33.2,825.7"/>
						<path id="XMLID_246_" d="M-52.7,820.1c0-0.8,0.4-1.6,1-2c0.2-0.1-0.4-0.2-0.5-0.2c-0.7,0.4-1.1,1.3-1.1,2.1
							C-53.3,820.2-52.7,820.2-52.7,820.1z"/>
						<path id="XMLID_245_" d="M-34.7,815.3c0.6,0.5,1,1.2,0.9,2c0,0.2,0.6,0.2,0.6,0c0.1-0.9-0.4-1.7-1-2.2
							C-34.3,815.1-34.9,815.1-34.7,815.3z"/>
						<path id="XMLID_244_" d="M-41.9,814c0.6,0.1,2,0.6,1.2,1.5c-0.9,1-2.7,1-3.9,0.9c-0.6,0-2.6-0.1-2.3-1.3
							c0.1-0.4,0.4-0.7,0.6-0.9c0.3-0.3-0.1-0.7-0.4-0.4c-0.4,0.4-0.8,1-0.8,1.6c-0.1,1.5,2.2,1.6,3.1,1.7c1.4,0.1,3.5-0.1,4.3-1.5
							c0.7-1.2-0.8-2-1.7-2.1C-42.1,813.3-42.3,813.9-41.9,814z"/>
						<path id="XMLID_243_" class="st3" d="M-52.5,818.7c0,0,9.7,5.2,18.8-2.7C-33.8,816.1-41.4,824.7-52.5,818.7z"/>
						<path id="XMLID_242_" d="M-52.5,818.7l-0.1,0.3c0,0,3,1.6,7.2,1.7c3.5,0.1,7.8-0.8,11.9-4.4l-0.2-0.2l-0.2-0.2l0,0
							c-0.1,0.1-1.3,1.3-3.2,2.5c-1.9,1.2-4.7,2.2-8,2.1c-2.2-0.1-4.6-0.6-7.3-2l-0.3,0.6L-52.5,818.7l-0.1,0.3
							c2.7,1.5,5.2,2,7.5,2.1c3.5,0.1,6.4-1.1,8.5-2.3c2-1.2,3.1-2.5,3.1-2.5l-0.4-0.5c-4.1,3.5-8.2,4.4-11.6,4.3
							c-2-0.1-3.8-0.5-5-0.9c-0.6-0.2-1.1-0.4-1.4-0.5c-0.2-0.1-0.3-0.1-0.4-0.2c0,0-0.1,0-0.1,0l0,0l0,0l-0.3,0.6L-52.5,818.7z"/>
						<path id="XMLID_241_" d="M-45.9,823c1.9,0.5,4.2,0.6,5.9-0.6c0.3-0.2-0.7-0.7-1-0.6c-1.5,1-3.4,1-5,0.5
							C-46.8,822.2-46.4,822.8-45.9,823z"/>
						<path id="XMLID_240_" d="M-63.1,810l0.5-0.4c0,0,0,0,0,0c-0.4-0.5-3.5-5.1-6.5-11c-1.5-2.9-3-6.2-4-9.5
							c-1.1-3.2-1.7-6.5-1.7-9.3c0-1.7,0.3-3.2,1-4.5c1.3-2.8,2.8-5.2,4.5-7.4c2.6-3.2,5.8-5.6,10-7.2c4.2-1.6,9.4-2.5,15.8-2.5
							c0.3,0,0.7,0,1,0c8.3,0.2,15.5,3.1,20.5,7.4c2.5,2.1,4.5,4.6,5.9,7.3c1.3,2.6,2,5.5,2,8.3c0,0,0,0.1,0,0.1
							c-0.1,3-0.8,5.8-1.7,8.4c-1.5,3.9-3.6,7.5-5.5,10.6c-1,1.5-1.9,3-2.6,4.3c-0.7,1.3-1.3,2.5-1.5,3.6c-0.6,2.7-1.1,5.8-1.8,8.6
							c-0.3,1.4-0.7,2.6-1.1,3.7c-0.4,1-0.9,1.8-1.4,2.3c-0.5,0.5-1.4,1.1-2.4,1.7c-1.6,0.9-3.5,1.8-5.5,2.5c-2,0.7-3.9,1.1-5.4,1.1
							c-0.1,0-0.1,0-0.2,0c-2.1-0.1-6.1-0.5-9.8-1.5c-1.8-0.5-3.6-1.2-4.9-2.1c-0.7-0.4-1.2-0.9-1.7-1.4c-0.4-0.5-0.7-1.1-0.9-1.7
							c-0.7-2.5-0.9-4-1.1-5.5c-0.2-1.5-0.3-3.1-0.7-5.8l0-0.1l-0.1-0.1L-63.1,810l-0.6,0.1c0.4,2.7,0.6,4.2,0.7,5.7
							c0.2,1.5,0.4,3.1,1.1,5.7c0.2,0.8,0.6,1.5,1.2,2.2c0.9,1.1,2.3,2,3.8,2.7c2.3,1,4.9,1.7,7.4,2.1c2.5,0.4,4.7,0.6,6.1,0.7
							c0.1,0,0.1,0,0.2,0c1.1,0,2.4-0.2,3.7-0.5c2-0.5,4.1-1.3,6-2.3c0.9-0.5,1.8-0.9,2.5-1.4c0.7-0.5,1.4-0.9,1.9-1.4
							c0.7-0.7,1.2-1.6,1.7-2.7c0.7-1.7,1.2-3.8,1.6-6c0.5-2.2,0.8-4.5,1.3-6.4c0.1-0.6,0.4-1.3,0.8-2c0.6-1.3,1.6-2.9,2.7-4.6
							c1.6-2.6,3.5-5.7,5.1-9.1c1.5-3.4,2.7-7.2,2.8-11.3c0-0.1,0-0.1,0-0.2c0.1-3.1-0.7-6.1-2.1-8.9c-2.1-4.2-5.8-8-10.5-10.7
							c-4.7-2.7-10.5-4.4-16.9-4.6c-0.3,0-0.7,0-1.1,0c-8.8,0-15.3,1.5-20.3,4.5c-2.5,1.5-4.6,3.4-6.4,5.6c-1.8,2.2-3.3,4.8-4.7,7.6
							c-0.7,1.5-1,3.2-1.1,5.1c-0.1,3.1,0.7,6.6,1.8,10.1c1.7,5.2,4.4,10.3,6.6,14.1c2.2,3.8,4,6.4,4,6.4L-63.1,810l-0.6,0.1
							L-63.1,810z"/>
						<path id="XMLID_239_" d="M-23.1,804.9c1.4-1.2,2.7-2.7,4-3.8c0.7-0.6,1.4-1.1,2.2-1.4c0.7-0.4,1.5-0.6,2.4-0.6h0
							c0.1,0,0.1,0,0.2,0.1c0.1,0.1,0.3,0.3,0.4,0.6c0.1,0.3,0.2,0.6,0.2,0.8c0.1,0.3,0.1,0.6,0.1,0.9c0,0.5-0.1,1-0.2,1.5
							c-0.4,1.7-1.4,3.4-2.4,4.9c-1.1,1.6-2.7,2.8-4.4,3.7c-1.7,0.9-3.7,1.3-5.5,1.5l0.1,1.2c2-0.2,4-0.7,5.9-1.6
							c1.9-0.9,3.6-2.2,4.8-4.1c1.1-1.5,2.1-3.4,2.6-5.3c0.2-0.6,0.3-1.2,0.3-1.8c0-0.4,0-0.8-0.1-1.2c-0.1-0.4-0.2-1-0.5-1.5
							c-0.1-0.2-0.3-0.5-0.5-0.7c-0.2-0.2-0.5-0.3-0.9-0.3c0,0-0.1,0-0.1,0c-1,0-1.9,0.3-2.8,0.7c-1.3,0.6-2.4,1.6-3.5,2.5
							c-1.1,1-2,2-3,2.9L-23.1,804.9z"/>
						<path id="XMLID_238_" d="M-15.6,800.9c-0.1,0-1.5,0.1-3.5,1.3c-2,1.2-4.5,3.4-6.9,7.7l1,0.6c2.3-4.1,4.7-6.2,6.5-7.3
							c0.9-0.5,1.7-0.8,2.2-1c0.3-0.1,0.5-0.1,0.6-0.1c0.1,0,0.1,0,0.1,0l0,0h0l0-0.3l0,0.3l0,0l0-0.3l0,0.3L-15.6,800.9z"/>
						<path id="XMLID_237_" d="M-64.5,806.8c-1.2-1.2-2.6-2.8-4.1-4.1c-0.7-0.7-1.5-1.3-2.3-1.7c-0.8-0.5-1.6-0.8-2.5-0.9
							c0,0-0.1,0-0.1,0c-0.3,0-0.7,0.1-0.9,0.3c-0.4,0.3-0.6,0.7-0.8,1c-0.2,0.4-0.3,0.8-0.4,1.1l0,0c-0.1,0.4-0.1,0.8-0.1,1.2
							c0,0.6,0.1,1.2,0.2,1.8c0.4,2,1.3,3.8,2.3,5.4c1.2,1.9,2.8,3.3,4.6,4.3c1.8,1,3.9,1.7,5.8,2l0.2-1.2c-1.9-0.3-3.8-0.9-5.5-1.8
							c-1.7-0.9-3.2-2.2-4.2-3.9c-1-1.5-1.8-3.3-2.2-5c-0.1-0.5-0.2-1-0.2-1.5c0-0.3,0-0.6,0.1-0.9l0,0c0.1-0.3,0.2-0.8,0.4-1.1
							c0.1-0.2,0.2-0.3,0.3-0.3c0.1-0.1,0.1-0.1,0.2-0.1l0,0c0.7,0.1,1.4,0.3,2.1,0.7c1.1,0.6,2.2,1.5,3.2,2.6c1,1,2.1,2.1,3,3
							L-64.5,806.8z"/>
						<path id="XMLID_236_" d="M-72.7,804.5l0-0.3L-72.7,804.5L-72.7,804.5l0-0.3L-72.7,804.5c0,0,1.2,0.2,3,1.3
							c1.7,1.2,4,3.4,6.1,7.6l1-0.6c-2.2-4.4-4.6-6.8-6.5-8.1c-1.9-1.3-3.3-1.5-3.4-1.5L-72.7,804.5z"/>
						<path id="XMLID_234_" d="M-19.2,808.8c0,0,0.4-0.4,0.8-1.2c0.4-0.7,0.8-1.8,0.8-3.3c0-0.5,0-1.1-0.1-1.8l-1.1,0.2
							c0.1,0.5,0.1,1,0.1,1.5c0,1.2-0.4,2.1-0.7,2.7c-0.2,0.3-0.3,0.5-0.4,0.7c-0.1,0.1-0.1,0.1-0.1,0.2l0,0l0,0l0.1,0.1l-0.1-0.1v0
							l0.1,0.1l-0.1-0.1L-19.2,808.8z"/>
						<path id="XMLID_232_" d="M-70.5,805c0,0.1-0.5,1-0.5,2.4c0,1.1,0.2,2.5,1,4l1-0.6c-0.7-1.3-0.9-2.4-0.9-3.3
							c0-0.6,0.1-1.1,0.2-1.4c0-0.2,0.1-0.3,0.1-0.4c0,0,0-0.1,0-0.1l0,0v0l-0.3-0.1l0.3,0.1v0l-0.3-0.1l0.3,0.1L-70.5,805z"/>
					</g>
					<g id="XMLID_383_">
						<g id="XMLID_402_">
							<path id="XMLID_230_" class="st5" d="M-34.8,849.4c0.6-0.1,1.3-0.5,1.6-1.2c0.1-0.4,0.1-0.8,0-1.2c0,0,0,0,0-0.1
								c-0.1-0.2-0.3-1.6-2.2-2.2c-1.9-0.6-3.7,0.5-3.7,0.5c-1.3,0.6-3.1-0.3-4.4-0.3c-1.4,0-1.8,1.5-1.8,1.5l-1,0.2
								c0,0-1.7,0.7-2.8,0.5c-1.1-0.2-4.9-0.5-3.7,1.7l1,0c0,0,0.1,0.6,0.5,0.7c0.4,0.1,1.4-0.3,2.4-0.1c1,0.3,4.3-0.1,4.6,0
								c5.1,0.6,7.9,0.5,9.2,0.3C-35,849.4-34.9,849.4-34.8,849.4z"/>
						</g>
						<g id="XMLID_400_">
							<path id="XMLID_228_" class="st28" d="M-43.4,847.4c0,0,0.1-0.9,0.4-1.1c0.4-0.3,0-0.7-0.5-0.6c-0.5,0.1-1,0.5-1.1,1.1
								C-44.6,847.4-44,847.4-43.4,847.4z"/>
						</g>
						<path id="XMLID_226_" class="st27" d="M-51.8,848.3c0,0,0.4-0.5,0.9-0.5c0.5,0,1.9,0,1.9,0s1.4-0.4,2.4-0.6c0,0,1-0.2,1.2-0.2
							c0,0-0.2-0.5-0.1-0.8c0,0-0.9,0.1-1.6,0.4c-0.7,0.2-1.3,0.5-1.8,0.4c-0.5-0.1-1.8-0.1-1.8-0.1s1.8,0.2,1.6,0.4
							c-0.2,0.2-0.2,0.2-0.7,0.2C-50.1,847.6-51.5,847.3-51.8,848.3z"/>
						<g id="XMLID_397_" class="st29">
							<path id="XMLID_224_" class="st27" d="M-34.8,849.4c0.4,0,1-0.3,1.3-0.7c0.2-0.4,0.1-0.8,0.1-0.8c-1.1,2-9.4,1.5-9.3,0.6
								c0.1-0.9,3.4-0.4,4.7,0.1c1.3,0.5,0.9-1.4,0.7-1c-0.3,0.4-1.5,0.1-2.6-0.2c-1.2-0.3-2.8-0.1-3.5,0c-0.6,0.1-1.3-0.1-1.7-0.5
								c-0.3-0.3,0.2-1.4,0.2-1.4s-0.5,0.4-0.4,1c0.1,1.4,1.9,1.3,1.9,1.3c0.2,0.9-2.1,0.6-2.6,0.7c-0.5,0.1-2,0.5-2.7,0.6
								c-0.7,0.1-1.7-0.1-1.7-0.1c0-0.2-0.2-0.2-0.2-0.2c0.1,0.3,0,0.5,0,0.5s0.8-0.2,1.5,0c0.8,0.2,2.5,0.1,3.5,0
								c1-0.1,1-0.1,2.3,0c1.4,0.1,4.1,0.4,6.1,0.4c0.9,0,1.5-0.1,2.1-0.2C-35,849.4-34.9,849.4-34.8,849.4z"/>
						</g>
						<g id="XMLID_394_">
							<g id="XMLID_395_">
								<path id="XMLID_222_" d="M-45.4,846.4c-0.2,1.7,2,1.5,2.8,1.5c0.8,0,1.6,0,2.5,0c0.5,0,1.1,0.1,1.6,0.2
									c0.3,0.1,0.6,0.1,0.8,0.3c0,0,0.1-0.1,0.1-0.1c-0.3-0.2-0.6-0.3-0.9-0.3c-0.5-0.1-1.1-0.1-1.6-0.2c-0.8,0-1.7,0-2.5,0
									c-0.6,0-1.3,0.1-1.9-0.2c-0.2-0.1-0.5-0.2-0.6-0.4c-0.2-0.2-0.2-0.6-0.2-0.9C-45.3,846.3-45.4,846.4-45.4,846.4L-45.4,846.4
									z"/>
							</g>
						</g>
						<g id="XMLID_392_" class="st30">
							<path id="XMLID_220_" class="st27" d="M-43.1,845.2c-1.1-0.3-1.6,0.6-1.6,0.6c0.6-0.7,1.9-0.3,1.9-0.3c3.4,0.9,3.8,0,3.8,0
								C-39.9,846.2-42,845.5-43.1,845.2z"/>
						</g>
						<g id="XMLID_390_">
							<path id="XMLID_218_" d="M-45.4,846.7c-1.1,0.2-2.3,0.4-3.4,0.7c-0.2,0-0.3,0.1-0.5,0.1c-0.2,0-0.5,0-0.7,0
								c-0.4,0-0.7,0-1.1,0.1c-0.6,0.1-0.9,0.6-0.7,1.3c0,0.1,0.1,0,0.1-0.1c-0.4-1.2,0.8-1.3,1.5-1.3c0.2,0,0.4,0,0.6,0
								c0.1,0,0.3,0.1,0.5,0c0.2-0.1,0.5-0.2,0.7-0.2c1-0.2,2-0.4,3-0.6C-45.3,846.8-45.3,846.7-45.4,846.7L-45.4,846.7z"/>
						</g>
						<g id="XMLID_387_">
							<g id="XMLID_388_">
								<path id="XMLID_216_" d="M-42.8,846.1c0,0.2-0.1,0.3-0.2,0.4c0,0,0,0,0.1,0c-0.1,0.1-0.2,0.2-0.3,0.3
									c-0.1,0.2-0.2,0.3-0.2,0.5c0,0.1,0,0.2,0,0.3c0,0,0,0,0,0c0,0-0.1,0-0.1,0c-0.1,0-0.2,0-0.2,0c-0.2,0-0.4,0-0.5-0.2
									c-0.5-0.4-0.1-1.2,0.1-1.5C-43.8,845.5-43.2,845.6-42.8,846.1L-42.8,846.1c-0.3-0.6-0.9-0.6-1.2-0.2c-0.3,0.3-0.8,1-0.5,1.5
									c0.2,0.3,0.7,0.4,1,0.3c0.1,0,0.1-0.1,0.2-0.1c0,0,0-0.1,0-0.1c0-0.1,0-0.2,0-0.3c0-0.2,0.1-0.4,0.2-0.5
									c0.1-0.1,0.1-0.1,0.2-0.1C-42.8,846.3-42.8,846.2-42.8,846.1C-42.8,846-42.8,846.1-42.8,846.1z"/>
							</g>
						</g>
						<g id="XMLID_384_">
							<g id="XMLID_385_">
								<path id="XMLID_214_" d="M-34.2,849.1c-0.1,0-0.1,0-0.2,0c-0.2,0.1-0.3,0.1-0.5,0.1c-0.1,0-0.2,0-0.3,0.1
									c-0.8,0.1-1.7,0.2-2.9,0.2c-1.8,0-3.9-0.2-6.3-0.5c0,0-0.1,0-0.1,0c-0.2,0-0.5,0-1,0c-0.7,0-1.5,0.1-2.3,0.1
									c-0.6,0-1,0-1.2-0.1c-0.2-0.1-0.5-0.1-0.8-0.1c-0.4,0-0.8,0.1-1.1,0.1c-0.2,0-0.4,0.1-0.6,0.1c-0.3,0-0.3-0.5-0.3-0.5l0-0.1
									l-1,0c-0.2-0.4-0.3-0.7-0.1-0.9c0.2-0.4,1-0.6,2.1-0.6c0.7,0,1.4,0.1,1.6,0.1c0.1,0,0.2,0,0.4,0c1.1,0,2.4-0.5,2.4-0.5
									l1.1-0.2l0-0.1c0,0,0.4-1.4,1.7-1.4c0.5,0,1,0.1,1.6,0.3c0.6,0.1,1.2,0.3,1.8,0.3c0.4,0,0.7-0.1,1.1-0.2
									c0,0,1.1-0.7,2.4-0.7c0.4,0,0.8,0.1,1.2,0.2c0.9,0.3,1.4,0.8,1.7,1.2c0,0,0.1,0,0.1,0c0.1,0,0.1,0,0.2,0
									c-0.3-0.5-0.8-1.1-1.9-1.5c-0.4-0.1-0.8-0.2-1.3-0.2c-1.4,0-2.5,0.7-2.5,0.7c-0.3,0.1-0.6,0.2-0.9,0.2
									c-0.5,0-1.2-0.1-1.7-0.3c-0.6-0.1-1.2-0.3-1.7-0.3h0c-1.3,0-1.8,1.2-1.9,1.5l-0.9,0.2c0,0-1.3,0.5-2.3,0.5
									c-0.1,0-0.2,0-0.3,0c-0.2,0-0.9-0.1-1.6-0.1c-1.3,0-2.1,0.2-2.3,0.7c-0.2,0.3-0.1,0.7,0.2,1.2l0,0.1l0.9,0
									c0,0.2,0.2,0.6,0.5,0.7c0.2,0,0.4,0,0.6-0.1c0.3-0.1,0.6-0.1,1-0.1c0.3,0,0.5,0,0.7,0.1c0.3,0.1,0.7,0.1,1.3,0.1
									c0.8,0,1.6-0.1,2.3-0.1c0.5,0,0.9-0.1,1.1,0c2.4,0.3,4.5,0.5,6.3,0.5c1.2,0,2.2-0.1,3-0.2l0,0l0,0c0,0,0.1-0.1,0.2-0.1
									c0.3,0,0.6-0.2,0.9-0.3C-34,849.2-34.1,849.2-34.2,849.1z"/>
							</g>
						</g>
					</g>
				</g>
			</g>
		</g>
		<g id="XMLID_368_">
			
				<image style="overflow:visible;" width="96" height="94" xlink:href="63933E5A.png"  transform="matrix(1 0 0 1 -90.7554 787.7191)">
			</image>
		</g>
		<g id="XMLID_116_">
			<path id="XMLID_200_" class="st31" d="M-51.2,833.7c0.7-4.8,5.2-7.6,10.2-6.8c5.6,0.8,8.3,4.7,7.6,9.6c-0.7,4.5-4.4,7.7-10.2,6.8
				C-49,842.5-51.9,838.5-51.2,833.7L-51.2,833.7z"/>
			<path id="XMLID_198_" class="st32" d="M-33.7,836.5c0.7-4.8-1.9-8.6-7.4-9.4c-4.9-0.7-9.3,2-9.9,6.6c-0.7,4.7,2.1,8.6,7.4,9.4
				C-38,843.9-34.3,840.8-33.7,836.5L-33.7,836.5z"/>
			<g id="XMLID_363_">
				<path id="XMLID_196_" class="st33" d="M-39.3,829.9c-0.3,0.6-0.9,1.2-1.8,1.2c-1.8,0.1-1.8,0.4-2.1,1.2
					c-0.3,0.7-1.2,1.1-2.6,0.3c-1.4-0.7-1.9-0.5-2.3-0.4c-0.4,0.1,0.6,0,1.7,0.7c1.1,0.8,1.6,2.1,0.6,2.5c-1,0.4-1.5,0.5-0.6,1.1
					c0.9,0.6,0.9,1.1,0.3,2.3c-0.6,1.2-0.3,2,1.8,3.1c2.2,1.1,5,0.5,5.6-0.7c0.6-1.2-1.7-2.2-0.7-3.2c1.1-1.1,0.7-1.9,0.1-2.6
					c-0.6-0.7-0.5-2,1.3-2.5c1.8-0.5,3.2,0.1,3.3-0.2c0.1-0.3-0.4-0.5-1.5-0.4c-1.2,0.2-2.3,0.5-3,0c-0.7-0.6-0.7-1.6,0.4-2.1
					c1-0.4,1.3-1.3,0.3-1.8C-39.4,827.9-38.6,828.4-39.3,829.9L-39.3,829.9z"/>
				<path id="XMLID_194_" class="st34" d="M-40.4,831.6c0,0-1.6-0.3-2,1c-0.4,1.4-2,1.4-2.6,0.9c-0.6-0.5-0.2,0.2,0,0.9
					c0.2,0.7,0.1,1.6-0.6,1.6c-0.7,0.1-0.1,0.1,0.3,1.1c0.3,1,0.2,1.5-0.1,2.3c-0.3,0.8,0.4,1.9,2.6,2.3c2.2,0.4,4.3-0.4,3-1.8
					c-1.2-1.4,0-2.5,0.3-2.8c0.3-0.3,0.1-0.8-0.5-1.4c-0.6-0.6-0.3-2.3,0.3-2.6c0.5-0.2-0.5-0.8-0.4-1.1
					C-40.1,831.6-40.4,831.6-40.4,831.6L-40.4,831.6z"/>
			</g>
			<path id="XMLID_192_" class="st35" d="M-50.7,832.6c1.1,5.9,8.8,10.2,16.2,6.6c-1.5,2.9-4.7,4.6-9.1,4c-5.3-0.8-8.1-4.7-7.4-9.4
				C-51,833.3-50.9,832.9-50.7,832.6L-50.7,832.6z"/>
			<path id="XMLID_190_" class="st31" d="M-51.2,833.7c0.6-3.7,3.4-6.2,6.9-6.8h0l0.1,0l0.3,0c1.8,0,4.7,0.3,4.5,2.1
				c-0.2,1.4-2.1,1.7-3.4,1.9c-0.7,0.1-0.7,1.4-1.5,1.6c-1,0.2-1.4-0.7-2.8-0.9c-1-0.2-2.3,0.6-2.5,1.1c0,0.1,0,0.1,0.1,0.1
				c0.1,0,0.3,0.1,0.5,0.1c0.4,0,0.9,0,1.2,0.1c0.9,0.3,1.7,1,1.7,1.9c0,0.8-1.9,0.6-2,1.2c0,0.6,1.3,0.6,1.5,1.3
				c0.2,0.7-0.8,1-0.8,1.9c-0.1,1.7,1.5,3,3.3,3.8c0.1,0.1,0.1,0.2-0.1,0.2C-49.2,842.3-51.9,838.4-51.2,833.7L-51.2,833.7z"/>
			<path id="XMLID_188_" class="st36" d="M-47.6,839.2c0.1-1,0.9-1.2,0.8-1.8c-0.1-0.6-1.5-0.6-1.5-1.4c0.1-0.9,2-0.6,2-1.2
				c0-0.7-0.6-1.4-1.5-1.7c-0.5-0.1-2.2,0.2-1.9-0.5c0.3-0.6,1.6-1.4,2.7-1.2c1.4,0.3,1.8,1.1,2.7,0.9c0.6-0.1,0.7-1.4,1.5-1.6
				c1.4-0.2,3.1-0.5,3.2-1.7c0.2-1.5-2.7-1.9-4.6-1.8l-0.1,0l-0.6,0.1c-3.2,0.8-5.6,3.1-6.1,6.5c-0.6,4.2,1.7,7.9,6.1,9.1l0.1,0
				l-0.6-0.4C-46.7,841.7-47.6,840.6-47.6,839.2L-47.6,839.2z"/>
			<path id="XMLID_186_" class="st37" d="M-47.6,839.2c0-0.5,0.2-0.8,0.4-1c-1.9-1.4-3.2-3.4-3.6-5.6c0,0.2-0.1,0.3-0.1,0.5l0,0l0,0
				l0,0.1l0,0l0,0.1l0,0l0,0l0,0c0,0,0,0.1,0,0.1l0,0l0,0v0c0,0,0,0.1,0,0.1l0,0v0l0,0c0,0.1,0,0.1,0,0.2c0,0.1,0,0.1,0,0.2l0,0.1
				c0,0,0,0.1,0,0.1l0,0.1c0,0,0,0.1,0,0.1l0,0.1c0,0,0,0.1,0,0.1l0,0.1c0,0,0,0.1,0,0.1l0,0.1c0,0,0,0.1,0,0.1v0.1c0,0,0,0.1,0,0.1
				v0.1c0,0.1,0,0.1,0,0.2l0,0c0,0.1,0,0.1,0,0.2l0,0c0,0.3,0,0.5,0.1,0.8l0,0c0,0.1,0,0.1,0,0.2l0,0c0,0.1,0,0.1,0,0.2l0,0
				c0,0.1,0,0.1,0,0.2l0,0c0,0.1,0,0.1,0,0.2l0,0c0,0.1,0,0.1,0.1,0.2l0,0c0.1,0.4,0.3,0.9,0.5,1.3l0,0c0,0.1,0.1,0.1,0.1,0.2l0,0
				c0,0.1,0.1,0.1,0.1,0.1l0,0c0,0,0.1,0.1,0.1,0.1l0,0c0,0,0.1,0.1,0.1,0.1l0,0c0,0.1,0.1,0.1,0.1,0.2l0,0c0.1,0.1,0.1,0.2,0.2,0.3
				l0,0c0,0,0.1,0.1,0.1,0.1l0,0.1c0,0,0,0.1,0.1,0.1c0,0,0,0,0.1,0.1l0.1,0.1c0,0,0,0,0.1,0.1l0.1,0.1c0,0,0,0.1,0.1,0.1l0.1,0.1
				c0,0,0.1,0.1,0.1,0.1l0,0c0,0,0.1,0.1,0.1,0.1l0,0c0,0,0.1,0.1,0.1,0.1l0,0c1,0.8,2.2,1.5,3.6,1.9l0.1,0l-0.6-0.4
				C-46.7,841.7-47.6,840.6-47.6,839.2L-47.6,839.2z"/>
			<path id="XMLID_184_" class="st36" d="M-47.4,838.5c0.3-0.5,0.7-0.7,0.6-1.2c-0.1-0.6-1.5-0.6-1.5-1.4c0.1-0.9,2-0.6,2-1.2
				c0-0.7-0.6-1.4-1.5-1.7c-0.5-0.1-2,0.1-1.9-0.4c-0.1,0.1-0.2,0.5,0.4,0.6c0.7,0.1,1.6-0.1,2.1,0.6c0.4,0.7,0.2,1.1-0.5,1.3
				c-0.7,0.3-1.2,1-0.5,1.5c0.8,0.5,1.4,0.4,0.9,1.4C-47.3,838.2-47.3,838.4-47.4,838.5L-47.4,838.5z"/>
			<path id="XMLID_182_" class="st31" d="M-38.1,832.2c-0.4-0.1-0.8-0.7-0.8-1.1c0.1-0.6,1.1-0.6,1.3-1c0.4-0.6,0.5-1.2,0.3-1.8
				c0-0.1,0.1-0.2,0.2-0.1c1.5,0.9,2.5,2.1,3.1,3.6c0,0.1,0,0.2-0.1,0.1c-0.4-0.2-0.9-0.2-1.3-0.2
				C-36.3,831.9-37.1,832.4-38.1,832.2L-38.1,832.2z"/>
			<path id="XMLID_180_" class="st38" d="M-35.4,831.6c0.3,0,0.7,0,1.1,0.1l0.1,0l-0.1-0.3c-0.5-1-1.3-1.9-2.3-2.6l-0.3-0.2l0,0.2
				c0,0.5-0.1,1-0.4,1.5c-0.3,0.5-1.2,0.4-1.3,0.9c-0.1,0.3,0.3,0.8,0.6,0.9C-37.1,832.2-36.4,831.7-35.4,831.6L-35.4,831.6z"/>
			<path id="XMLID_178_" class="st31" d="M-39.1,842.9c0.9-0.6,1.5-1.4,1.5-2.2c0-0.8-1.3-1.1-1-2.5c0.1-0.7,1.1-0.8,1.2-1.4
				c0.1-0.9-2-1.9-1.2-2.8c0.7-0.9,2.3-1.1,3.5-0.9c0.6,0.1,1.1,0.3,1.6,0.6c0,0,0.1,0,0.1,0.1c0.1,0.9,0.1,1.8,0,2.8
				c-0.5,3.1-2.4,5.6-5.5,6.5C-39.1,843.1-39.2,842.9-39.1,842.9L-39.1,842.9z"/>
			<path id="XMLID_176_" class="st39" d="M-33.7,836.5c0.1-0.7,0.1-1.4,0.1-2.1l-0.1-0.6l-0.3-0.2c-0.4-0.2-0.8-0.3-1.2-0.4
				c-1.1-0.2-2.6,0-3.3,0.8c-0.3,0.3,0,0.7,0.4,1.2c0.4,0.4,0.9,1,0.9,1.5c-0.1,0.7-1.1,0.9-1.2,1.4c-0.2,1.3,1,1.5,1,2.4
				c0,0.7-0.4,1.3-1,1.9l-0.1,0.1l0.4-0.2C-35.6,841.3-34.1,839.1-33.7,836.5L-33.7,836.5z"/>
			<path id="XMLID_174_" class="st37" d="M-37.5,840.2c0.1,0.1,0.1,0.3,0.2,0.5c0,0.7-0.4,1.3-1,1.9l-0.1,0.1l0.4-0.2
				c1.4-0.7,2.5-1.7,3.3-3l0,0c0,0,0-0.1,0.1-0.1l0,0c0-0.1,0.1-0.1,0.1-0.2C-35.5,839.6-36.5,839.9-37.5,840.2L-37.5,840.2z"/>
			<path id="XMLID_172_" class="st40" d="M-46.1,838.8L-46.1,838.8c-0.6,1.2-0.3,2,1.8,3.1c2.2,1.1,5,0.5,5.6-0.7
				c0.2-0.3,0.1-0.6,0-0.9C-41.4,840.7-44,840.1-46.1,838.8L-46.1,838.8z"/>
			<path id="XMLID_170_" class="st41" d="M-45.4,839.2c0,0,0,0.1-0.1,0.2c-0.3,0.8,0.4,1.9,2.6,2.3c1.9,0.4,3.6-0.2,3.4-1.3
				C-41.6,840.4-43.6,839.9-45.4,839.2L-45.4,839.2z"/>
			<path id="XMLID_168_" class="st42" d="M-34.1,836.2c-0.2,1.6-0.7,3.1-1.8,4.3c-0.9,1-0.8,0.5-0.7,0c0.1-1-0.2-1-0.8-1.5
				c-0.3-0.3-0.3-0.7,0.2-1.1c0.9-0.7,1.1-1.5,0.1-2.5C-38.7,833.9-33.7,832.6-34.1,836.2L-34.1,836.2z"/>
			<path id="XMLID_167_" class="st43" d="M-35.1,839.4c-0.2,0.4-0.5,0.8-0.9,1.2c-0.9,1-0.8,0.5-0.7,0c0-0.3,0-0.5,0-0.6
				C-36.1,839.8-35.6,839.6-35.1,839.4L-35.1,839.4z"/>
			<path id="XMLID_164_" class="st38" d="M-37.6,835.8c0,0-1.3-1.3-0.1-1.9c1.2-0.6,2.2-0.4,3-0.1c0.7,0.3,1.2,0.8,0.9,3.2
				c0-0.1,0.1-0.3,0.1-0.4c0.1-0.7,0.1-1.4,0.1-2.1l-0.1-0.6l-0.3-0.2c-0.4-0.2-0.8-0.3-1.2-0.4c-1.1-0.2-2.6,0-3.3,0.8
				c-0.3,0.3,0,0.7,0.4,1.2C-37.9,835.5-37.8,835.6-37.6,835.8L-37.6,835.8L-37.6,835.8z"/>
			<path id="XMLID_162_" class="st38" d="M-37.4,836.1c0.3,0.2,0.4,0.7,0.3,0.9c-0.1,1-2,1.1-0.6,2.6c0.5,0.5,0.7,1.1,0.4,1.8
				c-0.2,0.6,0.4,0.3,1-0.1c-0.5,0.5-1.1,0.9-1.8,1.2l-0.4,0.2l0.1-0.1c0.6-0.5,1-1.2,1-1.9c0-0.9-1.3-1.1-1-2.4
				c0.1-0.5,1.1-0.7,1.2-1.4C-37.1,836.6-37.2,836.3-37.4,836.1L-37.4,836.1L-37.4,836.1z"/>
			<path id="XMLID_161_" class="st44" d="M-37.2,840.1c0.2,0.4,0.2,0.8,0,1.3c-0.2,0.6,0.4,0.3,1-0.1c-0.5,0.5-1.1,0.9-1.8,1.2
				l-0.4,0.2l0.1-0.1c0.6-0.5,1-1.2,1-1.9c0-0.2-0.1-0.4-0.2-0.5C-37.4,840.1-37.3,840.1-37.2,840.1L-37.2,840.1z"/>
			<path id="XMLID_158_" class="st42" d="M-36.1,829.2c-0.2-0.1-0.3-0.2-0.4-0.1c-0.3,0.2-0.1,0.5-0.5,1.1c-0.4,0.5-0.9,0.6-1.2,0.8
				c-0.4,0.2-0.1,0.7,0.2,0.9c0.3,0.2,0.9,0,1.5-0.2c0.6-0.3,1.1-0.3,1.6-0.2c0.3,0.1,0.4-0.2,0.3-0.5
				C-35,830.3-35.5,829.7-36.1,829.2L-36.1,829.2z"/>
			<path id="XMLID_156_" class="st42" d="M-45,827.8c2.4-0.6,3.6-0.2,4,0.4c0.5,0.6-0.1,1.5-1.6,1.5c-1.5,0-1.4,0.7-1.7,1.2
				c-0.3,0.5-1.2,0.3-2.4-0.1c-0.6-0.2-1.2-0.1-1.7,0.1c-1.1,0.5-2.3,1.5-0.3-1C-47.9,829.1-46.8,828.2-45,827.8L-45,827.8z"/>
			<path id="XMLID_154_" class="st42" d="M-49.8,838.3c1,2.4,3.1,3.3,3.1,3.3s-1.3-1.2-1.1-2.4c0.2-1.2,0.9-1.5,0-1.9
				c-0.9-0.4-1.5-1.8-0.4-2.1c1-0.3,0.9-1.5-0.1-1.5c-1.4,0.1-1.6,0-1.7-0.9c0-0.4-0.3-0.6-0.5,0.4
				C-50.7,834.4-50.6,836.5-49.8,838.3L-49.8,838.3z"/>
			<path id="XMLID_152_" class="st38" d="M-46.5,841.7c0,0.1,0,0.5-0.7,0.1c-0.8-0.4-2.2-1.5-3.3-4.1c-1-2.6-0.2-5.2,0.2-6.1
				c0.4-0.9,2.5-3.9,5.6-4.1c3.1-0.2,4.1,0.2,4.4,1.1c0.3,0.9-0.7,1.4-1.8,1.5c-1,0.1-1.4,0.2-2,1.1c-0.6,0.9-0.9,0.8-1.9,0.3
				c-1-0.5-2.6-0.4-3.2,0.4c0,0-0.1,0.1-0.1,0.1c0.6-0.4,1.4-0.8,2.2-0.6c1.4,0.3,1.8,1.1,2.7,0.9c0.6-0.1,0.7-1.4,1.5-1.6
				c1.4-0.2,3.1-0.5,3.2-1.7c0.2-1.5-2.7-1.9-4.6-1.8l-0.1,0l-0.6,0.1c-3.2,0.8-5.6,3.1-6.1,6.5c-0.6,4.2,1.7,7.9,6.1,9.1l0.1,0
				l-0.6-0.4C-45.8,842.2-46.2,842-46.5,841.7L-46.5,841.7z"/>
			<path id="XMLID_150_" class="st44" d="M-46.5,841.7c0,0.1,0,0.5-0.7,0.1c-0.8-0.4-2.2-1.5-3.3-4.1c-0.7-1.8-0.5-3.5-0.2-4.8
				c0-0.1-0.1-0.3-0.1-0.4c0,0.2-0.1,0.3-0.1,0.5l0,0l0,0l0,0.1l0,0l0,0.1l0,0l0,0l0,0c0,0,0,0.1,0,0.1l0,0l0,0v0c0,0,0,0.1,0,0.1
				l0,0v0l0,0c0,0.1,0,0.1,0,0.2c0,0.1,0,0.1,0,0.2l0,0.1c0,0,0,0.1,0,0.1l0,0.1c0,0,0,0.1,0,0.1l0,0.1c0,0,0,0.1,0,0.1l0,0.1
				c0,0,0,0.1,0,0.1l0,0.1c0,0,0,0.1,0,0.1v0.1c0,0,0,0.1,0,0.1v0.1c0,0,0,0.1,0,0.2l0,0c0,0.1,0,0.1,0,0.2l0,0c0,0.3,0,0.5,0.1,0.8
				l0,0c0,0.1,0,0.1,0,0.2l0,0c0,0.1,0,0.1,0,0.2l0,0c0,0.1,0,0.1,0,0.2l0,0c0,0.1,0,0.1,0,0.2v0c0,0.1,0,0.1,0.1,0.2l0,0
				c0.1,0.4,0.3,0.9,0.5,1.3l0,0c0,0.1,0.1,0.1,0.1,0.2l0,0c0,0.1,0.1,0.1,0.1,0.1l0,0c0,0,0.1,0.1,0.1,0.1l0,0c0,0,0.1,0.1,0.1,0.1
				l0,0c0,0.1,0.1,0.1,0.1,0.2l0,0c0.1,0.1,0.1,0.2,0.2,0.3l0,0c0,0,0.1,0.1,0.1,0.1l0,0.1c0,0,0,0.1,0.1,0.1c0,0,0,0,0.1,0.1
				l0.1,0.1c0,0,0,0,0.1,0.1l0.1,0.1c0,0,0,0.1,0.1,0.1l0.1,0.1c0,0,0.1,0.1,0.1,0.1l0,0c0,0,0.1,0.1,0.1,0.1l0,0
				c0,0,0.1,0.1,0.1,0.1l0,0c1,0.8,2.2,1.5,3.6,1.9l0.1,0l-0.6-0.4C-45.8,842.2-46.2,842-46.5,841.7L-46.5,841.7z"/>
			<path id="XMLID_148_" class="st45" d="M-34.4,834.7c-0.4-0.9-2.1-1.1-2.9-0.6c-0.4,0.2-0.6,0.6-0.2,1.2c0.6,0.8,1.1,1.3,0.4,2.1
				c-0.7,0.8-1.1,1.1-0.5,1.6c0.5,0.5,0.8,0.7,0.8,1.2c0,0.2,0,0.4,0,0.4s0.4-0.7-0.1-1.3c-0.5-0.7-1-0.8-0.2-1.5
				c1.8-1.9-0.1-1.9,0-3.1C-36.9,833.6-34.9,834.2-34.4,834.7L-34.4,834.7z"/>
			<path id="XMLID_146_" class="st45" d="M-36.8,829.5c0,0.2-0.2,0.8-0.8,1.1c-0.5,0.2-1,0.4-0.9,0.7c0.1,0.3,0.3,0.7,1,0.6
				c0.7-0.1,1-0.3,1.4-0.4c0.4-0.1,0.9-0.1,0.9-0.1s-0.7-0.3-1.4,0c-1.6,0.7-1.9-0.2-1.1-0.5C-37.2,830.6-36.6,830.2-36.8,829.5
				L-36.8,829.5z"/>
			<path id="XMLID_144_" class="st45" d="M-44.8,827.8c0.7-0.3,1.6-0.4,2.2-0.3c2.1,0.1,3,2,0.8,2.3c-1.7,0.2-1.9,0.1-2.2,0.8
				c-0.9,1.8-1.8,0.1-3.8,0.3c-0.5,0.1-0.9,0.2-1.3,0.5c2.2-2.4,4.2,0.6,4.6-0.8c0.3-0.7,0.5-1.1,1.8-1.2c2.5-0.2,2.1-1.3,0.1-1.5
				C-43.7,827.8-44.8,827.8-44.8,827.8L-44.8,827.8z"/>
			<path id="XMLID_142_" class="st45" d="M-49.7,833.3L-49.7,833.3c0.1,0.7,2.1-0.2,2.2,0.9c0.1,0.5-0.3,0.8-0.9,1.2
				c-0.6,0.4-0.6,1,0.1,1.5c0.7,0.5,1.1,0.5,0.7,1.5c-0.4,1-0.1,1.8-0.1,1.8s-0.6-0.8-0.2-1.7c0.4-0.9-0.3-1-0.8-1.3
				c-0.4-0.3-0.9-1.3-0.2-1.8c0.3-0.2,0.8-0.5,0.9-0.8C-47.4,833.4-50,834.3-49.7,833.3L-49.7,833.3z"/>
			<path id="XMLID_140_" class="st46" d="M-42.5,832.5c-0.4,0.9-0.8,1.4-1.7,1c-0.9-0.4-1.5-0.4-1.1,0.4c0.3,0.8,0.8,1.9-0.1,2
				c-0.9,0.1-0.3,0.8,0.1,1.5c0.4,0.7,0.1,1.7,0.1,1.7s0.7-0.8,0.2-1.8c-0.5-1-0.7-1-0.1-1.2c0.6-0.2,0.7-0.9,0.4-1.5
				c-0.3-0.7-0.6-1.1,0.1-0.9c0.7,0.2,1.5,0.6,2-0.2c0.8-1.3,0.6-1.6,2.2-1.8C-41.4,831.4-42.1,831.5-42.5,832.5L-42.5,832.5z"/>
			<path id="XMLID_138_" class="st46" d="M-40.1,833.7c-0.3,0.5-0.4,0.8-0.4,1.1c0.1,1.1,1.7,1.4,0.4,2.9c-0.3,0.4-0.6,0.9,0.2,1.9
				c0,0-0.6-1.1,0.1-1.9C-38.3,836-40.7,836.1-40.1,833.7L-40.1,833.7z"/>
			<path id="XMLID_136_" class="st47" d="M-42.3,833.8c-0.3,1-1.1,0.6-1.5,0.5c-0.4-0.1-0.4,0.1-0.2,0.9c0.2,0.8,0.1,0.9-0.3,1
				c-0.4,0.1-0.2,0.2-0.1,1.2c0.1,1,0.1,1.6,1.7,2c1.6,0.4,1.1-1,1.7-1.8c0.6-0.7-0.3-1.7-0.3-2.6c0-1.3,0.9-2.1,0.2-2.4
				C-41.3,832.4-42,832.5-42.3,833.8L-42.3,833.8z"/>
			<path id="XMLID_134_" class="st48" d="M-51,833.6c0,0,5.4,10.2,16.5,5.5c0,0-1.2,4.3-7.8,4.1c-6.6-0.2-9.6-5.7-8.7-9.5"/>
			<g id="XMLID_330_">
				<path id="XMLID_132_" class="st19" d="M-42.9,826.8h0.2c-0.2-0.4-0.5-0.3-0.5-0.3C-43,826.6-42.9,826.8-42.9,826.8z"/>
				<path id="XMLID_130_" class="st19" d="M-37.6,842.5l-0.1,0.1c0.1,0.1,0,0.3-0.1,0.4c-1.8,0.2-4.4-3.1-5.9-7.2
					c-1.5-4.3-1.2-8.4,0.5-9.2c-0.1,0-0.1,0-0.2,0c-1.9,0.7-2.2,4.9-0.6,9.3c1.5,4.3,4.3,7.7,6.2,7.2c0,0,0,0,0,0c0,0,0,0,0.1,0
					c0,0,0,0,0,0c0,0,0,0,0,0c0,0,0,0,0.1,0c0,0,0,0,0.1,0c0,0,0,0,0,0C-37.5,842.7-37.6,842.5-37.6,842.5z"/>
			</g>
			<g id="XMLID_327_">
				<path id="XMLID_128_" class="st19" d="M-34.7,830.3l0.1,0.1c0.3-0.4,0-0.6,0-0.6C-34.6,830.1-34.7,830.3-34.7,830.3z"/>
				<path id="XMLID_126_" class="st19" d="M-45.8,842.7l-0.1-0.1c-0.1,0.1-0.2,0.1-0.3,0.1c-1.1-1.5,0.5-5.4,3.4-8.7
					c3-3.4,6.7-5.2,8.3-4.1c0,0-0.1-0.1-0.1-0.1c-1.5-1.3-5.4,0.5-8.4,4c-3,3.4-4.6,7.5-3.2,8.9c0,0,0,0,0,0c0,0,0,0,0.1,0
					c0,0,0,0,0,0c0,0,0,0,0,0c0,0,0,0,0.1,0c0,0,0,0,0.1,0c0,0,0,0,0,0C-45.9,842.9-45.8,842.7-45.8,842.7z"/>
			</g>
			<g id="XMLID_324_">
				<path id="XMLID_124_" class="st19" d="M-49.3,840.6l0-0.2c-0.4,0.2-0.3,0.5-0.3,0.5C-49.6,840.7-49.3,840.6-49.3,840.6z"/>
				<path id="XMLID_122_" class="st19" d="M-33.6,833.1l0.1,0.1c0.1-0.1,0.3,0,0.4,0c0.4,1.9-2.7,5-6.8,7c-4.3,2.1-8.6,2.3-9.7,0.6
					c0,0.1,0,0.1,0.1,0.2c0.9,1.9,5.4,1.7,9.8-0.4c4.3-2.1,7.5-5.4,6.7-7.3c0,0,0,0,0,0c0,0,0,0,0-0.1c0,0,0,0,0,0c0,0,0,0,0,0
					c0,0,0,0,0-0.1c0,0,0,0,0-0.1c0,0,0,0,0,0C-33.3,832.9-33.6,833.1-33.6,833.1z"/>
			</g>
			<g id="XMLID_321_">
				<path id="XMLID_110_" class="st19" d="M-47.7,828.2l0.1-0.1c-0.4-0.2-0.7-0.1-0.7-0.1C-48.1,828-47.7,828.2-47.7,828.2z"/>
				<path id="XMLID_98_" class="st19" d="M-33.6,837.5l-0.1,0.1c0.1,0.1,0.2,0.2,0.2,0.3c-1.4,1.4-5.2,0.4-9.1-2
					c-4-2.5-6.5-6.1-5.7-7.9c0,0.1-0.1,0.1-0.1,0.1c-1.1,1.8,1.4,5.5,5.6,8.1c4.1,2.5,8.2,3.5,9.3,1.8c0,0,0,0,0,0c0,0,0,0,0-0.1
					c0,0,0,0,0,0c0,0,0,0,0,0c0,0,0,0,0-0.1c0,0,0,0,0-0.1c0,0,0,0,0,0C-33.3,837.6-33.6,837.5-33.6,837.5z"/>
			</g>
			<g id="XMLID_118_">
				<circle id="XMLID_96_" class="st19" cx="-43.4" cy="841.8" r="0.6"/>
				<circle id="XMLID_94_" class="st19" cx="-36.8" cy="838.6" r="0.6"/>
				<circle id="XMLID_88_" class="st19" cx="-40.6" cy="831.6" r="0.5"/>
				<circle id="XMLID_86_" class="st19" cx="-44" cy="835.2" r="0.5"/>
				<circle id="XMLID_83_" class="st19" cx="-48.2" cy="830.4" r="0.5"/>
				<circle id="XMLID_80_" class="st19" cx="-44.9" cy="829.1" r="0.5"/>
			</g>
		</g>
	</g>
	<line id="XMLID_79_" class="st49" x1="-61.4" y1="855.9" x2="-24.9" y2="855.9"/>
</g>
<g>
	<defs>
		<path id="SVGID_3_" d="M-528.8,638.8c0,0-49.4-50-118.6-50s-257.9,61.6-324.1,268.5c0,0-59.4,207.4,319.2,207.4
			C-288.7,1064.7-467.6,686.5-528.8,638.8"/>
	</defs>
	<clipPath id="SVGID_5_">
		<use xlink:href="#SVGID_3_"  style="overflow:visible;"/>
	</clipPath>
	<g style="clip-path:url(#SVGID_5_);">
		
			<image style="overflow:visible;" width="3872" height="2592" xlink:href="63933E5E.jpg"  transform="matrix(0.1887 0 0 0.1887 -1090.723 583.947)">
		</image>
	</g>
	<g style="clip-path:url(#SVGID_5_);">
		
			<image style="overflow:visible;" width="1868" height="2802" xlink:href="63933E59.jpg"  transform="matrix(0.3037 0 0 0.3037 -980.5962 285.7097)">
		</image>
	</g>
</g>
<g>
	<defs>
		<path id="SVGID_1_" d="M683.6,910.9c0,0,41.1-40.1,98.5-40.1s214.3,49.4,269.3,215.5c0,0,49.4,166.5-265.2,166.5
			C484.1,1252.7,632.7,949.2,683.6,910.9"/>
	</defs>
	<clipPath id="SVGID_6_">
		<use xlink:href="#SVGID_1_"  style="overflow:visible;"/>
	</clipPath>
	<g style="clip-path:url(#SVGID_6_);">
		
			<image style="overflow:visible;" width="1200" height="900" xlink:href="63933E5A.jpg"  transform="matrix(0.518 0 0 0.5004 441.9448 857.9963)">
		</image>
	</g>
</g>
<g>
	<defs>
		<path id="SVGID_4_" d="M-415.5,1321.8c0,0-20.9-39.8-5.2-75.8s98.2-116.9,246.5-93.2c0,0,147,27.4,60.9,224.4
			C-196,1566.5-398.8,1367.1-415.5,1321.8"/>
	</defs>
	<clipPath id="SVGID_9_">
		<use xlink:href="#SVGID_4_"  style="overflow:visible;"/>
	</clipPath>
	<g style="clip-path:url(#SVGID_9_);">
		
			<image style="overflow:visible;" width="1362" height="909" xlink:href="63933E58.jpg"  transform="matrix(0.3801 0 0 0.3801 -503.1557 1118.0985)">
		</image>
	</g>
</g>
<g>
	<defs>
		<path id="SVGID_2_" d="M-415.5,1321.8c0,0-23.5-112.2-7.8-148.2s-5.4-96.5,142.8-72.8c0,0,253.2,79.4,167.2,276.4
			C-196,1566.5-398.8,1367.1-415.5,1321.8"/>
	</defs>
	<clipPath id="SVGID_10_">
		<use xlink:href="#SVGID_2_"  style="overflow:visible;"/>
	</clipPath>
	<g style="clip-path:url(#SVGID_10_);">
		
			<image style="overflow:visible;" width="1362" height="909" xlink:href="63933E66.png"  transform="matrix(0.3801 0 0 0.3801 -503.1557 1118.0985)">
		</image>
	</g>
</g>
<g>
	<defs>
		<path id="SVGID_8_" d="M-29.7,239.7c0,0-50.4-48.9-119.6-47.5c-69.2,1.4-256.6,66.8-318.6,275.1c0,0-55.2,208.6,323.4,200.8
			C219.1,660.7,32.5,286.2-29.7,239.7"/>
	</defs>
	<clipPath id="SVGID_11_">
		<use xlink:href="#SVGID_8_"  style="overflow:visible;"/>
	</clipPath>
	<g transform="matrix(1 0 0 1 0 0)" style="clip-path:url(#SVGID_11_);">
		
			<image style="overflow:visible;" width="3872" height="2592" xlink:href="63933E66.jpg"  transform="matrix(0.1887 -3.864708e-03 3.864708e-03 0.1887 -592.5819 196.4403)">
		</image>
	</g>
	<g style="clip-path:url(#SVGID_11_);">
		
			<image style="overflow:visible;" width="4687" height="3125" xlink:href="63933E6A.jpg"  transform="matrix(0.1576 0 0 0.1576 -584.6906 185.0048)">
		</image>
	</g>
</g>
<g>
	<defs>
		<path id="SVGID_7_" d="M331.3,247.9c0,0-20.9-39.8-5.2-75.8s98.2-116.9,246.5-93.2c0,0,147,27.4,60.9,224.4
			C550.8,492.6,348.1,293.2,331.3,247.9"/>
	</defs>
	<clipPath id="SVGID_12_">
		<use xlink:href="#SVGID_7_"  style="overflow:visible;"/>
	</clipPath>
	<g transform="matrix(1 0 0 1 0 0)" style="clip-path:url(#SVGID_12_);">
		
			<image style="overflow:visible;" width="2000" height="1319" xlink:href="63933E69.jpg"  transform="matrix(0.2496 0 0 0.2496 261.3054 59.9495)">
		</image>
	</g>
</g>
<g>
	<path d="M-472.9,25L-472.9,25c-3.8-3.8-9.2-5.2-14.4-3.8c0,0-18.8,5-18.8,5c-10.2,2.7-35.9,7.8-31.2,19.3
		c4.9,12,20.7,25.5,32.6,30.2c17.6,6.9,27-5.4,30.9-18.2c0.1-0.3,0.2-0.5,0.2-0.8l0-0.1l0.1-0.2c0.2-0.9,0.5-1.8,0.7-2.6l3.6-14.4
		C-467.8,34.2-469.2,28.8-472.9,25z"/>
	<path class="st19" d="M-480.8,36.2l-4.6,18.2c-0.3,1.2-1.5,2.1-2.7,2.1c-1.3,0-2.4-1-2.6-2.3l-1.5-7.7c-0.1-0.5-0.3-1-0.7-1.4
		c-0.4-0.4-0.9-0.6-1.4-0.7l-7.7-1.5c-0.6-0.1-1.1-0.4-1.4-0.8c-0.5-0.5-0.8-1.1-0.8-1.8c0-1.3,0.8-2.4,2.1-2.7l18.2-4.7
		c0.9-0.2,1.9,0,2.6,0.7l0,0C-480.8,34.3-480.5,35.3-480.8,36.2z"/>
</g>
<g>
	<circle class="st50" cx="2.2" cy="3.7" r="2.2"/>
	<circle class="st50" cx="2.2" cy="14.7" r="2.2"/>
	<circle class="st50" cx="2.2" cy="25.7" r="2.2"/>
	<circle class="st50" cx="2.2" cy="36.7" r="2.2"/>
	<circle class="st50" cx="2.2" cy="47" r="2.2"/>
</g>
</svg>
